<?xml version="1.0" encoding="UTF-8"?>
<!DOCTYPE svg PUBLIC "-//W3C//DTD SVG 1.1//EN" "http://www.w3.org/Graphics/SVG/1.1/DTD/svg11.dtd">
<svg width="320mm" height="190mm" viewBox="0 0 32000 19000" version="1.1" baseProfile="tiny" xmlns="http://www.w3.org/2000/svg" stroke-width="28.222" stroke-linejoin="round" xml:space="preserve">
 <path fill="rgb(255,255,255)" stroke="none" d="M 16002,19006 L 0,19006 0,0 32003,0 32003,19006 16002,19006 Z"/>
 <path fill="none" stroke="rgb(179,179,179)" stroke-linejoin="round" d="M 13567,17979 L 1367,17979 1367,1900 25766,1900 25766,17979 13567,17979 Z"/>
 <path fill="none" stroke="rgb(179,179,179)" stroke-linejoin="round" d="M 25766,17978 L 1367,17978"/>
 <path fill="none" stroke="rgb(179,179,179)" stroke-linejoin="round" d="M 25766,15680 L 1367,15680"/>
 <path fill="none" stroke="rgb(179,179,179)" stroke-linejoin="round" d="M 25766,13383 L 1367,13383"/>
 <path fill="none" stroke="rgb(179,179,179)" stroke-linejoin="round" d="M 25766,11086 L 1367,11086"/>
 <path fill="none" stroke="rgb(179,179,179)" stroke-linejoin="round" d="M 25766,8790 L 1367,8790"/>
 <path fill="none" stroke="rgb(179,179,179)" stroke-linejoin="round" d="M 25766,6493 L 1367,6493"/>
 <path fill="none" stroke="rgb(179,179,179)" stroke-linejoin="round" d="M 25766,4196 L 1367,4196"/>
 <path fill="none" stroke="rgb(179,179,179)" stroke-linejoin="round" d="M 25766,1898 L 1367,1898"/>
 <path fill="none" stroke="rgb(179,179,179)" stroke-linejoin="round" d="M 1367,18128 L 1367,17978"/>
 <path fill="none" stroke="rgb(179,179,179)" stroke-linejoin="round" d="M 1367,18128 L 1367,17978"/>
 <path fill="none" stroke="rgb(179,179,179)" stroke-linejoin="round" d="M 4078,18128 L 4078,17978"/>
 <path fill="none" stroke="rgb(179,179,179)" stroke-linejoin="round" d="M 4078,18128 L 4078,17978"/>
 <path fill="none" stroke="rgb(179,179,179)" stroke-linejoin="round" d="M 6789,18128 L 6789,17978"/>
 <path fill="none" stroke="rgb(179,179,179)" stroke-linejoin="round" d="M 6789,18128 L 6789,17978"/>
 <path fill="none" stroke="rgb(179,179,179)" stroke-linejoin="round" d="M 9500,18128 L 9500,17978"/>
 <path fill="none" stroke="rgb(179,179,179)" stroke-linejoin="round" d="M 9500,18128 L 9500,17978"/>
 <path fill="none" stroke="rgb(179,179,179)" stroke-linejoin="round" d="M 12211,18128 L 12211,17978"/>
 <path fill="none" stroke="rgb(179,179,179)" stroke-linejoin="round" d="M 12211,18128 L 12211,17978"/>
 <path fill="none" stroke="rgb(179,179,179)" stroke-linejoin="round" d="M 14922,18128 L 14922,17978"/>
 <path fill="none" stroke="rgb(179,179,179)" stroke-linejoin="round" d="M 14922,18128 L 14922,17978"/>
 <path fill="none" stroke="rgb(179,179,179)" stroke-linejoin="round" d="M 17632,18128 L 17632,17978"/>
 <path fill="none" stroke="rgb(179,179,179)" stroke-linejoin="round" d="M 17632,18128 L 17632,17978"/>
 <path fill="none" stroke="rgb(179,179,179)" stroke-linejoin="round" d="M 20343,18128 L 20343,17978"/>
 <path fill="none" stroke="rgb(179,179,179)" stroke-linejoin="round" d="M 20343,18128 L 20343,17978"/>
 <path fill="none" stroke="rgb(179,179,179)" stroke-linejoin="round" d="M 23054,18128 L 23054,17978"/>
 <path fill="none" stroke="rgb(179,179,179)" stroke-linejoin="round" d="M 23054,18128 L 23054,17978"/>
 <path fill="none" stroke="rgb(179,179,179)" stroke-linejoin="round" d="M 25766,18128 L 25766,17978"/>
 <path fill="none" stroke="rgb(179,179,179)" stroke-linejoin="round" d="M 25766,18128 L 25766,17978"/>
 <path fill="none" stroke="rgb(179,179,179)" stroke-linejoin="round" d="M 1367,17978 L 25766,17978"/>
 <path fill="none" stroke="rgb(179,179,179)" stroke-linejoin="round" d="M 1217,17978 L 1367,17978"/>
 <path fill="none" stroke="rgb(179,179,179)" stroke-linejoin="round" d="M 1217,17978 L 1367,17978"/>
 <path fill="none" stroke="rgb(179,179,179)" stroke-linejoin="round" d="M 1217,15680 L 1367,15680"/>
 <path fill="none" stroke="rgb(179,179,179)" stroke-linejoin="round" d="M 1217,15680 L 1367,15680"/>
 <path fill="none" stroke="rgb(179,179,179)" stroke-linejoin="round" d="M 1217,13383 L 1367,13383"/>
 <path fill="none" stroke="rgb(179,179,179)" stroke-linejoin="round" d="M 1217,13383 L 1367,13383"/>
 <path fill="none" stroke="rgb(179,179,179)" stroke-linejoin="round" d="M 1217,11086 L 1367,11086"/>
 <path fill="none" stroke="rgb(179,179,179)" stroke-linejoin="round" d="M 1217,11086 L 1367,11086"/>
 <path fill="none" stroke="rgb(179,179,179)" stroke-linejoin="round" d="M 1217,8790 L 1367,8790"/>
 <path fill="none" stroke="rgb(179,179,179)" stroke-linejoin="round" d="M 1217,8790 L 1367,8790"/>
 <path fill="none" stroke="rgb(179,179,179)" stroke-linejoin="round" d="M 1217,6493 L 1367,6493"/>
 <path fill="none" stroke="rgb(179,179,179)" stroke-linejoin="round" d="M 1217,6493 L 1367,6493"/>
 <path fill="none" stroke="rgb(179,179,179)" stroke-linejoin="round" d="M 1217,4196 L 1367,4196"/>
 <path fill="none" stroke="rgb(179,179,179)" stroke-linejoin="round" d="M 1217,4196 L 1367,4196"/>
 <path fill="none" stroke="rgb(179,179,179)" stroke-linejoin="round" d="M 1217,1898 L 1367,1898"/>
 <path fill="none" stroke="rgb(179,179,179)" stroke-linejoin="round" d="M 1217,1898 L 1367,1898"/>
 <path fill="none" stroke="rgb(179,179,179)" stroke-linejoin="round" d="M 1367,17978 L 1367,1898"/>
 <path fill="none" stroke="rgb(179,179,179)" stroke-linejoin="round" d="M 25916,17978 L 25766,17978"/>
 <path fill="none" stroke="rgb(179,179,179)" stroke-linejoin="round" d="M 25916,17978 L 25766,17978"/>
 <path fill="none" stroke="rgb(179,179,179)" stroke-linejoin="round" d="M 25916,16191 L 25766,16191"/>
 <path fill="none" stroke="rgb(179,179,179)" stroke-linejoin="round" d="M 25916,16191 L 25766,16191"/>
 <path fill="none" stroke="rgb(179,179,179)" stroke-linejoin="round" d="M 25916,14404 L 25766,14404"/>
 <path fill="none" stroke="rgb(179,179,179)" stroke-linejoin="round" d="M 25916,14404 L 25766,14404"/>
 <path fill="none" stroke="rgb(179,179,179)" stroke-linejoin="round" d="M 25916,12618 L 25766,12618"/>
 <path fill="none" stroke="rgb(179,179,179)" stroke-linejoin="round" d="M 25916,12618 L 25766,12618"/>
 <path fill="none" stroke="rgb(179,179,179)" stroke-linejoin="round" d="M 25916,10831 L 25766,10831"/>
 <path fill="none" stroke="rgb(179,179,179)" stroke-linejoin="round" d="M 25916,10831 L 25766,10831"/>
 <path fill="none" stroke="rgb(179,179,179)" stroke-linejoin="round" d="M 25916,9045 L 25766,9045"/>
 <path fill="none" stroke="rgb(179,179,179)" stroke-linejoin="round" d="M 25916,9045 L 25766,9045"/>
 <path fill="none" stroke="rgb(179,179,179)" stroke-linejoin="round" d="M 25916,7259 L 25766,7259"/>
 <path fill="none" stroke="rgb(179,179,179)" stroke-linejoin="round" d="M 25916,7259 L 25766,7259"/>
 <path fill="none" stroke="rgb(179,179,179)" stroke-linejoin="round" d="M 25916,5472 L 25766,5472"/>
 <path fill="none" stroke="rgb(179,179,179)" stroke-linejoin="round" d="M 25916,5472 L 25766,5472"/>
 <path fill="none" stroke="rgb(179,179,179)" stroke-linejoin="round" d="M 25916,3685 L 25766,3685"/>
 <path fill="none" stroke="rgb(179,179,179)" stroke-linejoin="round" d="M 25916,3685 L 25766,3685"/>
 <path fill="none" stroke="rgb(179,179,179)" stroke-linejoin="round" d="M 25916,1899 L 25766,1899"/>
 <path fill="none" stroke="rgb(179,179,179)" stroke-linejoin="round" d="M 25916,1899 L 25766,1899"/>
 <path fill="none" stroke="rgb(179,179,179)" stroke-linejoin="round" d="M 25766,17978 L 25766,1899"/>
 <path fill="none" stroke="rgb(255,0,0)" stroke-width="80" stroke-linejoin="round" stroke-dasharray="80,40" d="M 1367,11913 L 4078,4816 6789,7848 9500,6677 12211,8997 14922,10810 17632,7595 20343,5206 23054,12993 25766,8836"/>
 <path fill="rgb(255,0,0)" stroke="none" d="M 1242,11788 L 1242,12038 1492,12038 1492,11788 1242,11788 Z"/>
 <path fill="none" stroke="rgb(255,0,0)" stroke-linejoin="round" d="M 1242,11788 L 1242,12038 1492,12038 1492,11788 1242,11788 Z"/>
 <path fill="rgb(255,0,0)" stroke="none" d="M 3953,4691 L 3953,4941 4203,4941 4203,4691 3953,4691 Z"/>
 <path fill="none" stroke="rgb(255,0,0)" stroke-linejoin="round" d="M 3953,4691 L 3953,4941 4203,4941 4203,4691 3953,4691 Z"/>
 <path fill="rgb(255,0,0)" stroke="none" d="M 6664,7723 L 6664,7973 6914,7973 6914,7723 6664,7723 Z"/>
 <path fill="none" stroke="rgb(255,0,0)" stroke-linejoin="round" d="M 6664,7723 L 6664,7973 6914,7973 6914,7723 6664,7723 Z"/>
 <path fill="rgb(255,0,0)" stroke="none" d="M 9375,6552 L 9375,6802 9625,6802 9625,6552 9375,6552 Z"/>
 <path fill="none" stroke="rgb(255,0,0)" stroke-linejoin="round" d="M 9375,6552 L 9375,6802 9625,6802 9625,6552 9375,6552 Z"/>
 <path fill="rgb(255,0,0)" stroke="none" d="M 12086,8872 L 12086,9122 12336,9122 12336,8872 12086,8872 Z"/>
 <path fill="none" stroke="rgb(255,0,0)" stroke-linejoin="round" d="M 12086,8872 L 12086,9122 12336,9122 12336,8872 12086,8872 Z"/>
 <path fill="rgb(255,0,0)" stroke="none" d="M 14797,10685 L 14797,10935 15047,10935 15047,10685 14797,10685 Z"/>
 <path fill="none" stroke="rgb(255,0,0)" stroke-linejoin="round" d="M 14797,10685 L 14797,10935 15047,10935 15047,10685 14797,10685 Z"/>
 <path fill="rgb(255,0,0)" stroke="none" d="M 17507,7470 L 17507,7720 17757,7720 17757,7470 17507,7470 Z"/>
 <path fill="none" stroke="rgb(255,0,0)" stroke-linejoin="round" d="M 17507,7470 L 17507,7720 17757,7720 17757,7470 17507,7470 Z"/>
 <path fill="rgb(255,0,0)" stroke="none" d="M 20218,5081 L 20218,5331 20468,5331 20468,5081 20218,5081 Z"/>
 <path fill="none" stroke="rgb(255,0,0)" stroke-linejoin="round" d="M 20218,5081 L 20218,5331 20468,5331 20468,5081 20218,5081 Z"/>
 <path fill="rgb(255,0,0)" stroke="none" d="M 22929,12868 L 22929,13118 23179,13118 23179,12868 22929,12868 Z"/>
 <path fill="none" stroke="rgb(255,0,0)" stroke-linejoin="round" d="M 22929,12868 L 22929,13118 23179,13118 23179,12868 22929,12868 Z"/>
 <path fill="rgb(255,0,0)" stroke="none" d="M 25641,8711 L 25641,8961 25891,8961 25891,8711 25641,8711 Z"/>
 <path fill="none" stroke="rgb(255,0,0)" stroke-linejoin="round" d="M 25641,8711 L 25641,8961 25891,8961 25891,8711 25641,8711 Z"/>
 <path fill="none" stroke="rgb(255,0,0)" stroke-width="80" stroke-linejoin="round" d="M 1367,12171 L 4078,13966 6789,9018 9500,12430 12211,15092 14922,16879 17632,13064 20343,13538 23054,8188 25766,4632"/>
 <path fill="rgb(255,0,0)" stroke="none" d="M 1242,12171 L 1367,12296 1492,12171 1367,12046 1242,12171 Z"/>
 <path fill="none" stroke="rgb(255,0,0)" stroke-linejoin="round" d="M 1242,12171 L 1367,12296 1492,12171 1367,12046 1242,12171 Z"/>
 <path fill="rgb(255,0,0)" stroke="none" d="M 3953,13966 L 4078,14091 4203,13966 4078,13841 3953,13966 Z"/>
 <path fill="none" stroke="rgb(255,0,0)" stroke-linejoin="round" d="M 3953,13966 L 4078,14091 4203,13966 4078,13841 3953,13966 Z"/>
 <path fill="rgb(255,0,0)" stroke="none" d="M 6664,9018 L 6789,9143 6914,9018 6789,8893 6664,9018 Z"/>
 <path fill="none" stroke="rgb(255,0,0)" stroke-linejoin="round" d="M 6664,9018 L 6789,9143 6914,9018 6789,8893 6664,9018 Z"/>
 <path fill="rgb(255,0,0)" stroke="none" d="M 9375,12430 L 9500,12555 9625,12430 9500,12305 9375,12430 Z"/>
 <path fill="none" stroke="rgb(255,0,0)" stroke-linejoin="round" d="M 9375,12430 L 9500,12555 9625,12430 9500,12305 9375,12430 Z"/>
 <path fill="rgb(255,0,0)" stroke="none" d="M 12086,15092 L 12211,15217 12336,15092 12211,14967 12086,15092 Z"/>
 <path fill="none" stroke="rgb(255,0,0)" stroke-linejoin="round" d="M 12086,15092 L 12211,15217 12336,15092 12211,14967 12086,15092 Z"/>
 <path fill="rgb(255,0,0)" stroke="none" d="M 14797,16879 L 14922,17004 15047,16879 14922,16754 14797,16879 Z"/>
 <path fill="none" stroke="rgb(255,0,0)" stroke-linejoin="round" d="M 14797,16879 L 14922,17004 15047,16879 14922,16754 14797,16879 Z"/>
 <path fill="rgb(255,0,0)" stroke="none" d="M 17507,13064 L 17632,13189 17757,13064 17632,12939 17507,13064 Z"/>
 <path fill="none" stroke="rgb(255,0,0)" stroke-linejoin="round" d="M 17507,13064 L 17632,13189 17757,13064 17632,12939 17507,13064 Z"/>
 <path fill="rgb(255,0,0)" stroke="none" d="M 20218,13538 L 20343,13663 20468,13538 20343,13413 20218,13538 Z"/>
 <path fill="none" stroke="rgb(255,0,0)" stroke-linejoin="round" d="M 20218,13538 L 20343,13663 20468,13538 20343,13413 20218,13538 Z"/>
 <path fill="rgb(255,0,0)" stroke="none" d="M 22929,8188 L 23054,8313 23179,8188 23054,8063 22929,8188 Z"/>
 <path fill="none" stroke="rgb(255,0,0)" stroke-linejoin="round" d="M 22929,8188 L 23054,8313 23179,8188 23054,8063 22929,8188 Z"/>
 <path fill="rgb(255,0,0)" stroke="none" d="M 25641,4632 L 25766,4757 25891,4632 25766,4507 25641,4632 Z"/>
 <path fill="none" stroke="rgb(255,0,0)" stroke-linejoin="round" d="M 25641,4632 L 25766,4757 25891,4632 25766,4507 25641,4632 Z"/>
 <path fill="none" stroke="rgb(0,153,51)" stroke-width="80" stroke-linejoin="round" stroke-dasharray="80,40" d="M 1367,7917 L 4078,7733 6789,7917 9500,7963 12211,6723 14922,7412 17632,7802 20343,7710 23054,7871 25766,7940"/>
 <path fill="rgb(0,153,51)" stroke="none" d="M 1242,7792 L 1367,8042 1492,7792 1242,7792 Z"/>
 <path fill="none" stroke="rgb(0,153,51)" stroke-linejoin="round" d="M 1242,7792 L 1367,8042 1492,7792 1242,7792 Z"/>
 <path fill="rgb(0,153,51)" stroke="none" d="M 3953,7608 L 4078,7858 4203,7608 3953,7608 Z"/>
 <path fill="none" stroke="rgb(0,153,51)" stroke-linejoin="round" d="M 3953,7608 L 4078,7858 4203,7608 3953,7608 Z"/>
 <path fill="rgb(0,153,51)" stroke="none" d="M 6664,7792 L 6789,8042 6914,7792 6664,7792 Z"/>
 <path fill="none" stroke="rgb(0,153,51)" stroke-linejoin="round" d="M 6664,7792 L 6789,8042 6914,7792 6664,7792 Z"/>
 <path fill="rgb(0,153,51)" stroke="none" d="M 9375,7838 L 9500,8088 9625,7838 9375,7838 Z"/>
 <path fill="none" stroke="rgb(0,153,51)" stroke-linejoin="round" d="M 9375,7838 L 9500,8088 9625,7838 9375,7838 Z"/>
 <path fill="rgb(0,153,51)" stroke="none" d="M 12086,6598 L 12211,6848 12336,6598 12086,6598 Z"/>
 <path fill="none" stroke="rgb(0,153,51)" stroke-linejoin="round" d="M 12086,6598 L 12211,6848 12336,6598 12086,6598 Z"/>
 <path fill="rgb(0,153,51)" stroke="none" d="M 14797,7287 L 14922,7537 15047,7287 14797,7287 Z"/>
 <path fill="none" stroke="rgb(0,153,51)" stroke-linejoin="round" d="M 14797,7287 L 14922,7537 15047,7287 14797,7287 Z"/>
 <path fill="rgb(0,153,51)" stroke="none" d="M 17507,7677 L 17632,7927 17757,7677 17507,7677 Z"/>
 <path fill="none" stroke="rgb(0,153,51)" stroke-linejoin="round" d="M 17507,7677 L 17632,7927 17757,7677 17507,7677 Z"/>
 <path fill="rgb(0,153,51)" stroke="none" d="M 20218,7585 L 20343,7835 20468,7585 20218,7585 Z"/>
 <path fill="none" stroke="rgb(0,153,51)" stroke-linejoin="round" d="M 20218,7585 L 20343,7835 20468,7585 20218,7585 Z"/>
 <path fill="rgb(0,153,51)" stroke="none" d="M 22929,7746 L 23054,7996 23179,7746 22929,7746 Z"/>
 <path fill="none" stroke="rgb(0,153,51)" stroke-linejoin="round" d="M 22929,7746 L 23054,7996 23179,7746 22929,7746 Z"/>
 <path fill="rgb(0,153,51)" stroke="none" d="M 25641,7815 L 25766,8065 25891,7815 25641,7815 Z"/>
 <path fill="none" stroke="rgb(0,153,51)" stroke-linejoin="round" d="M 25641,7815 L 25766,8065 25891,7815 25641,7815 Z"/>
 <path fill="none" stroke="rgb(51,153,102)" stroke-width="80" stroke-linejoin="round" d="M 1367,8036 L 4078,10000 6789,9152 9500,9607 12211,12287 14922,11831 17632,9678 20343,10375 23054,9465 25766,9206"/>
 <path fill="rgb(51,153,102)" stroke="none" d="M 1242,8161 L 1492,8161 1367,7911 1242,8161 Z"/>
 <path fill="none" stroke="rgb(51,153,102)" stroke-linejoin="round" d="M 1242,8161 L 1492,8161 1367,7911 1242,8161 Z"/>
 <path fill="rgb(51,153,102)" stroke="none" d="M 3953,10125 L 4203,10125 4078,9875 3953,10125 Z"/>
 <path fill="none" stroke="rgb(51,153,102)" stroke-linejoin="round" d="M 3953,10125 L 4203,10125 4078,9875 3953,10125 Z"/>
 <path fill="rgb(51,153,102)" stroke="none" d="M 6664,9277 L 6914,9277 6789,9027 6664,9277 Z"/>
 <path fill="none" stroke="rgb(51,153,102)" stroke-linejoin="round" d="M 6664,9277 L 6914,9277 6789,9027 6664,9277 Z"/>
 <path fill="rgb(51,153,102)" stroke="none" d="M 9375,9732 L 9625,9732 9500,9483 9375,9732 Z"/>
 <path fill="none" stroke="rgb(51,153,102)" stroke-linejoin="round" d="M 9375,9732 L 9625,9732 9500,9483 9375,9732 Z"/>
 <path fill="rgb(51,153,102)" stroke="none" d="M 12086,12412 L 12336,12412 12211,12162 12086,12412 Z"/>
 <path fill="none" stroke="rgb(51,153,102)" stroke-linejoin="round" d="M 12086,12412 L 12336,12412 12211,12162 12086,12412 Z"/>
 <path fill="rgb(51,153,102)" stroke="none" d="M 14797,11956 L 15047,11956 14922,11706 14797,11956 Z"/>
 <path fill="none" stroke="rgb(51,153,102)" stroke-linejoin="round" d="M 14797,11956 L 15047,11956 14922,11706 14797,11956 Z"/>
 <path fill="rgb(51,153,102)" stroke="none" d="M 17507,9803 L 17757,9803 17632,9553 17507,9803 Z"/>
 <path fill="none" stroke="rgb(51,153,102)" stroke-linejoin="round" d="M 17507,9803 L 17757,9803 17632,9553 17507,9803 Z"/>
 <path fill="rgb(51,153,102)" stroke="none" d="M 20218,10500 L 20468,10500 20343,10250 20218,10500 Z"/>
 <path fill="none" stroke="rgb(51,153,102)" stroke-linejoin="round" d="M 20218,10500 L 20468,10500 20343,10250 20218,10500 Z"/>
 <path fill="rgb(51,153,102)" stroke="none" d="M 22929,9589 L 23179,9589 23054,9340 22929,9589 Z"/>
 <path fill="none" stroke="rgb(51,153,102)" stroke-linejoin="round" d="M 22929,9589 L 23179,9589 23054,9340 22929,9589 Z"/>
 <path fill="rgb(51,153,102)" stroke="none" d="M 25641,9331 L 25891,9331 25766,9081 25641,9331 Z"/>
 <path fill="none" stroke="rgb(51,153,102)" stroke-linejoin="round" d="M 25641,9331 L 25891,9331 25766,9081 25641,9331 Z"/>
 <path fill="none" stroke="rgb(255,204,255)" stroke-width="80" stroke-linejoin="round" stroke-dasharray="80,40" d="M 1367,11844 L 4078,7618 6789,8078 9500,6401 12211,9570 14922,3162 17632,7940 20343,5873 23054,12947 25766,8974"/>
 <path fill="rgb(255,204,255)" stroke="none" d="M 1242,11719 L 1242,11969 1492,11844 1242,11719 Z"/>
 <path fill="none" stroke="rgb(255,204,255)" stroke-linejoin="round" d="M 1242,11719 L 1242,11969 1492,11844 1242,11719 Z"/>
 <path fill="rgb(255,204,255)" stroke="none" d="M 3953,7493 L 3953,7743 4203,7618 3953,7493 Z"/>
 <path fill="none" stroke="rgb(255,204,255)" stroke-linejoin="round" d="M 3953,7493 L 3953,7743 4203,7618 3953,7493 Z"/>
 <path fill="rgb(255,204,255)" stroke="none" d="M 6664,7953 L 6664,8203 6914,8078 6664,7953 Z"/>
 <path fill="none" stroke="rgb(255,204,255)" stroke-linejoin="round" d="M 6664,7953 L 6664,8203 6914,8078 6664,7953 Z"/>
 <path fill="rgb(255,204,255)" stroke="none" d="M 9375,6276 L 9375,6526 9625,6401 9375,6276 Z"/>
 <path fill="none" stroke="rgb(255,204,255)" stroke-linejoin="round" d="M 9375,6276 L 9375,6526 9625,6401 9375,6276 Z"/>
 <path fill="rgb(255,204,255)" stroke="none" d="M 12086,9446 L 12086,9695 12336,9570 12086,9446 Z"/>
 <path fill="none" stroke="rgb(255,204,255)" stroke-linejoin="round" d="M 12086,9446 L 12086,9695 12336,9570 12086,9446 Z"/>
 <path fill="rgb(255,204,255)" stroke="none" d="M 14797,3037 L 14797,3287 15047,3162 14797,3037 Z"/>
 <path fill="none" stroke="rgb(255,204,255)" stroke-linejoin="round" d="M 14797,3037 L 14797,3287 15047,3162 14797,3037 Z"/>
 <path fill="rgb(255,204,255)" stroke="none" d="M 17507,7815 L 17507,8065 17757,7940 17507,7815 Z"/>
 <path fill="none" stroke="rgb(255,204,255)" stroke-linejoin="round" d="M 17507,7815 L 17507,8065 17757,7940 17507,7815 Z"/>
 <path fill="rgb(255,204,255)" stroke="none" d="M 20218,5748 L 20218,5998 20468,5873 20218,5748 Z"/>
 <path fill="none" stroke="rgb(255,204,255)" stroke-linejoin="round" d="M 20218,5748 L 20218,5998 20468,5873 20218,5748 Z"/>
 <path fill="rgb(255,204,255)" stroke="none" d="M 22929,12822 L 22929,13072 23179,12947 22929,12822 Z"/>
 <path fill="none" stroke="rgb(255,204,255)" stroke-linejoin="round" d="M 22929,12822 L 22929,13072 23179,12947 22929,12822 Z"/>
 <path fill="rgb(255,204,255)" stroke="none" d="M 25641,8849 L 25641,9099 25891,8974 25641,8849 Z"/>
 <path fill="none" stroke="rgb(255,204,255)" stroke-linejoin="round" d="M 25641,8849 L 25641,9099 25891,8974 25641,8849 Z"/>
 <path fill="none" stroke="rgb(255,204,255)" stroke-width="80" stroke-linejoin="round" d="M 1367,13448 L 4078,14074 6789,9394 9500,12501 12211,14967 14922,16441 17632,11814 20343,13591 23054,7205 25766,3667"/>
 <path fill="rgb(255,204,255)" stroke="none" d="M 1242,13448 L 1492,13573 1492,13323 1242,13448 Z"/>
 <path fill="none" stroke="rgb(255,204,255)" stroke-linejoin="round" d="M 1242,13448 L 1492,13573 1492,13323 1242,13448 Z"/>
 <path fill="rgb(255,204,255)" stroke="none" d="M 3953,14074 L 4203,14199 4203,13949 3953,14074 Z"/>
 <path fill="none" stroke="rgb(255,204,255)" stroke-linejoin="round" d="M 3953,14074 L 4203,14199 4203,13949 3953,14074 Z"/>
 <path fill="rgb(255,204,255)" stroke="none" d="M 6664,9394 L 6914,9518 6914,9269 6664,9394 Z"/>
 <path fill="none" stroke="rgb(255,204,255)" stroke-linejoin="round" d="M 6664,9394 L 6914,9518 6914,9269 6664,9394 Z"/>
 <path fill="rgb(255,204,255)" stroke="none" d="M 9375,12501 L 9625,12626 9625,12376 9375,12501 Z"/>
 <path fill="none" stroke="rgb(255,204,255)" stroke-linejoin="round" d="M 9375,12501 L 9625,12626 9625,12376 9375,12501 Z"/>
 <path fill="rgb(255,204,255)" stroke="none" d="M 12086,14967 L 12336,15092 12336,14842 12086,14967 Z"/>
 <path fill="none" stroke="rgb(255,204,255)" stroke-linejoin="round" d="M 12086,14967 L 12336,15092 12336,14842 12086,14967 Z"/>
 <path fill="rgb(255,204,255)" stroke="none" d="M 14797,16441 L 15047,16566 15047,16316 14797,16441 Z"/>
 <path fill="none" stroke="rgb(255,204,255)" stroke-linejoin="round" d="M 14797,16441 L 15047,16566 15047,16316 14797,16441 Z"/>
 <path fill="rgb(255,204,255)" stroke="none" d="M 17507,11814 L 17757,11939 17757,11689 17507,11814 Z"/>
 <path fill="none" stroke="rgb(255,204,255)" stroke-linejoin="round" d="M 17507,11814 L 17757,11939 17757,11689 17507,11814 Z"/>
 <path fill="rgb(255,204,255)" stroke="none" d="M 20218,13591 L 20468,13716 20468,13466 20218,13591 Z"/>
 <path fill="none" stroke="rgb(255,204,255)" stroke-linejoin="round" d="M 20218,13591 L 20468,13716 20468,13466 20218,13591 Z"/>
 <path fill="rgb(255,204,255)" stroke="none" d="M 22929,7205 L 23179,7330 23179,7080 22929,7205 Z"/>
 <path fill="none" stroke="rgb(255,204,255)" stroke-linejoin="round" d="M 22929,7205 L 23179,7330 23179,7080 22929,7205 Z"/>
 <path fill="rgb(255,204,255)" stroke="none" d="M 25641,3667 L 25891,3792 25891,3542 25641,3667 Z"/>
 <path fill="none" stroke="rgb(255,204,255)" stroke-linejoin="round" d="M 25641,3667 L 25891,3792 25891,3542 25641,3667 Z"/>
 <path fill="none" stroke="rgb(0,0,0)" stroke-width="30" stroke-linejoin="round" stroke-dasharray="30,15" d="M 1367,7848 L 4078,7848 6789,7848 9500,7848 12211,7848 14922,7848 17632,7848 20343,7848 23054,7848 25766,7848"/>
 <path fill="none" stroke="rgb(0,0,0)" stroke-width="30" stroke-linejoin="round" d="M 1367,9018 L 4078,9018 6789,9018 9500,9018 12211,9018 14922,9018 17632,9018 20343,9018 23054,9018 25766,9018"/>
 <text class="TextShape"><tspan class="TextParagraph" font-family="Liberation Sans" font-size="353px" font-weight="400"><tspan class="TextPosition" x="1129" y="18546"><tspan fill="rgb(0,0,0)" stroke="none">src</tspan></tspan></tspan></text>
 <text class="TextShape"><tspan class="TextParagraph" font-family="Liberation Sans" font-size="353px" font-weight="400"><tspan class="TextPosition" x="3496" y="18546"><tspan fill="rgb(0,0,0)" stroke="none">wdev_0</tspan></tspan></tspan></text>
 <text class="TextShape"><tspan class="TextParagraph" font-family="Liberation Sans" font-size="353px" font-weight="400"><tspan class="TextPosition" x="6365" y="18546"><tspan fill="rgb(0,0,0)" stroke="none">hm_0</tspan></tspan></tspan></text>
 <text class="TextShape"><tspan class="TextParagraph" font-family="Liberation Sans" font-size="353px" font-weight="400"><tspan class="TextPosition" x="8984" y="18546"><tspan fill="rgb(0,0,0)" stroke="none">mds_0</tspan></tspan></tspan></text>
 <text class="TextShape"><tspan class="TextParagraph" font-family="Liberation Sans" font-size="353px" font-weight="400"><tspan class="TextPosition" x="11787" y="18546"><tspan fill="rgb(0,0,0)" stroke="none">prn_0</tspan></tspan></tspan></text>
 <text class="TextShape"><tspan class="TextParagraph" font-family="Liberation Sans" font-size="353px" font-weight="400"><tspan class="TextPosition" x="14353" y="18546"><tspan fill="rgb(0,0,0)" stroke="none">rsrch_0</tspan></tspan></tspan></text>
 <text class="TextShape"><tspan class="TextParagraph" font-family="Liberation Sans" font-size="353px" font-weight="400"><tspan class="TextPosition" x="17209" y="18546"><tspan fill="rgb(0,0,0)" stroke="none">stg_0</tspan></tspan></tspan></text>
 <text class="TextShape"><tspan class="TextParagraph" font-family="Liberation Sans" font-size="353px" font-weight="400"><tspan class="TextPosition" x="20013" y="18546"><tspan fill="rgb(0,0,0)" stroke="none">ts_0</tspan></tspan></tspan></text>
 <text class="TextShape"><tspan class="TextParagraph" font-family="Liberation Sans" font-size="353px" font-weight="400"><tspan class="TextPosition" x="22631" y="18546"><tspan fill="rgb(0,0,0)" stroke="none">usr_0</tspan></tspan></tspan></text>
 <text class="TextShape"><tspan class="TextParagraph" font-family="Liberation Sans" font-size="353px" font-weight="400"><tspan class="TextPosition" x="25277" y="18546"><tspan fill="rgb(0,0,0)" stroke="none">web_0</tspan></tspan></tspan></text>
 <text class="TextShape"><tspan class="TextParagraph" font-family="Liberation Sans" font-size="353px" font-weight="400"><tspan class="TextPosition" x="932" y="18099"><tspan fill="rgb(0,0,0)" stroke="none">0</tspan></tspan></tspan></text>
 <text class="TextShape"><tspan class="TextParagraph" font-family="Liberation Sans" font-size="353px" font-weight="400"><tspan class="TextPosition" x="641" y="15801"><tspan fill="rgb(0,0,0)" stroke="none">0.1</tspan></tspan></tspan></text>
 <text class="TextShape"><tspan class="TextParagraph" font-family="Liberation Sans" font-size="353px" font-weight="400"><tspan class="TextPosition" x="641" y="13504"><tspan fill="rgb(0,0,0)" stroke="none">0.2</tspan></tspan></tspan></text>
 <text class="TextShape"><tspan class="TextParagraph" font-family="Liberation Sans" font-size="353px" font-weight="400"><tspan class="TextPosition" x="641" y="11207"><tspan fill="rgb(0,0,0)" stroke="none">0.3</tspan></tspan></tspan></text>
 <text class="TextShape"><tspan class="TextParagraph" font-family="Liberation Sans" font-size="353px" font-weight="400"><tspan class="TextPosition" x="641" y="8910"><tspan fill="rgb(0,0,0)" stroke="none">0.4</tspan></tspan></tspan></text>
 <text class="TextShape"><tspan class="TextParagraph" font-family="Liberation Sans" font-size="353px" font-weight="400"><tspan class="TextPosition" x="641" y="6613"><tspan fill="rgb(0,0,0)" stroke="none">0.5</tspan></tspan></tspan></text>
 <text class="TextShape"><tspan class="TextParagraph" font-family="Liberation Sans" font-size="353px" font-weight="400"><tspan class="TextPosition" x="641" y="4316"><tspan fill="rgb(0,0,0)" stroke="none">0.6</tspan></tspan></tspan></text>
 <text class="TextShape"><tspan class="TextParagraph" font-family="Liberation Sans" font-size="353px" font-weight="400"><tspan class="TextPosition" x="641" y="2018"><tspan fill="rgb(0,0,0)" stroke="none">0.7</tspan></tspan></tspan></text>
 <text class="TextShape"><tspan class="TextParagraph" font-family="Liberation Sans" font-size="353px" font-weight="400"><tspan class="TextPosition" x="26016" y="18099"><tspan fill="rgb(0,0,0)" stroke="none">0</tspan></tspan></tspan></text>
 <text class="TextShape"><tspan class="TextParagraph" font-family="Liberation Sans" font-size="353px" font-weight="400"><tspan class="TextPosition" x="26016" y="16312"><tspan fill="rgb(0,0,0)" stroke="none">2</tspan></tspan></tspan></text>
 <text class="TextShape"><tspan class="TextParagraph" font-family="Liberation Sans" font-size="353px" font-weight="400"><tspan class="TextPosition" x="26016" y="14525"><tspan fill="rgb(0,0,0)" stroke="none">4</tspan></tspan></tspan></text>
 <text class="TextShape"><tspan class="TextParagraph" font-family="Liberation Sans" font-size="353px" font-weight="400"><tspan class="TextPosition" x="26016" y="12739"><tspan fill="rgb(0,0,0)" stroke="none">6</tspan></tspan></tspan></text>
 <text class="TextShape"><tspan class="TextParagraph" font-family="Liberation Sans" font-size="353px" font-weight="400"><tspan class="TextPosition" x="26016" y="10952"><tspan fill="rgb(0,0,0)" stroke="none">8</tspan></tspan></tspan></text>
 <text class="TextShape"><tspan class="TextParagraph" font-family="Liberation Sans" font-size="353px" font-weight="400"><tspan class="TextPosition" x="26016" y="9165"><tspan fill="rgb(0,0,0)" stroke="none">10</tspan></tspan></tspan></text>
 <text class="TextShape"><tspan class="TextParagraph" font-family="Liberation Sans" font-size="353px" font-weight="400"><tspan class="TextPosition" x="26016" y="7379"><tspan fill="rgb(0,0,0)" stroke="none">12</tspan></tspan></tspan></text>
 <text class="TextShape"><tspan class="TextParagraph" font-family="Liberation Sans" font-size="353px" font-weight="400"><tspan class="TextPosition" x="26016" y="5592"><tspan fill="rgb(0,0,0)" stroke="none">14</tspan></tspan></tspan></text>
 <text class="TextShape"><tspan class="TextParagraph" font-family="Liberation Sans" font-size="353px" font-weight="400"><tspan class="TextPosition" x="26016" y="3805"><tspan fill="rgb(0,0,0)" stroke="none">16</tspan></tspan></tspan></text>
 <text class="TextShape"><tspan class="TextParagraph" font-family="Liberation Sans" font-size="353px" font-weight="400"><tspan class="TextPosition" x="26016" y="2019"><tspan fill="rgb(0,0,0)" stroke="none">18</tspan></tspan></tspan></text>
 <text class="TextShape"><tspan class="TextParagraph" font-family="Liberation Sans" font-size="459px" font-weight="400"><tspan class="TextPosition" x="15697" y="1077"><tspan fill="rgb(0,0,0)" stroke="none">hm</tspan></tspan></tspan></text>
 <path fill="none" stroke="rgb(255,0,0)" stroke-width="80" stroke-linejoin="round" stroke-dasharray="80,40" d="M 27144,7759 L 28744,7759"/>
 <path fill="rgb(255,0,0)" stroke="none" d="M 27838,7654 L 27838,7864 28049,7864 28049,7654 27838,7654 Z"/>
 <path fill="none" stroke="rgb(255,0,0)" stroke-linejoin="round" d="M 27838,7654 L 27838,7864 28049,7864 28049,7654 27838,7654 Z"/>
 <path fill="none" stroke="rgb(255,0,0)" stroke-width="80" stroke-linejoin="round" d="M 27144,8257 L 28744,8257"/>
 <path fill="rgb(255,0,0)" stroke="none" d="M 27838,8257 L 27944,8362 28049,8257 27944,8152 27838,8257 Z"/>
 <path fill="none" stroke="rgb(255,0,0)" stroke-linejoin="round" d="M 27838,8257 L 27944,8362 28049,8257 27944,8152 27838,8257 Z"/>
 <path fill="none" stroke="rgb(0,153,51)" stroke-width="80" stroke-linejoin="round" stroke-dasharray="80,40" d="M 27144,8755 L 28744,8755"/>
 <path fill="rgb(0,153,51)" stroke="none" d="M 27838,8650 L 27944,8860 28049,8650 27838,8650 Z"/>
 <path fill="none" stroke="rgb(0,153,51)" stroke-linejoin="round" d="M 27838,8650 L 27944,8860 28049,8650 27838,8650 Z"/>
 <path fill="none" stroke="rgb(51,153,102)" stroke-width="80" stroke-linejoin="round" d="M 27144,9253 L 28744,9253"/>
 <path fill="rgb(51,153,102)" stroke="none" d="M 27838,9358 L 28049,9358 27944,9148 27838,9358 Z"/>
 <path fill="none" stroke="rgb(51,153,102)" stroke-linejoin="round" d="M 27838,9358 L 28049,9358 27944,9148 27838,9358 Z"/>
 <path fill="none" stroke="rgb(255,204,255)" stroke-width="80" stroke-linejoin="round" stroke-dasharray="80,40" d="M 27144,9750 L 28744,9750"/>
 <path fill="rgb(255,204,255)" stroke="none" d="M 27838,9645 L 27838,9855 28049,9750 27838,9645 Z"/>
 <path fill="none" stroke="rgb(255,204,255)" stroke-linejoin="round" d="M 27838,9645 L 27838,9855 28049,9750 27838,9645 Z"/>
 <path fill="none" stroke="rgb(255,204,255)" stroke-width="80" stroke-linejoin="round" d="M 27144,10248 L 28744,10248"/>
 <path fill="rgb(255,204,255)" stroke="none" d="M 27838,10248 L 28049,10353 28049,10143 27838,10248 Z"/>
 <path fill="none" stroke="rgb(255,204,255)" stroke-linejoin="round" d="M 27838,10248 L 28049,10353 28049,10143 27838,10248 Z"/>
 <path fill="none" stroke="rgb(0,0,0)" stroke-width="30" stroke-linejoin="round" stroke-dasharray="30,15" d="M 27144,10746 L 28744,10746"/>
 <path fill="none" stroke="rgb(0,0,0)" stroke-width="30" stroke-linejoin="round" d="M 27144,11244 L 28744,11244"/>
 <text class="TextShape"><tspan class="TextParagraph" font-family="Liberation Sans" font-size="353px" font-weight="400"><tspan class="TextPosition" x="28844" y="7879"><tspan fill="rgb(0,0,0)" stroke="none">o_hit</tspan></tspan></tspan></text>
 <text class="TextShape"><tspan class="TextParagraph" font-family="Liberation Sans" font-size="353px" font-weight="400"><tspan class="TextPosition" x="28844" y="8377"><tspan fill="rgb(0,0,0)" stroke="none">o_amp</tspan></tspan></tspan></text>
 <text class="TextShape"><tspan class="TextParagraph" font-family="Liberation Sans" font-size="353px" font-weight="400"><tspan class="TextPosition" x="28844" y="8875"><tspan fill="rgb(0,0,0)" stroke="none">hm_hit</tspan></tspan></tspan></text>
 <text class="TextShape"><tspan class="TextParagraph" font-family="Liberation Sans" font-size="353px" font-weight="400"><tspan class="TextPosition" x="28844" y="9373"><tspan fill="rgb(0,0,0)" stroke="none">hm_amp</tspan></tspan></tspan></text>
 <text class="TextShape"><tspan class="TextParagraph" font-family="Liberation Sans" font-size="353px" font-weight="400"><tspan class="TextPosition" x="28844" y="9870"><tspan fill="rgb(0,0,0)" stroke="none">others_hit</tspan></tspan></tspan></text>
 <text class="TextShape"><tspan class="TextParagraph" font-family="Liberation Sans" font-size="353px" font-weight="400"><tspan class="TextPosition" x="28844" y="10368"><tspan fill="rgb(0,0,0)" stroke="none">other_amp</tspan></tspan></tspan></text>
 <text class="TextShape"><tspan class="TextParagraph" font-family="Liberation Sans" font-size="353px" font-weight="400"><tspan class="TextPosition" x="28844" y="10866"><tspan fill="rgb(0,0,0)" stroke="none">standard_hm_hit</tspan></tspan></tspan></text>
 <text class="TextShape"><tspan class="TextParagraph" font-family="Liberation Sans" font-size="353px" font-weight="400"><tspan class="TextPosition" x="28844" y="11364"><tspan fill="rgb(0,0,0)" stroke="none">standard_hm_amp</tspan></tspan></tspan></text>
</svg>