<?xml version="1.0" encoding="UTF-8"?>
<!DOCTYPE svg PUBLIC "-//W3C//DTD SVG 1.1//EN" "http://www.w3.org/Graphics/SVG/1.1/DTD/svg11.dtd">
<svg width="361mm" height="192mm" viewBox="0 0 36100 19200" version="1.1" baseProfile="tiny" xmlns="http://www.w3.org/2000/svg" stroke-width="28.222" stroke-linejoin="round" xml:space="preserve">
 <path fill="rgb(255,255,255)" stroke="none" d="M 18030,19202 L 0,19202 0,0 36060,0 36060,19202 18030,19202 Z"/>
 <path fill="none" stroke="rgb(179,179,179)" stroke-linejoin="round" d="M 15978,18171 L 1448,18171 1448,583 30508,583 30508,18171 15978,18171 Z"/>
 <path fill="none" stroke="rgb(179,179,179)" stroke-linejoin="round" d="M 30508,18170 L 1448,18170"/>
 <path fill="none" stroke="rgb(179,179,179)" stroke-linejoin="round" d="M 30508,16215 L 1448,16215"/>
 <path fill="none" stroke="rgb(179,179,179)" stroke-linejoin="round" d="M 30508,14261 L 1448,14261"/>
 <path fill="none" stroke="rgb(179,179,179)" stroke-linejoin="round" d="M 30508,12307 L 1448,12307"/>
 <path fill="none" stroke="rgb(179,179,179)" stroke-linejoin="round" d="M 30508,10352 L 1448,10352"/>
 <path fill="none" stroke="rgb(179,179,179)" stroke-linejoin="round" d="M 30508,8399 L 1448,8399"/>
 <path fill="none" stroke="rgb(179,179,179)" stroke-linejoin="round" d="M 30508,6444 L 1448,6444"/>
 <path fill="none" stroke="rgb(179,179,179)" stroke-linejoin="round" d="M 30508,4490 L 1448,4490"/>
 <path fill="none" stroke="rgb(179,179,179)" stroke-linejoin="round" d="M 30508,2536 L 1448,2536"/>
 <path fill="none" stroke="rgb(179,179,179)" stroke-linejoin="round" d="M 30508,582 L 1448,582"/>
 <path fill="none" stroke="rgb(179,179,179)" stroke-linejoin="round" d="M 1448,18320 L 1448,18170"/>
 <path fill="none" stroke="rgb(179,179,179)" stroke-linejoin="round" d="M 1448,18320 L 1448,18170"/>
 <path fill="none" stroke="rgb(179,179,179)" stroke-linejoin="round" d="M 11135,18320 L 11135,18170"/>
 <path fill="none" stroke="rgb(179,179,179)" stroke-linejoin="round" d="M 11135,18320 L 11135,18170"/>
 <path fill="none" stroke="rgb(179,179,179)" stroke-linejoin="round" d="M 20821,18320 L 20821,18170"/>
 <path fill="none" stroke="rgb(179,179,179)" stroke-linejoin="round" d="M 20821,18320 L 20821,18170"/>
 <path fill="none" stroke="rgb(179,179,179)" stroke-linejoin="round" d="M 30508,18320 L 30508,18170"/>
 <path fill="none" stroke="rgb(179,179,179)" stroke-linejoin="round" d="M 30508,18320 L 30508,18170"/>
 <path fill="none" stroke="rgb(179,179,179)" stroke-linejoin="round" d="M 1448,18170 L 30508,18170"/>
 <path fill="none" stroke="rgb(179,179,179)" stroke-linejoin="round" d="M 1298,18170 L 1448,18170"/>
 <path fill="none" stroke="rgb(179,179,179)" stroke-linejoin="round" d="M 1298,18170 L 1448,18170"/>
 <path fill="none" stroke="rgb(179,179,179)" stroke-linejoin="round" d="M 1298,16215 L 1448,16215"/>
 <path fill="none" stroke="rgb(179,179,179)" stroke-linejoin="round" d="M 1298,16215 L 1448,16215"/>
 <path fill="none" stroke="rgb(179,179,179)" stroke-linejoin="round" d="M 1298,14261 L 1448,14261"/>
 <path fill="none" stroke="rgb(179,179,179)" stroke-linejoin="round" d="M 1298,14261 L 1448,14261"/>
 <path fill="none" stroke="rgb(179,179,179)" stroke-linejoin="round" d="M 1298,12307 L 1448,12307"/>
 <path fill="none" stroke="rgb(179,179,179)" stroke-linejoin="round" d="M 1298,12307 L 1448,12307"/>
 <path fill="none" stroke="rgb(179,179,179)" stroke-linejoin="round" d="M 1298,10352 L 1448,10352"/>
 <path fill="none" stroke="rgb(179,179,179)" stroke-linejoin="round" d="M 1298,10352 L 1448,10352"/>
 <path fill="none" stroke="rgb(179,179,179)" stroke-linejoin="round" d="M 1298,8399 L 1448,8399"/>
 <path fill="none" stroke="rgb(179,179,179)" stroke-linejoin="round" d="M 1298,8399 L 1448,8399"/>
 <path fill="none" stroke="rgb(179,179,179)" stroke-linejoin="round" d="M 1298,6444 L 1448,6444"/>
 <path fill="none" stroke="rgb(179,179,179)" stroke-linejoin="round" d="M 1298,6444 L 1448,6444"/>
 <path fill="none" stroke="rgb(179,179,179)" stroke-linejoin="round" d="M 1298,4490 L 1448,4490"/>
 <path fill="none" stroke="rgb(179,179,179)" stroke-linejoin="round" d="M 1298,4490 L 1448,4490"/>
 <path fill="none" stroke="rgb(179,179,179)" stroke-linejoin="round" d="M 1298,2536 L 1448,2536"/>
 <path fill="none" stroke="rgb(179,179,179)" stroke-linejoin="round" d="M 1298,2536 L 1448,2536"/>
 <path fill="none" stroke="rgb(179,179,179)" stroke-linejoin="round" d="M 1298,582 L 1448,582"/>
 <path fill="none" stroke="rgb(179,179,179)" stroke-linejoin="round" d="M 1298,582 L 1448,582"/>
 <path fill="none" stroke="rgb(179,179,179)" stroke-linejoin="round" d="M 1448,18170 L 1448,582"/>
 <path fill="none" stroke="rgb(179,179,179)" stroke-linejoin="round" d="M 30658,18170 L 30508,18170"/>
 <path fill="none" stroke="rgb(179,179,179)" stroke-linejoin="round" d="M 30658,18170 L 30508,18170"/>
 <path fill="none" stroke="rgb(179,179,179)" stroke-linejoin="round" d="M 30658,16411 L 30508,16411"/>
 <path fill="none" stroke="rgb(179,179,179)" stroke-linejoin="round" d="M 30658,16411 L 30508,16411"/>
 <path fill="none" stroke="rgb(179,179,179)" stroke-linejoin="round" d="M 30658,14652 L 30508,14652"/>
 <path fill="none" stroke="rgb(179,179,179)" stroke-linejoin="round" d="M 30658,14652 L 30508,14652"/>
 <path fill="none" stroke="rgb(179,179,179)" stroke-linejoin="round" d="M 30658,12893 L 30508,12893"/>
 <path fill="none" stroke="rgb(179,179,179)" stroke-linejoin="round" d="M 30658,12893 L 30508,12893"/>
 <path fill="none" stroke="rgb(179,179,179)" stroke-linejoin="round" d="M 30658,11134 L 30508,11134"/>
 <path fill="none" stroke="rgb(179,179,179)" stroke-linejoin="round" d="M 30658,11134 L 30508,11134"/>
 <path fill="none" stroke="rgb(179,179,179)" stroke-linejoin="round" d="M 30658,9376 L 30508,9376"/>
 <path fill="none" stroke="rgb(179,179,179)" stroke-linejoin="round" d="M 30658,9376 L 30508,9376"/>
 <path fill="none" stroke="rgb(179,179,179)" stroke-linejoin="round" d="M 30658,7617 L 30508,7617"/>
 <path fill="none" stroke="rgb(179,179,179)" stroke-linejoin="round" d="M 30658,7617 L 30508,7617"/>
 <path fill="none" stroke="rgb(179,179,179)" stroke-linejoin="round" d="M 30658,5858 L 30508,5858"/>
 <path fill="none" stroke="rgb(179,179,179)" stroke-linejoin="round" d="M 30658,5858 L 30508,5858"/>
 <path fill="none" stroke="rgb(179,179,179)" stroke-linejoin="round" d="M 30658,4099 L 30508,4099"/>
 <path fill="none" stroke="rgb(179,179,179)" stroke-linejoin="round" d="M 30658,4099 L 30508,4099"/>
 <path fill="none" stroke="rgb(179,179,179)" stroke-linejoin="round" d="M 30658,2340 L 30508,2340"/>
 <path fill="none" stroke="rgb(179,179,179)" stroke-linejoin="round" d="M 30658,2340 L 30508,2340"/>
 <path fill="none" stroke="rgb(179,179,179)" stroke-linejoin="round" d="M 30658,582 L 30508,582"/>
 <path fill="none" stroke="rgb(179,179,179)" stroke-linejoin="round" d="M 30658,582 L 30508,582"/>
 <path fill="none" stroke="rgb(179,179,179)" stroke-linejoin="round" d="M 30508,18170 L 30508,582"/>
 <path fill="none" stroke="rgb(0,69,134)" stroke-width="80" stroke-linejoin="round" stroke-dasharray="158,158" d="M 1448,10958 L 11135,8262 20821,3181 30508,8887"/>
 <path fill="rgb(0,69,134)" stroke="none" d="M 1323,10833 L 1323,11083 1573,11083 1573,10833 1323,10833 Z"/>
 <path fill="none" stroke="rgb(0,69,134)" stroke-linejoin="round" d="M 1323,10833 L 1323,11083 1573,11083 1573,10833 1323,10833 Z"/>
 <path fill="rgb(0,69,134)" stroke="none" d="M 11010,8137 L 11010,8387 11260,8387 11260,8137 11010,8137 Z"/>
 <path fill="none" stroke="rgb(0,69,134)" stroke-linejoin="round" d="M 11010,8137 L 11010,8387 11260,8387 11260,8137 11010,8137 Z"/>
 <path fill="rgb(0,69,134)" stroke="none" d="M 20696,3056 L 20696,3306 20946,3306 20946,3056 20696,3056 Z"/>
 <path fill="none" stroke="rgb(0,69,134)" stroke-linejoin="round" d="M 20696,3056 L 20696,3306 20946,3306 20946,3056 20696,3056 Z"/>
 <path fill="rgb(0,69,134)" stroke="none" d="M 30383,8762 L 30383,9012 30633,9012 30633,8762 30383,8762 Z"/>
 <path fill="none" stroke="rgb(0,69,134)" stroke-linejoin="round" d="M 30383,8762 L 30383,9012 30633,9012 30633,8762 30383,8762 Z"/>
 <path fill="none" stroke="rgb(0,69,134)" stroke-width="80" stroke-linejoin="round" d="M 1448,13756 L 11135,8296 20821,3011 30508,6945"/>
 <path fill="rgb(0,69,134)" stroke="none" d="M 1323,13756 L 1448,13881 1573,13756 1448,13631 1323,13756 Z"/>
 <path fill="none" stroke="rgb(0,69,134)" stroke-linejoin="round" d="M 1323,13756 L 1448,13881 1573,13756 1448,13631 1323,13756 Z"/>
 <path fill="rgb(0,69,134)" stroke="none" d="M 11010,8296 L 11135,8421 11260,8296 11135,8171 11010,8296 Z"/>
 <path fill="none" stroke="rgb(0,69,134)" stroke-linejoin="round" d="M 11010,8296 L 11135,8421 11260,8296 11135,8171 11010,8296 Z"/>
 <path fill="rgb(0,69,134)" stroke="none" d="M 20696,3011 L 20821,3136 20946,3011 20821,2886 20696,3011 Z"/>
 <path fill="none" stroke="rgb(0,69,134)" stroke-linejoin="round" d="M 20696,3011 L 20821,3136 20946,3011 20821,2886 20696,3011 Z"/>
 <path fill="rgb(0,69,134)" stroke="none" d="M 30383,6945 L 30508,7070 30633,6945 30508,6820 30383,6945 Z"/>
 <path fill="none" stroke="rgb(0,69,134)" stroke-linejoin="round" d="M 30383,6945 L 30508,7070 30633,6945 30508,6820 30383,6945 Z"/>
 <path fill="none" stroke="rgb(131,202,255)" stroke-width="80" stroke-linejoin="round" stroke-dasharray="158,158" d="M 1448,3845 L 11135,4060 20821,8418 30508,8145"/>
 <path fill="rgb(131,202,255)" stroke="none" d="M 1323,3720 L 1448,3970 1573,3720 1323,3720 Z"/>
 <path fill="none" stroke="rgb(131,202,255)" stroke-linejoin="round" d="M 1323,3720 L 1448,3970 1573,3720 1323,3720 Z"/>
 <path fill="rgb(131,202,255)" stroke="none" d="M 11010,3935 L 11135,4185 11260,3935 11010,3935 Z"/>
 <path fill="none" stroke="rgb(131,202,255)" stroke-linejoin="round" d="M 11010,3935 L 11135,4185 11260,3935 11010,3935 Z"/>
 <path fill="rgb(131,202,255)" stroke="none" d="M 20696,8293 L 20821,8543 20946,8293 20696,8293 Z"/>
 <path fill="none" stroke="rgb(131,202,255)" stroke-linejoin="round" d="M 20696,8293 L 20821,8543 20946,8293 20696,8293 Z"/>
 <path fill="rgb(131,202,255)" stroke="none" d="M 30383,8020 L 30508,8270 30633,8020 30383,8020 Z"/>
 <path fill="none" stroke="rgb(131,202,255)" stroke-linejoin="round" d="M 30383,8020 L 30508,8270 30633,8020 30383,8020 Z"/>
 <path fill="none" stroke="rgb(131,202,255)" stroke-width="80" stroke-linejoin="round" d="M 1448,3248 L 11135,14326 20821,8134 30508,7556"/>
 <path fill="rgb(131,202,255)" stroke="none" d="M 1323,3373 L 1573,3373 1448,3123 1323,3373 Z"/>
 <path fill="none" stroke="rgb(131,202,255)" stroke-linejoin="round" d="M 1323,3373 L 1573,3373 1448,3123 1323,3373 Z"/>
 <path fill="rgb(131,202,255)" stroke="none" d="M 11010,14451 L 11260,14451 11135,14201 11010,14451 Z"/>
 <path fill="none" stroke="rgb(131,202,255)" stroke-linejoin="round" d="M 11010,14451 L 11260,14451 11135,14201 11010,14451 Z"/>
 <path fill="rgb(131,202,255)" stroke="none" d="M 20696,8259 L 20946,8259 20821,8009 20696,8259 Z"/>
 <path fill="none" stroke="rgb(131,202,255)" stroke-linejoin="round" d="M 20696,8259 L 20946,8259 20821,8009 20696,8259 Z"/>
 <path fill="rgb(131,202,255)" stroke="none" d="M 30383,7681 L 30633,7681 30508,7431 30383,7681 Z"/>
 <path fill="none" stroke="rgb(131,202,255)" stroke-linejoin="round" d="M 30383,7681 L 30633,7681 30508,7431 30383,7681 Z"/>
 <path fill="none" stroke="rgb(255,0,0)" stroke-width="80" stroke-linejoin="round" stroke-dasharray="158,158" d="M 1448,2985 L 11135,7793 20821,5819 30508,7793"/>
 <path fill="rgb(255,0,0)" stroke="none" d="M 1323,2860 L 1323,3110 1573,2985 1323,2860 Z"/>
 <path fill="none" stroke="rgb(255,0,0)" stroke-linejoin="round" d="M 1323,2860 L 1323,3110 1573,2985 1323,2860 Z"/>
 <path fill="rgb(255,0,0)" stroke="none" d="M 11010,7668 L 11010,7918 11260,7793 11010,7668 Z"/>
 <path fill="none" stroke="rgb(255,0,0)" stroke-linejoin="round" d="M 11010,7668 L 11010,7918 11260,7793 11010,7668 Z"/>
 <path fill="rgb(255,0,0)" stroke="none" d="M 20696,5694 L 20696,5944 20946,5819 20696,5694 Z"/>
 <path fill="none" stroke="rgb(255,0,0)" stroke-linejoin="round" d="M 20696,5694 L 20696,5944 20946,5819 20696,5694 Z"/>
 <path fill="rgb(255,0,0)" stroke="none" d="M 30383,7668 L 30383,7918 30633,7793 30383,7668 Z"/>
 <path fill="none" stroke="rgb(255,0,0)" stroke-linejoin="round" d="M 30383,7668 L 30383,7918 30633,7793 30383,7668 Z"/>
 <path fill="none" stroke="rgb(255,0,0)" stroke-width="80" stroke-linejoin="round" d="M 1448,11171 L 11135,15535 20821,3193 30508,15535"/>
 <path fill="rgb(255,0,0)" stroke="none" d="M 1323,11171 L 1573,11296 1573,11046 1323,11171 Z"/>
 <path fill="none" stroke="rgb(255,0,0)" stroke-linejoin="round" d="M 1323,11171 L 1573,11296 1573,11046 1323,11171 Z"/>
 <path fill="rgb(255,0,0)" stroke="none" d="M 11010,15535 L 11260,15660 11260,15410 11010,15535 Z"/>
 <path fill="none" stroke="rgb(255,0,0)" stroke-linejoin="round" d="M 11010,15535 L 11260,15660 11260,15410 11010,15535 Z"/>
 <path fill="rgb(255,0,0)" stroke="none" d="M 20696,3193 L 20946,3318 20946,3068 20696,3193 Z"/>
 <path fill="none" stroke="rgb(255,0,0)" stroke-linejoin="round" d="M 20696,3193 L 20946,3318 20946,3068 20696,3193 Z"/>
 <path fill="rgb(255,0,0)" stroke="none" d="M 30383,15535 L 30633,15660 30633,15410 30383,15535 Z"/>
 <path fill="none" stroke="rgb(255,0,0)" stroke-linejoin="round" d="M 30383,15535 L 30633,15660 30633,15410 30383,15535 Z"/>
 <path fill="none" stroke="rgb(255,153,204)" stroke-width="80" stroke-linejoin="round" stroke-dasharray="158,158" d="M 1448,2282 L 11135,7988 20821,5174 30508,7969"/>
 <path fill="rgb(255,153,204)" stroke="none" d="M 1323,2157 L 1323,2407 1573,2157 1573,2407 1323,2157 Z"/>
 <path fill="none" stroke="rgb(255,153,204)" stroke-linejoin="round" d="M 1323,2157 L 1323,2407 1573,2157 1573,2407 1323,2157 Z"/>
 <path fill="rgb(255,153,204)" stroke="none" d="M 11010,7863 L 11010,8113 11260,7863 11260,8113 11010,7863 Z"/>
 <path fill="none" stroke="rgb(255,153,204)" stroke-linejoin="round" d="M 11010,7863 L 11010,8113 11260,7863 11260,8113 11010,7863 Z"/>
 <path fill="rgb(255,153,204)" stroke="none" d="M 20696,5049 L 20696,5299 20946,5049 20946,5299 20696,5049 Z"/>
 <path fill="none" stroke="rgb(255,153,204)" stroke-linejoin="round" d="M 20696,5049 L 20696,5299 20946,5049 20946,5299 20696,5049 Z"/>
 <path fill="rgb(255,153,204)" stroke="none" d="M 30383,7844 L 30383,8094 30633,7844 30633,8094 30383,7844 Z"/>
 <path fill="none" stroke="rgb(255,153,204)" stroke-linejoin="round" d="M 30383,7844 L 30383,8094 30633,7844 30633,8094 30383,7844 Z"/>
 <path fill="none" stroke="rgb(255,153,204)" stroke-width="80" stroke-linejoin="round" d="M 1448,11778 L 11135,15046 20821,3025 30508,15593"/>
 <path fill="rgb(255,153,204)" stroke="none" d="M 1323,11903 L 1573,11903 1323,11653 1573,11653 1323,11903 Z"/>
 <path fill="none" stroke="rgb(255,153,204)" stroke-linejoin="round" d="M 1323,11903 L 1573,11903 1323,11653 1573,11653 1323,11903 Z"/>
 <path fill="rgb(255,153,204)" stroke="none" d="M 11010,15171 L 11260,15171 11010,14921 11260,14921 11010,15171 Z"/>
 <path fill="none" stroke="rgb(255,153,204)" stroke-linejoin="round" d="M 11010,15171 L 11260,15171 11010,14921 11260,14921 11010,15171 Z"/>
 <path fill="rgb(255,153,204)" stroke="none" d="M 20696,3150 L 20946,3150 20696,2900 20946,2900 20696,3150 Z"/>
 <path fill="none" stroke="rgb(255,153,204)" stroke-linejoin="round" d="M 20696,3150 L 20946,3150 20696,2900 20946,2900 20696,3150 Z"/>
 <path fill="rgb(255,153,204)" stroke="none" d="M 30383,15718 L 30633,15718 30383,15468 30633,15468 30383,15718 Z"/>
 <path fill="none" stroke="rgb(255,153,204)" stroke-linejoin="round" d="M 30383,15718 L 30633,15718 30383,15468 30633,15468 30383,15718 Z"/>
 <text class="TextShape"><tspan class="TextParagraph" font-family="Liberation Sans, sans-serif" font-size="353px" font-weight="400"><tspan class="TextPosition" x="1355" y="18738"><tspan fill="rgb(0,0,0)" stroke="none">1</tspan></tspan></tspan></text>
 <text class="TextShape"><tspan class="TextParagraph" font-family="Liberation Sans, sans-serif" font-size="353px" font-weight="400"><tspan class="TextPosition" x="11042" y="18738"><tspan fill="rgb(0,0,0)" stroke="none">2</tspan></tspan></tspan></text>
 <text class="TextShape"><tspan class="TextParagraph" font-family="Liberation Sans, sans-serif" font-size="353px" font-weight="400"><tspan class="TextPosition" x="20729" y="18738"><tspan fill="rgb(0,0,0)" stroke="none">3</tspan></tspan></tspan></text>
 <text class="TextShape"><tspan class="TextParagraph" font-family="Liberation Sans, sans-serif" font-size="353px" font-weight="400"><tspan class="TextPosition" x="30416" y="18738"><tspan fill="rgb(0,0,0)" stroke="none">4</tspan></tspan></tspan></text>
 <text class="TextShape"><tspan class="TextParagraph" font-family="Liberation Sans, sans-serif" font-size="353px" font-weight="400"><tspan class="TextPosition" x="1013" y="18291"><tspan fill="rgb(0,0,0)" stroke="none">0</tspan></tspan></tspan></text>
 <text class="TextShape"><tspan class="TextParagraph" font-family="Liberation Sans, sans-serif" font-size="353px" font-weight="400"><tspan class="TextPosition" x="722" y="16336"><tspan fill="rgb(0,0,0)" stroke="none">0.1</tspan></tspan></tspan></text>
 <text class="TextShape"><tspan class="TextParagraph" font-family="Liberation Sans, sans-serif" font-size="353px" font-weight="400"><tspan class="TextPosition" x="722" y="14382"><tspan fill="rgb(0,0,0)" stroke="none">0.2</tspan></tspan></tspan></text>
 <text class="TextShape"><tspan class="TextParagraph" font-family="Liberation Sans, sans-serif" font-size="353px" font-weight="400"><tspan class="TextPosition" x="722" y="12428"><tspan fill="rgb(0,0,0)" stroke="none">0.3</tspan></tspan></tspan></text>
 <text class="TextShape"><tspan class="TextParagraph" font-family="Liberation Sans, sans-serif" font-size="353px" font-weight="400"><tspan class="TextPosition" x="722" y="10473"><tspan fill="rgb(0,0,0)" stroke="none">0.4</tspan></tspan></tspan></text>
 <text class="TextShape"><tspan class="TextParagraph" font-family="Liberation Sans, sans-serif" font-size="353px" font-weight="400"><tspan class="TextPosition" x="722" y="8519"><tspan fill="rgb(0,0,0)" stroke="none">0.5</tspan></tspan></tspan></text>
 <text class="TextShape"><tspan class="TextParagraph" font-family="Liberation Sans, sans-serif" font-size="353px" font-weight="400"><tspan class="TextPosition" x="722" y="6564"><tspan fill="rgb(0,0,0)" stroke="none">0.6</tspan></tspan></tspan></text>
 <text class="TextShape"><tspan class="TextParagraph" font-family="Liberation Sans, sans-serif" font-size="353px" font-weight="400"><tspan class="TextPosition" x="722" y="4610"><tspan fill="rgb(0,0,0)" stroke="none">0.7</tspan></tspan></tspan></text>
 <text class="TextShape"><tspan class="TextParagraph" font-family="Liberation Sans, sans-serif" font-size="353px" font-weight="400"><tspan class="TextPosition" x="722" y="2656"><tspan fill="rgb(0,0,0)" stroke="none">0.8</tspan></tspan></tspan></text>
 <text class="TextShape"><tspan class="TextParagraph" font-family="Liberation Sans, sans-serif" font-size="353px" font-weight="400"><tspan class="TextPosition" x="722" y="702"><tspan fill="rgb(0,0,0)" stroke="none">0.9</tspan></tspan></tspan></text>
 <text class="TextShape"><tspan class="TextParagraph" font-family="Liberation Sans, sans-serif" font-size="353px" font-weight="400"><tspan class="TextPosition" x="30758" y="18291"><tspan fill="rgb(0,0,0)" stroke="none">0</tspan></tspan></tspan></text>
 <text class="TextShape"><tspan class="TextParagraph" font-family="Liberation Sans, sans-serif" font-size="353px" font-weight="400"><tspan class="TextPosition" x="30758" y="16532"><tspan fill="rgb(0,0,0)" stroke="none">10</tspan></tspan></tspan></text>
 <text class="TextShape"><tspan class="TextParagraph" font-family="Liberation Sans, sans-serif" font-size="353px" font-weight="400"><tspan class="TextPosition" x="30758" y="14773"><tspan fill="rgb(0,0,0)" stroke="none">20</tspan></tspan></tspan></text>
 <text class="TextShape"><tspan class="TextParagraph" font-family="Liberation Sans, sans-serif" font-size="353px" font-weight="400"><tspan class="TextPosition" x="30758" y="13014"><tspan fill="rgb(0,0,0)" stroke="none">30</tspan></tspan></tspan></text>
 <text class="TextShape"><tspan class="TextParagraph" font-family="Liberation Sans, sans-serif" font-size="353px" font-weight="400"><tspan class="TextPosition" x="30758" y="11255"><tspan fill="rgb(0,0,0)" stroke="none">40</tspan></tspan></tspan></text>
 <text class="TextShape"><tspan class="TextParagraph" font-family="Liberation Sans, sans-serif" font-size="353px" font-weight="400"><tspan class="TextPosition" x="30758" y="9496"><tspan fill="rgb(0,0,0)" stroke="none">50</tspan></tspan></tspan></text>
 <text class="TextShape"><tspan class="TextParagraph" font-family="Liberation Sans, sans-serif" font-size="353px" font-weight="400"><tspan class="TextPosition" x="30758" y="7737"><tspan fill="rgb(0,0,0)" stroke="none">60</tspan></tspan></tspan></text>
 <text class="TextShape"><tspan class="TextParagraph" font-family="Liberation Sans, sans-serif" font-size="353px" font-weight="400"><tspan class="TextPosition" x="30758" y="5978"><tspan fill="rgb(0,0,0)" stroke="none">70</tspan></tspan></tspan></text>
 <text class="TextShape"><tspan class="TextParagraph" font-family="Liberation Sans, sans-serif" font-size="353px" font-weight="400"><tspan class="TextPosition" x="30758" y="4219"><tspan fill="rgb(0,0,0)" stroke="none">80</tspan></tspan></tspan></text>
 <text class="TextShape"><tspan class="TextParagraph" font-family="Liberation Sans, sans-serif" font-size="353px" font-weight="400"><tspan class="TextPosition" x="30758" y="2460"><tspan fill="rgb(0,0,0)" stroke="none">90</tspan></tspan></tspan></text>
 <text class="TextShape"><tspan class="TextParagraph" font-family="Liberation Sans, sans-serif" font-size="353px" font-weight="400"><tspan class="TextPosition" x="30758" y="702"><tspan fill="rgb(0,0,0)" stroke="none">100</tspan></tspan></tspan></text>
 <path fill="none" stroke="rgb(0,69,134)" stroke-width="80" stroke-linejoin="round" stroke-dasharray="158,158" d="M 32153,7857 L 33753,7857"/>
 <path fill="rgb(0,69,134)" stroke="none" d="M 32847,7752 L 32847,7962 33058,7962 33058,7752 32847,7752 Z"/>
 <path fill="none" stroke="rgb(0,69,134)" stroke-linejoin="round" d="M 32847,7752 L 32847,7962 33058,7962 33058,7752 32847,7752 Z"/>
 <path fill="none" stroke="rgb(0,69,134)" stroke-width="80" stroke-linejoin="round" d="M 32153,8355 L 33753,8355"/>
 <path fill="rgb(0,69,134)" stroke="none" d="M 32847,8355 L 32953,8460 33058,8355 32953,8250 32847,8355 Z"/>
 <path fill="none" stroke="rgb(0,69,134)" stroke-linejoin="round" d="M 32847,8355 L 32953,8460 33058,8355 32953,8250 32847,8355 Z"/>
 <path fill="none" stroke="rgb(131,202,255)" stroke-width="80" stroke-linejoin="round" stroke-dasharray="158,158" d="M 32153,8853 L 33753,8853"/>
 <path fill="rgb(131,202,255)" stroke="none" d="M 32847,8748 L 32953,8958 33058,8748 32847,8748 Z"/>
 <path fill="none" stroke="rgb(131,202,255)" stroke-linejoin="round" d="M 32847,8748 L 32953,8958 33058,8748 32847,8748 Z"/>
 <path fill="none" stroke="rgb(131,202,255)" stroke-width="80" stroke-linejoin="round" d="M 32153,9351 L 33753,9351"/>
 <path fill="rgb(131,202,255)" stroke="none" d="M 32847,9456 L 33058,9456 32953,9246 32847,9456 Z"/>
 <path fill="none" stroke="rgb(131,202,255)" stroke-linejoin="round" d="M 32847,9456 L 33058,9456 32953,9246 32847,9456 Z"/>
 <path fill="none" stroke="rgb(255,0,0)" stroke-width="80" stroke-linejoin="round" stroke-dasharray="158,158" d="M 32153,9848 L 33753,9848"/>
 <path fill="rgb(255,0,0)" stroke="none" d="M 32847,9743 L 32847,9953 33058,9848 32847,9743 Z"/>
 <path fill="none" stroke="rgb(255,0,0)" stroke-linejoin="round" d="M 32847,9743 L 32847,9953 33058,9848 32847,9743 Z"/>
 <path fill="none" stroke="rgb(255,0,0)" stroke-width="80" stroke-linejoin="round" d="M 32153,10346 L 33753,10346"/>
 <path fill="rgb(255,0,0)" stroke="none" d="M 32847,10346 L 33058,10451 33058,10241 32847,10346 Z"/>
 <path fill="none" stroke="rgb(255,0,0)" stroke-linejoin="round" d="M 32847,10346 L 33058,10451 33058,10241 32847,10346 Z"/>
 <path fill="none" stroke="rgb(255,153,204)" stroke-width="80" stroke-linejoin="round" stroke-dasharray="158,158" d="M 32153,10844 L 33753,10844"/>
 <path fill="rgb(255,153,204)" stroke="none" d="M 32847,10739 L 32847,10949 33058,10739 33058,10949 32847,10739 Z"/>
 <path fill="none" stroke="rgb(255,153,204)" stroke-linejoin="round" d="M 32847,10739 L 32847,10949 33058,10739 33058,10949 32847,10739 Z"/>
 <path fill="none" stroke="rgb(255,153,204)" stroke-width="80" stroke-linejoin="round" d="M 32153,11342 L 33753,11342"/>
 <path fill="rgb(255,153,204)" stroke="none" d="M 32847,11447 L 33058,11447 32847,11237 33058,11237 32847,11447 Z"/>
 <path fill="none" stroke="rgb(255,153,204)" stroke-linejoin="round" d="M 32847,11447 L 33058,11447 32847,11237 33058,11237 32847,11447 Z"/>
 <text class="TextShape"><tspan class="TextParagraph" font-family="Liberation Sans, sans-serif" font-size="353px" font-weight="400"><tspan class="TextPosition" x="33853" y="7977"><tspan fill="rgb(0,0,0)" stroke="none">o_usr1_hit</tspan></tspan></tspan></text>
 <text class="TextShape"><tspan class="TextParagraph" font-family="Liberation Sans, sans-serif" font-size="353px" font-weight="400"><tspan class="TextPosition" x="33853" y="8475"><tspan fill="rgb(0,0,0)" stroke="none">o_usr1_amp</tspan></tspan></tspan></text>
 <text class="TextShape"><tspan class="TextParagraph" font-family="Liberation Sans, sans-serif" font-size="353px" font-weight="400"><tspan class="TextPosition" x="33853" y="8973"><tspan fill="rgb(0,0,0)" stroke="none">usr1_hit</tspan></tspan></tspan></text>
 <text class="TextShape"><tspan class="TextParagraph" font-family="Liberation Sans, sans-serif" font-size="353px" font-weight="400"><tspan class="TextPosition" x="33853" y="9471"><tspan fill="rgb(0,0,0)" stroke="none">usr1_amp</tspan></tspan></tspan></text>
 <text class="TextShape"><tspan class="TextParagraph" font-family="Liberation Sans, sans-serif" font-size="353px" font-weight="400"><tspan class="TextPosition" x="33853" y="9968"><tspan fill="rgb(0,0,0)" stroke="none">o_usr2_hit</tspan></tspan></tspan></text>
 <text class="TextShape"><tspan class="TextParagraph" font-family="Liberation Sans, sans-serif" font-size="353px" font-weight="400"><tspan class="TextPosition" x="33853" y="10466"><tspan fill="rgb(0,0,0)" stroke="none">o_usr2_amp</tspan></tspan></tspan></text>
 <text class="TextShape"><tspan class="TextParagraph" font-family="Liberation Sans, sans-serif" font-size="353px" font-weight="400"><tspan class="TextPosition" x="33853" y="10964"><tspan fill="rgb(0,0,0)" stroke="none">usr2_hit</tspan></tspan></tspan></text>
 <text class="TextShape"><tspan class="TextParagraph" font-family="Liberation Sans, sans-serif" font-size="353px" font-weight="400"><tspan class="TextPosition" x="33853" y="11462"><tspan fill="rgb(0,0,0)" stroke="none">usr2_amp</tspan></tspan></tspan></text>
</svg>