<?xml version="1.0" encoding="UTF-8"?>
<!DOCTYPE svg PUBLIC "-//W3C//DTD SVG 1.1//EN" "http://www.w3.org/Graphics/SVG/1.1/DTD/svg11.dtd">
<svg width="299mm" height="190mm" viewBox="0 0 29900 19000" version="1.1" baseProfile="tiny" xmlns="http://www.w3.org/2000/svg" stroke-width="28.222" stroke-linejoin="round" xml:space="preserve">
 <path fill="rgb(255,255,255)" stroke="none" d="M 14985,18963 L 18,18963 18,0 29951,0 29951,18963 14985,18963 Z"/>
 <path fill="none" stroke="rgb(179,179,179)" stroke-linejoin="round" d="M 12351,17937 L 1237,17937 1237,1899 23465,1899 23465,17937 12351,17937 Z"/>
 <path fill="none" stroke="rgb(179,179,179)" stroke-linejoin="round" d="M 1237,18086 L 1237,17936"/>
 <path fill="none" stroke="rgb(179,179,179)" stroke-linejoin="round" d="M 3706,18086 L 3706,17936"/>
 <path fill="none" stroke="rgb(179,179,179)" stroke-linejoin="round" d="M 6176,18086 L 6176,17936"/>
 <path fill="none" stroke="rgb(179,179,179)" stroke-linejoin="round" d="M 8646,18086 L 8646,17936"/>
 <path fill="none" stroke="rgb(179,179,179)" stroke-linejoin="round" d="M 11116,18086 L 11116,17936"/>
 <path fill="none" stroke="rgb(179,179,179)" stroke-linejoin="round" d="M 13586,18086 L 13586,17936"/>
 <path fill="none" stroke="rgb(179,179,179)" stroke-linejoin="round" d="M 16055,18086 L 16055,17936"/>
 <path fill="none" stroke="rgb(179,179,179)" stroke-linejoin="round" d="M 18525,18086 L 18525,17936"/>
 <path fill="none" stroke="rgb(179,179,179)" stroke-linejoin="round" d="M 20995,18086 L 20995,17936"/>
 <path fill="none" stroke="rgb(179,179,179)" stroke-linejoin="round" d="M 23465,18086 L 23465,17936"/>
 <path fill="none" stroke="rgb(179,179,179)" stroke-linejoin="round" d="M 1237,17936 L 23465,17936"/>
 <path fill="none" stroke="rgb(179,179,179)" stroke-linejoin="round" d="M 23615,17936 L 23465,17936"/>
 <path fill="none" stroke="rgb(179,179,179)" stroke-linejoin="round" d="M 23615,15644 L 23465,15644"/>
 <path fill="none" stroke="rgb(179,179,179)" stroke-linejoin="round" d="M 23615,13353 L 23465,13353"/>
 <path fill="none" stroke="rgb(179,179,179)" stroke-linejoin="round" d="M 23615,11062 L 23465,11062"/>
 <path fill="none" stroke="rgb(179,179,179)" stroke-linejoin="round" d="M 23615,8771 L 23465,8771"/>
 <path fill="none" stroke="rgb(179,179,179)" stroke-linejoin="round" d="M 23615,6480 L 23465,6480"/>
 <path fill="none" stroke="rgb(179,179,179)" stroke-linejoin="round" d="M 23615,4189 L 23465,4189"/>
 <path fill="none" stroke="rgb(179,179,179)" stroke-linejoin="round" d="M 23615,1897 L 23465,1897"/>
 <path fill="none" stroke="rgb(179,179,179)" stroke-linejoin="round" d="M 23465,17936 L 23465,1898"/>
 <path fill="none" stroke="rgb(179,179,179)" stroke-linejoin="round" d="M 1087,17936 L 1237,17936"/>
 <path fill="none" stroke="rgb(179,179,179)" stroke-linejoin="round" d="M 1087,17936 L 1237,17936"/>
 <path fill="none" stroke="rgb(179,179,179)" stroke-linejoin="round" d="M 1087,16153 L 1237,16153"/>
 <path fill="none" stroke="rgb(179,179,179)" stroke-linejoin="round" d="M 1087,16153 L 1237,16153"/>
 <path fill="none" stroke="rgb(179,179,179)" stroke-linejoin="round" d="M 1087,14371 L 1237,14371"/>
 <path fill="none" stroke="rgb(179,179,179)" stroke-linejoin="round" d="M 1087,14371 L 1237,14371"/>
 <path fill="none" stroke="rgb(179,179,179)" stroke-linejoin="round" d="M 1087,12589 L 1237,12589"/>
 <path fill="none" stroke="rgb(179,179,179)" stroke-linejoin="round" d="M 1087,12589 L 1237,12589"/>
 <path fill="none" stroke="rgb(179,179,179)" stroke-linejoin="round" d="M 1087,10807 L 1237,10807"/>
 <path fill="none" stroke="rgb(179,179,179)" stroke-linejoin="round" d="M 1087,10807 L 1237,10807"/>
 <path fill="none" stroke="rgb(179,179,179)" stroke-linejoin="round" d="M 1087,9026 L 1237,9026"/>
 <path fill="none" stroke="rgb(179,179,179)" stroke-linejoin="round" d="M 1087,9026 L 1237,9026"/>
 <path fill="none" stroke="rgb(179,179,179)" stroke-linejoin="round" d="M 1087,7244 L 1237,7244"/>
 <path fill="none" stroke="rgb(179,179,179)" stroke-linejoin="round" d="M 1087,7244 L 1237,7244"/>
 <path fill="none" stroke="rgb(179,179,179)" stroke-linejoin="round" d="M 1087,5462 L 1237,5462"/>
 <path fill="none" stroke="rgb(179,179,179)" stroke-linejoin="round" d="M 1087,5462 L 1237,5462"/>
 <path fill="none" stroke="rgb(179,179,179)" stroke-linejoin="round" d="M 1087,3680 L 1237,3680"/>
 <path fill="none" stroke="rgb(179,179,179)" stroke-linejoin="round" d="M 1087,3680 L 1237,3680"/>
 <path fill="none" stroke="rgb(179,179,179)" stroke-linejoin="round" d="M 1087,1898 L 1237,1898"/>
 <path fill="none" stroke="rgb(179,179,179)" stroke-linejoin="round" d="M 1087,1898 L 1237,1898"/>
 <path fill="none" stroke="rgb(179,179,179)" stroke-linejoin="round" d="M 1237,17936 L 1237,1898"/>
 <path fill="none" stroke="rgb(255,0,0)" stroke-width="80" stroke-linejoin="round" stroke-dasharray="80,40" d="M 1237,11887 L 3706,4807 6176,7832 8646,6663 11116,8978 13586,10787 16055,7580 18525,5197 20995,12963 23465,8817"/>
 <path fill="rgb(255,0,0)" stroke="none" d="M 1131,11781 L 1131,11993 1343,11993 1343,11781 1131,11781 Z"/>
 <path fill="none" stroke="rgb(255,0,0)" stroke-linejoin="round" d="M 1131,11781 L 1131,11993 1343,11993 1343,11781 1131,11781 Z"/>
 <path fill="rgb(255,0,0)" stroke="none" d="M 3600,4701 L 3600,4913 3812,4913 3812,4701 3600,4701 Z"/>
 <path fill="none" stroke="rgb(255,0,0)" stroke-linejoin="round" d="M 3600,4701 L 3600,4913 3812,4913 3812,4701 3600,4701 Z"/>
 <path fill="rgb(255,0,0)" stroke="none" d="M 6070,7726 L 6070,7938 6282,7938 6282,7726 6070,7726 Z"/>
 <path fill="none" stroke="rgb(255,0,0)" stroke-linejoin="round" d="M 6070,7726 L 6070,7938 6282,7938 6282,7726 6070,7726 Z"/>
 <path fill="rgb(255,0,0)" stroke="none" d="M 8540,6557 L 8540,6769 8752,6769 8752,6557 8540,6557 Z"/>
 <path fill="none" stroke="rgb(255,0,0)" stroke-linejoin="round" d="M 8540,6557 L 8540,6769 8752,6769 8752,6557 8540,6557 Z"/>
 <path fill="rgb(255,0,0)" stroke="none" d="M 11010,8872 L 11010,9084 11222,9084 11222,8872 11010,8872 Z"/>
 <path fill="none" stroke="rgb(255,0,0)" stroke-linejoin="round" d="M 11010,8872 L 11010,9084 11222,9084 11222,8872 11010,8872 Z"/>
 <path fill="rgb(255,0,0)" stroke="none" d="M 13480,10681 L 13480,10893 13692,10893 13692,10681 13480,10681 Z"/>
 <path fill="none" stroke="rgb(255,0,0)" stroke-linejoin="round" d="M 13480,10681 L 13480,10893 13692,10893 13692,10681 13480,10681 Z"/>
 <path fill="rgb(255,0,0)" stroke="none" d="M 15949,7474 L 15949,7686 16161,7686 16161,7474 15949,7474 Z"/>
 <path fill="none" stroke="rgb(255,0,0)" stroke-linejoin="round" d="M 15949,7474 L 15949,7686 16161,7686 16161,7474 15949,7474 Z"/>
 <path fill="rgb(255,0,0)" stroke="none" d="M 18419,5091 L 18419,5303 18631,5303 18631,5091 18419,5091 Z"/>
 <path fill="none" stroke="rgb(255,0,0)" stroke-linejoin="round" d="M 18419,5091 L 18419,5303 18631,5303 18631,5091 18419,5091 Z"/>
 <path fill="rgb(255,0,0)" stroke="none" d="M 20889,12857 L 20889,13069 21101,13069 21101,12857 20889,12857 Z"/>
 <path fill="none" stroke="rgb(255,0,0)" stroke-linejoin="round" d="M 20889,12857 L 20889,13069 21101,13069 21101,12857 20889,12857 Z"/>
 <path fill="rgb(255,0,0)" stroke="none" d="M 23359,8711 L 23359,8923 23571,8923 23571,8711 23359,8711 Z"/>
 <path fill="none" stroke="rgb(255,0,0)" stroke-linejoin="round" d="M 23359,8711 L 23359,8923 23571,8923 23571,8711 23359,8711 Z"/>
 <path fill="none" stroke="rgb(255,0,0)" stroke-width="80" stroke-linejoin="round" d="M 1237,12144 L 3706,13935 6176,8999 8646,12402 11116,15057 13586,16840 16055,13035 18525,13507 20995,8171 23465,4624"/>
 <path fill="rgb(255,0,0)" stroke="none" d="M 1131,12144 L 1237,12250 1343,12144 1237,12038 1131,12144 Z"/>
 <path fill="none" stroke="rgb(255,0,0)" stroke-linejoin="round" d="M 1131,12144 L 1237,12250 1343,12144 1237,12038 1131,12144 Z"/>
 <path fill="rgb(255,0,0)" stroke="none" d="M 3600,13935 L 3706,14041 3812,13935 3706,13829 3600,13935 Z"/>
 <path fill="none" stroke="rgb(255,0,0)" stroke-linejoin="round" d="M 3600,13935 L 3706,14041 3812,13935 3706,13829 3600,13935 Z"/>
 <path fill="rgb(255,0,0)" stroke="none" d="M 6070,8999 L 6176,9105 6282,8999 6176,8893 6070,8999 Z"/>
 <path fill="none" stroke="rgb(255,0,0)" stroke-linejoin="round" d="M 6070,8999 L 6176,9105 6282,8999 6176,8893 6070,8999 Z"/>
 <path fill="rgb(255,0,0)" stroke="none" d="M 8540,12402 L 8646,12508 8752,12402 8646,12296 8540,12402 Z"/>
 <path fill="none" stroke="rgb(255,0,0)" stroke-linejoin="round" d="M 8540,12402 L 8646,12508 8752,12402 8646,12296 8540,12402 Z"/>
 <path fill="rgb(255,0,0)" stroke="none" d="M 11010,15057 L 11116,15163 11222,15057 11116,14951 11010,15057 Z"/>
 <path fill="none" stroke="rgb(255,0,0)" stroke-linejoin="round" d="M 11010,15057 L 11116,15163 11222,15057 11116,14951 11010,15057 Z"/>
 <path fill="rgb(255,0,0)" stroke="none" d="M 13480,16840 L 13586,16946 13692,16840 13586,16734 13480,16840 Z"/>
 <path fill="none" stroke="rgb(255,0,0)" stroke-linejoin="round" d="M 13480,16840 L 13586,16946 13692,16840 13586,16734 13480,16840 Z"/>
 <path fill="rgb(255,0,0)" stroke="none" d="M 15949,13035 L 16055,13141 16161,13035 16055,12929 15949,13035 Z"/>
 <path fill="none" stroke="rgb(255,0,0)" stroke-linejoin="round" d="M 15949,13035 L 16055,13141 16161,13035 16055,12929 15949,13035 Z"/>
 <path fill="rgb(255,0,0)" stroke="none" d="M 18419,13507 L 18525,13613 18631,13507 18525,13401 18419,13507 Z"/>
 <path fill="none" stroke="rgb(255,0,0)" stroke-linejoin="round" d="M 18419,13507 L 18525,13613 18631,13507 18525,13401 18419,13507 Z"/>
 <path fill="rgb(255,0,0)" stroke="none" d="M 20889,8171 L 20995,8277 21101,8171 20995,8065 20889,8171 Z"/>
 <path fill="none" stroke="rgb(255,0,0)" stroke-linejoin="round" d="M 20889,8171 L 20995,8277 21101,8171 20995,8065 20889,8171 Z"/>
 <path fill="rgb(255,0,0)" stroke="none" d="M 23359,4624 L 23465,4730 23571,4624 23465,4518 23359,4624 Z"/>
 <path fill="none" stroke="rgb(255,0,0)" stroke-linejoin="round" d="M 23359,4624 L 23465,4730 23571,4624 23465,4518 23359,4624 Z"/>
 <path fill="none" stroke="rgb(0,153,51)" stroke-width="80" stroke-linejoin="round" stroke-dasharray="80,40" d="M 1237,6434 L 3706,6388 6176,6388 8646,7786 11116,6182 13586,6411 16055,6457 18525,6388 20995,6503 23465,7969"/>
 <path fill="rgb(0,153,51)" stroke="none" d="M 1131,6328 L 1237,6540 1343,6328 1131,6328 Z"/>
 <path fill="none" stroke="rgb(0,153,51)" stroke-linejoin="round" d="M 1131,6328 L 1237,6540 1343,6328 1131,6328 Z"/>
 <path fill="rgb(0,153,51)" stroke="none" d="M 3600,6282 L 3706,6494 3812,6282 3600,6282 Z"/>
 <path fill="none" stroke="rgb(0,153,51)" stroke-linejoin="round" d="M 3600,6282 L 3706,6494 3812,6282 3600,6282 Z"/>
 <path fill="rgb(0,153,51)" stroke="none" d="M 6070,6282 L 6176,6494 6282,6282 6070,6282 Z"/>
 <path fill="none" stroke="rgb(0,153,51)" stroke-linejoin="round" d="M 6070,6282 L 6176,6494 6282,6282 6070,6282 Z"/>
 <path fill="rgb(0,153,51)" stroke="none" d="M 8540,7680 L 8646,7892 8752,7680 8540,7680 Z"/>
 <path fill="none" stroke="rgb(0,153,51)" stroke-linejoin="round" d="M 8540,7680 L 8646,7892 8752,7680 8540,7680 Z"/>
 <path fill="rgb(0,153,51)" stroke="none" d="M 11010,6076 L 11116,6288 11222,6076 11010,6076 Z"/>
 <path fill="none" stroke="rgb(0,153,51)" stroke-linejoin="round" d="M 11010,6076 L 11116,6288 11222,6076 11010,6076 Z"/>
 <path fill="rgb(0,153,51)" stroke="none" d="M 13480,6305 L 13586,6517 13692,6305 13480,6305 Z"/>
 <path fill="none" stroke="rgb(0,153,51)" stroke-linejoin="round" d="M 13480,6305 L 13586,6517 13692,6305 13480,6305 Z"/>
 <path fill="rgb(0,153,51)" stroke="none" d="M 15949,6351 L 16055,6563 16161,6351 15949,6351 Z"/>
 <path fill="none" stroke="rgb(0,153,51)" stroke-linejoin="round" d="M 15949,6351 L 16055,6563 16161,6351 15949,6351 Z"/>
 <path fill="rgb(0,153,51)" stroke="none" d="M 18419,6282 L 18525,6494 18631,6282 18419,6282 Z"/>
 <path fill="none" stroke="rgb(0,153,51)" stroke-linejoin="round" d="M 18419,6282 L 18525,6494 18631,6282 18419,6282 Z"/>
 <path fill="rgb(0,153,51)" stroke="none" d="M 20889,6397 L 20995,6609 21101,6397 20889,6397 Z"/>
 <path fill="none" stroke="rgb(0,153,51)" stroke-linejoin="round" d="M 20889,6397 L 20995,6609 21101,6397 20889,6397 Z"/>
 <path fill="rgb(0,153,51)" stroke="none" d="M 23359,7863 L 23465,8075 23571,7863 23359,7863 Z"/>
 <path fill="none" stroke="rgb(0,153,51)" stroke-linejoin="round" d="M 23359,7863 L 23465,8075 23571,7863 23359,7863 Z"/>
 <path fill="none" stroke="rgb(0,153,51)" stroke-width="80" stroke-linejoin="round" d="M 1237,10192 L 3706,12090 6176,12473 8646,11609 11116,13534 13586,13382 16055,12634 18525,12946 20995,12545 23465,12259"/>
 <path fill="rgb(0,153,51)" stroke="none" d="M 1131,10298 L 1343,10298 1237,10086 1131,10298 Z"/>
 <path fill="none" stroke="rgb(0,153,51)" stroke-linejoin="round" d="M 1131,10298 L 1343,10298 1237,10086 1131,10298 Z"/>
 <path fill="rgb(0,153,51)" stroke="none" d="M 3600,12196 L 3812,12196 3706,11984 3600,12196 Z"/>
 <path fill="none" stroke="rgb(0,153,51)" stroke-linejoin="round" d="M 3600,12196 L 3812,12196 3706,11984 3600,12196 Z"/>
 <path fill="rgb(0,153,51)" stroke="none" d="M 6070,12579 L 6282,12579 6176,12367 6070,12579 Z"/>
 <path fill="none" stroke="rgb(0,153,51)" stroke-linejoin="round" d="M 6070,12579 L 6282,12579 6176,12367 6070,12579 Z"/>
 <path fill="rgb(0,153,51)" stroke="none" d="M 8540,11715 L 8752,11715 8646,11503 8540,11715 Z"/>
 <path fill="none" stroke="rgb(0,153,51)" stroke-linejoin="round" d="M 8540,11715 L 8752,11715 8646,11503 8540,11715 Z"/>
 <path fill="rgb(0,153,51)" stroke="none" d="M 11010,13640 L 11222,13640 11116,13428 11010,13640 Z"/>
 <path fill="none" stroke="rgb(0,153,51)" stroke-linejoin="round" d="M 11010,13640 L 11222,13640 11116,13428 11010,13640 Z"/>
 <path fill="rgb(0,153,51)" stroke="none" d="M 13480,13488 L 13692,13488 13586,13276 13480,13488 Z"/>
 <path fill="none" stroke="rgb(0,153,51)" stroke-linejoin="round" d="M 13480,13488 L 13692,13488 13586,13276 13480,13488 Z"/>
 <path fill="rgb(0,153,51)" stroke="none" d="M 15949,12740 L 16161,12740 16055,12528 15949,12740 Z"/>
 <path fill="none" stroke="rgb(0,153,51)" stroke-linejoin="round" d="M 15949,12740 L 16161,12740 16055,12528 15949,12740 Z"/>
 <path fill="rgb(0,153,51)" stroke="none" d="M 18419,13052 L 18631,13052 18525,12840 18419,13052 Z"/>
 <path fill="none" stroke="rgb(0,153,51)" stroke-linejoin="round" d="M 18419,13052 L 18631,13052 18525,12840 18419,13052 Z"/>
 <path fill="rgb(0,153,51)" stroke="none" d="M 20889,12651 L 21101,12651 20995,12439 20889,12651 Z"/>
 <path fill="none" stroke="rgb(0,153,51)" stroke-linejoin="round" d="M 20889,12651 L 21101,12651 20995,12439 20889,12651 Z"/>
 <path fill="rgb(0,153,51)" stroke="none" d="M 23359,12365 L 23571,12365 23465,12153 23359,12365 Z"/>
 <path fill="none" stroke="rgb(0,153,51)" stroke-linejoin="round" d="M 23359,12365 L 23571,12365 23465,12153 23359,12365 Z"/>
 <path fill="none" stroke="rgb(255,204,255)" stroke-width="80" stroke-linejoin="round" stroke-dasharray="80,40" d="M 1237,11657 L 3706,5953 6176,7946 8646,6411 11116,9275 13586,4762 16055,8038 18525,5380 20995,12872 23465,8748"/>
 <path fill="rgb(255,204,255)" stroke="none" d="M 1131,11551 L 1131,11763 1343,11657 1131,11551 Z"/>
 <path fill="none" stroke="rgb(255,204,255)" stroke-linejoin="round" d="M 1131,11551 L 1131,11763 1343,11657 1131,11551 Z"/>
 <path fill="rgb(255,204,255)" stroke="none" d="M 3600,5847 L 3600,6059 3812,5953 3600,5847 Z"/>
 <path fill="none" stroke="rgb(255,204,255)" stroke-linejoin="round" d="M 3600,5847 L 3600,6059 3812,5953 3600,5847 Z"/>
 <path fill="rgb(255,204,255)" stroke="none" d="M 6070,7840 L 6070,8052 6282,7946 6070,7840 Z"/>
 <path fill="none" stroke="rgb(255,204,255)" stroke-linejoin="round" d="M 6070,7840 L 6070,8052 6282,7946 6070,7840 Z"/>
 <path fill="rgb(255,204,255)" stroke="none" d="M 8540,6305 L 8540,6517 8752,6411 8540,6305 Z"/>
 <path fill="none" stroke="rgb(255,204,255)" stroke-linejoin="round" d="M 8540,6305 L 8540,6517 8752,6411 8540,6305 Z"/>
 <path fill="rgb(255,204,255)" stroke="none" d="M 11010,9169 L 11010,9381 11222,9275 11010,9169 Z"/>
 <path fill="none" stroke="rgb(255,204,255)" stroke-linejoin="round" d="M 11010,9169 L 11010,9381 11222,9275 11010,9169 Z"/>
 <path fill="rgb(255,204,255)" stroke="none" d="M 13480,4656 L 13480,4868 13692,4762 13480,4656 Z"/>
 <path fill="none" stroke="rgb(255,204,255)" stroke-linejoin="round" d="M 13480,4656 L 13480,4868 13692,4762 13480,4656 Z"/>
 <path fill="rgb(255,204,255)" stroke="none" d="M 15949,7932 L 15949,8144 16161,8038 15949,7932 Z"/>
 <path fill="none" stroke="rgb(255,204,255)" stroke-linejoin="round" d="M 15949,7932 L 15949,8144 16161,8038 15949,7932 Z"/>
 <path fill="rgb(255,204,255)" stroke="none" d="M 18419,5274 L 18419,5486 18631,5380 18419,5274 Z"/>
 <path fill="none" stroke="rgb(255,204,255)" stroke-linejoin="round" d="M 18419,5274 L 18419,5486 18631,5380 18419,5274 Z"/>
 <path fill="rgb(255,204,255)" stroke="none" d="M 20889,12766 L 20889,12978 21101,12872 20889,12766 Z"/>
 <path fill="none" stroke="rgb(255,204,255)" stroke-linejoin="round" d="M 20889,12766 L 20889,12978 21101,12872 20889,12766 Z"/>
 <path fill="rgb(255,204,255)" stroke="none" d="M 23359,8642 L 23359,8854 23571,8748 23359,8642 Z"/>
 <path fill="none" stroke="rgb(255,204,255)" stroke-linejoin="round" d="M 23359,8642 L 23359,8854 23571,8748 23359,8642 Z"/>
 <path fill="none" stroke="rgb(255,204,255)" stroke-width="80" stroke-linejoin="round" d="M 1237,13142 L 3706,13587 6176,9586 8646,11805 11116,15111 13586,16510 16055,11493 18525,13801 20995,8197 23465,4205"/>
 <path fill="rgb(255,204,255)" stroke="none" d="M 1131,13142 L 1343,13248 1343,13036 1131,13142 Z"/>
 <path fill="none" stroke="rgb(255,204,255)" stroke-linejoin="round" d="M 1131,13142 L 1343,13248 1343,13036 1131,13142 Z"/>
 <path fill="rgb(255,204,255)" stroke="none" d="M 3600,13587 L 3812,13693 3812,13481 3600,13587 Z"/>
 <path fill="none" stroke="rgb(255,204,255)" stroke-linejoin="round" d="M 3600,13587 L 3812,13693 3812,13481 3600,13587 Z"/>
 <path fill="rgb(255,204,255)" stroke="none" d="M 6070,9586 L 6282,9692 6282,9481 6070,9586 Z"/>
 <path fill="none" stroke="rgb(255,204,255)" stroke-linejoin="round" d="M 6070,9586 L 6282,9692 6282,9481 6070,9586 Z"/>
 <path fill="rgb(255,204,255)" stroke="none" d="M 8540,11805 L 8752,11911 8752,11699 8540,11805 Z"/>
 <path fill="none" stroke="rgb(255,204,255)" stroke-linejoin="round" d="M 8540,11805 L 8752,11911 8752,11699 8540,11805 Z"/>
 <path fill="rgb(255,204,255)" stroke="none" d="M 11010,15111 L 11222,15217 11222,15005 11010,15111 Z"/>
 <path fill="none" stroke="rgb(255,204,255)" stroke-linejoin="round" d="M 11010,15111 L 11222,15217 11222,15005 11010,15111 Z"/>
 <path fill="rgb(255,204,255)" stroke="none" d="M 13480,16510 L 13692,16616 13692,16404 13480,16510 Z"/>
 <path fill="none" stroke="rgb(255,204,255)" stroke-linejoin="round" d="M 13480,16510 L 13692,16616 13692,16404 13480,16510 Z"/>
 <path fill="rgb(255,204,255)" stroke="none" d="M 15949,11493 L 16161,11599 16161,11387 15949,11493 Z"/>
 <path fill="none" stroke="rgb(255,204,255)" stroke-linejoin="round" d="M 15949,11493 L 16161,11599 16161,11387 15949,11493 Z"/>
 <path fill="rgb(255,204,255)" stroke="none" d="M 18419,13801 L 18631,13907 18631,13695 18419,13801 Z"/>
 <path fill="none" stroke="rgb(255,204,255)" stroke-linejoin="round" d="M 18419,13801 L 18631,13907 18631,13695 18419,13801 Z"/>
 <path fill="rgb(255,204,255)" stroke="none" d="M 20889,8197 L 21101,8303 21101,8091 20889,8197 Z"/>
 <path fill="none" stroke="rgb(255,204,255)" stroke-linejoin="round" d="M 20889,8197 L 21101,8303 21101,8091 20889,8197 Z"/>
 <path fill="rgb(255,204,255)" stroke="none" d="M 23359,4205 L 23571,4311 23571,4099 23359,4205 Z"/>
 <path fill="none" stroke="rgb(255,204,255)" stroke-linejoin="round" d="M 23359,4205 L 23571,4311 23571,4099 23359,4205 Z"/>
 <path fill="none" stroke="rgb(0,0,0)" stroke-width="30" stroke-linejoin="round" stroke-dasharray="30,15" d="M 1237,6663 L 3706,6663 6176,6663 8646,6663 11116,6663 13586,6663 16055,6663 18525,6663 20995,6663 23465,6663"/>
 <path fill="none" stroke="rgb(0,0,0)" stroke-width="30" stroke-linejoin="round" d="M 1237,12402 L 3706,12402 6176,12402 8646,12402 11116,12402 13586,12402 16055,12402 18525,12402 20995,12402 23465,12402"/>
 <text class="TextShape"><tspan class="TextParagraph" font-family="Liberation Sans, sans-serif" font-size="353px" font-weight="400"><tspan class="TextPosition" x="999" y="18504"><tspan fill="rgb(0,0,0)" stroke="none">src</tspan></tspan></tspan></text>
 <text class="TextShape"><tspan class="TextParagraph" font-family="Liberation Sans, sans-serif" font-size="353px" font-weight="400"><tspan class="TextPosition" x="3124" y="18504"><tspan fill="rgb(0,0,0)" stroke="none">wdev_0</tspan></tspan></tspan></text>
 <text class="TextShape"><tspan class="TextParagraph" font-family="Liberation Sans, sans-serif" font-size="353px" font-weight="400"><tspan class="TextPosition" x="5752" y="18504"><tspan fill="rgb(0,0,0)" stroke="none">hm_0</tspan></tspan></tspan></text>
 <text class="TextShape"><tspan class="TextParagraph" font-family="Liberation Sans, sans-serif" font-size="353px" font-weight="400"><tspan class="TextPosition" x="8130" y="18504"><tspan fill="rgb(0,0,0)" stroke="none">mds_0</tspan></tspan></tspan></text>
 <text class="TextShape"><tspan class="TextParagraph" font-family="Liberation Sans, sans-serif" font-size="353px" font-weight="400"><tspan class="TextPosition" x="10692" y="18504"><tspan fill="rgb(0,0,0)" stroke="none">prn_0</tspan></tspan></tspan></text>
 <text class="TextShape"><tspan class="TextParagraph" font-family="Liberation Sans, sans-serif" font-size="353px" font-weight="400"><tspan class="TextPosition" x="13017" y="18504"><tspan fill="rgb(0,0,0)" stroke="none">rsrch_0</tspan></tspan></tspan></text>
 <text class="TextShape"><tspan class="TextParagraph" font-family="Liberation Sans, sans-serif" font-size="353px" font-weight="400"><tspan class="TextPosition" x="15632" y="18504"><tspan fill="rgb(0,0,0)" stroke="none">stg_0</tspan></tspan></tspan></text>
 <text class="TextShape"><tspan class="TextParagraph" font-family="Liberation Sans, sans-serif" font-size="353px" font-weight="400"><tspan class="TextPosition" x="18195" y="18504"><tspan fill="rgb(0,0,0)" stroke="none">ts_0</tspan></tspan></tspan></text>
 <text class="TextShape"><tspan class="TextParagraph" font-family="Liberation Sans, sans-serif" font-size="353px" font-weight="400"><tspan class="TextPosition" x="20572" y="18504"><tspan fill="rgb(0,0,0)" stroke="none">usr_0</tspan></tspan></tspan></text>
 <text class="TextShape"><tspan class="TextParagraph" font-family="Liberation Sans, sans-serif" font-size="353px" font-weight="400"><tspan class="TextPosition" x="22976" y="18504"><tspan fill="rgb(0,0,0)" stroke="none">web_0</tspan></tspan></tspan></text>
 <text class="TextShape"><tspan class="TextParagraph" font-family="Liberation Sans, sans-serif" font-size="353px" font-weight="400"><tspan class="TextPosition" x="23715" y="18057"><tspan fill="rgb(0,0,0)" stroke="none">0</tspan></tspan></tspan></text>
 <text class="TextShape"><tspan class="TextParagraph" font-family="Liberation Sans, sans-serif" font-size="353px" font-weight="400"><tspan class="TextPosition" x="23715" y="15765"><tspan fill="rgb(0,0,0)" stroke="none">0.1</tspan></tspan></tspan></text>
 <text class="TextShape"><tspan class="TextParagraph" font-family="Liberation Sans, sans-serif" font-size="353px" font-weight="400"><tspan class="TextPosition" x="23715" y="13474"><tspan fill="rgb(0,0,0)" stroke="none">0.2</tspan></tspan></tspan></text>
 <text class="TextShape"><tspan class="TextParagraph" font-family="Liberation Sans, sans-serif" font-size="353px" font-weight="400"><tspan class="TextPosition" x="23715" y="11183"><tspan fill="rgb(0,0,0)" stroke="none">0.3</tspan></tspan></tspan></text>
 <text class="TextShape"><tspan class="TextParagraph" font-family="Liberation Sans, sans-serif" font-size="353px" font-weight="400"><tspan class="TextPosition" x="23715" y="8891"><tspan fill="rgb(0,0,0)" stroke="none">0.4</tspan></tspan></tspan></text>
 <text class="TextShape"><tspan class="TextParagraph" font-family="Liberation Sans, sans-serif" font-size="353px" font-weight="400"><tspan class="TextPosition" x="23715" y="6600"><tspan fill="rgb(0,0,0)" stroke="none">0.5</tspan></tspan></tspan></text>
 <text class="TextShape"><tspan class="TextParagraph" font-family="Liberation Sans, sans-serif" font-size="353px" font-weight="400"><tspan class="TextPosition" x="23715" y="4309"><tspan fill="rgb(0,0,0)" stroke="none">0.6</tspan></tspan></tspan></text>
 <text class="TextShape"><tspan class="TextParagraph" font-family="Liberation Sans, sans-serif" font-size="353px" font-weight="400"><tspan class="TextPosition" x="23715" y="2017"><tspan fill="rgb(0,0,0)" stroke="none">0.7</tspan></tspan></tspan></text>
 <text class="TextShape"><tspan class="TextParagraph" font-family="Liberation Sans, sans-serif" font-size="353px" font-weight="400"><tspan class="TextPosition" x="802" y="18057"><tspan fill="rgb(0,0,0)" stroke="none">0</tspan></tspan></tspan></text>
 <text class="TextShape"><tspan class="TextParagraph" font-family="Liberation Sans, sans-serif" font-size="353px" font-weight="400"><tspan class="TextPosition" x="802" y="16274"><tspan fill="rgb(0,0,0)" stroke="none">2</tspan></tspan></tspan></text>
 <text class="TextShape"><tspan class="TextParagraph" font-family="Liberation Sans, sans-serif" font-size="353px" font-weight="400"><tspan class="TextPosition" x="802" y="14492"><tspan fill="rgb(0,0,0)" stroke="none">4</tspan></tspan></tspan></text>
 <text class="TextShape"><tspan class="TextParagraph" font-family="Liberation Sans, sans-serif" font-size="353px" font-weight="400"><tspan class="TextPosition" x="802" y="12710"><tspan fill="rgb(0,0,0)" stroke="none">6</tspan></tspan></tspan></text>
 <text class="TextShape"><tspan class="TextParagraph" font-family="Liberation Sans, sans-serif" font-size="353px" font-weight="400"><tspan class="TextPosition" x="802" y="10928"><tspan fill="rgb(0,0,0)" stroke="none">8</tspan></tspan></tspan></text>
 <text class="TextShape"><tspan class="TextParagraph" font-family="Liberation Sans, sans-serif" font-size="353px" font-weight="400"><tspan class="TextPosition" x="617" y="9146"><tspan fill="rgb(0,0,0)" stroke="none">10</tspan></tspan></tspan></text>
 <text class="TextShape"><tspan class="TextParagraph" font-family="Liberation Sans, sans-serif" font-size="353px" font-weight="400"><tspan class="TextPosition" x="617" y="7364"><tspan fill="rgb(0,0,0)" stroke="none">12</tspan></tspan></tspan></text>
 <text class="TextShape"><tspan class="TextParagraph" font-family="Liberation Sans, sans-serif" font-size="353px" font-weight="400"><tspan class="TextPosition" x="617" y="5582"><tspan fill="rgb(0,0,0)" stroke="none">14</tspan></tspan></tspan></text>
 <text class="TextShape"><tspan class="TextParagraph" font-family="Liberation Sans, sans-serif" font-size="353px" font-weight="400"><tspan class="TextPosition" x="617" y="3800"><tspan fill="rgb(0,0,0)" stroke="none">16</tspan></tspan></tspan></text>
 <text class="TextShape"><tspan class="TextParagraph" font-family="Liberation Sans, sans-serif" font-size="353px" font-weight="400"><tspan class="TextPosition" x="617" y="2018"><tspan fill="rgb(0,0,0)" stroke="none">18</tspan></tspan></tspan></text>
 <text class="TextShape"><tspan class="TextParagraph" font-family="Arial, sans-serif" font-size="459px" font-weight="700"><tspan class="TextPosition" x="14535" y="1076"><tspan fill="rgb(0,0,0)" stroke="none">mds</tspan></tspan></tspan></text>
 <path fill="none" stroke="rgb(255,0,0)" stroke-width="80" stroke-linejoin="round" stroke-dasharray="80,40" d="M 24907,7738 L 26507,7738"/>
 <path fill="rgb(255,0,0)" stroke="none" d="M 25601,7633 L 25601,7843 25812,7843 25812,7633 25601,7633 Z"/>
 <path fill="none" stroke="rgb(255,0,0)" stroke-linejoin="round" d="M 25601,7633 L 25601,7843 25812,7843 25812,7633 25601,7633 Z"/>
 <path fill="none" stroke="rgb(255,0,0)" stroke-width="80" stroke-linejoin="round" d="M 24907,8236 L 26507,8236"/>
 <path fill="rgb(255,0,0)" stroke="none" d="M 25601,8236 L 25707,8341 25812,8236 25707,8131 25601,8236 Z"/>
 <path fill="none" stroke="rgb(255,0,0)" stroke-linejoin="round" d="M 25601,8236 L 25707,8341 25812,8236 25707,8131 25601,8236 Z"/>
 <path fill="none" stroke="rgb(0,153,51)" stroke-width="80" stroke-linejoin="round" stroke-dasharray="80,40" d="M 24907,8734 L 26507,8734"/>
 <path fill="rgb(0,153,51)" stroke="none" d="M 25601,8629 L 25707,8839 25812,8629 25601,8629 Z"/>
 <path fill="none" stroke="rgb(0,153,51)" stroke-linejoin="round" d="M 25601,8629 L 25707,8839 25812,8629 25601,8629 Z"/>
 <path fill="none" stroke="rgb(0,153,51)" stroke-width="80" stroke-linejoin="round" d="M 24907,9232 L 26507,9232"/>
 <path fill="rgb(0,153,51)" stroke="none" d="M 25601,9337 L 25812,9337 25707,9127 25601,9337 Z"/>
 <path fill="none" stroke="rgb(0,153,51)" stroke-linejoin="round" d="M 25601,9337 L 25812,9337 25707,9127 25601,9337 Z"/>
 <path fill="none" stroke="rgb(255,204,255)" stroke-width="80" stroke-linejoin="round" stroke-dasharray="80,40" d="M 24907,9729 L 26507,9729"/>
 <path fill="rgb(255,204,255)" stroke="none" d="M 25601,9624 L 25601,9834 25812,9729 25601,9624 Z"/>
 <path fill="none" stroke="rgb(255,204,255)" stroke-linejoin="round" d="M 25601,9624 L 25601,9834 25812,9729 25601,9624 Z"/>
 <path fill="none" stroke="rgb(255,204,255)" stroke-width="80" stroke-linejoin="round" d="M 24907,10227 L 26507,10227"/>
 <path fill="rgb(255,204,255)" stroke="none" d="M 25601,10227 L 25812,10332 25812,10122 25601,10227 Z"/>
 <path fill="none" stroke="rgb(255,204,255)" stroke-linejoin="round" d="M 25601,10227 L 25812,10332 25812,10122 25601,10227 Z"/>
 <path fill="none" stroke="rgb(0,0,0)" stroke-width="30" stroke-linejoin="round" stroke-dasharray="30,15" d="M 24907,10725 L 26507,10725"/>
 <path fill="none" stroke="rgb(0,0,0)" stroke-width="30" stroke-linejoin="round" d="M 24907,11223 L 26507,11223"/>
 <text class="TextShape"><tspan class="TextParagraph" font-family="Liberation Sans, sans-serif" font-size="353px" font-weight="400"><tspan class="TextPosition" x="26607" y="7858"><tspan fill="rgb(0,0,0)" stroke="none">o_hit</tspan></tspan></tspan></text>
 <text class="TextShape"><tspan class="TextParagraph" font-family="Liberation Sans, sans-serif" font-size="353px" font-weight="400"><tspan class="TextPosition" x="26607" y="8356"><tspan fill="rgb(0,0,0)" stroke="none">o_amp</tspan></tspan></tspan></text>
 <text class="TextShape"><tspan class="TextParagraph" font-family="Liberation Sans, sans-serif" font-size="353px" font-weight="400"><tspan class="TextPosition" x="26607" y="8854"><tspan fill="rgb(0,0,0)" stroke="none">mds_hit</tspan></tspan></tspan></text>
 <text class="TextShape"><tspan class="TextParagraph" font-family="Liberation Sans, sans-serif" font-size="353px" font-weight="400"><tspan class="TextPosition" x="26607" y="9352"><tspan fill="rgb(0,0,0)" stroke="none">mds_amp</tspan></tspan></tspan></text>
 <text class="TextShape"><tspan class="TextParagraph" font-family="Liberation Sans, sans-serif" font-size="353px" font-weight="400"><tspan class="TextPosition" x="26607" y="9849"><tspan fill="rgb(0,0,0)" stroke="none">other_hit</tspan></tspan></tspan></text>
 <text class="TextShape"><tspan class="TextParagraph" font-family="Liberation Sans, sans-serif" font-size="353px" font-weight="400"><tspan class="TextPosition" x="26607" y="10347"><tspan fill="rgb(0,0,0)" stroke="none">other_amp</tspan></tspan></tspan></text>
 <text class="TextShape"><tspan class="TextParagraph" font-family="Liberation Sans, sans-serif" font-size="353px" font-weight="400"><tspan class="TextPosition" x="26607" y="10845"><tspan fill="rgb(0,0,0)" stroke="none">standard_mds_hit</tspan></tspan></tspan></text>
 <text class="TextShape"><tspan class="TextParagraph" font-family="Liberation Sans, sans-serif" font-size="353px" font-weight="400"><tspan class="TextPosition" x="26607" y="11343"><tspan fill="rgb(0,0,0)" stroke="none">standard_mds_amp</tspan></tspan></tspan></text>
</svg>