<?xml version="1.0" encoding="UTF-8"?>
<!DOCTYPE svg PUBLIC "-//W3C//DTD SVG 1.1//EN" "http://www.w3.org/Graphics/SVG/1.1/DTD/svg11.dtd">
<svg width="335mm" height="182mm" viewBox="0 0 33500 18200" version="1.1" baseProfile="tiny" xmlns="http://www.w3.org/2000/svg" stroke-width="28.222" stroke-linejoin="round" xml:space="preserve">
 <path fill="rgb(255,255,255)" stroke="none" d="M 16771,18188 L 0,18188 0,0 33542,0 33542,18188 16771,18188 Z"/>
 <path fill="none" stroke="rgb(179,179,179)" stroke-linejoin="round" d="M 14522,17178 L 1397,17178 1397,1866 27646,1866 27646,17178 14522,17178 Z"/>
 <path fill="none" stroke="rgb(179,179,179)" stroke-linejoin="round" d="M 27645,17177 L 1397,17177"/>
 <path fill="none" stroke="rgb(179,179,179)" stroke-linejoin="round" d="M 27645,15262 L 1397,15262"/>
 <path fill="none" stroke="rgb(179,179,179)" stroke-linejoin="round" d="M 27645,13348 L 1397,13348"/>
 <path fill="none" stroke="rgb(179,179,179)" stroke-linejoin="round" d="M 27645,11434 L 1397,11434"/>
 <path fill="none" stroke="rgb(179,179,179)" stroke-linejoin="round" d="M 27645,9520 L 1397,9520"/>
 <path fill="none" stroke="rgb(179,179,179)" stroke-linejoin="round" d="M 27645,7607 L 1397,7607"/>
 <path fill="none" stroke="rgb(179,179,179)" stroke-linejoin="round" d="M 27645,5693 L 1397,5693"/>
 <path fill="none" stroke="rgb(179,179,179)" stroke-linejoin="round" d="M 27645,3779 L 1397,3779"/>
 <path fill="none" stroke="rgb(179,179,179)" stroke-linejoin="round" d="M 27645,1865 L 1397,1865"/>
 <path fill="none" stroke="rgb(179,179,179)" stroke-linejoin="round" d="M 1397,17327 L 1397,17177"/>
 <path fill="none" stroke="rgb(179,179,179)" stroke-linejoin="round" d="M 1397,17327 L 1397,17177"/>
 <path fill="none" stroke="rgb(179,179,179)" stroke-linejoin="round" d="M 4313,17327 L 4313,17177"/>
 <path fill="none" stroke="rgb(179,179,179)" stroke-linejoin="round" d="M 4313,17327 L 4313,17177"/>
 <path fill="none" stroke="rgb(179,179,179)" stroke-linejoin="round" d="M 7230,17327 L 7230,17177"/>
 <path fill="none" stroke="rgb(179,179,179)" stroke-linejoin="round" d="M 7230,17327 L 7230,17177"/>
 <path fill="none" stroke="rgb(179,179,179)" stroke-linejoin="round" d="M 10146,17327 L 10146,17177"/>
 <path fill="none" stroke="rgb(179,179,179)" stroke-linejoin="round" d="M 10146,17327 L 10146,17177"/>
 <path fill="none" stroke="rgb(179,179,179)" stroke-linejoin="round" d="M 13063,17327 L 13063,17177"/>
 <path fill="none" stroke="rgb(179,179,179)" stroke-linejoin="round" d="M 13063,17327 L 13063,17177"/>
 <path fill="none" stroke="rgb(179,179,179)" stroke-linejoin="round" d="M 15980,17327 L 15980,17177"/>
 <path fill="none" stroke="rgb(179,179,179)" stroke-linejoin="round" d="M 15980,17327 L 15980,17177"/>
 <path fill="none" stroke="rgb(179,179,179)" stroke-linejoin="round" d="M 18895,17327 L 18895,17177"/>
 <path fill="none" stroke="rgb(179,179,179)" stroke-linejoin="round" d="M 18895,17327 L 18895,17177"/>
 <path fill="none" stroke="rgb(179,179,179)" stroke-linejoin="round" d="M 21812,17327 L 21812,17177"/>
 <path fill="none" stroke="rgb(179,179,179)" stroke-linejoin="round" d="M 21812,17327 L 21812,17177"/>
 <path fill="none" stroke="rgb(179,179,179)" stroke-linejoin="round" d="M 24729,17327 L 24729,17177"/>
 <path fill="none" stroke="rgb(179,179,179)" stroke-linejoin="round" d="M 24729,17327 L 24729,17177"/>
 <path fill="none" stroke="rgb(179,179,179)" stroke-linejoin="round" d="M 27645,17327 L 27645,17177"/>
 <path fill="none" stroke="rgb(179,179,179)" stroke-linejoin="round" d="M 27645,17327 L 27645,17177"/>
 <path fill="none" stroke="rgb(179,179,179)" stroke-linejoin="round" d="M 1397,17177 L 27645,17177"/>
 <path fill="none" stroke="rgb(179,179,179)" stroke-linejoin="round" d="M 1247,17177 L 1397,17177"/>
 <path fill="none" stroke="rgb(179,179,179)" stroke-linejoin="round" d="M 1247,17177 L 1397,17177"/>
 <path fill="none" stroke="rgb(179,179,179)" stroke-linejoin="round" d="M 1247,15262 L 1397,15262"/>
 <path fill="none" stroke="rgb(179,179,179)" stroke-linejoin="round" d="M 1247,15262 L 1397,15262"/>
 <path fill="none" stroke="rgb(179,179,179)" stroke-linejoin="round" d="M 1247,13348 L 1397,13348"/>
 <path fill="none" stroke="rgb(179,179,179)" stroke-linejoin="round" d="M 1247,13348 L 1397,13348"/>
 <path fill="none" stroke="rgb(179,179,179)" stroke-linejoin="round" d="M 1247,11434 L 1397,11434"/>
 <path fill="none" stroke="rgb(179,179,179)" stroke-linejoin="round" d="M 1247,11434 L 1397,11434"/>
 <path fill="none" stroke="rgb(179,179,179)" stroke-linejoin="round" d="M 1247,9520 L 1397,9520"/>
 <path fill="none" stroke="rgb(179,179,179)" stroke-linejoin="round" d="M 1247,9520 L 1397,9520"/>
 <path fill="none" stroke="rgb(179,179,179)" stroke-linejoin="round" d="M 1247,7607 L 1397,7607"/>
 <path fill="none" stroke="rgb(179,179,179)" stroke-linejoin="round" d="M 1247,7607 L 1397,7607"/>
 <path fill="none" stroke="rgb(179,179,179)" stroke-linejoin="round" d="M 1247,5693 L 1397,5693"/>
 <path fill="none" stroke="rgb(179,179,179)" stroke-linejoin="round" d="M 1247,5693 L 1397,5693"/>
 <path fill="none" stroke="rgb(179,179,179)" stroke-linejoin="round" d="M 1247,3779 L 1397,3779"/>
 <path fill="none" stroke="rgb(179,179,179)" stroke-linejoin="round" d="M 1247,3779 L 1397,3779"/>
 <path fill="none" stroke="rgb(179,179,179)" stroke-linejoin="round" d="M 1247,1865 L 1397,1865"/>
 <path fill="none" stroke="rgb(179,179,179)" stroke-linejoin="round" d="M 1247,1865 L 1397,1865"/>
 <path fill="none" stroke="rgb(179,179,179)" stroke-linejoin="round" d="M 1397,17177 L 1397,1865"/>
 <path fill="none" stroke="rgb(179,179,179)" stroke-linejoin="round" d="M 27795,17177 L 27645,17177"/>
 <path fill="none" stroke="rgb(179,179,179)" stroke-linejoin="round" d="M 27795,17177 L 27645,17177"/>
 <path fill="none" stroke="rgb(179,179,179)" stroke-linejoin="round" d="M 27795,14624 L 27645,14624"/>
 <path fill="none" stroke="rgb(179,179,179)" stroke-linejoin="round" d="M 27795,14624 L 27645,14624"/>
 <path fill="none" stroke="rgb(179,179,179)" stroke-linejoin="round" d="M 27795,12072 L 27645,12072"/>
 <path fill="none" stroke="rgb(179,179,179)" stroke-linejoin="round" d="M 27795,12072 L 27645,12072"/>
 <path fill="none" stroke="rgb(179,179,179)" stroke-linejoin="round" d="M 27795,9520 L 27645,9520"/>
 <path fill="none" stroke="rgb(179,179,179)" stroke-linejoin="round" d="M 27795,9520 L 27645,9520"/>
 <path fill="none" stroke="rgb(179,179,179)" stroke-linejoin="round" d="M 27795,6969 L 27645,6969"/>
 <path fill="none" stroke="rgb(179,179,179)" stroke-linejoin="round" d="M 27795,6969 L 27645,6969"/>
 <path fill="none" stroke="rgb(179,179,179)" stroke-linejoin="round" d="M 27795,4417 L 27645,4417"/>
 <path fill="none" stroke="rgb(179,179,179)" stroke-linejoin="round" d="M 27795,4417 L 27645,4417"/>
 <path fill="none" stroke="rgb(179,179,179)" stroke-linejoin="round" d="M 27795,1865 L 27645,1865"/>
 <path fill="none" stroke="rgb(179,179,179)" stroke-linejoin="round" d="M 27795,1865 L 27645,1865"/>
 <path fill="none" stroke="rgb(179,179,179)" stroke-linejoin="round" d="M 27645,17177 L 27645,1865"/>
 <path fill="none" stroke="rgb(0,69,134)" stroke-width="80" stroke-linejoin="round" stroke-dasharray="80,40" d="M 1397,12123 L 4313,6210 7230,8736 10147,7760 13063,9692 15980,11204 18895,8526 21812,6535 24729,13023 27645,9558"/>
 <path fill="rgb(0,69,134)" stroke="none" d="M 1272,11998 L 1272,12248 1522,12248 1522,11998 1272,11998 Z"/>
 <path fill="none" stroke="rgb(0,69,134)" stroke-linejoin="round" d="M 1272,11998 L 1272,12248 1522,12248 1522,11998 1272,11998 Z"/>
 <path fill="rgb(0,69,134)" stroke="none" d="M 4188,6085 L 4188,6335 4438,6335 4438,6085 4188,6085 Z"/>
 <path fill="none" stroke="rgb(0,69,134)" stroke-linejoin="round" d="M 4188,6085 L 4188,6335 4438,6335 4438,6085 4188,6085 Z"/>
 <path fill="rgb(0,69,134)" stroke="none" d="M 7105,8611 L 7105,8861 7355,8861 7355,8611 7105,8611 Z"/>
 <path fill="none" stroke="rgb(0,69,134)" stroke-linejoin="round" d="M 7105,8611 L 7105,8861 7355,8861 7355,8611 7105,8611 Z"/>
 <path fill="rgb(0,69,134)" stroke="none" d="M 10022,7635 L 10022,7885 10272,7885 10272,7635 10022,7635 Z"/>
 <path fill="none" stroke="rgb(0,69,134)" stroke-linejoin="round" d="M 10022,7635 L 10022,7885 10272,7885 10272,7635 10022,7635 Z"/>
 <path fill="rgb(0,69,134)" stroke="none" d="M 12938,9567 L 12938,9817 13188,9817 13188,9567 12938,9567 Z"/>
 <path fill="none" stroke="rgb(0,69,134)" stroke-linejoin="round" d="M 12938,9567 L 12938,9817 13188,9817 13188,9567 12938,9567 Z"/>
 <path fill="rgb(0,69,134)" stroke="none" d="M 15855,11079 L 15855,11329 16105,11329 16105,11079 15855,11079 Z"/>
 <path fill="none" stroke="rgb(0,69,134)" stroke-linejoin="round" d="M 15855,11079 L 15855,11329 16105,11329 16105,11079 15855,11079 Z"/>
 <path fill="rgb(0,69,134)" stroke="none" d="M 18770,8401 L 18770,8651 19020,8651 19020,8401 18770,8401 Z"/>
 <path fill="none" stroke="rgb(0,69,134)" stroke-linejoin="round" d="M 18770,8401 L 18770,8651 19020,8651 19020,8401 18770,8401 Z"/>
 <path fill="rgb(0,69,134)" stroke="none" d="M 21687,6410 L 21687,6660 21937,6660 21937,6410 21687,6410 Z"/>
 <path fill="none" stroke="rgb(0,69,134)" stroke-linejoin="round" d="M 21687,6410 L 21687,6660 21937,6660 21937,6410 21687,6410 Z"/>
 <path fill="rgb(0,69,134)" stroke="none" d="M 24604,12898 L 24604,13148 24854,13148 24854,12898 24604,12898 Z"/>
 <path fill="none" stroke="rgb(0,69,134)" stroke-linejoin="round" d="M 24604,12898 L 24604,13148 24854,13148 24854,12898 24604,12898 Z"/>
 <path fill="rgb(0,69,134)" stroke="none" d="M 27520,9433 L 27520,9683 27770,9683 27770,9433 27520,9433 Z"/>
 <path fill="none" stroke="rgb(0,69,134)" stroke-linejoin="round" d="M 27520,9433 L 27520,9683 27770,9683 27770,9433 27520,9433 Z"/>
 <path fill="none" stroke="rgb(0,69,134)" stroke-width="80" stroke-linejoin="round" d="M 1397,13859 L 4313,14885 7230,12057 10147,14007 13063,15528 15980,16549 18895,14369 21812,14640 24729,11582 27645,9551"/>
 <path fill="rgb(0,69,134)" stroke="none" d="M 1272,13859 L 1397,13984 1522,13859 1397,13734 1272,13859 Z"/>
 <path fill="none" stroke="rgb(0,69,134)" stroke-linejoin="round" d="M 1272,13859 L 1397,13984 1522,13859 1397,13734 1272,13859 Z"/>
 <path fill="rgb(0,69,134)" stroke="none" d="M 4188,14885 L 4313,15010 4438,14885 4313,14760 4188,14885 Z"/>
 <path fill="none" stroke="rgb(0,69,134)" stroke-linejoin="round" d="M 4188,14885 L 4313,15010 4438,14885 4313,14760 4188,14885 Z"/>
 <path fill="rgb(0,69,134)" stroke="none" d="M 7105,12057 L 7230,12182 7355,12057 7230,11932 7105,12057 Z"/>
 <path fill="none" stroke="rgb(0,69,134)" stroke-linejoin="round" d="M 7105,12057 L 7230,12182 7355,12057 7230,11932 7105,12057 Z"/>
 <path fill="rgb(0,69,134)" stroke="none" d="M 10022,14007 L 10147,14132 10272,14007 10147,13882 10022,14007 Z"/>
 <path fill="none" stroke="rgb(0,69,134)" stroke-linejoin="round" d="M 10022,14007 L 10147,14132 10272,14007 10147,13882 10022,14007 Z"/>
 <path fill="rgb(0,69,134)" stroke="none" d="M 12938,15528 L 13063,15653 13188,15528 13063,15403 12938,15528 Z"/>
 <path fill="none" stroke="rgb(0,69,134)" stroke-linejoin="round" d="M 12938,15528 L 13063,15653 13188,15528 13063,15403 12938,15528 Z"/>
 <path fill="rgb(0,69,134)" stroke="none" d="M 15855,16549 L 15980,16674 16105,16549 15980,16424 15855,16549 Z"/>
 <path fill="none" stroke="rgb(0,69,134)" stroke-linejoin="round" d="M 15855,16549 L 15980,16674 16105,16549 15980,16424 15855,16549 Z"/>
 <path fill="rgb(0,69,134)" stroke="none" d="M 18770,14369 L 18895,14494 19020,14369 18895,14244 18770,14369 Z"/>
 <path fill="none" stroke="rgb(0,69,134)" stroke-linejoin="round" d="M 18770,14369 L 18895,14494 19020,14369 18895,14244 18770,14369 Z"/>
 <path fill="rgb(0,69,134)" stroke="none" d="M 21687,14640 L 21812,14765 21937,14640 21812,14515 21687,14640 Z"/>
 <path fill="none" stroke="rgb(0,69,134)" stroke-linejoin="round" d="M 21687,14640 L 21812,14765 21937,14640 21812,14515 21687,14640 Z"/>
 <path fill="rgb(0,69,134)" stroke="none" d="M 24604,11582 L 24729,11707 24854,11582 24729,11457 24604,11582 Z"/>
 <path fill="none" stroke="rgb(0,69,134)" stroke-linejoin="round" d="M 24604,11582 L 24729,11707 24854,11582 24729,11457 24604,11582 Z"/>
 <path fill="rgb(0,69,134)" stroke="none" d="M 27520,9551 L 27645,9676 27770,9551 27645,9426 27520,9551 Z"/>
 <path fill="none" stroke="rgb(0,69,134)" stroke-linejoin="round" d="M 27520,9551 L 27645,9676 27770,9551 27645,9426 27520,9551 Z"/>
 <path fill="none" stroke="rgb(87,157,28)" stroke-width="80" stroke-linejoin="round" stroke-dasharray="80,40" d="M 1397,13999 L 4313,4372 7230,9214 10147,7971 13063,10802 15980,11204 18895,8755 21812,5884 24729,3492 27645,9711"/>
 <path fill="rgb(87,157,28)" stroke="none" d="M 1272,13874 L 1397,14124 1522,13874 1272,13874 Z"/>
 <path fill="none" stroke="rgb(87,157,28)" stroke-linejoin="round" d="M 1272,13874 L 1397,14124 1522,13874 1272,13874 Z"/>
 <path fill="rgb(87,157,28)" stroke="none" d="M 4188,4247 L 4313,4497 4438,4247 4188,4247 Z"/>
 <path fill="none" stroke="rgb(87,157,28)" stroke-linejoin="round" d="M 4188,4247 L 4313,4497 4438,4247 4188,4247 Z"/>
 <path fill="rgb(87,157,28)" stroke="none" d="M 7105,9090 L 7230,9339 7355,9090 7105,9090 Z"/>
 <path fill="none" stroke="rgb(87,157,28)" stroke-linejoin="round" d="M 7105,9090 L 7230,9339 7355,9090 7105,9090 Z"/>
 <path fill="rgb(87,157,28)" stroke="none" d="M 10022,7846 L 10147,8096 10272,7846 10022,7846 Z"/>
 <path fill="none" stroke="rgb(87,157,28)" stroke-linejoin="round" d="M 10022,7846 L 10147,8096 10272,7846 10022,7846 Z"/>
 <path fill="rgb(87,157,28)" stroke="none" d="M 12938,10677 L 13063,10927 13188,10677 12938,10677 Z"/>
 <path fill="none" stroke="rgb(87,157,28)" stroke-linejoin="round" d="M 12938,10677 L 13063,10927 13188,10677 12938,10677 Z"/>
 <path fill="rgb(87,157,28)" stroke="none" d="M 15855,11079 L 15980,11329 16105,11079 15855,11079 Z"/>
 <path fill="none" stroke="rgb(87,157,28)" stroke-linejoin="round" d="M 15855,11079 L 15980,11329 16105,11079 15855,11079 Z"/>
 <path fill="rgb(87,157,28)" stroke="none" d="M 18770,8630 L 18895,8880 19020,8630 18770,8630 Z"/>
 <path fill="none" stroke="rgb(87,157,28)" stroke-linejoin="round" d="M 18770,8630 L 18895,8880 19020,8630 18770,8630 Z"/>
 <path fill="rgb(87,157,28)" stroke="none" d="M 21687,5759 L 21812,6009 21937,5759 21687,5759 Z"/>
 <path fill="none" stroke="rgb(87,157,28)" stroke-linejoin="round" d="M 21687,5759 L 21812,6009 21937,5759 21687,5759 Z"/>
 <path fill="rgb(87,157,28)" stroke="none" d="M 24604,3367 L 24729,3617 24854,3367 24604,3367 Z"/>
 <path fill="none" stroke="rgb(87,157,28)" stroke-linejoin="round" d="M 24604,3367 L 24729,3617 24854,3367 24604,3367 Z"/>
 <path fill="rgb(87,157,28)" stroke="none" d="M 27520,9586 L 27645,9836 27770,9586 27520,9586 Z"/>
 <path fill="none" stroke="rgb(87,157,28)" stroke-linejoin="round" d="M 27520,9586 L 27645,9836 27770,9586 27520,9586 Z"/>
 <path fill="none" stroke="rgb(87,157,28)" stroke-width="80" stroke-linejoin="round" d="M 1397,10771 L 4313,11848 7230,3779 10147,12623 13063,14532 15980,16544 18895,12011 21812,12731 24729,4861 27645,3345"/>
 <path fill="rgb(87,157,28)" stroke="none" d="M 1272,10896 L 1522,10896 1397,10646 1272,10896 Z"/>
 <path fill="none" stroke="rgb(87,157,28)" stroke-linejoin="round" d="M 1272,10896 L 1522,10896 1397,10646 1272,10896 Z"/>
 <path fill="rgb(87,157,28)" stroke="none" d="M 4188,11973 L 4438,11973 4313,11723 4188,11973 Z"/>
 <path fill="none" stroke="rgb(87,157,28)" stroke-linejoin="round" d="M 4188,11973 L 4438,11973 4313,11723 4188,11973 Z"/>
 <path fill="rgb(87,157,28)" stroke="none" d="M 7105,3904 L 7355,3904 7230,3654 7105,3904 Z"/>
 <path fill="none" stroke="rgb(87,157,28)" stroke-linejoin="round" d="M 7105,3904 L 7355,3904 7230,3654 7105,3904 Z"/>
 <path fill="rgb(87,157,28)" stroke="none" d="M 10022,12748 L 10272,12748 10147,12498 10022,12748 Z"/>
 <path fill="none" stroke="rgb(87,157,28)" stroke-linejoin="round" d="M 10022,12748 L 10272,12748 10147,12498 10022,12748 Z"/>
 <path fill="rgb(87,157,28)" stroke="none" d="M 12938,14657 L 13188,14657 13063,14407 12938,14657 Z"/>
 <path fill="none" stroke="rgb(87,157,28)" stroke-linejoin="round" d="M 12938,14657 L 13188,14657 13063,14407 12938,14657 Z"/>
 <path fill="rgb(87,157,28)" stroke="none" d="M 15855,16669 L 16105,16669 15980,16419 15855,16669 Z"/>
 <path fill="none" stroke="rgb(87,157,28)" stroke-linejoin="round" d="M 15855,16669 L 16105,16669 15980,16419 15855,16669 Z"/>
 <path fill="rgb(87,157,28)" stroke="none" d="M 18770,12136 L 19020,12136 18895,11886 18770,12136 Z"/>
 <path fill="none" stroke="rgb(87,157,28)" stroke-linejoin="round" d="M 18770,12136 L 19020,12136 18895,11886 18770,12136 Z"/>
 <path fill="rgb(87,157,28)" stroke="none" d="M 21687,12856 L 21937,12856 21812,12606 21687,12856 Z"/>
 <path fill="none" stroke="rgb(87,157,28)" stroke-linejoin="round" d="M 21687,12856 L 21937,12856 21812,12606 21687,12856 Z"/>
 <path fill="rgb(87,157,28)" stroke="none" d="M 24604,4986 L 24854,4986 24729,4736 24604,4986 Z"/>
 <path fill="none" stroke="rgb(87,157,28)" stroke-linejoin="round" d="M 24604,4986 L 24854,4986 24729,4736 24604,4986 Z"/>
 <path fill="rgb(87,157,28)" stroke="none" d="M 27520,3470 L 27770,3470 27645,3220 27520,3470 Z"/>
 <path fill="none" stroke="rgb(87,157,28)" stroke-linejoin="round" d="M 27520,3470 L 27770,3470 27645,3220 27520,3470 Z"/>
 <text class="TextShape"><tspan class="TextParagraph" font-family="Liberation Sans, sans-serif" font-size="353px" font-weight="400"><tspan class="TextPosition" x="1159" y="17745"><tspan fill="rgb(0,0,0)" stroke="none">src</tspan></tspan></tspan></text>
 <text class="TextShape"><tspan class="TextParagraph" font-family="Liberation Sans, sans-serif" font-size="353px" font-weight="400"><tspan class="TextPosition" x="3731" y="17745"><tspan fill="rgb(0,0,0)" stroke="none">wdev_0</tspan></tspan></tspan></text>
 <text class="TextShape"><tspan class="TextParagraph" font-family="Liberation Sans, sans-serif" font-size="353px" font-weight="400"><tspan class="TextPosition" x="6806" y="17745"><tspan fill="rgb(0,0,0)" stroke="none">hm_0</tspan></tspan></tspan></text>
 <text class="TextShape"><tspan class="TextParagraph" font-family="Liberation Sans, sans-serif" font-size="353px" font-weight="400"><tspan class="TextPosition" x="9630" y="17745"><tspan fill="rgb(0,0,0)" stroke="none">mds_0</tspan></tspan></tspan></text>
 <text class="TextShape"><tspan class="TextParagraph" font-family="Liberation Sans, sans-serif" font-size="353px" font-weight="400"><tspan class="TextPosition" x="12639" y="17745"><tspan fill="rgb(0,0,0)" stroke="none">prn_0</tspan></tspan></tspan></text>
 <text class="TextShape"><tspan class="TextParagraph" font-family="Liberation Sans, sans-serif" font-size="353px" font-weight="400"><tspan class="TextPosition" x="15411" y="17745"><tspan fill="rgb(0,0,0)" stroke="none">rsrch_0</tspan></tspan></tspan></text>
 <text class="TextShape"><tspan class="TextParagraph" font-family="Liberation Sans, sans-serif" font-size="353px" font-weight="400"><tspan class="TextPosition" x="18472" y="17745"><tspan fill="rgb(0,0,0)" stroke="none">stg_0</tspan></tspan></tspan></text>
 <text class="TextShape"><tspan class="TextParagraph" font-family="Liberation Sans, sans-serif" font-size="353px" font-weight="400"><tspan class="TextPosition" x="21482" y="17745"><tspan fill="rgb(0,0,0)" stroke="none">ts_0</tspan></tspan></tspan></text>
 <text class="TextShape"><tspan class="TextParagraph" font-family="Liberation Sans, sans-serif" font-size="353px" font-weight="400"><tspan class="TextPosition" x="24306" y="17745"><tspan fill="rgb(0,0,0)" stroke="none">usr_0</tspan></tspan></tspan></text>
 <text class="TextShape"><tspan class="TextParagraph" font-family="Liberation Sans, sans-serif" font-size="353px" font-weight="400"><tspan class="TextPosition" x="27156" y="17745"><tspan fill="rgb(0,0,0)" stroke="none">web_0</tspan></tspan></tspan></text>
 <text class="TextShape"><tspan class="TextParagraph" font-family="Liberation Sans, sans-serif" font-size="353px" font-weight="400"><tspan class="TextPosition" x="962" y="17298"><tspan fill="rgb(0,0,0)" stroke="none">0</tspan></tspan></tspan></text>
 <text class="TextShape"><tspan class="TextParagraph" font-family="Liberation Sans, sans-serif" font-size="353px" font-weight="400"><tspan class="TextPosition" x="671" y="15383"><tspan fill="rgb(0,0,0)" stroke="none">0.1</tspan></tspan></tspan></text>
 <text class="TextShape"><tspan class="TextParagraph" font-family="Liberation Sans, sans-serif" font-size="353px" font-weight="400"><tspan class="TextPosition" x="671" y="13469"><tspan fill="rgb(0,0,0)" stroke="none">0.2</tspan></tspan></tspan></text>
 <text class="TextShape"><tspan class="TextParagraph" font-family="Liberation Sans, sans-serif" font-size="353px" font-weight="400"><tspan class="TextPosition" x="671" y="11555"><tspan fill="rgb(0,0,0)" stroke="none">0.3</tspan></tspan></tspan></text>
 <text class="TextShape"><tspan class="TextParagraph" font-family="Liberation Sans, sans-serif" font-size="353px" font-weight="400"><tspan class="TextPosition" x="671" y="9641"><tspan fill="rgb(0,0,0)" stroke="none">0.4</tspan></tspan></tspan></text>
 <text class="TextShape"><tspan class="TextParagraph" font-family="Liberation Sans, sans-serif" font-size="353px" font-weight="400"><tspan class="TextPosition" x="671" y="7727"><tspan fill="rgb(0,0,0)" stroke="none">0.5</tspan></tspan></tspan></text>
 <text class="TextShape"><tspan class="TextParagraph" font-family="Liberation Sans, sans-serif" font-size="353px" font-weight="400"><tspan class="TextPosition" x="671" y="5813"><tspan fill="rgb(0,0,0)" stroke="none">0.6</tspan></tspan></tspan></text>
 <text class="TextShape"><tspan class="TextParagraph" font-family="Liberation Sans, sans-serif" font-size="353px" font-weight="400"><tspan class="TextPosition" x="671" y="3899"><tspan fill="rgb(0,0,0)" stroke="none">0.7</tspan></tspan></tspan></text>
 <text class="TextShape"><tspan class="TextParagraph" font-family="Liberation Sans, sans-serif" font-size="353px" font-weight="400"><tspan class="TextPosition" x="671" y="1985"><tspan fill="rgb(0,0,0)" stroke="none">0.8</tspan></tspan></tspan></text>
 <text class="TextShape"><tspan class="TextParagraph" font-family="Liberation Sans, sans-serif" font-size="353px" font-weight="400"><tspan class="TextPosition" x="27895" y="17298"><tspan fill="rgb(0,0,0)" stroke="none">0</tspan></tspan></tspan></text>
 <text class="TextShape"><tspan class="TextParagraph" font-family="Liberation Sans, sans-serif" font-size="353px" font-weight="400"><tspan class="TextPosition" x="27895" y="14745"><tspan fill="rgb(0,0,0)" stroke="none">5</tspan></tspan></tspan></text>
 <text class="TextShape"><tspan class="TextParagraph" font-family="Liberation Sans, sans-serif" font-size="353px" font-weight="400"><tspan class="TextPosition" x="27895" y="12193"><tspan fill="rgb(0,0,0)" stroke="none">10</tspan></tspan></tspan></text>
 <text class="TextShape"><tspan class="TextParagraph" font-family="Liberation Sans, sans-serif" font-size="353px" font-weight="400"><tspan class="TextPosition" x="27895" y="9641"><tspan fill="rgb(0,0,0)" stroke="none">15</tspan></tspan></tspan></text>
 <text class="TextShape"><tspan class="TextParagraph" font-family="Liberation Sans, sans-serif" font-size="353px" font-weight="400"><tspan class="TextPosition" x="27895" y="7089"><tspan fill="rgb(0,0,0)" stroke="none">20</tspan></tspan></tspan></text>
 <text class="TextShape"><tspan class="TextParagraph" font-family="Liberation Sans, sans-serif" font-size="353px" font-weight="400"><tspan class="TextPosition" x="27895" y="4537"><tspan fill="rgb(0,0,0)" stroke="none">25</tspan></tspan></tspan></text>
 <text class="TextShape"><tspan class="TextParagraph" font-family="Liberation Sans, sans-serif" font-size="353px" font-weight="400"><tspan class="TextPosition" x="27895" y="1985"><tspan fill="rgb(0,0,0)" stroke="none">30</tspan></tspan></tspan></text>
 <text class="TextShape"><tspan class="TextParagraph" font-family="Liberation Sans, sans-serif" font-size="459px" font-weight="400"><tspan class="TextPosition" x="15091" y="1060"><tspan fill="rgb(0,0,0)" stroke="none">most&amp;most_dirty</tspan></tspan></tspan></text>
 <path fill="none" stroke="rgb(0,69,134)" stroke-width="80" stroke-linejoin="round" stroke-dasharray="80,40" d="M 29053,8346 L 30653,8346"/>
 <path fill="rgb(0,69,134)" stroke="none" d="M 29747,8241 L 29747,8451 29958,8451 29958,8241 29747,8241 Z"/>
 <path fill="none" stroke="rgb(0,69,134)" stroke-linejoin="round" d="M 29747,8241 L 29747,8451 29958,8451 29958,8241 29747,8241 Z"/>
 <path fill="none" stroke="rgb(0,69,134)" stroke-width="80" stroke-linejoin="round" d="M 29053,8844 L 30653,8844"/>
 <path fill="rgb(0,69,134)" stroke="none" d="M 29747,8844 L 29853,8949 29958,8844 29853,8739 29747,8844 Z"/>
 <path fill="none" stroke="rgb(0,69,134)" stroke-linejoin="round" d="M 29747,8844 L 29853,8949 29958,8844 29853,8739 29747,8844 Z"/>
 <path fill="none" stroke="rgb(87,157,28)" stroke-width="80" stroke-linejoin="round" stroke-dasharray="80,40" d="M 29053,9341 L 30653,9341"/>
 <path fill="rgb(87,157,28)" stroke="none" d="M 29747,9236 L 29853,9446 29958,9236 29747,9236 Z"/>
 <path fill="none" stroke="rgb(87,157,28)" stroke-linejoin="round" d="M 29747,9236 L 29853,9446 29958,9236 29747,9236 Z"/>
 <path fill="none" stroke="rgb(87,157,28)" stroke-width="80" stroke-linejoin="round" d="M 29053,9839 L 30653,9839"/>
 <path fill="rgb(87,157,28)" stroke="none" d="M 29747,9944 L 29958,9944 29853,9734 29747,9944 Z"/>
 <path fill="none" stroke="rgb(87,157,28)" stroke-linejoin="round" d="M 29747,9944 L 29958,9944 29853,9734 29747,9944 Z"/>
 <text class="TextShape"><tspan class="TextParagraph" font-family="Liberation Sans, sans-serif" font-size="353px" font-weight="400"><tspan class="TextPosition" x="30753" y="8466"><tspan fill="rgb(0,0,0)" stroke="none">most_hit</tspan></tspan></tspan></text>
 <text class="TextShape"><tspan class="TextParagraph" font-family="Liberation Sans, sans-serif" font-size="353px" font-weight="400"><tspan class="TextPosition" x="30753" y="8964"><tspan fill="rgb(0,0,0)" stroke="none">most_amp</tspan></tspan></tspan></text>
 <text class="TextShape"><tspan class="TextParagraph" font-family="Liberation Sans, sans-serif" font-size="353px" font-weight="400"><tspan class="TextPosition" x="30753" y="9461"><tspan fill="rgb(0,0,0)" stroke="none">most_dirty_hit</tspan></tspan></tspan></text>
 <text class="TextShape"><tspan class="TextParagraph" font-family="Liberation Sans, sans-serif" font-size="353px" font-weight="400"><tspan class="TextPosition" x="30753" y="9959"><tspan fill="rgb(0,0,0)" stroke="none">most_dirty_amp</tspan></tspan></tspan></text>
</svg>