<?xml version="1.0" encoding="UTF-8"?>
<!DOCTYPE svg PUBLIC "-//W3C//DTD SVG 1.1//EN" "http://www.w3.org/Graphics/SVG/1.1/DTD/svg11.dtd">
<svg width="399mm" height="162mm" viewBox="0 0 39900 16200" version="1.1" baseProfile="tiny" xmlns="http://www.w3.org/2000/svg" stroke-width="28.222" stroke-linejoin="round" xml:space="preserve">
 <path fill="rgb(255,255,255)" stroke="none" d="M 19974,16247 L 0,16247 0,0 39948,0 39948,16247 19974,16247 Z"/>
 <path fill="none" stroke="rgb(179,179,179)" stroke-linejoin="round" d="M 18055,15276 L 1525,15276 1525,1788 34584,1788 34584,15276 18055,15276 Z"/>
 <path fill="none" stroke="rgb(179,179,179)" stroke-linejoin="round" d="M 34584,15275 L 1525,15275"/>
 <path fill="none" stroke="rgb(179,179,179)" stroke-linejoin="round" d="M 34584,13776 L 1525,13776"/>
 <path fill="none" stroke="rgb(179,179,179)" stroke-linejoin="round" d="M 34584,12277 L 1525,12277"/>
 <path fill="none" stroke="rgb(179,179,179)" stroke-linejoin="round" d="M 34584,10778 L 1525,10778"/>
 <path fill="none" stroke="rgb(179,179,179)" stroke-linejoin="round" d="M 34584,9279 L 1525,9279"/>
 <path fill="none" stroke="rgb(179,179,179)" stroke-linejoin="round" d="M 34584,7782 L 1525,7782"/>
 <path fill="none" stroke="rgb(179,179,179)" stroke-linejoin="round" d="M 34584,6283 L 1525,6283"/>
 <path fill="none" stroke="rgb(179,179,179)" stroke-linejoin="round" d="M 34584,4784 L 1525,4784"/>
 <path fill="none" stroke="rgb(179,179,179)" stroke-linejoin="round" d="M 34584,3285 L 1525,3285"/>
 <path fill="none" stroke="rgb(179,179,179)" stroke-linejoin="round" d="M 34584,1787 L 1525,1787"/>
 <path fill="none" stroke="rgb(179,179,179)" stroke-linejoin="round" d="M 1525,15425 L 1525,15275"/>
 <path fill="none" stroke="rgb(179,179,179)" stroke-linejoin="round" d="M 1525,15425 L 1525,15275"/>
 <path fill="none" stroke="rgb(179,179,179)" stroke-linejoin="round" d="M 5198,15425 L 5198,15275"/>
 <path fill="none" stroke="rgb(179,179,179)" stroke-linejoin="round" d="M 5198,15425 L 5198,15275"/>
 <path fill="none" stroke="rgb(179,179,179)" stroke-linejoin="round" d="M 8871,15425 L 8871,15275"/>
 <path fill="none" stroke="rgb(179,179,179)" stroke-linejoin="round" d="M 8871,15425 L 8871,15275"/>
 <path fill="none" stroke="rgb(179,179,179)" stroke-linejoin="round" d="M 12545,15425 L 12545,15275"/>
 <path fill="none" stroke="rgb(179,179,179)" stroke-linejoin="round" d="M 12545,15425 L 12545,15275"/>
 <path fill="none" stroke="rgb(179,179,179)" stroke-linejoin="round" d="M 16218,15425 L 16218,15275"/>
 <path fill="none" stroke="rgb(179,179,179)" stroke-linejoin="round" d="M 16218,15425 L 16218,15275"/>
 <path fill="none" stroke="rgb(179,179,179)" stroke-linejoin="round" d="M 19891,15425 L 19891,15275"/>
 <path fill="none" stroke="rgb(179,179,179)" stroke-linejoin="round" d="M 19891,15425 L 19891,15275"/>
 <path fill="none" stroke="rgb(179,179,179)" stroke-linejoin="round" d="M 23564,15425 L 23564,15275"/>
 <path fill="none" stroke="rgb(179,179,179)" stroke-linejoin="round" d="M 23564,15425 L 23564,15275"/>
 <path fill="none" stroke="rgb(179,179,179)" stroke-linejoin="round" d="M 27237,15425 L 27237,15275"/>
 <path fill="none" stroke="rgb(179,179,179)" stroke-linejoin="round" d="M 27237,15425 L 27237,15275"/>
 <path fill="none" stroke="rgb(179,179,179)" stroke-linejoin="round" d="M 30910,15425 L 30910,15275"/>
 <path fill="none" stroke="rgb(179,179,179)" stroke-linejoin="round" d="M 30910,15425 L 30910,15275"/>
 <path fill="none" stroke="rgb(179,179,179)" stroke-linejoin="round" d="M 34584,15425 L 34584,15275"/>
 <path fill="none" stroke="rgb(179,179,179)" stroke-linejoin="round" d="M 34584,15425 L 34584,15275"/>
 <path fill="none" stroke="rgb(179,179,179)" stroke-linejoin="round" d="M 1525,15275 L 34584,15275"/>
 <path fill="none" stroke="rgb(179,179,179)" stroke-linejoin="round" d="M 1375,15275 L 1525,15275"/>
 <path fill="none" stroke="rgb(179,179,179)" stroke-linejoin="round" d="M 1375,15275 L 1525,15275"/>
 <path fill="none" stroke="rgb(179,179,179)" stroke-linejoin="round" d="M 1375,13776 L 1525,13776"/>
 <path fill="none" stroke="rgb(179,179,179)" stroke-linejoin="round" d="M 1375,13776 L 1525,13776"/>
 <path fill="none" stroke="rgb(179,179,179)" stroke-linejoin="round" d="M 1375,12277 L 1525,12277"/>
 <path fill="none" stroke="rgb(179,179,179)" stroke-linejoin="round" d="M 1375,12277 L 1525,12277"/>
 <path fill="none" stroke="rgb(179,179,179)" stroke-linejoin="round" d="M 1375,10778 L 1525,10778"/>
 <path fill="none" stroke="rgb(179,179,179)" stroke-linejoin="round" d="M 1375,10778 L 1525,10778"/>
 <path fill="none" stroke="rgb(179,179,179)" stroke-linejoin="round" d="M 1375,9279 L 1525,9279"/>
 <path fill="none" stroke="rgb(179,179,179)" stroke-linejoin="round" d="M 1375,9279 L 1525,9279"/>
 <path fill="none" stroke="rgb(179,179,179)" stroke-linejoin="round" d="M 1375,7782 L 1525,7782"/>
 <path fill="none" stroke="rgb(179,179,179)" stroke-linejoin="round" d="M 1375,7782 L 1525,7782"/>
 <path fill="none" stroke="rgb(179,179,179)" stroke-linejoin="round" d="M 1375,6283 L 1525,6283"/>
 <path fill="none" stroke="rgb(179,179,179)" stroke-linejoin="round" d="M 1375,6283 L 1525,6283"/>
 <path fill="none" stroke="rgb(179,179,179)" stroke-linejoin="round" d="M 1375,4784 L 1525,4784"/>
 <path fill="none" stroke="rgb(179,179,179)" stroke-linejoin="round" d="M 1375,4784 L 1525,4784"/>
 <path fill="none" stroke="rgb(179,179,179)" stroke-linejoin="round" d="M 1375,3285 L 1525,3285"/>
 <path fill="none" stroke="rgb(179,179,179)" stroke-linejoin="round" d="M 1375,3285 L 1525,3285"/>
 <path fill="none" stroke="rgb(179,179,179)" stroke-linejoin="round" d="M 1375,1787 L 1525,1787"/>
 <path fill="none" stroke="rgb(179,179,179)" stroke-linejoin="round" d="M 1375,1787 L 1525,1787"/>
 <path fill="none" stroke="rgb(179,179,179)" stroke-linejoin="round" d="M 1525,15275 L 1525,1787"/>
 <path fill="none" stroke="rgb(179,179,179)" stroke-linejoin="round" d="M 34734,15275 L 34584,15275"/>
 <path fill="none" stroke="rgb(179,179,179)" stroke-linejoin="round" d="M 34734,15275 L 34584,15275"/>
 <path fill="none" stroke="rgb(179,179,179)" stroke-linejoin="round" d="M 34734,13026 L 34584,13026"/>
 <path fill="none" stroke="rgb(179,179,179)" stroke-linejoin="round" d="M 34734,13026 L 34584,13026"/>
 <path fill="none" stroke="rgb(179,179,179)" stroke-linejoin="round" d="M 34734,10778 L 34584,10778"/>
 <path fill="none" stroke="rgb(179,179,179)" stroke-linejoin="round" d="M 34734,10778 L 34584,10778"/>
 <path fill="none" stroke="rgb(179,179,179)" stroke-linejoin="round" d="M 34734,8530 L 34584,8530"/>
 <path fill="none" stroke="rgb(179,179,179)" stroke-linejoin="round" d="M 34734,8530 L 34584,8530"/>
 <path fill="none" stroke="rgb(179,179,179)" stroke-linejoin="round" d="M 34734,6283 L 34584,6283"/>
 <path fill="none" stroke="rgb(179,179,179)" stroke-linejoin="round" d="M 34734,6283 L 34584,6283"/>
 <path fill="none" stroke="rgb(179,179,179)" stroke-linejoin="round" d="M 34734,4035 L 34584,4035"/>
 <path fill="none" stroke="rgb(179,179,179)" stroke-linejoin="round" d="M 34734,4035 L 34584,4035"/>
 <path fill="none" stroke="rgb(179,179,179)" stroke-linejoin="round" d="M 34734,1787 L 34584,1787"/>
 <path fill="none" stroke="rgb(179,179,179)" stroke-linejoin="round" d="M 34734,1787 L 34584,1787"/>
 <path fill="none" stroke="rgb(179,179,179)" stroke-linejoin="round" d="M 34584,15275 L 34584,1787"/>
 <path fill="none" stroke="rgb(0,69,134)" stroke-width="80" stroke-linejoin="round" stroke-dasharray="80,40" d="M 1525,11318 L 5198,6688 8871,8665 12545,7902 16218,9414 19891,10598 23564,8500 27237,6942 30910,12022 34584,9309"/>
 <path fill="rgb(0,69,134)" stroke="none" d="M 1400,11193 L 1400,11443 1650,11443 1650,11193 1400,11193 Z"/>
 <path fill="none" stroke="rgb(0,69,134)" stroke-linejoin="round" d="M 1400,11193 L 1400,11443 1650,11443 1650,11193 1400,11193 Z"/>
 <path fill="rgb(0,69,134)" stroke="none" d="M 5073,6563 L 5073,6813 5323,6813 5323,6563 5073,6563 Z"/>
 <path fill="none" stroke="rgb(0,69,134)" stroke-linejoin="round" d="M 5073,6563 L 5073,6813 5323,6813 5323,6563 5073,6563 Z"/>
 <path fill="rgb(0,69,134)" stroke="none" d="M 8746,8540 L 8746,8790 8996,8790 8996,8540 8746,8540 Z"/>
 <path fill="none" stroke="rgb(0,69,134)" stroke-linejoin="round" d="M 8746,8540 L 8746,8790 8996,8790 8996,8540 8746,8540 Z"/>
 <path fill="rgb(0,69,134)" stroke="none" d="M 12420,7777 L 12420,8027 12670,8027 12670,7777 12420,7777 Z"/>
 <path fill="none" stroke="rgb(0,69,134)" stroke-linejoin="round" d="M 12420,7777 L 12420,8027 12670,8027 12670,7777 12420,7777 Z"/>
 <path fill="rgb(0,69,134)" stroke="none" d="M 16093,9289 L 16093,9539 16343,9539 16343,9289 16093,9289 Z"/>
 <path fill="none" stroke="rgb(0,69,134)" stroke-linejoin="round" d="M 16093,9289 L 16093,9539 16343,9539 16343,9289 16093,9289 Z"/>
 <path fill="rgb(0,69,134)" stroke="none" d="M 19766,10473 L 19766,10723 20015,10723 20015,10473 19766,10473 Z"/>
 <path fill="none" stroke="rgb(0,69,134)" stroke-linejoin="round" d="M 19766,10473 L 19766,10723 20015,10723 20015,10473 19766,10473 Z"/>
 <path fill="rgb(0,69,134)" stroke="none" d="M 23439,8375 L 23439,8625 23689,8625 23689,8375 23439,8375 Z"/>
 <path fill="none" stroke="rgb(0,69,134)" stroke-linejoin="round" d="M 23439,8375 L 23439,8625 23689,8625 23689,8375 23439,8375 Z"/>
 <path fill="rgb(0,69,134)" stroke="none" d="M 27112,6817 L 27112,7067 27362,7067 27362,6817 27112,6817 Z"/>
 <path fill="none" stroke="rgb(0,69,134)" stroke-linejoin="round" d="M 27112,6817 L 27112,7067 27362,7067 27362,6817 27112,6817 Z"/>
 <path fill="rgb(0,69,134)" stroke="none" d="M 30785,11897 L 30785,12147 31035,12147 31035,11897 30785,11897 Z"/>
 <path fill="none" stroke="rgb(0,69,134)" stroke-linejoin="round" d="M 30785,11897 L 30785,12147 31035,12147 31035,11897 30785,11897 Z"/>
 <path fill="rgb(0,69,134)" stroke="none" d="M 34459,9184 L 34459,9434 34709,9434 34709,9184 34459,9184 Z"/>
 <path fill="none" stroke="rgb(0,69,134)" stroke-linejoin="round" d="M 34459,9184 L 34459,9434 34709,9434 34709,9184 34459,9184 Z"/>
 <path fill="none" stroke="rgb(0,69,134)" stroke-width="80" stroke-linejoin="round" d="M 1525,14544 L 5198,14770 8871,14147 12545,14576 16218,14911 19891,15136 23564,14656 27237,14716 30910,14043 34584,13595"/>
 <path fill="rgb(0,69,134)" stroke="none" d="M 1400,14544 L 1525,14669 1650,14544 1525,14419 1400,14544 Z"/>
 <path fill="none" stroke="rgb(0,69,134)" stroke-linejoin="round" d="M 1400,14544 L 1525,14669 1650,14544 1525,14419 1400,14544 Z"/>
 <path fill="rgb(0,69,134)" stroke="none" d="M 5073,14770 L 5198,14895 5323,14770 5198,14645 5073,14770 Z"/>
 <path fill="none" stroke="rgb(0,69,134)" stroke-linejoin="round" d="M 5073,14770 L 5198,14895 5323,14770 5198,14645 5073,14770 Z"/>
 <path fill="rgb(0,69,134)" stroke="none" d="M 8746,14147 L 8871,14272 8996,14147 8871,14022 8746,14147 Z"/>
 <path fill="none" stroke="rgb(0,69,134)" stroke-linejoin="round" d="M 8746,14147 L 8871,14272 8996,14147 8871,14022 8746,14147 Z"/>
 <path fill="rgb(0,69,134)" stroke="none" d="M 12420,14576 L 12545,14701 12670,14576 12545,14451 12420,14576 Z"/>
 <path fill="none" stroke="rgb(0,69,134)" stroke-linejoin="round" d="M 12420,14576 L 12545,14701 12670,14576 12545,14451 12420,14576 Z"/>
 <path fill="rgb(0,69,134)" stroke="none" d="M 16093,14911 L 16218,15036 16343,14911 16218,14786 16093,14911 Z"/>
 <path fill="none" stroke="rgb(0,69,134)" stroke-linejoin="round" d="M 16093,14911 L 16218,15036 16343,14911 16218,14786 16093,14911 Z"/>
 <path fill="rgb(0,69,134)" stroke="none" d="M 19766,15136 L 19891,15261 20015,15136 19891,15011 19766,15136 Z"/>
 <path fill="none" stroke="rgb(0,69,134)" stroke-linejoin="round" d="M 19766,15136 L 19891,15261 20015,15136 19891,15011 19766,15136 Z"/>
 <path fill="rgb(0,69,134)" stroke="none" d="M 23439,14656 L 23564,14781 23689,14656 23564,14531 23439,14656 Z"/>
 <path fill="none" stroke="rgb(0,69,134)" stroke-linejoin="round" d="M 23439,14656 L 23564,14781 23689,14656 23564,14531 23439,14656 Z"/>
 <path fill="rgb(0,69,134)" stroke="none" d="M 27112,14716 L 27237,14841 27362,14716 27237,14591 27112,14716 Z"/>
 <path fill="none" stroke="rgb(0,69,134)" stroke-linejoin="round" d="M 27112,14716 L 27237,14841 27362,14716 27237,14591 27112,14716 Z"/>
 <path fill="rgb(0,69,134)" stroke="none" d="M 30785,14043 L 30910,14168 31035,14043 30910,13918 30785,14043 Z"/>
 <path fill="none" stroke="rgb(0,69,134)" stroke-linejoin="round" d="M 30785,14043 L 30910,14168 31035,14043 30910,13918 30785,14043 Z"/>
 <path fill="rgb(0,69,134)" stroke="none" d="M 34459,13595 L 34584,13720 34709,13595 34584,13470 34459,13595 Z"/>
 <path fill="none" stroke="rgb(0,69,134)" stroke-linejoin="round" d="M 34459,13595 L 34584,13720 34709,13595 34584,13470 34459,13595 Z"/>
 <path fill="none" stroke="rgb(87,157,28)" stroke-width="80" stroke-linejoin="round" stroke-dasharray="80,40" d="M 1525,9744 L 5198,5099 8871,6927 12545,7677 16218,7317 19891,9115 23564,5803 27237,3780 30910,3630 34584,8155"/>
 <path fill="rgb(87,157,28)" stroke="none" d="M 1400,9619 L 1525,9869 1650,9619 1400,9619 Z"/>
 <path fill="none" stroke="rgb(87,157,28)" stroke-linejoin="round" d="M 1400,9619 L 1525,9869 1650,9619 1400,9619 Z"/>
 <path fill="rgb(87,157,28)" stroke="none" d="M 5073,4974 L 5198,5224 5323,4974 5073,4974 Z"/>
 <path fill="none" stroke="rgb(87,157,28)" stroke-linejoin="round" d="M 5073,4974 L 5198,5224 5323,4974 5073,4974 Z"/>
 <path fill="rgb(87,157,28)" stroke="none" d="M 8746,6802 L 8871,7052 8996,6802 8746,6802 Z"/>
 <path fill="none" stroke="rgb(87,157,28)" stroke-linejoin="round" d="M 8746,6802 L 8871,7052 8996,6802 8746,6802 Z"/>
 <path fill="rgb(87,157,28)" stroke="none" d="M 12420,7552 L 12545,7802 12670,7552 12420,7552 Z"/>
 <path fill="none" stroke="rgb(87,157,28)" stroke-linejoin="round" d="M 12420,7552 L 12545,7802 12670,7552 12420,7552 Z"/>
 <path fill="rgb(87,157,28)" stroke="none" d="M 16093,7192 L 16218,7442 16343,7192 16093,7192 Z"/>
 <path fill="none" stroke="rgb(87,157,28)" stroke-linejoin="round" d="M 16093,7192 L 16218,7442 16343,7192 16093,7192 Z"/>
 <path fill="rgb(87,157,28)" stroke="none" d="M 19766,8990 L 19891,9240 20015,8990 19766,8990 Z"/>
 <path fill="none" stroke="rgb(87,157,28)" stroke-linejoin="round" d="M 19766,8990 L 19891,9240 20015,8990 19766,8990 Z"/>
 <path fill="rgb(87,157,28)" stroke="none" d="M 23439,5678 L 23564,5928 23689,5678 23439,5678 Z"/>
 <path fill="none" stroke="rgb(87,157,28)" stroke-linejoin="round" d="M 23439,5678 L 23564,5928 23689,5678 23439,5678 Z"/>
 <path fill="rgb(87,157,28)" stroke="none" d="M 27112,3655 L 27237,3905 27362,3655 27112,3655 Z"/>
 <path fill="none" stroke="rgb(87,157,28)" stroke-linejoin="round" d="M 27112,3655 L 27237,3905 27362,3655 27112,3655 Z"/>
 <path fill="rgb(87,157,28)" stroke="none" d="M 30785,3505 L 30910,3755 31035,3505 30785,3505 Z"/>
 <path fill="none" stroke="rgb(87,157,28)" stroke-linejoin="round" d="M 30785,3505 L 30910,3755 31035,3505 30785,3505 Z"/>
 <path fill="rgb(87,157,28)" stroke="none" d="M 34459,8031 L 34584,8280 34709,8031 34459,8031 Z"/>
 <path fill="none" stroke="rgb(87,157,28)" stroke-linejoin="round" d="M 34459,8031 L 34584,8280 34709,8031 34459,8031 Z"/>
 <path fill="none" stroke="rgb(87,157,28)" stroke-width="80" stroke-linejoin="round" d="M 1525,12454 L 5198,9264 8871,10635 12545,8964 16218,13591 19891,3781 23564,5704 27237,5587 30910,10802 34584,8102"/>
 <path fill="rgb(87,157,28)" stroke="none" d="M 1400,12579 L 1650,12579 1525,12329 1400,12579 Z"/>
 <path fill="none" stroke="rgb(87,157,28)" stroke-linejoin="round" d="M 1400,12579 L 1650,12579 1525,12329 1400,12579 Z"/>
 <path fill="rgb(87,157,28)" stroke="none" d="M 5073,9389 L 5323,9389 5198,9139 5073,9389 Z"/>
 <path fill="none" stroke="rgb(87,157,28)" stroke-linejoin="round" d="M 5073,9389 L 5323,9389 5198,9139 5073,9389 Z"/>
 <path fill="rgb(87,157,28)" stroke="none" d="M 8746,10760 L 8996,10760 8871,10510 8746,10760 Z"/>
 <path fill="none" stroke="rgb(87,157,28)" stroke-linejoin="round" d="M 8746,10760 L 8996,10760 8871,10510 8746,10760 Z"/>
 <path fill="rgb(87,157,28)" stroke="none" d="M 12420,9089 L 12670,9089 12545,8839 12420,9089 Z"/>
 <path fill="none" stroke="rgb(87,157,28)" stroke-linejoin="round" d="M 12420,9089 L 12670,9089 12545,8839 12420,9089 Z"/>
 <path fill="rgb(87,157,28)" stroke="none" d="M 16093,13716 L 16343,13716 16218,13466 16093,13716 Z"/>
 <path fill="none" stroke="rgb(87,157,28)" stroke-linejoin="round" d="M 16093,13716 L 16343,13716 16218,13466 16093,13716 Z"/>
 <path fill="rgb(87,157,28)" stroke="none" d="M 19766,3906 L 20015,3906 19891,3656 19766,3906 Z"/>
 <path fill="none" stroke="rgb(87,157,28)" stroke-linejoin="round" d="M 19766,3906 L 20015,3906 19891,3656 19766,3906 Z"/>
 <path fill="rgb(87,157,28)" stroke="none" d="M 23439,5829 L 23689,5829 23564,5579 23439,5829 Z"/>
 <path fill="none" stroke="rgb(87,157,28)" stroke-linejoin="round" d="M 23439,5829 L 23689,5829 23564,5579 23439,5829 Z"/>
 <path fill="rgb(87,157,28)" stroke="none" d="M 27112,5712 L 27362,5712 27237,5462 27112,5712 Z"/>
 <path fill="none" stroke="rgb(87,157,28)" stroke-linejoin="round" d="M 27112,5712 L 27362,5712 27237,5462 27112,5712 Z"/>
 <path fill="rgb(87,157,28)" stroke="none" d="M 30785,10927 L 31035,10927 30910,10677 30785,10927 Z"/>
 <path fill="none" stroke="rgb(87,157,28)" stroke-linejoin="round" d="M 30785,10927 L 31035,10927 30910,10677 30785,10927 Z"/>
 <path fill="rgb(87,157,28)" stroke="none" d="M 34459,8226 L 34709,8226 34584,7977 34459,8226 Z"/>
 <path fill="none" stroke="rgb(87,157,28)" stroke-linejoin="round" d="M 34459,8226 L 34709,8226 34584,7977 34459,8226 Z"/>
 <text class="TextShape"><tspan class="TextParagraph" font-family="Liberation Sans, sans-serif" font-size="353px" font-weight="400"><tspan class="TextPosition" x="1287" y="15843"><tspan fill="rgb(0,0,0)" stroke="none">src</tspan></tspan></tspan></text>
 <text class="TextShape"><tspan class="TextParagraph" font-family="Liberation Sans, sans-serif" font-size="353px" font-weight="400"><tspan class="TextPosition" x="4616" y="15843"><tspan fill="rgb(0,0,0)" stroke="none">wdev_0</tspan></tspan></tspan></text>
 <text class="TextShape"><tspan class="TextParagraph" font-family="Liberation Sans, sans-serif" font-size="353px" font-weight="400"><tspan class="TextPosition" x="8447" y="15843"><tspan fill="rgb(0,0,0)" stroke="none">hm_0</tspan></tspan></tspan></text>
 <text class="TextShape"><tspan class="TextParagraph" font-family="Liberation Sans, sans-serif" font-size="353px" font-weight="400"><tspan class="TextPosition" x="12029" y="15843"><tspan fill="rgb(0,0,0)" stroke="none">mds_0</tspan></tspan></tspan></text>
 <text class="TextShape"><tspan class="TextParagraph" font-family="Liberation Sans, sans-serif" font-size="353px" font-weight="400"><tspan class="TextPosition" x="15794" y="15843"><tspan fill="rgb(0,0,0)" stroke="none">prn_0</tspan></tspan></tspan></text>
 <text class="TextShape"><tspan class="TextParagraph" font-family="Liberation Sans, sans-serif" font-size="353px" font-weight="400"><tspan class="TextPosition" x="19322" y="15843"><tspan fill="rgb(0,0,0)" stroke="none">rsrch_0</tspan></tspan></tspan></text>
 <text class="TextShape"><tspan class="TextParagraph" font-family="Liberation Sans, sans-serif" font-size="353px" font-weight="400"><tspan class="TextPosition" x="23141" y="15843"><tspan fill="rgb(0,0,0)" stroke="none">stg_0</tspan></tspan></tspan></text>
 <text class="TextShape"><tspan class="TextParagraph" font-family="Liberation Sans, sans-serif" font-size="353px" font-weight="400"><tspan class="TextPosition" x="26907" y="15843"><tspan fill="rgb(0,0,0)" stroke="none">ts_0</tspan></tspan></tspan></text>
 <text class="TextShape"><tspan class="TextParagraph" font-family="Liberation Sans, sans-serif" font-size="353px" font-weight="400"><tspan class="TextPosition" x="30487" y="15843"><tspan fill="rgb(0,0,0)" stroke="none">usr_0</tspan></tspan></tspan></text>
 <text class="TextShape"><tspan class="TextParagraph" font-family="Liberation Sans, sans-serif" font-size="353px" font-weight="400"><tspan class="TextPosition" x="34095" y="15843"><tspan fill="rgb(0,0,0)" stroke="none">web_0</tspan></tspan></tspan></text>
 <text class="TextShape"><tspan class="TextParagraph" font-family="Liberation Sans, sans-serif" font-size="353px" font-weight="400"><tspan class="TextPosition" x="1090" y="15396"><tspan fill="rgb(0,0,0)" stroke="none">0</tspan></tspan></tspan></text>
 <text class="TextShape"><tspan class="TextParagraph" font-family="Liberation Sans, sans-serif" font-size="353px" font-weight="400"><tspan class="TextPosition" x="799" y="13897"><tspan fill="rgb(0,0,0)" stroke="none">0.1</tspan></tspan></tspan></text>
 <text class="TextShape"><tspan class="TextParagraph" font-family="Liberation Sans, sans-serif" font-size="353px" font-weight="400"><tspan class="TextPosition" x="799" y="12398"><tspan fill="rgb(0,0,0)" stroke="none">0.2</tspan></tspan></tspan></text>
 <text class="TextShape"><tspan class="TextParagraph" font-family="Liberation Sans, sans-serif" font-size="353px" font-weight="400"><tspan class="TextPosition" x="799" y="10899"><tspan fill="rgb(0,0,0)" stroke="none">0.3</tspan></tspan></tspan></text>
 <text class="TextShape"><tspan class="TextParagraph" font-family="Liberation Sans, sans-serif" font-size="353px" font-weight="400"><tspan class="TextPosition" x="799" y="9400"><tspan fill="rgb(0,0,0)" stroke="none">0.4</tspan></tspan></tspan></text>
 <text class="TextShape"><tspan class="TextParagraph" font-family="Liberation Sans, sans-serif" font-size="353px" font-weight="400"><tspan class="TextPosition" x="799" y="7902"><tspan fill="rgb(0,0,0)" stroke="none">0.5</tspan></tspan></tspan></text>
 <text class="TextShape"><tspan class="TextParagraph" font-family="Liberation Sans, sans-serif" font-size="353px" font-weight="400"><tspan class="TextPosition" x="799" y="6403"><tspan fill="rgb(0,0,0)" stroke="none">0.6</tspan></tspan></tspan></text>
 <text class="TextShape"><tspan class="TextParagraph" font-family="Liberation Sans, sans-serif" font-size="353px" font-weight="400"><tspan class="TextPosition" x="799" y="4904"><tspan fill="rgb(0,0,0)" stroke="none">0.7</tspan></tspan></tspan></text>
 <text class="TextShape"><tspan class="TextParagraph" font-family="Liberation Sans, sans-serif" font-size="353px" font-weight="400"><tspan class="TextPosition" x="799" y="3405"><tspan fill="rgb(0,0,0)" stroke="none">0.8</tspan></tspan></tspan></text>
 <text class="TextShape"><tspan class="TextParagraph" font-family="Liberation Sans, sans-serif" font-size="353px" font-weight="400"><tspan class="TextPosition" x="799" y="1907"><tspan fill="rgb(0,0,0)" stroke="none">0.9</tspan></tspan></tspan></text>
 <text class="TextShape"><tspan class="TextParagraph" font-family="Liberation Sans, sans-serif" font-size="353px" font-weight="400"><tspan class="TextPosition" x="34834" y="15396"><tspan fill="rgb(0,0,0)" stroke="none">0</tspan></tspan></tspan></text>
 <text class="TextShape"><tspan class="TextParagraph" font-family="Liberation Sans, sans-serif" font-size="353px" font-weight="400"><tspan class="TextPosition" x="34834" y="13147"><tspan fill="rgb(0,0,0)" stroke="none">20</tspan></tspan></tspan></text>
 <text class="TextShape"><tspan class="TextParagraph" font-family="Liberation Sans, sans-serif" font-size="353px" font-weight="400"><tspan class="TextPosition" x="34834" y="10899"><tspan fill="rgb(0,0,0)" stroke="none">40</tspan></tspan></tspan></text>
 <text class="TextShape"><tspan class="TextParagraph" font-family="Liberation Sans, sans-serif" font-size="353px" font-weight="400"><tspan class="TextPosition" x="34834" y="8651"><tspan fill="rgb(0,0,0)" stroke="none">60</tspan></tspan></tspan></text>
 <text class="TextShape"><tspan class="TextParagraph" font-family="Liberation Sans, sans-serif" font-size="353px" font-weight="400"><tspan class="TextPosition" x="34834" y="6403"><tspan fill="rgb(0,0,0)" stroke="none">80</tspan></tspan></tspan></text>
 <text class="TextShape"><tspan class="TextParagraph" font-family="Liberation Sans, sans-serif" font-size="353px" font-weight="400"><tspan class="TextPosition" x="34834" y="4155"><tspan fill="rgb(0,0,0)" stroke="none">100</tspan></tspan></tspan></text>
 <text class="TextShape"><tspan class="TextParagraph" font-family="Liberation Sans, sans-serif" font-size="353px" font-weight="400"><tspan class="TextPosition" x="34834" y="1907"><tspan fill="rgb(0,0,0)" stroke="none">120</tspan></tspan></tspan></text>
 <text class="TextShape"><tspan class="TextParagraph" font-family="Liberation Sans, sans-serif" font-size="459px" font-weight="400"><tspan class="TextPosition" x="19087" y="1021"><tspan fill="rgb(0,0,0)" stroke="none">most&amp;lru</tspan></tspan></tspan></text>
 <path fill="none" stroke="rgb(0,69,134)" stroke-width="80" stroke-linejoin="round" stroke-dasharray="80,40" d="M 36306,7376 L 37906,7376"/>
 <path fill="rgb(0,69,134)" stroke="none" d="M 37000,7271 L 37000,7481 37211,7481 37211,7271 37000,7271 Z"/>
 <path fill="none" stroke="rgb(0,69,134)" stroke-linejoin="round" d="M 37000,7271 L 37000,7481 37211,7481 37211,7271 37000,7271 Z"/>
 <path fill="none" stroke="rgb(0,69,134)" stroke-width="80" stroke-linejoin="round" d="M 36306,7874 L 37906,7874"/>
 <path fill="rgb(0,69,134)" stroke="none" d="M 37000,7874 L 37106,7979 37211,7874 37106,7769 37000,7874 Z"/>
 <path fill="none" stroke="rgb(0,69,134)" stroke-linejoin="round" d="M 37000,7874 L 37106,7979 37211,7874 37106,7769 37000,7874 Z"/>
 <path fill="none" stroke="rgb(87,157,28)" stroke-width="80" stroke-linejoin="round" stroke-dasharray="80,40" d="M 36306,8371 L 37906,8371"/>
 <path fill="rgb(87,157,28)" stroke="none" d="M 37000,8266 L 37106,8476 37211,8266 37000,8266 Z"/>
 <path fill="none" stroke="rgb(87,157,28)" stroke-linejoin="round" d="M 37000,8266 L 37106,8476 37211,8266 37000,8266 Z"/>
 <path fill="none" stroke="rgb(87,157,28)" stroke-width="80" stroke-linejoin="round" d="M 36306,8869 L 37906,8869"/>
 <path fill="rgb(87,157,28)" stroke="none" d="M 37000,8974 L 37211,8974 37106,8764 37000,8974 Z"/>
 <path fill="none" stroke="rgb(87,157,28)" stroke-linejoin="round" d="M 37000,8974 L 37211,8974 37106,8764 37000,8974 Z"/>
 <text class="TextShape"><tspan class="TextParagraph" font-family="Liberation Sans, sans-serif" font-size="353px" font-weight="400"><tspan class="TextPosition" x="38006" y="7496"><tspan fill="rgb(0,0,0)" stroke="none">most_hit</tspan></tspan></tspan></text>
 <text class="TextShape"><tspan class="TextParagraph" font-family="Liberation Sans, sans-serif" font-size="353px" font-weight="400"><tspan class="TextPosition" x="38006" y="7994"><tspan fill="rgb(0,0,0)" stroke="none">most_amp</tspan></tspan></tspan></text>
 <text class="TextShape"><tspan class="TextParagraph" font-family="Liberation Sans, sans-serif" font-size="353px" font-weight="400"><tspan class="TextPosition" x="38006" y="8491"><tspan fill="rgb(0,0,0)" stroke="none">lru_hit</tspan></tspan></tspan></text>
 <text class="TextShape"><tspan class="TextParagraph" font-family="Liberation Sans, sans-serif" font-size="353px" font-weight="400"><tspan class="TextPosition" x="38006" y="8989"><tspan fill="rgb(0,0,0)" stroke="none">lru_amp</tspan></tspan></tspan></text>
</svg>