<?xml version="1.0" encoding="UTF-8"?>
<!DOCTYPE svg PUBLIC "-//W3C//DTD SVG 1.1//EN" "http://www.w3.org/Graphics/SVG/1.1/DTD/svg11.dtd">
<svg width="276mm" height="171mm" viewBox="0 0 27600 17100" version="1.1" baseProfile="tiny" xmlns="http://www.w3.org/2000/svg" stroke-width="28.222" stroke-linejoin="round" xml:space="preserve">
 <path fill="rgb(255,255,255)" stroke="none" d="M 13792,17147 L 0,17147 0,0 27583,0 27583,17147 13792,17147 Z"/>
 <path fill="none" stroke="rgb(179,179,179)" stroke-linejoin="round" d="M 11357,16158 L 1278,16158 1278,541 21435,541 21435,16158 11357,16158 Z"/>
 <path fill="none" stroke="rgb(179,179,179)" stroke-linejoin="round" d="M 21435,16157 L 1278,16157"/>
 <path fill="none" stroke="rgb(179,179,179)" stroke-linejoin="round" d="M 21435,13925 L 1278,13925"/>
 <path fill="none" stroke="rgb(179,179,179)" stroke-linejoin="round" d="M 21435,11694 L 1278,11694"/>
 <path fill="none" stroke="rgb(179,179,179)" stroke-linejoin="round" d="M 21435,9463 L 1278,9463"/>
 <path fill="none" stroke="rgb(179,179,179)" stroke-linejoin="round" d="M 21435,7233 L 1278,7233"/>
 <path fill="none" stroke="rgb(179,179,179)" stroke-linejoin="round" d="M 21435,5002 L 1278,5002"/>
 <path fill="none" stroke="rgb(179,179,179)" stroke-linejoin="round" d="M 21435,2771 L 1278,2771"/>
 <path fill="none" stroke="rgb(179,179,179)" stroke-linejoin="round" d="M 21435,540 L 1278,540"/>
 <path fill="none" stroke="rgb(179,179,179)" stroke-linejoin="round" d="M 1278,16307 L 1278,16157"/>
 <path fill="none" stroke="rgb(179,179,179)" stroke-linejoin="round" d="M 1278,16307 L 1278,16157"/>
 <path fill="none" stroke="rgb(179,179,179)" stroke-linejoin="round" d="M 3517,16307 L 3517,16157"/>
 <path fill="none" stroke="rgb(179,179,179)" stroke-linejoin="round" d="M 3517,16307 L 3517,16157"/>
 <path fill="none" stroke="rgb(179,179,179)" stroke-linejoin="round" d="M 5757,16307 L 5757,16157"/>
 <path fill="none" stroke="rgb(179,179,179)" stroke-linejoin="round" d="M 5757,16307 L 5757,16157"/>
 <path fill="none" stroke="rgb(179,179,179)" stroke-linejoin="round" d="M 7997,16307 L 7997,16157"/>
 <path fill="none" stroke="rgb(179,179,179)" stroke-linejoin="round" d="M 7997,16307 L 7997,16157"/>
 <path fill="none" stroke="rgb(179,179,179)" stroke-linejoin="round" d="M 10237,16307 L 10237,16157"/>
 <path fill="none" stroke="rgb(179,179,179)" stroke-linejoin="round" d="M 10237,16307 L 10237,16157"/>
 <path fill="none" stroke="rgb(179,179,179)" stroke-linejoin="round" d="M 12476,16307 L 12476,16157"/>
 <path fill="none" stroke="rgb(179,179,179)" stroke-linejoin="round" d="M 12476,16307 L 12476,16157"/>
 <path fill="none" stroke="rgb(179,179,179)" stroke-linejoin="round" d="M 14715,16307 L 14715,16157"/>
 <path fill="none" stroke="rgb(179,179,179)" stroke-linejoin="round" d="M 14715,16307 L 14715,16157"/>
 <path fill="none" stroke="rgb(179,179,179)" stroke-linejoin="round" d="M 16955,16307 L 16955,16157"/>
 <path fill="none" stroke="rgb(179,179,179)" stroke-linejoin="round" d="M 16955,16307 L 16955,16157"/>
 <path fill="none" stroke="rgb(179,179,179)" stroke-linejoin="round" d="M 19195,16307 L 19195,16157"/>
 <path fill="none" stroke="rgb(179,179,179)" stroke-linejoin="round" d="M 19195,16307 L 19195,16157"/>
 <path fill="none" stroke="rgb(179,179,179)" stroke-linejoin="round" d="M 21435,16307 L 21435,16157"/>
 <path fill="none" stroke="rgb(179,179,179)" stroke-linejoin="round" d="M 21435,16307 L 21435,16157"/>
 <path fill="none" stroke="rgb(179,179,179)" stroke-linejoin="round" d="M 1278,16157 L 21435,16157"/>
 <path fill="none" stroke="rgb(179,179,179)" stroke-linejoin="round" d="M 1128,16157 L 1278,16157"/>
 <path fill="none" stroke="rgb(179,179,179)" stroke-linejoin="round" d="M 1128,16157 L 1278,16157"/>
 <path fill="none" stroke="rgb(179,179,179)" stroke-linejoin="round" d="M 1128,13925 L 1278,13925"/>
 <path fill="none" stroke="rgb(179,179,179)" stroke-linejoin="round" d="M 1128,13925 L 1278,13925"/>
 <path fill="none" stroke="rgb(179,179,179)" stroke-linejoin="round" d="M 1128,11694 L 1278,11694"/>
 <path fill="none" stroke="rgb(179,179,179)" stroke-linejoin="round" d="M 1128,11694 L 1278,11694"/>
 <path fill="none" stroke="rgb(179,179,179)" stroke-linejoin="round" d="M 1128,9463 L 1278,9463"/>
 <path fill="none" stroke="rgb(179,179,179)" stroke-linejoin="round" d="M 1128,9463 L 1278,9463"/>
 <path fill="none" stroke="rgb(179,179,179)" stroke-linejoin="round" d="M 1128,7233 L 1278,7233"/>
 <path fill="none" stroke="rgb(179,179,179)" stroke-linejoin="round" d="M 1128,7233 L 1278,7233"/>
 <path fill="none" stroke="rgb(179,179,179)" stroke-linejoin="round" d="M 1128,5002 L 1278,5002"/>
 <path fill="none" stroke="rgb(179,179,179)" stroke-linejoin="round" d="M 1128,5002 L 1278,5002"/>
 <path fill="none" stroke="rgb(179,179,179)" stroke-linejoin="round" d="M 1128,2771 L 1278,2771"/>
 <path fill="none" stroke="rgb(179,179,179)" stroke-linejoin="round" d="M 1128,2771 L 1278,2771"/>
 <path fill="none" stroke="rgb(179,179,179)" stroke-linejoin="round" d="M 1128,540 L 1278,540"/>
 <path fill="none" stroke="rgb(179,179,179)" stroke-linejoin="round" d="M 1128,540 L 1278,540"/>
 <path fill="none" stroke="rgb(179,179,179)" stroke-linejoin="round" d="M 1278,16157 L 1278,540"/>
 <path fill="none" stroke="rgb(179,179,179)" stroke-linejoin="round" d="M 21585,16157 L 21435,16157"/>
 <path fill="none" stroke="rgb(179,179,179)" stroke-linejoin="round" d="M 21585,16157 L 21435,16157"/>
 <path fill="none" stroke="rgb(179,179,179)" stroke-linejoin="round" d="M 21585,14204 L 21435,14204"/>
 <path fill="none" stroke="rgb(179,179,179)" stroke-linejoin="round" d="M 21585,14204 L 21435,14204"/>
 <path fill="none" stroke="rgb(179,179,179)" stroke-linejoin="round" d="M 21585,12252 L 21435,12252"/>
 <path fill="none" stroke="rgb(179,179,179)" stroke-linejoin="round" d="M 21585,12252 L 21435,12252"/>
 <path fill="none" stroke="rgb(179,179,179)" stroke-linejoin="round" d="M 21585,10300 L 21435,10300"/>
 <path fill="none" stroke="rgb(179,179,179)" stroke-linejoin="round" d="M 21585,10300 L 21435,10300"/>
 <path fill="none" stroke="rgb(179,179,179)" stroke-linejoin="round" d="M 21585,8349 L 21435,8349"/>
 <path fill="none" stroke="rgb(179,179,179)" stroke-linejoin="round" d="M 21585,8349 L 21435,8349"/>
 <path fill="none" stroke="rgb(179,179,179)" stroke-linejoin="round" d="M 21585,6396 L 21435,6396"/>
 <path fill="none" stroke="rgb(179,179,179)" stroke-linejoin="round" d="M 21585,6396 L 21435,6396"/>
 <path fill="none" stroke="rgb(179,179,179)" stroke-linejoin="round" d="M 21585,4444 L 21435,4444"/>
 <path fill="none" stroke="rgb(179,179,179)" stroke-linejoin="round" d="M 21585,4444 L 21435,4444"/>
 <path fill="none" stroke="rgb(179,179,179)" stroke-linejoin="round" d="M 21585,2492 L 21435,2492"/>
 <path fill="none" stroke="rgb(179,179,179)" stroke-linejoin="round" d="M 21585,2492 L 21435,2492"/>
 <path fill="none" stroke="rgb(179,179,179)" stroke-linejoin="round" d="M 21585,540 L 21435,540"/>
 <path fill="none" stroke="rgb(179,179,179)" stroke-linejoin="round" d="M 21585,540 L 21435,540"/>
 <path fill="none" stroke="rgb(179,179,179)" stroke-linejoin="round" d="M 21435,16157 L 21435,540"/>
 <path fill="none" stroke="rgb(255,0,0)" stroke-width="80" stroke-linejoin="round" stroke-dasharray="80,40" d="M 1278,10266 L 3517,3373 5757,6318 7997,5180 10237,7434 12476,9195 14715,6073 16955,3752 19195,11315 21435,7278"/>
 <path fill="rgb(255,0,0)" stroke="none" d="M 1153,10141 L 1153,10391 1403,10391 1403,10141 1153,10141 Z"/>
 <path fill="none" stroke="rgb(255,0,0)" stroke-linejoin="round" d="M 1153,10141 L 1153,10391 1403,10391 1403,10141 1153,10141 Z"/>
 <path fill="rgb(255,0,0)" stroke="none" d="M 3392,3248 L 3392,3498 3642,3498 3642,3248 3392,3248 Z"/>
 <path fill="none" stroke="rgb(255,0,0)" stroke-linejoin="round" d="M 3392,3248 L 3392,3498 3642,3498 3642,3248 3392,3248 Z"/>
 <path fill="rgb(255,0,0)" stroke="none" d="M 5632,6193 L 5632,6443 5882,6443 5882,6193 5632,6193 Z"/>
 <path fill="none" stroke="rgb(255,0,0)" stroke-linejoin="round" d="M 5632,6193 L 5632,6443 5882,6443 5882,6193 5632,6193 Z"/>
 <path fill="rgb(255,0,0)" stroke="none" d="M 7872,5055 L 7872,5305 8122,5305 8122,5055 7872,5055 Z"/>
 <path fill="none" stroke="rgb(255,0,0)" stroke-linejoin="round" d="M 7872,5055 L 7872,5305 8122,5305 8122,5055 7872,5055 Z"/>
 <path fill="rgb(255,0,0)" stroke="none" d="M 10112,7309 L 10112,7559 10362,7559 10362,7309 10112,7309 Z"/>
 <path fill="none" stroke="rgb(255,0,0)" stroke-linejoin="round" d="M 10112,7309 L 10112,7559 10362,7559 10362,7309 10112,7309 Z"/>
 <path fill="rgb(255,0,0)" stroke="none" d="M 12351,9070 L 12351,9320 12601,9320 12601,9070 12351,9070 Z"/>
 <path fill="none" stroke="rgb(255,0,0)" stroke-linejoin="round" d="M 12351,9070 L 12351,9320 12601,9320 12601,9070 12351,9070 Z"/>
 <path fill="rgb(255,0,0)" stroke="none" d="M 14590,5948 L 14590,6198 14840,6198 14840,5948 14590,5948 Z"/>
 <path fill="none" stroke="rgb(255,0,0)" stroke-linejoin="round" d="M 14590,5948 L 14590,6198 14840,6198 14840,5948 14590,5948 Z"/>
 <path fill="rgb(255,0,0)" stroke="none" d="M 16830,3627 L 16830,3877 17080,3877 17080,3627 16830,3627 Z"/>
 <path fill="none" stroke="rgb(255,0,0)" stroke-linejoin="round" d="M 16830,3627 L 16830,3877 17080,3877 17080,3627 16830,3627 Z"/>
 <path fill="rgb(255,0,0)" stroke="none" d="M 19070,11190 L 19070,11440 19320,11440 19320,11190 19070,11190 Z"/>
 <path fill="none" stroke="rgb(255,0,0)" stroke-linejoin="round" d="M 19070,11190 L 19070,11440 19320,11440 19320,11190 19070,11190 Z"/>
 <path fill="rgb(255,0,0)" stroke="none" d="M 21310,7153 L 21310,7403 21560,7403 21560,7153 21310,7153 Z"/>
 <path fill="none" stroke="rgb(255,0,0)" stroke-linejoin="round" d="M 21310,7153 L 21310,7403 21560,7403 21560,7153 21310,7153 Z"/>
 <path fill="none" stroke="rgb(255,0,0)" stroke-width="80" stroke-linejoin="round" d="M 1278,9812 L 3517,11774 5757,6367 7997,10095 10237,13004 12476,14956 14715,10788 16955,11305 19195,5459 21435,1574"/>
 <path fill="rgb(255,0,0)" stroke="none" d="M 1153,9812 L 1278,9937 1403,9812 1278,9687 1153,9812 Z"/>
 <path fill="none" stroke="rgb(255,0,0)" stroke-linejoin="round" d="M 1153,9812 L 1278,9937 1403,9812 1278,9687 1153,9812 Z"/>
 <path fill="rgb(255,0,0)" stroke="none" d="M 3392,11774 L 3517,11899 3642,11774 3517,11649 3392,11774 Z"/>
 <path fill="none" stroke="rgb(255,0,0)" stroke-linejoin="round" d="M 3392,11774 L 3517,11899 3642,11774 3517,11649 3392,11774 Z"/>
 <path fill="rgb(255,0,0)" stroke="none" d="M 5632,6367 L 5757,6492 5882,6367 5757,6242 5632,6367 Z"/>
 <path fill="none" stroke="rgb(255,0,0)" stroke-linejoin="round" d="M 5632,6367 L 5757,6492 5882,6367 5757,6242 5632,6367 Z"/>
 <path fill="rgb(255,0,0)" stroke="none" d="M 7872,10095 L 7997,10220 8122,10095 7997,9970 7872,10095 Z"/>
 <path fill="none" stroke="rgb(255,0,0)" stroke-linejoin="round" d="M 7872,10095 L 7997,10220 8122,10095 7997,9970 7872,10095 Z"/>
 <path fill="rgb(255,0,0)" stroke="none" d="M 10112,13004 L 10237,13129 10362,13004 10237,12879 10112,13004 Z"/>
 <path fill="none" stroke="rgb(255,0,0)" stroke-linejoin="round" d="M 10112,13004 L 10237,13129 10362,13004 10237,12879 10112,13004 Z"/>
 <path fill="rgb(255,0,0)" stroke="none" d="M 12351,14956 L 12476,15081 12601,14956 12476,14831 12351,14956 Z"/>
 <path fill="none" stroke="rgb(255,0,0)" stroke-linejoin="round" d="M 12351,14956 L 12476,15081 12601,14956 12476,14831 12351,14956 Z"/>
 <path fill="rgb(255,0,0)" stroke="none" d="M 14590,10788 L 14715,10913 14840,10788 14715,10663 14590,10788 Z"/>
 <path fill="none" stroke="rgb(255,0,0)" stroke-linejoin="round" d="M 14590,10788 L 14715,10913 14840,10788 14715,10663 14590,10788 Z"/>
 <path fill="rgb(255,0,0)" stroke="none" d="M 16830,11305 L 16955,11430 17080,11305 16955,11180 16830,11305 Z"/>
 <path fill="none" stroke="rgb(255,0,0)" stroke-linejoin="round" d="M 16830,11305 L 16955,11430 17080,11305 16955,11180 16830,11305 Z"/>
 <path fill="rgb(255,0,0)" stroke="none" d="M 19070,5459 L 19195,5584 19320,5459 19195,5334 19070,5459 Z"/>
 <path fill="none" stroke="rgb(255,0,0)" stroke-linejoin="round" d="M 19070,5459 L 19195,5584 19320,5459 19195,5334 19070,5459 Z"/>
 <path fill="rgb(255,0,0)" stroke="none" d="M 21310,1574 L 21435,1699 21560,1574 21435,1449 21310,1574 Z"/>
 <path fill="none" stroke="rgb(255,0,0)" stroke-linejoin="round" d="M 21310,1574 L 21435,1699 21560,1574 21435,1449 21310,1574 Z"/>
 <path fill="none" stroke="rgb(0,153,51)" stroke-width="80" stroke-linejoin="round" stroke-dasharray="80,40" d="M 1278,7835 L 3517,7724 5757,7992 7997,7724 10237,7612 12476,7211 14715,7858 16955,7679 19195,7947 21435,8036"/>
 <path fill="rgb(0,153,51)" stroke="none" d="M 1153,7710 L 1278,7960 1403,7710 1153,7710 Z"/>
 <path fill="none" stroke="rgb(0,153,51)" stroke-linejoin="round" d="M 1153,7710 L 1278,7960 1403,7710 1153,7710 Z"/>
 <path fill="rgb(0,153,51)" stroke="none" d="M 3392,7599 L 3517,7849 3642,7599 3392,7599 Z"/>
 <path fill="none" stroke="rgb(0,153,51)" stroke-linejoin="round" d="M 3392,7599 L 3517,7849 3642,7599 3392,7599 Z"/>
 <path fill="rgb(0,153,51)" stroke="none" d="M 5632,7867 L 5757,8117 5882,7867 5632,7867 Z"/>
 <path fill="none" stroke="rgb(0,153,51)" stroke-linejoin="round" d="M 5632,7867 L 5757,8117 5882,7867 5632,7867 Z"/>
 <path fill="rgb(0,153,51)" stroke="none" d="M 7872,7599 L 7997,7849 8122,7599 7872,7599 Z"/>
 <path fill="none" stroke="rgb(0,153,51)" stroke-linejoin="round" d="M 7872,7599 L 7997,7849 8122,7599 7872,7599 Z"/>
 <path fill="rgb(0,153,51)" stroke="none" d="M 10112,7487 L 10237,7737 10362,7487 10112,7487 Z"/>
 <path fill="none" stroke="rgb(0,153,51)" stroke-linejoin="round" d="M 10112,7487 L 10237,7737 10362,7487 10112,7487 Z"/>
 <path fill="rgb(0,153,51)" stroke="none" d="M 12351,7086 L 12476,7336 12601,7086 12351,7086 Z"/>
 <path fill="none" stroke="rgb(0,153,51)" stroke-linejoin="round" d="M 12351,7086 L 12476,7336 12601,7086 12351,7086 Z"/>
 <path fill="rgb(0,153,51)" stroke="none" d="M 14590,7733 L 14715,7983 14840,7733 14590,7733 Z"/>
 <path fill="none" stroke="rgb(0,153,51)" stroke-linejoin="round" d="M 14590,7733 L 14715,7983 14840,7733 14590,7733 Z"/>
 <path fill="rgb(0,153,51)" stroke="none" d="M 16830,7554 L 16955,7804 17080,7554 16830,7554 Z"/>
 <path fill="none" stroke="rgb(0,153,51)" stroke-linejoin="round" d="M 16830,7554 L 16955,7804 17080,7554 16830,7554 Z"/>
 <path fill="rgb(0,153,51)" stroke="none" d="M 19070,7822 L 19195,8072 19320,7822 19070,7822 Z"/>
 <path fill="none" stroke="rgb(0,153,51)" stroke-linejoin="round" d="M 19070,7822 L 19195,8072 19320,7822 19070,7822 Z"/>
 <path fill="rgb(0,153,51)" stroke="none" d="M 21310,7911 L 21435,8161 21560,7911 21310,7911 Z"/>
 <path fill="none" stroke="rgb(0,153,51)" stroke-linejoin="round" d="M 21310,7911 L 21435,8161 21560,7911 21310,7911 Z"/>
 <path fill="none" stroke="rgb(0,153,51)" stroke-width="80" stroke-linejoin="round" d="M 1278,12555 L 3517,13072 5757,12867 7997,13062 10237,12984 12476,13306 14715,12896 16955,13043 19195,12906 21435,12799"/>
 <path fill="rgb(0,153,51)" stroke="none" d="M 1153,12680 L 1403,12680 1278,12430 1153,12680 Z"/>
 <path fill="none" stroke="rgb(0,153,51)" stroke-linejoin="round" d="M 1153,12680 L 1403,12680 1278,12430 1153,12680 Z"/>
 <path fill="rgb(0,153,51)" stroke="none" d="M 3392,13197 L 3642,13197 3517,12947 3392,13197 Z"/>
 <path fill="none" stroke="rgb(0,153,51)" stroke-linejoin="round" d="M 3392,13197 L 3642,13197 3517,12947 3392,13197 Z"/>
 <path fill="rgb(0,153,51)" stroke="none" d="M 5632,12992 L 5882,12992 5757,12742 5632,12992 Z"/>
 <path fill="none" stroke="rgb(0,153,51)" stroke-linejoin="round" d="M 5632,12992 L 5882,12992 5757,12742 5632,12992 Z"/>
 <path fill="rgb(0,153,51)" stroke="none" d="M 7872,13187 L 8122,13187 7997,12937 7872,13187 Z"/>
 <path fill="none" stroke="rgb(0,153,51)" stroke-linejoin="round" d="M 7872,13187 L 8122,13187 7997,12937 7872,13187 Z"/>
 <path fill="rgb(0,153,51)" stroke="none" d="M 10112,13109 L 10362,13109 10237,12859 10112,13109 Z"/>
 <path fill="none" stroke="rgb(0,153,51)" stroke-linejoin="round" d="M 10112,13109 L 10362,13109 10237,12859 10112,13109 Z"/>
 <path fill="rgb(0,153,51)" stroke="none" d="M 12351,13431 L 12601,13431 12476,13181 12351,13431 Z"/>
 <path fill="none" stroke="rgb(0,153,51)" stroke-linejoin="round" d="M 12351,13431 L 12601,13431 12476,13181 12351,13431 Z"/>
 <path fill="rgb(0,153,51)" stroke="none" d="M 14590,13021 L 14840,13021 14715,12771 14590,13021 Z"/>
 <path fill="none" stroke="rgb(0,153,51)" stroke-linejoin="round" d="M 14590,13021 L 14840,13021 14715,12771 14590,13021 Z"/>
 <path fill="rgb(0,153,51)" stroke="none" d="M 16830,13168 L 17080,13168 16955,12918 16830,13168 Z"/>
 <path fill="none" stroke="rgb(0,153,51)" stroke-linejoin="round" d="M 16830,13168 L 17080,13168 16955,12918 16830,13168 Z"/>
 <path fill="rgb(0,153,51)" stroke="none" d="M 19070,13031 L 19320,13031 19195,12781 19070,13031 Z"/>
 <path fill="none" stroke="rgb(0,153,51)" stroke-linejoin="round" d="M 19070,13031 L 19320,13031 19195,12781 19070,13031 Z"/>
 <path fill="rgb(0,153,51)" stroke="none" d="M 21310,12924 L 21560,12924 21435,12674 21310,12924 Z"/>
 <path fill="none" stroke="rgb(0,153,51)" stroke-linejoin="round" d="M 21310,12924 L 21560,12924 21435,12674 21310,12924 Z"/>
 <path fill="none" stroke="rgb(255,204,255)" stroke-width="80" stroke-linejoin="round" stroke-dasharray="80,40" d="M 1278,8438 L 3517,2548 5757,5225 7997,4712 10237,7635 12476,2860 14715,6140 16955,1544 19195,10735 21435,6631"/>
 <path fill="rgb(255,204,255)" stroke="none" d="M 1153,8313 L 1153,8563 1403,8438 1153,8313 Z"/>
 <path fill="none" stroke="rgb(255,204,255)" stroke-linejoin="round" d="M 1153,8313 L 1153,8563 1403,8438 1153,8313 Z"/>
 <path fill="rgb(255,204,255)" stroke="none" d="M 3392,2423 L 3392,2673 3642,2548 3392,2423 Z"/>
 <path fill="none" stroke="rgb(255,204,255)" stroke-linejoin="round" d="M 3392,2423 L 3392,2673 3642,2548 3392,2423 Z"/>
 <path fill="rgb(255,204,255)" stroke="none" d="M 5632,5100 L 5632,5350 5882,5225 5632,5100 Z"/>
 <path fill="none" stroke="rgb(255,204,255)" stroke-linejoin="round" d="M 5632,5100 L 5632,5350 5882,5225 5632,5100 Z"/>
 <path fill="rgb(255,204,255)" stroke="none" d="M 7872,4587 L 7872,4837 8122,4712 7872,4587 Z"/>
 <path fill="none" stroke="rgb(255,204,255)" stroke-linejoin="round" d="M 7872,4587 L 7872,4837 8122,4712 7872,4587 Z"/>
 <path fill="rgb(255,204,255)" stroke="none" d="M 10112,7510 L 10112,7760 10362,7635 10112,7510 Z"/>
 <path fill="none" stroke="rgb(255,204,255)" stroke-linejoin="round" d="M 10112,7510 L 10112,7760 10362,7635 10112,7510 Z"/>
 <path fill="rgb(255,204,255)" stroke="none" d="M 12351,2735 L 12351,2985 12601,2860 12351,2735 Z"/>
 <path fill="none" stroke="rgb(255,204,255)" stroke-linejoin="round" d="M 12351,2735 L 12351,2985 12601,2860 12351,2735 Z"/>
 <path fill="rgb(255,204,255)" stroke="none" d="M 14590,6015 L 14590,6265 14840,6140 14590,6015 Z"/>
 <path fill="none" stroke="rgb(255,204,255)" stroke-linejoin="round" d="M 14590,6015 L 14590,6265 14840,6140 14590,6015 Z"/>
 <path fill="rgb(255,204,255)" stroke="none" d="M 16830,1419 L 16830,1669 17080,1544 16830,1419 Z"/>
 <path fill="none" stroke="rgb(255,204,255)" stroke-linejoin="round" d="M 16830,1419 L 16830,1669 17080,1544 16830,1419 Z"/>
 <path fill="rgb(255,204,255)" stroke="none" d="M 19070,10610 L 19070,10860 19320,10735 19070,10610 Z"/>
 <path fill="none" stroke="rgb(255,204,255)" stroke-linejoin="round" d="M 19070,10610 L 19070,10860 19320,10735 19070,10610 Z"/>
 <path fill="rgb(255,204,255)" stroke="none" d="M 21310,6506 L 21310,6756 21560,6631 21310,6506 Z"/>
 <path fill="none" stroke="rgb(255,204,255)" stroke-linejoin="round" d="M 21310,6506 L 21310,6756 21560,6631 21310,6506 Z"/>
 <path fill="none" stroke="rgb(255,204,255)" stroke-width="80" stroke-linejoin="round" d="M 1278,13023 L 3517,13228 5757,9939 7997,11334 10237,13052 12476,14946 14715,10622 16955,13492 19195,7411 21435,4083"/>
 <path fill="rgb(255,204,255)" stroke="none" d="M 1153,13023 L 1403,13148 1403,12898 1153,13023 Z"/>
 <path fill="none" stroke="rgb(255,204,255)" stroke-linejoin="round" d="M 1153,13023 L 1403,13148 1403,12898 1153,13023 Z"/>
 <path fill="rgb(255,204,255)" stroke="none" d="M 3392,13228 L 3642,13353 3642,13103 3392,13228 Z"/>
 <path fill="none" stroke="rgb(255,204,255)" stroke-linejoin="round" d="M 3392,13228 L 3642,13353 3642,13103 3392,13228 Z"/>
 <path fill="rgb(255,204,255)" stroke="none" d="M 5632,9939 L 5882,10064 5882,9814 5632,9939 Z"/>
 <path fill="none" stroke="rgb(255,204,255)" stroke-linejoin="round" d="M 5632,9939 L 5882,10064 5882,9814 5632,9939 Z"/>
 <path fill="rgb(255,204,255)" stroke="none" d="M 7872,11334 L 8122,11459 8122,11209 7872,11334 Z"/>
 <path fill="none" stroke="rgb(255,204,255)" stroke-linejoin="round" d="M 7872,11334 L 8122,11459 8122,11209 7872,11334 Z"/>
 <path fill="rgb(255,204,255)" stroke="none" d="M 10112,13052 L 10362,13177 10362,12927 10112,13052 Z"/>
 <path fill="none" stroke="rgb(255,204,255)" stroke-linejoin="round" d="M 10112,13052 L 10362,13177 10362,12927 10112,13052 Z"/>
 <path fill="rgb(255,204,255)" stroke="none" d="M 12351,14946 L 12601,15071 12601,14821 12351,14946 Z"/>
 <path fill="none" stroke="rgb(255,204,255)" stroke-linejoin="round" d="M 12351,14946 L 12601,15071 12601,14821 12351,14946 Z"/>
 <path fill="rgb(255,204,255)" stroke="none" d="M 14590,10622 L 14840,10747 14840,10497 14590,10622 Z"/>
 <path fill="none" stroke="rgb(255,204,255)" stroke-linejoin="round" d="M 14590,10622 L 14840,10747 14840,10497 14590,10622 Z"/>
 <path fill="rgb(255,204,255)" stroke="none" d="M 16830,13492 L 17080,13617 17080,13367 16830,13492 Z"/>
 <path fill="none" stroke="rgb(255,204,255)" stroke-linejoin="round" d="M 16830,13492 L 17080,13617 17080,13367 16830,13492 Z"/>
 <path fill="rgb(255,204,255)" stroke="none" d="M 19070,7411 L 19320,7536 19320,7286 19070,7411 Z"/>
 <path fill="none" stroke="rgb(255,204,255)" stroke-linejoin="round" d="M 19070,7411 L 19320,7536 19320,7286 19070,7411 Z"/>
 <path fill="rgb(255,204,255)" stroke="none" d="M 21310,4083 L 21560,4208 21560,3958 21310,4083 Z"/>
 <path fill="none" stroke="rgb(255,204,255)" stroke-linejoin="round" d="M 21310,4083 L 21560,4208 21560,3958 21310,4083 Z"/>
 <path fill="none" stroke="rgb(0,0,0)" stroke-width="30" stroke-linejoin="round" stroke-dasharray="30,15" d="M 1278,7434 L 3517,7434 5757,7434 7997,7434 10237,7434 12476,7434 14715,7434 16955,7434 19195,7434 21435,7434"/>
 <path fill="none" stroke="rgb(0,0,0)" stroke-width="30" stroke-linejoin="round" d="M 1278,13004 L 3517,13004 5757,13004 7997,13004 10237,13004 12476,13004 14715,13004 16955,13004 19195,13004 21435,13004"/>
 <text class="TextShape"><tspan class="TextParagraph" font-family="Liberation Sans" font-size="353px" font-weight="400"><tspan class="TextPosition" x="1040" y="16725"><tspan fill="rgb(0,0,0)" stroke="none">src</tspan></tspan></tspan></text>
 <text class="TextShape"><tspan class="TextParagraph" font-family="Liberation Sans" font-size="353px" font-weight="400"><tspan class="TextPosition" x="2935" y="16725"><tspan fill="rgb(0,0,0)" stroke="none">wdev_0</tspan></tspan></tspan></text>
 <text class="TextShape"><tspan class="TextParagraph" font-family="Liberation Sans" font-size="353px" font-weight="400"><tspan class="TextPosition" x="5333" y="16725"><tspan fill="rgb(0,0,0)" stroke="none">hm_0</tspan></tspan></tspan></text>
 <text class="TextShape"><tspan class="TextParagraph" font-family="Liberation Sans" font-size="353px" font-weight="400"><tspan class="TextPosition" x="7481" y="16725"><tspan fill="rgb(0,0,0)" stroke="none">mds_0</tspan></tspan></tspan></text>
 <text class="TextShape"><tspan class="TextParagraph" font-family="Liberation Sans" font-size="353px" font-weight="400"><tspan class="TextPosition" x="9813" y="16725"><tspan fill="rgb(0,0,0)" stroke="none">prn_0</tspan></tspan></tspan></text>
 <text class="TextShape"><tspan class="TextParagraph" font-family="Liberation Sans" font-size="353px" font-weight="400"><tspan class="TextPosition" x="11907" y="16725"><tspan fill="rgb(0,0,0)" stroke="none">rsrch_0</tspan></tspan></tspan></text>
 <text class="TextShape"><tspan class="TextParagraph" font-family="Liberation Sans" font-size="353px" font-weight="400"><tspan class="TextPosition" x="14292" y="16725"><tspan fill="rgb(0,0,0)" stroke="none">stg_0</tspan></tspan></tspan></text>
 <text class="TextShape"><tspan class="TextParagraph" font-family="Liberation Sans" font-size="353px" font-weight="400"><tspan class="TextPosition" x="16625" y="16725"><tspan fill="rgb(0,0,0)" stroke="none">ts_0</tspan></tspan></tspan></text>
 <text class="TextShape"><tspan class="TextParagraph" font-family="Liberation Sans" font-size="353px" font-weight="400"><tspan class="TextPosition" x="18772" y="16725"><tspan fill="rgb(0,0,0)" stroke="none">usr_0</tspan></tspan></tspan></text>
 <text class="TextShape"><tspan class="TextParagraph" font-family="Liberation Sans" font-size="353px" font-weight="400"><tspan class="TextPosition" x="20946" y="16725"><tspan fill="rgb(0,0,0)" stroke="none">web_0</tspan></tspan></tspan></text>
 <text class="TextShape"><tspan class="TextParagraph" font-family="Liberation Sans" font-size="353px" font-weight="400"><tspan class="TextPosition" x="843" y="16278"><tspan fill="rgb(0,0,0)" stroke="none">0</tspan></tspan></tspan></text>
 <text class="TextShape"><tspan class="TextParagraph" font-family="Liberation Sans" font-size="353px" font-weight="400"><tspan class="TextPosition" x="552" y="14046"><tspan fill="rgb(0,0,0)" stroke="none">0.1</tspan></tspan></tspan></text>
 <text class="TextShape"><tspan class="TextParagraph" font-family="Liberation Sans" font-size="353px" font-weight="400"><tspan class="TextPosition" x="552" y="11815"><tspan fill="rgb(0,0,0)" stroke="none">0.2</tspan></tspan></tspan></text>
 <text class="TextShape"><tspan class="TextParagraph" font-family="Liberation Sans" font-size="353px" font-weight="400"><tspan class="TextPosition" x="552" y="9584"><tspan fill="rgb(0,0,0)" stroke="none">0.3</tspan></tspan></tspan></text>
 <text class="TextShape"><tspan class="TextParagraph" font-family="Liberation Sans" font-size="353px" font-weight="400"><tspan class="TextPosition" x="552" y="7353"><tspan fill="rgb(0,0,0)" stroke="none">0.4</tspan></tspan></tspan></text>
 <text class="TextShape"><tspan class="TextParagraph" font-family="Liberation Sans" font-size="353px" font-weight="400"><tspan class="TextPosition" x="552" y="5122"><tspan fill="rgb(0,0,0)" stroke="none">0.5</tspan></tspan></tspan></text>
 <text class="TextShape"><tspan class="TextParagraph" font-family="Liberation Sans" font-size="353px" font-weight="400"><tspan class="TextPosition" x="552" y="2891"><tspan fill="rgb(0,0,0)" stroke="none">0.6</tspan></tspan></tspan></text>
 <text class="TextShape"><tspan class="TextParagraph" font-family="Liberation Sans" font-size="353px" font-weight="400"><tspan class="TextPosition" x="552" y="660"><tspan fill="rgb(0,0,0)" stroke="none">0.7</tspan></tspan></tspan></text>
 <text class="TextShape"><tspan class="TextParagraph" font-family="Liberation Sans" font-size="353px" font-weight="400"><tspan class="TextPosition" x="21685" y="16278"><tspan fill="rgb(0,0,0)" stroke="none">0</tspan></tspan></tspan></text>
 <text class="TextShape"><tspan class="TextParagraph" font-family="Liberation Sans" font-size="353px" font-weight="400"><tspan class="TextPosition" x="21685" y="14325"><tspan fill="rgb(0,0,0)" stroke="none">2</tspan></tspan></tspan></text>
 <text class="TextShape"><tspan class="TextParagraph" font-family="Liberation Sans" font-size="353px" font-weight="400"><tspan class="TextPosition" x="21685" y="12373"><tspan fill="rgb(0,0,0)" stroke="none">4</tspan></tspan></tspan></text>
 <text class="TextShape"><tspan class="TextParagraph" font-family="Liberation Sans" font-size="353px" font-weight="400"><tspan class="TextPosition" x="21685" y="10421"><tspan fill="rgb(0,0,0)" stroke="none">6</tspan></tspan></tspan></text>
 <text class="TextShape"><tspan class="TextParagraph" font-family="Liberation Sans" font-size="353px" font-weight="400"><tspan class="TextPosition" x="21685" y="8469"><tspan fill="rgb(0,0,0)" stroke="none">8</tspan></tspan></tspan></text>
 <text class="TextShape"><tspan class="TextParagraph" font-family="Liberation Sans" font-size="353px" font-weight="400"><tspan class="TextPosition" x="21685" y="6516"><tspan fill="rgb(0,0,0)" stroke="none">10</tspan></tspan></tspan></text>
 <text class="TextShape"><tspan class="TextParagraph" font-family="Liberation Sans" font-size="353px" font-weight="400"><tspan class="TextPosition" x="21685" y="4564"><tspan fill="rgb(0,0,0)" stroke="none">12</tspan></tspan></tspan></text>
 <text class="TextShape"><tspan class="TextParagraph" font-family="Liberation Sans" font-size="353px" font-weight="400"><tspan class="TextPosition" x="21685" y="2612"><tspan fill="rgb(0,0,0)" stroke="none">14</tspan></tspan></tspan></text>
 <text class="TextShape"><tspan class="TextParagraph" font-family="Liberation Sans" font-size="353px" font-weight="400"><tspan class="TextPosition" x="21685" y="660"><tspan fill="rgb(0,0,0)" stroke="none">16</tspan></tspan></tspan></text>
 <path fill="none" stroke="rgb(255,0,0)" stroke-width="80" stroke-linejoin="round" stroke-dasharray="80,40" d="M 22724,6830 L 24324,6830"/>
 <path fill="rgb(255,0,0)" stroke="none" d="M 23418,6725 L 23418,6935 23629,6935 23629,6725 23418,6725 Z"/>
 <path fill="none" stroke="rgb(255,0,0)" stroke-linejoin="round" d="M 23418,6725 L 23418,6935 23629,6935 23629,6725 23418,6725 Z"/>
 <path fill="none" stroke="rgb(255,0,0)" stroke-width="80" stroke-linejoin="round" d="M 22724,7328 L 24324,7328"/>
 <path fill="rgb(255,0,0)" stroke="none" d="M 23418,7328 L 23524,7433 23629,7328 23524,7223 23418,7328 Z"/>
 <path fill="none" stroke="rgb(255,0,0)" stroke-linejoin="round" d="M 23418,7328 L 23524,7433 23629,7328 23524,7223 23418,7328 Z"/>
 <path fill="none" stroke="rgb(0,153,51)" stroke-width="80" stroke-linejoin="round" stroke-dasharray="80,40" d="M 22724,7826 L 24324,7826"/>
 <path fill="rgb(0,153,51)" stroke="none" d="M 23418,7721 L 23524,7931 23629,7721 23418,7721 Z"/>
 <path fill="none" stroke="rgb(0,153,51)" stroke-linejoin="round" d="M 23418,7721 L 23524,7931 23629,7721 23418,7721 Z"/>
 <path fill="none" stroke="rgb(0,153,51)" stroke-width="80" stroke-linejoin="round" d="M 22724,8324 L 24324,8324"/>
 <path fill="rgb(0,153,51)" stroke="none" d="M 23418,8429 L 23629,8429 23524,8219 23418,8429 Z"/>
 <path fill="none" stroke="rgb(0,153,51)" stroke-linejoin="round" d="M 23418,8429 L 23629,8429 23524,8219 23418,8429 Z"/>
 <path fill="none" stroke="rgb(255,204,255)" stroke-width="80" stroke-linejoin="round" stroke-dasharray="80,40" d="M 22724,8821 L 24324,8821"/>
 <path fill="rgb(255,204,255)" stroke="none" d="M 23418,8716 L 23418,8926 23629,8821 23418,8716 Z"/>
 <path fill="none" stroke="rgb(255,204,255)" stroke-linejoin="round" d="M 23418,8716 L 23418,8926 23629,8821 23418,8716 Z"/>
 <path fill="none" stroke="rgb(255,204,255)" stroke-width="80" stroke-linejoin="round" d="M 22724,9319 L 24324,9319"/>
 <path fill="rgb(255,204,255)" stroke="none" d="M 23418,9319 L 23629,9424 23629,9214 23418,9319 Z"/>
 <path fill="none" stroke="rgb(255,204,255)" stroke-linejoin="round" d="M 23418,9319 L 23629,9424 23629,9214 23418,9319 Z"/>
 <path fill="none" stroke="rgb(0,0,0)" stroke-width="30" stroke-linejoin="round" stroke-dasharray="30,15" d="M 22724,9817 L 24324,9817"/>
 <path fill="none" stroke="rgb(0,0,0)" stroke-width="30" stroke-linejoin="round" d="M 22724,10315 L 24324,10315"/>
 <text class="TextShape"><tspan class="TextParagraph" font-family="Liberation Sans" font-size="353px" font-weight="400"><tspan class="TextPosition" x="24424" y="6950"><tspan fill="rgb(0,0,0)" stroke="none">o_hit</tspan></tspan></tspan></text>
 <text class="TextShape"><tspan class="TextParagraph" font-family="Liberation Sans" font-size="353px" font-weight="400"><tspan class="TextPosition" x="24424" y="7448"><tspan fill="rgb(0,0,0)" stroke="none">o_amp</tspan></tspan></tspan></text>
 <text class="TextShape"><tspan class="TextParagraph" font-family="Liberation Sans" font-size="353px" font-weight="400"><tspan class="TextPosition" x="24424" y="7946"><tspan fill="rgb(0,0,0)" stroke="none">prn_hit</tspan></tspan></tspan></text>
 <text class="TextShape"><tspan class="TextParagraph" font-family="Liberation Sans" font-size="353px" font-weight="400"><tspan class="TextPosition" x="24424" y="8444"><tspan fill="rgb(0,0,0)" stroke="none">prn_amp</tspan></tspan></tspan></text>
 <text class="TextShape"><tspan class="TextParagraph" font-family="Liberation Sans" font-size="353px" font-weight="400"><tspan class="TextPosition" x="24424" y="8941"><tspan fill="rgb(0,0,0)" stroke="none">other_hit</tspan></tspan></tspan></text>
 <text class="TextShape"><tspan class="TextParagraph" font-family="Liberation Sans" font-size="353px" font-weight="400"><tspan class="TextPosition" x="24424" y="9439"><tspan fill="rgb(0,0,0)" stroke="none">other_amp</tspan></tspan></tspan></text>
 <text class="TextShape"><tspan class="TextParagraph" font-family="Liberation Sans" font-size="353px" font-weight="400"><tspan class="TextPosition" x="24424" y="9937"><tspan fill="rgb(0,0,0)" stroke="none">standard_prn_hit</tspan></tspan></tspan></text>
 <text class="TextShape"><tspan class="TextParagraph" font-family="Liberation Sans" font-size="353px" font-weight="400"><tspan class="TextPosition" x="24424" y="10435"><tspan fill="rgb(0,0,0)" stroke="none">standard_prn_amp</tspan></tspan></tspan></text>
</svg>