<?xml version="1.0" encoding="UTF-8"?>
<!DOCTYPE svg PUBLIC "-//W3C//DTD SVG 1.1//EN" "http://www.w3.org/Graphics/SVG/1.1/DTD/svg11.dtd">
<svg width="257mm" height="165mm" viewBox="0 0 25700 16500" version="1.1" baseProfile="tiny" xmlns="http://www.w3.org/2000/svg" stroke-width="28.222" stroke-linejoin="round" xml:space="preserve">
 <path fill="rgb(255,255,255)" stroke="none" d="M 12826,16508 L 0,16508 0,0 25652,0 25652,16508 12826,16508 Z"/>
 <path fill="none" stroke="rgb(179,179,179)" stroke-linejoin="round" d="M 10722,15531 L 1240,15531 1240,1800 20203,1800 20203,15531 10722,15531 Z"/>
 <path fill="none" stroke="rgb(179,179,179)" stroke-linejoin="round" d="M 20203,15530 L 1240,15530"/>
 <path fill="none" stroke="rgb(179,179,179)" stroke-linejoin="round" d="M 20203,13568 L 1240,13568"/>
 <path fill="none" stroke="rgb(179,179,179)" stroke-linejoin="round" d="M 20203,11606 L 1240,11606"/>
 <path fill="none" stroke="rgb(179,179,179)" stroke-linejoin="round" d="M 20203,9644 L 1240,9644"/>
 <path fill="none" stroke="rgb(179,179,179)" stroke-linejoin="round" d="M 20203,7684 L 1240,7684"/>
 <path fill="none" stroke="rgb(179,179,179)" stroke-linejoin="round" d="M 20203,5722 L 1240,5722"/>
 <path fill="none" stroke="rgb(179,179,179)" stroke-linejoin="round" d="M 20203,3760 L 1240,3760"/>
 <path fill="none" stroke="rgb(179,179,179)" stroke-linejoin="round" d="M 20203,1799 L 1240,1799"/>
 <path fill="none" stroke="rgb(179,179,179)" stroke-linejoin="round" d="M 1240,15680 L 1240,15530"/>
 <path fill="none" stroke="rgb(179,179,179)" stroke-linejoin="round" d="M 1240,15680 L 1240,15530"/>
 <path fill="none" stroke="rgb(179,179,179)" stroke-linejoin="round" d="M 3347,15680 L 3347,15530"/>
 <path fill="none" stroke="rgb(179,179,179)" stroke-linejoin="round" d="M 3347,15680 L 3347,15530"/>
 <path fill="none" stroke="rgb(179,179,179)" stroke-linejoin="round" d="M 5454,15680 L 5454,15530"/>
 <path fill="none" stroke="rgb(179,179,179)" stroke-linejoin="round" d="M 5454,15680 L 5454,15530"/>
 <path fill="none" stroke="rgb(179,179,179)" stroke-linejoin="round" d="M 7561,15680 L 7561,15530"/>
 <path fill="none" stroke="rgb(179,179,179)" stroke-linejoin="round" d="M 7561,15680 L 7561,15530"/>
 <path fill="none" stroke="rgb(179,179,179)" stroke-linejoin="round" d="M 9668,15680 L 9668,15530"/>
 <path fill="none" stroke="rgb(179,179,179)" stroke-linejoin="round" d="M 9668,15680 L 9668,15530"/>
 <path fill="none" stroke="rgb(179,179,179)" stroke-linejoin="round" d="M 11775,15680 L 11775,15530"/>
 <path fill="none" stroke="rgb(179,179,179)" stroke-linejoin="round" d="M 11775,15680 L 11775,15530"/>
 <path fill="none" stroke="rgb(179,179,179)" stroke-linejoin="round" d="M 13881,15680 L 13881,15530"/>
 <path fill="none" stroke="rgb(179,179,179)" stroke-linejoin="round" d="M 13881,15680 L 13881,15530"/>
 <path fill="none" stroke="rgb(179,179,179)" stroke-linejoin="round" d="M 15988,15680 L 15988,15530"/>
 <path fill="none" stroke="rgb(179,179,179)" stroke-linejoin="round" d="M 15988,15680 L 15988,15530"/>
 <path fill="none" stroke="rgb(179,179,179)" stroke-linejoin="round" d="M 18095,15680 L 18095,15530"/>
 <path fill="none" stroke="rgb(179,179,179)" stroke-linejoin="round" d="M 18095,15680 L 18095,15530"/>
 <path fill="none" stroke="rgb(179,179,179)" stroke-linejoin="round" d="M 20203,15680 L 20203,15530"/>
 <path fill="none" stroke="rgb(179,179,179)" stroke-linejoin="round" d="M 20203,15680 L 20203,15530"/>
 <path fill="none" stroke="rgb(179,179,179)" stroke-linejoin="round" d="M 1240,15530 L 20203,15530"/>
 <path fill="none" stroke="rgb(179,179,179)" stroke-linejoin="round" d="M 1090,15530 L 1240,15530"/>
 <path fill="none" stroke="rgb(179,179,179)" stroke-linejoin="round" d="M 1090,15530 L 1240,15530"/>
 <path fill="none" stroke="rgb(179,179,179)" stroke-linejoin="round" d="M 1090,13568 L 1240,13568"/>
 <path fill="none" stroke="rgb(179,179,179)" stroke-linejoin="round" d="M 1090,13568 L 1240,13568"/>
 <path fill="none" stroke="rgb(179,179,179)" stroke-linejoin="round" d="M 1090,11606 L 1240,11606"/>
 <path fill="none" stroke="rgb(179,179,179)" stroke-linejoin="round" d="M 1090,11606 L 1240,11606"/>
 <path fill="none" stroke="rgb(179,179,179)" stroke-linejoin="round" d="M 1090,9644 L 1240,9644"/>
 <path fill="none" stroke="rgb(179,179,179)" stroke-linejoin="round" d="M 1090,9644 L 1240,9644"/>
 <path fill="none" stroke="rgb(179,179,179)" stroke-linejoin="round" d="M 1090,7684 L 1240,7684"/>
 <path fill="none" stroke="rgb(179,179,179)" stroke-linejoin="round" d="M 1090,7684 L 1240,7684"/>
 <path fill="none" stroke="rgb(179,179,179)" stroke-linejoin="round" d="M 1090,5722 L 1240,5722"/>
 <path fill="none" stroke="rgb(179,179,179)" stroke-linejoin="round" d="M 1090,5722 L 1240,5722"/>
 <path fill="none" stroke="rgb(179,179,179)" stroke-linejoin="round" d="M 1090,3760 L 1240,3760"/>
 <path fill="none" stroke="rgb(179,179,179)" stroke-linejoin="round" d="M 1090,3760 L 1240,3760"/>
 <path fill="none" stroke="rgb(179,179,179)" stroke-linejoin="round" d="M 1090,1799 L 1240,1799"/>
 <path fill="none" stroke="rgb(179,179,179)" stroke-linejoin="round" d="M 1090,1799 L 1240,1799"/>
 <path fill="none" stroke="rgb(179,179,179)" stroke-linejoin="round" d="M 1240,15530 L 1240,1799"/>
 <path fill="none" stroke="rgb(179,179,179)" stroke-linejoin="round" d="M 20353,15530 L 20203,15530"/>
 <path fill="none" stroke="rgb(179,179,179)" stroke-linejoin="round" d="M 20353,15530 L 20203,15530"/>
 <path fill="none" stroke="rgb(179,179,179)" stroke-linejoin="round" d="M 20353,13813 L 20203,13813"/>
 <path fill="none" stroke="rgb(179,179,179)" stroke-linejoin="round" d="M 20353,13813 L 20203,13813"/>
 <path fill="none" stroke="rgb(179,179,179)" stroke-linejoin="round" d="M 20353,12097 L 20203,12097"/>
 <path fill="none" stroke="rgb(179,179,179)" stroke-linejoin="round" d="M 20353,12097 L 20203,12097"/>
 <path fill="none" stroke="rgb(179,179,179)" stroke-linejoin="round" d="M 20353,10380 L 20203,10380"/>
 <path fill="none" stroke="rgb(179,179,179)" stroke-linejoin="round" d="M 20353,10380 L 20203,10380"/>
 <path fill="none" stroke="rgb(179,179,179)" stroke-linejoin="round" d="M 20353,8664 L 20203,8664"/>
 <path fill="none" stroke="rgb(179,179,179)" stroke-linejoin="round" d="M 20353,8664 L 20203,8664"/>
 <path fill="none" stroke="rgb(179,179,179)" stroke-linejoin="round" d="M 20353,6948 L 20203,6948"/>
 <path fill="none" stroke="rgb(179,179,179)" stroke-linejoin="round" d="M 20353,6948 L 20203,6948"/>
 <path fill="none" stroke="rgb(179,179,179)" stroke-linejoin="round" d="M 20353,5232 L 20203,5232"/>
 <path fill="none" stroke="rgb(179,179,179)" stroke-linejoin="round" d="M 20353,5232 L 20203,5232"/>
 <path fill="none" stroke="rgb(179,179,179)" stroke-linejoin="round" d="M 20353,3515 L 20203,3515"/>
 <path fill="none" stroke="rgb(179,179,179)" stroke-linejoin="round" d="M 20353,3515 L 20203,3515"/>
 <path fill="none" stroke="rgb(179,179,179)" stroke-linejoin="round" d="M 20353,1799 L 20203,1799"/>
 <path fill="none" stroke="rgb(179,179,179)" stroke-linejoin="round" d="M 20353,1799 L 20203,1799"/>
 <path fill="none" stroke="rgb(179,179,179)" stroke-linejoin="round" d="M 20203,15530 L 20203,1799"/>
 <path fill="none" stroke="rgb(255,51,51)" stroke-width="80" stroke-linejoin="round" stroke-dasharray="80,40" d="M 1240,10351 L 3347,4290 5454,6879 7561,5879 9668,7860 11775,9409 13881,6664 15988,4623 18095,11273 20203,7723"/>
 <path fill="rgb(255,51,51)" stroke="none" d="M 1115,10226 L 1115,10476 1365,10476 1365,10226 1115,10226 Z"/>
 <path fill="none" stroke="rgb(255,51,51)" stroke-linejoin="round" d="M 1115,10226 L 1115,10476 1365,10476 1365,10226 1115,10226 Z"/>
 <path fill="rgb(255,51,51)" stroke="none" d="M 3222,4165 L 3222,4415 3472,4415 3472,4165 3222,4165 Z"/>
 <path fill="none" stroke="rgb(255,51,51)" stroke-linejoin="round" d="M 3222,4165 L 3222,4415 3472,4415 3472,4165 3222,4165 Z"/>
 <path fill="rgb(255,51,51)" stroke="none" d="M 5329,6754 L 5329,7004 5579,7004 5579,6754 5329,6754 Z"/>
 <path fill="none" stroke="rgb(255,51,51)" stroke-linejoin="round" d="M 5329,6754 L 5329,7004 5579,7004 5579,6754 5329,6754 Z"/>
 <path fill="rgb(255,51,51)" stroke="none" d="M 7436,5754 L 7436,6004 7686,6004 7686,5754 7436,5754 Z"/>
 <path fill="none" stroke="rgb(255,51,51)" stroke-linejoin="round" d="M 7436,5754 L 7436,6004 7686,6004 7686,5754 7436,5754 Z"/>
 <path fill="rgb(255,51,51)" stroke="none" d="M 9543,7735 L 9543,7985 9793,7985 9793,7735 9543,7735 Z"/>
 <path fill="none" stroke="rgb(255,51,51)" stroke-linejoin="round" d="M 9543,7735 L 9543,7985 9793,7985 9793,7735 9543,7735 Z"/>
 <path fill="rgb(255,51,51)" stroke="none" d="M 11650,9284 L 11650,9534 11900,9534 11900,9284 11650,9284 Z"/>
 <path fill="none" stroke="rgb(255,51,51)" stroke-linejoin="round" d="M 11650,9284 L 11650,9534 11900,9534 11900,9284 11650,9284 Z"/>
 <path fill="rgb(255,51,51)" stroke="none" d="M 13756,6539 L 13756,6789 14006,6789 14006,6539 13756,6539 Z"/>
 <path fill="none" stroke="rgb(255,51,51)" stroke-linejoin="round" d="M 13756,6539 L 13756,6789 14006,6789 14006,6539 13756,6539 Z"/>
 <path fill="rgb(255,51,51)" stroke="none" d="M 15863,4498 L 15863,4748 16113,4748 16113,4498 15863,4498 Z"/>
 <path fill="none" stroke="rgb(255,51,51)" stroke-linejoin="round" d="M 15863,4498 L 15863,4748 16113,4748 16113,4498 15863,4498 Z"/>
 <path fill="rgb(255,51,51)" stroke="none" d="M 17970,11148 L 17970,11398 18220,11398 18220,11148 17970,11148 Z"/>
 <path fill="none" stroke="rgb(255,51,51)" stroke-linejoin="round" d="M 17970,11148 L 17970,11398 18220,11398 18220,11148 17970,11148 Z"/>
 <path fill="rgb(255,51,51)" stroke="none" d="M 20078,7598 L 20078,7848 20328,7848 20328,7598 20078,7598 Z"/>
 <path fill="none" stroke="rgb(255,51,51)" stroke-linejoin="round" d="M 20078,7598 L 20078,7848 20328,7848 20328,7598 20078,7598 Z"/>
 <path fill="none" stroke="rgb(255,0,0)" stroke-width="80" stroke-linejoin="round" d="M 1240,9951 L 3347,11676 5454,6922 7561,10200 9668,12757 11775,14474 13881,10809 15988,11264 18095,6124 20203,2708"/>
 <path fill="rgb(255,0,0)" stroke="none" d="M 1115,9951 L 1240,10076 1365,9951 1240,9826 1115,9951 Z"/>
 <path fill="none" stroke="rgb(255,0,0)" stroke-linejoin="round" d="M 1115,9951 L 1240,10076 1365,9951 1240,9826 1115,9951 Z"/>
 <path fill="rgb(255,0,0)" stroke="none" d="M 3222,11676 L 3347,11801 3472,11676 3347,11551 3222,11676 Z"/>
 <path fill="none" stroke="rgb(255,0,0)" stroke-linejoin="round" d="M 3222,11676 L 3347,11801 3472,11676 3347,11551 3222,11676 Z"/>
 <path fill="rgb(255,0,0)" stroke="none" d="M 5329,6922 L 5454,7047 5579,6922 5454,6797 5329,6922 Z"/>
 <path fill="none" stroke="rgb(255,0,0)" stroke-linejoin="round" d="M 5329,6922 L 5454,7047 5579,6922 5454,6797 5329,6922 Z"/>
 <path fill="rgb(255,0,0)" stroke="none" d="M 7436,10200 L 7561,10325 7686,10200 7561,10075 7436,10200 Z"/>
 <path fill="none" stroke="rgb(255,0,0)" stroke-linejoin="round" d="M 7436,10200 L 7561,10325 7686,10200 7561,10075 7436,10200 Z"/>
 <path fill="rgb(255,0,0)" stroke="none" d="M 9543,12757 L 9668,12882 9793,12757 9668,12632 9543,12757 Z"/>
 <path fill="none" stroke="rgb(255,0,0)" stroke-linejoin="round" d="M 9543,12757 L 9668,12882 9793,12757 9668,12632 9543,12757 Z"/>
 <path fill="rgb(255,0,0)" stroke="none" d="M 11650,14474 L 11775,14599 11900,14474 11775,14349 11650,14474 Z"/>
 <path fill="none" stroke="rgb(255,0,0)" stroke-linejoin="round" d="M 11650,14474 L 11775,14599 11900,14474 11775,14349 11650,14474 Z"/>
 <path fill="rgb(255,0,0)" stroke="none" d="M 13756,10809 L 13881,10934 14006,10809 13881,10684 13756,10809 Z"/>
 <path fill="none" stroke="rgb(255,0,0)" stroke-linejoin="round" d="M 13756,10809 L 13881,10934 14006,10809 13881,10684 13756,10809 Z"/>
 <path fill="rgb(255,0,0)" stroke="none" d="M 15863,11264 L 15988,11389 16113,11264 15988,11139 15863,11264 Z"/>
 <path fill="none" stroke="rgb(255,0,0)" stroke-linejoin="round" d="M 15863,11264 L 15988,11389 16113,11264 15988,11139 15863,11264 Z"/>
 <path fill="rgb(255,0,0)" stroke="none" d="M 17970,6124 L 18095,6249 18220,6124 18095,5999 17970,6124 Z"/>
 <path fill="none" stroke="rgb(255,0,0)" stroke-linejoin="round" d="M 17970,6124 L 18095,6249 18220,6124 18095,5999 17970,6124 Z"/>
 <path fill="rgb(255,0,0)" stroke="none" d="M 20078,2708 L 20203,2833 20328,2708 20203,2583 20078,2708 Z"/>
 <path fill="none" stroke="rgb(255,0,0)" stroke-linejoin="round" d="M 20078,2708 L 20203,2833 20328,2708 20203,2583 20078,2708 Z"/>
 <path fill="none" stroke="rgb(0,153,51)" stroke-width="80" stroke-linejoin="round" stroke-dasharray="80,40" d="M 1240,2779 L 3347,3996 5454,2877 7561,4251 9668,3839 11775,9370 13881,4702 15988,2838 18095,3034 20203,3211"/>
 <path fill="rgb(0,153,51)" stroke="none" d="M 1115,2654 L 1240,2904 1365,2654 1115,2654 Z"/>
 <path fill="none" stroke="rgb(0,153,51)" stroke-linejoin="round" d="M 1115,2654 L 1240,2904 1365,2654 1115,2654 Z"/>
 <path fill="rgb(0,153,51)" stroke="none" d="M 3222,3871 L 3347,4121 3472,3871 3222,3871 Z"/>
 <path fill="none" stroke="rgb(0,153,51)" stroke-linejoin="round" d="M 3222,3871 L 3347,4121 3472,3871 3222,3871 Z"/>
 <path fill="rgb(0,153,51)" stroke="none" d="M 5329,2752 L 5454,3002 5579,2752 5329,2752 Z"/>
 <path fill="none" stroke="rgb(0,153,51)" stroke-linejoin="round" d="M 5329,2752 L 5454,3002 5579,2752 5329,2752 Z"/>
 <path fill="rgb(0,153,51)" stroke="none" d="M 7436,4126 L 7561,4376 7686,4126 7436,4126 Z"/>
 <path fill="none" stroke="rgb(0,153,51)" stroke-linejoin="round" d="M 7436,4126 L 7561,4376 7686,4126 7436,4126 Z"/>
 <path fill="rgb(0,153,51)" stroke="none" d="M 9543,3714 L 9668,3964 9793,3714 9543,3714 Z"/>
 <path fill="none" stroke="rgb(0,153,51)" stroke-linejoin="round" d="M 9543,3714 L 9668,3964 9793,3714 9543,3714 Z"/>
 <path fill="rgb(0,153,51)" stroke="none" d="M 11650,9245 L 11775,9495 11900,9245 11650,9245 Z"/>
 <path fill="none" stroke="rgb(0,153,51)" stroke-linejoin="round" d="M 11650,9245 L 11775,9495 11900,9245 11650,9245 Z"/>
 <path fill="rgb(0,153,51)" stroke="none" d="M 13756,4577 L 13881,4827 14006,4577 13756,4577 Z"/>
 <path fill="none" stroke="rgb(0,153,51)" stroke-linejoin="round" d="M 13756,4577 L 13881,4827 14006,4577 13756,4577 Z"/>
 <path fill="rgb(0,153,51)" stroke="none" d="M 15863,2713 L 15988,2963 16113,2713 15863,2713 Z"/>
 <path fill="none" stroke="rgb(0,153,51)" stroke-linejoin="round" d="M 15863,2713 L 15988,2963 16113,2713 15863,2713 Z"/>
 <path fill="rgb(0,153,51)" stroke="none" d="M 17970,2909 L 18095,3159 18220,2909 17970,2909 Z"/>
 <path fill="none" stroke="rgb(0,153,51)" stroke-linejoin="round" d="M 17970,2909 L 18095,3159 18220,2909 17970,2909 Z"/>
 <path fill="rgb(0,153,51)" stroke="none" d="M 20078,3086 L 20203,3336 20328,3086 20078,3086 Z"/>
 <path fill="none" stroke="rgb(0,153,51)" stroke-linejoin="round" d="M 20078,3086 L 20203,3336 20328,3086 20078,3086 Z"/>
 <path fill="none" stroke="rgb(0,153,51)" stroke-width="80" stroke-linejoin="round" d="M 1240,13856 L 3347,14268 5454,14053 7561,14156 9668,14465 11775,14517 13881,13882 15988,14199 18095,14010 20203,13882"/>
 <path fill="rgb(0,153,51)" stroke="none" d="M 1115,13981 L 1365,13981 1240,13731 1115,13981 Z"/>
 <path fill="none" stroke="rgb(0,153,51)" stroke-linejoin="round" d="M 1115,13981 L 1365,13981 1240,13731 1115,13981 Z"/>
 <path fill="rgb(0,153,51)" stroke="none" d="M 3222,14393 L 3472,14393 3347,14143 3222,14393 Z"/>
 <path fill="none" stroke="rgb(0,153,51)" stroke-linejoin="round" d="M 3222,14393 L 3472,14393 3347,14143 3222,14393 Z"/>
 <path fill="rgb(0,153,51)" stroke="none" d="M 5329,14178 L 5579,14178 5454,13928 5329,14178 Z"/>
 <path fill="none" stroke="rgb(0,153,51)" stroke-linejoin="round" d="M 5329,14178 L 5579,14178 5454,13928 5329,14178 Z"/>
 <path fill="rgb(0,153,51)" stroke="none" d="M 7436,14281 L 7686,14281 7561,14031 7436,14281 Z"/>
 <path fill="none" stroke="rgb(0,153,51)" stroke-linejoin="round" d="M 7436,14281 L 7686,14281 7561,14031 7436,14281 Z"/>
 <path fill="rgb(0,153,51)" stroke="none" d="M 9543,14590 L 9793,14590 9668,14340 9543,14590 Z"/>
 <path fill="none" stroke="rgb(0,153,51)" stroke-linejoin="round" d="M 9543,14590 L 9793,14590 9668,14340 9543,14590 Z"/>
 <path fill="rgb(0,153,51)" stroke="none" d="M 11650,14642 L 11900,14642 11775,14392 11650,14642 Z"/>
 <path fill="none" stroke="rgb(0,153,51)" stroke-linejoin="round" d="M 11650,14642 L 11900,14642 11775,14392 11650,14642 Z"/>
 <path fill="rgb(0,153,51)" stroke="none" d="M 13756,14007 L 14006,14007 13881,13757 13756,14007 Z"/>
 <path fill="none" stroke="rgb(0,153,51)" stroke-linejoin="round" d="M 13756,14007 L 14006,14007 13881,13757 13756,14007 Z"/>
 <path fill="rgb(0,153,51)" stroke="none" d="M 15863,14324 L 16113,14324 15988,14074 15863,14324 Z"/>
 <path fill="none" stroke="rgb(0,153,51)" stroke-linejoin="round" d="M 15863,14324 L 16113,14324 15988,14074 15863,14324 Z"/>
 <path fill="rgb(0,153,51)" stroke="none" d="M 17970,14135 L 18220,14135 18095,13885 17970,14135 Z"/>
 <path fill="none" stroke="rgb(0,153,51)" stroke-linejoin="round" d="M 17970,14135 L 18220,14135 18095,13885 17970,14135 Z"/>
 <path fill="rgb(0,153,51)" stroke="none" d="M 20078,14007 L 20328,14007 20203,13757 20078,14007 Z"/>
 <path fill="none" stroke="rgb(0,153,51)" stroke-linejoin="round" d="M 20078,14007 L 20328,14007 20203,13757 20078,14007 Z"/>
 <path fill="none" stroke="rgb(255,204,255)" stroke-width="80" stroke-linejoin="round" stroke-dasharray="80,40" d="M 1240,8683 L 3347,2976 5454,6507 7561,5663 9668,7664 11775,7762 13881,7586 15988,7468 18095,10861 20203,7487"/>
 <path fill="rgb(255,204,255)" stroke="none" d="M 1115,8558 L 1115,8808 1365,8683 1115,8558 Z"/>
 <path fill="none" stroke="rgb(255,204,255)" stroke-linejoin="round" d="M 1115,8558 L 1115,8808 1365,8683 1115,8558 Z"/>
 <path fill="rgb(255,204,255)" stroke="none" d="M 3222,2851 L 3222,3101 3472,2976 3222,2851 Z"/>
 <path fill="none" stroke="rgb(255,204,255)" stroke-linejoin="round" d="M 3222,2851 L 3222,3101 3472,2976 3222,2851 Z"/>
 <path fill="rgb(255,204,255)" stroke="none" d="M 5329,6382 L 5329,6632 5579,6507 5329,6382 Z"/>
 <path fill="none" stroke="rgb(255,204,255)" stroke-linejoin="round" d="M 5329,6382 L 5329,6632 5579,6507 5329,6382 Z"/>
 <path fill="rgb(255,204,255)" stroke="none" d="M 7436,5538 L 7436,5788 7686,5663 7436,5538 Z"/>
 <path fill="none" stroke="rgb(255,204,255)" stroke-linejoin="round" d="M 7436,5538 L 7436,5788 7686,5663 7436,5538 Z"/>
 <path fill="rgb(255,204,255)" stroke="none" d="M 9543,7539 L 9543,7789 9793,7664 9543,7539 Z"/>
 <path fill="none" stroke="rgb(255,204,255)" stroke-linejoin="round" d="M 9543,7539 L 9543,7789 9793,7664 9543,7539 Z"/>
 <path fill="rgb(255,204,255)" stroke="none" d="M 11650,7637 L 11650,7887 11900,7762 11650,7637 Z"/>
 <path fill="none" stroke="rgb(255,204,255)" stroke-linejoin="round" d="M 11650,7637 L 11650,7887 11900,7762 11650,7637 Z"/>
 <path fill="rgb(255,204,255)" stroke="none" d="M 13756,7461 L 13756,7711 14006,7586 13756,7461 Z"/>
 <path fill="none" stroke="rgb(255,204,255)" stroke-linejoin="round" d="M 13756,7461 L 13756,7711 14006,7586 13756,7461 Z"/>
 <path fill="rgb(255,204,255)" stroke="none" d="M 15863,7343 L 15863,7593 16113,7468 15863,7343 Z"/>
 <path fill="none" stroke="rgb(255,204,255)" stroke-linejoin="round" d="M 15863,7343 L 15863,7593 16113,7468 15863,7343 Z"/>
 <path fill="rgb(255,204,255)" stroke="none" d="M 17970,10736 L 17970,10986 18220,10861 17970,10736 Z"/>
 <path fill="none" stroke="rgb(255,204,255)" stroke-linejoin="round" d="M 17970,10736 L 17970,10986 18220,10861 17970,10736 Z"/>
 <path fill="rgb(255,204,255)" stroke="none" d="M 20078,7362 L 20078,7612 20328,7487 20078,7362 Z"/>
 <path fill="none" stroke="rgb(255,204,255)" stroke-linejoin="round" d="M 20078,7362 L 20078,7612 20328,7487 20078,7362 Z"/>
 <path fill="none" stroke="rgb(255,204,255)" stroke-width="80" stroke-linejoin="round" d="M 1240,12689 L 3347,13298 5454,9625 7561,11144 9668,13023 11775,14680 13881,10165 15988,11951 18095,8432 20203,5060"/>
 <path fill="rgb(255,204,255)" stroke="none" d="M 1115,12689 L 1365,12814 1365,12564 1115,12689 Z"/>
 <path fill="none" stroke="rgb(255,204,255)" stroke-linejoin="round" d="M 1115,12689 L 1365,12814 1365,12564 1115,12689 Z"/>
 <path fill="rgb(255,204,255)" stroke="none" d="M 3222,13298 L 3472,13423 3472,13173 3222,13298 Z"/>
 <path fill="none" stroke="rgb(255,204,255)" stroke-linejoin="round" d="M 3222,13298 L 3472,13423 3472,13173 3222,13298 Z"/>
 <path fill="rgb(255,204,255)" stroke="none" d="M 5329,9625 L 5579,9750 5579,9500 5329,9625 Z"/>
 <path fill="none" stroke="rgb(255,204,255)" stroke-linejoin="round" d="M 5329,9625 L 5579,9750 5579,9500 5329,9625 Z"/>
 <path fill="rgb(255,204,255)" stroke="none" d="M 7436,11144 L 7686,11269 7686,11019 7436,11144 Z"/>
 <path fill="none" stroke="rgb(255,204,255)" stroke-linejoin="round" d="M 7436,11144 L 7686,11269 7686,11019 7436,11144 Z"/>
 <path fill="rgb(255,204,255)" stroke="none" d="M 9543,13023 L 9793,13148 9793,12898 9543,13023 Z"/>
 <path fill="none" stroke="rgb(255,204,255)" stroke-linejoin="round" d="M 9543,13023 L 9793,13148 9793,12898 9543,13023 Z"/>
 <path fill="rgb(255,204,255)" stroke="none" d="M 11650,14680 L 11900,14805 11900,14555 11650,14680 Z"/>
 <path fill="none" stroke="rgb(255,204,255)" stroke-linejoin="round" d="M 11650,14680 L 11900,14805 11900,14555 11650,14680 Z"/>
 <path fill="rgb(255,204,255)" stroke="none" d="M 13756,10165 L 14006,10290 14006,10040 13756,10165 Z"/>
 <path fill="none" stroke="rgb(255,204,255)" stroke-linejoin="round" d="M 13756,10165 L 14006,10290 14006,10040 13756,10165 Z"/>
 <path fill="rgb(255,204,255)" stroke="none" d="M 15863,11951 L 16113,12076 16113,11826 15863,11951 Z"/>
 <path fill="none" stroke="rgb(255,204,255)" stroke-linejoin="round" d="M 15863,11951 L 16113,12076 16113,11826 15863,11951 Z"/>
 <path fill="rgb(255,204,255)" stroke="none" d="M 17970,8432 L 18220,8557 18220,8307 17970,8432 Z"/>
 <path fill="none" stroke="rgb(255,204,255)" stroke-linejoin="round" d="M 17970,8432 L 18220,8557 18220,8307 17970,8432 Z"/>
 <path fill="rgb(255,204,255)" stroke="none" d="M 20078,5060 L 20328,5185 20328,4935 20078,5060 Z"/>
 <path fill="none" stroke="rgb(255,204,255)" stroke-linejoin="round" d="M 20078,5060 L 20328,5185 20328,4935 20078,5060 Z"/>
 <path fill="none" stroke="rgb(0,0,0)" stroke-width="30" stroke-linejoin="round" stroke-dasharray="30,15" d="M 1240,9409 L 3347,9409 5454,9409 7561,9409 9668,9409 11775,9409 13881,9409 15988,9409 18095,9409 20203,9409"/>
 <path fill="none" stroke="rgb(0,0,0)" stroke-width="30" stroke-linejoin="round" d="M 1240,14474 L 3347,14474 5454,14474 7561,14474 9668,14474 11775,14474 13881,14474 15988,14474 18095,14474 20203,14474"/>
 <text class="TextShape"><tspan class="TextParagraph" font-family="Liberation Sans" font-size="353px" font-weight="400"><tspan class="TextPosition" x="1002" y="16098"><tspan fill="rgb(0,0,0)" stroke="none">src</tspan></tspan></tspan></text>
 <text class="TextShape"><tspan class="TextParagraph" font-family="Liberation Sans" font-size="353px" font-weight="400"><tspan class="TextPosition" x="2765" y="16098"><tspan fill="rgb(0,0,0)" stroke="none">wdev_0</tspan></tspan></tspan></text>
 <text class="TextShape"><tspan class="TextParagraph" font-family="Liberation Sans" font-size="353px" font-weight="400"><tspan class="TextPosition" x="5030" y="16098"><tspan fill="rgb(0,0,0)" stroke="none">hm_0</tspan></tspan></tspan></text>
 <text class="TextShape"><tspan class="TextParagraph" font-family="Liberation Sans" font-size="353px" font-weight="400"><tspan class="TextPosition" x="7045" y="16098"><tspan fill="rgb(0,0,0)" stroke="none">mds_0</tspan></tspan></tspan></text>
 <text class="TextShape"><tspan class="TextParagraph" font-family="Liberation Sans" font-size="353px" font-weight="400"><tspan class="TextPosition" x="9244" y="16098"><tspan fill="rgb(0,0,0)" stroke="none">prn_0</tspan></tspan></tspan></text>
 <text class="TextShape"><tspan class="TextParagraph" font-family="Liberation Sans" font-size="353px" font-weight="400"><tspan class="TextPosition" x="11206" y="16098"><tspan fill="rgb(0,0,0)" stroke="none">rsrch_0</tspan></tspan></tspan></text>
 <text class="TextShape"><tspan class="TextParagraph" font-family="Liberation Sans" font-size="353px" font-weight="400"><tspan class="TextPosition" x="13458" y="16098"><tspan fill="rgb(0,0,0)" stroke="none">stg_0</tspan></tspan></tspan></text>
 <text class="TextShape"><tspan class="TextParagraph" font-family="Liberation Sans" font-size="353px" font-weight="400"><tspan class="TextPosition" x="15658" y="16098"><tspan fill="rgb(0,0,0)" stroke="none">ts_0</tspan></tspan></tspan></text>
 <text class="TextShape"><tspan class="TextParagraph" font-family="Liberation Sans" font-size="353px" font-weight="400"><tspan class="TextPosition" x="17672" y="16098"><tspan fill="rgb(0,0,0)" stroke="none">usr_0</tspan></tspan></tspan></text>
 <text class="TextShape"><tspan class="TextParagraph" font-family="Liberation Sans" font-size="353px" font-weight="400"><tspan class="TextPosition" x="19714" y="16098"><tspan fill="rgb(0,0,0)" stroke="none">web_0</tspan></tspan></tspan></text>
 <text class="TextShape"><tspan class="TextParagraph" font-family="Liberation Sans" font-size="353px" font-weight="400"><tspan class="TextPosition" x="805" y="15651"><tspan fill="rgb(0,0,0)" stroke="none">0</tspan></tspan></tspan></text>
 <text class="TextShape"><tspan class="TextParagraph" font-family="Liberation Sans" font-size="353px" font-weight="400"><tspan class="TextPosition" x="514" y="13689"><tspan fill="rgb(0,0,0)" stroke="none">0.1</tspan></tspan></tspan></text>
 <text class="TextShape"><tspan class="TextParagraph" font-family="Liberation Sans" font-size="353px" font-weight="400"><tspan class="TextPosition" x="514" y="11727"><tspan fill="rgb(0,0,0)" stroke="none">0.2</tspan></tspan></tspan></text>
 <text class="TextShape"><tspan class="TextParagraph" font-family="Liberation Sans" font-size="353px" font-weight="400"><tspan class="TextPosition" x="514" y="9765"><tspan fill="rgb(0,0,0)" stroke="none">0.3</tspan></tspan></tspan></text>
 <text class="TextShape"><tspan class="TextParagraph" font-family="Liberation Sans" font-size="353px" font-weight="400"><tspan class="TextPosition" x="514" y="7804"><tspan fill="rgb(0,0,0)" stroke="none">0.4</tspan></tspan></tspan></text>
 <text class="TextShape"><tspan class="TextParagraph" font-family="Liberation Sans" font-size="353px" font-weight="400"><tspan class="TextPosition" x="514" y="5842"><tspan fill="rgb(0,0,0)" stroke="none">0.5</tspan></tspan></tspan></text>
 <text class="TextShape"><tspan class="TextParagraph" font-family="Liberation Sans" font-size="353px" font-weight="400"><tspan class="TextPosition" x="514" y="3880"><tspan fill="rgb(0,0,0)" stroke="none">0.6</tspan></tspan></tspan></text>
 <text class="TextShape"><tspan class="TextParagraph" font-family="Liberation Sans" font-size="353px" font-weight="400"><tspan class="TextPosition" x="514" y="1919"><tspan fill="rgb(0,0,0)" stroke="none">0.7</tspan></tspan></tspan></text>
 <text class="TextShape"><tspan class="TextParagraph" font-family="Liberation Sans" font-size="353px" font-weight="400"><tspan class="TextPosition" x="20453" y="15651"><tspan fill="rgb(0,0,0)" stroke="none">0</tspan></tspan></tspan></text>
 <text class="TextShape"><tspan class="TextParagraph" font-family="Liberation Sans" font-size="353px" font-weight="400"><tspan class="TextPosition" x="20453" y="13934"><tspan fill="rgb(0,0,0)" stroke="none">2</tspan></tspan></tspan></text>
 <text class="TextShape"><tspan class="TextParagraph" font-family="Liberation Sans" font-size="353px" font-weight="400"><tspan class="TextPosition" x="20453" y="12218"><tspan fill="rgb(0,0,0)" stroke="none">4</tspan></tspan></tspan></text>
 <text class="TextShape"><tspan class="TextParagraph" font-family="Liberation Sans" font-size="353px" font-weight="400"><tspan class="TextPosition" x="20453" y="10501"><tspan fill="rgb(0,0,0)" stroke="none">6</tspan></tspan></tspan></text>
 <text class="TextShape"><tspan class="TextParagraph" font-family="Liberation Sans" font-size="353px" font-weight="400"><tspan class="TextPosition" x="20453" y="8785"><tspan fill="rgb(0,0,0)" stroke="none">8</tspan></tspan></tspan></text>
 <text class="TextShape"><tspan class="TextParagraph" font-family="Liberation Sans" font-size="353px" font-weight="400"><tspan class="TextPosition" x="20453" y="7068"><tspan fill="rgb(0,0,0)" stroke="none">10</tspan></tspan></tspan></text>
 <text class="TextShape"><tspan class="TextParagraph" font-family="Liberation Sans" font-size="353px" font-weight="400"><tspan class="TextPosition" x="20453" y="5352"><tspan fill="rgb(0,0,0)" stroke="none">12</tspan></tspan></tspan></text>
 <text class="TextShape"><tspan class="TextParagraph" font-family="Liberation Sans" font-size="353px" font-weight="400"><tspan class="TextPosition" x="20453" y="3635"><tspan fill="rgb(0,0,0)" stroke="none">14</tspan></tspan></tspan></text>
 <text class="TextShape"><tspan class="TextParagraph" font-family="Liberation Sans" font-size="353px" font-weight="400"><tspan class="TextPosition" x="20453" y="1919"><tspan fill="rgb(0,0,0)" stroke="none">16</tspan></tspan></tspan></text>
 <text class="TextShape"><tspan class="TextParagraph" font-family="Liberation Sans" font-size="459px" font-weight="400"><tspan class="TextPosition" x="12310" y="1027"><tspan fill="rgb(0,0,0)" stroke="none">rsrch</tspan></tspan></tspan></text>
 <path fill="none" stroke="rgb(255,51,51)" stroke-width="80" stroke-linejoin="round" stroke-dasharray="80,40" d="M 21454,6510 L 23054,6510"/>
 <path fill="rgb(255,51,51)" stroke="none" d="M 22148,6405 L 22148,6615 22359,6615 22359,6405 22148,6405 Z"/>
 <path fill="none" stroke="rgb(255,51,51)" stroke-linejoin="round" d="M 22148,6405 L 22148,6615 22359,6615 22359,6405 22148,6405 Z"/>
 <path fill="none" stroke="rgb(255,0,0)" stroke-width="80" stroke-linejoin="round" d="M 21454,7008 L 23054,7008"/>
 <path fill="rgb(255,0,0)" stroke="none" d="M 22148,7008 L 22254,7113 22359,7008 22254,6903 22148,7008 Z"/>
 <path fill="none" stroke="rgb(255,0,0)" stroke-linejoin="round" d="M 22148,7008 L 22254,7113 22359,7008 22254,6903 22148,7008 Z"/>
 <path fill="none" stroke="rgb(0,153,51)" stroke-width="80" stroke-linejoin="round" stroke-dasharray="80,40" d="M 21454,7506 L 23054,7506"/>
 <path fill="rgb(0,153,51)" stroke="none" d="M 22148,7401 L 22254,7611 22359,7401 22148,7401 Z"/>
 <path fill="none" stroke="rgb(0,153,51)" stroke-linejoin="round" d="M 22148,7401 L 22254,7611 22359,7401 22148,7401 Z"/>
 <path fill="none" stroke="rgb(0,153,51)" stroke-width="80" stroke-linejoin="round" d="M 21454,8004 L 23054,8004"/>
 <path fill="rgb(0,153,51)" stroke="none" d="M 22148,8109 L 22359,8109 22254,7899 22148,8109 Z"/>
 <path fill="none" stroke="rgb(0,153,51)" stroke-linejoin="round" d="M 22148,8109 L 22359,8109 22254,7899 22148,8109 Z"/>
 <path fill="none" stroke="rgb(255,204,255)" stroke-width="80" stroke-linejoin="round" stroke-dasharray="80,40" d="M 21454,8501 L 23054,8501"/>
 <path fill="rgb(255,204,255)" stroke="none" d="M 22148,8396 L 22148,8606 22359,8501 22148,8396 Z"/>
 <path fill="none" stroke="rgb(255,204,255)" stroke-linejoin="round" d="M 22148,8396 L 22148,8606 22359,8501 22148,8396 Z"/>
 <path fill="none" stroke="rgb(255,204,255)" stroke-width="80" stroke-linejoin="round" d="M 21454,8999 L 23054,8999"/>
 <path fill="rgb(255,204,255)" stroke="none" d="M 22148,8999 L 22359,9104 22359,8894 22148,8999 Z"/>
 <path fill="none" stroke="rgb(255,204,255)" stroke-linejoin="round" d="M 22148,8999 L 22359,9104 22359,8894 22148,8999 Z"/>
 <path fill="none" stroke="rgb(0,0,0)" stroke-width="30" stroke-linejoin="round" stroke-dasharray="30,15" d="M 21454,9497 L 23054,9497"/>
 <path fill="none" stroke="rgb(0,0,0)" stroke-width="30" stroke-linejoin="round" d="M 21454,9995 L 23054,9995"/>
 <text class="TextShape"><tspan class="TextParagraph" font-family="Liberation Sans" font-size="353px" font-weight="400"><tspan class="TextPosition" x="23154" y="6630"><tspan fill="rgb(0,0,0)" stroke="none">o_hit</tspan></tspan></tspan></text>
 <text class="TextShape"><tspan class="TextParagraph" font-family="Liberation Sans" font-size="353px" font-weight="400"><tspan class="TextPosition" x="23154" y="7128"><tspan fill="rgb(0,0,0)" stroke="none">o_amp</tspan></tspan></tspan></text>
 <text class="TextShape"><tspan class="TextParagraph" font-family="Liberation Sans" font-size="353px" font-weight="400"><tspan class="TextPosition" x="23154" y="7626"><tspan fill="rgb(0,0,0)" stroke="none">rsrch_hit</tspan></tspan></tspan></text>
 <text class="TextShape"><tspan class="TextParagraph" font-family="Liberation Sans" font-size="353px" font-weight="400"><tspan class="TextPosition" x="23154" y="8124"><tspan fill="rgb(0,0,0)" stroke="none">rsrch_amp</tspan></tspan></tspan></text>
 <text class="TextShape"><tspan class="TextParagraph" font-family="Liberation Sans" font-size="353px" font-weight="400"><tspan class="TextPosition" x="23154" y="8621"><tspan fill="rgb(0,0,0)" stroke="none">other_hit</tspan></tspan></tspan></text>
 <text class="TextShape"><tspan class="TextParagraph" font-family="Liberation Sans" font-size="353px" font-weight="400"><tspan class="TextPosition" x="23154" y="9119"><tspan fill="rgb(0,0,0)" stroke="none">other_amp</tspan></tspan></tspan></text>
 <text class="TextShape"><tspan class="TextParagraph" font-family="Liberation Sans" font-size="353px" font-weight="400"><tspan class="TextPosition" x="23154" y="9617"><tspan fill="rgb(0,0,0)" stroke="none">standard_hit</tspan></tspan></tspan></text>
 <text class="TextShape"><tspan class="TextParagraph" font-family="Liberation Sans" font-size="353px" font-weight="400"><tspan class="TextPosition" x="23154" y="10115"><tspan fill="rgb(0,0,0)" stroke="none">standard_amp</tspan></tspan></tspan></text>
</svg>