<?xml version="1.0" encoding="UTF-8"?>
<!DOCTYPE svg PUBLIC "-//W3C//DTD SVG 1.1//EN" "http://www.w3.org/Graphics/SVG/1.1/DTD/svg11.dtd">
<svg width="251mm" height="197mm" viewBox="0 0 25100 19700" version="1.1" baseProfile="tiny" xmlns="http://www.w3.org/2000/svg" stroke-width="28.222" stroke-linejoin="round" xml:space="preserve">
 <path fill="rgb(255,255,255)" stroke="none" d="M 12561,19700 L 0,19700 0,0 25121,0 25121,19700 12561,19700 Z"/>
 <path fill="none" stroke="rgb(179,179,179)" stroke-linejoin="round" d="M 10126,18659 L 1229,18659 1229,1928 19022,1928 19022,18659 10126,18659 Z"/>
 <path fill="none" stroke="rgb(179,179,179)" stroke-linejoin="round" d="M 19022,18658 L 1229,18658"/>
 <path fill="none" stroke="rgb(179,179,179)" stroke-linejoin="round" d="M 19022,16267 L 1229,16267"/>
 <path fill="none" stroke="rgb(179,179,179)" stroke-linejoin="round" d="M 19022,13877 L 1229,13877"/>
 <path fill="none" stroke="rgb(179,179,179)" stroke-linejoin="round" d="M 19022,11487 L 1229,11487"/>
 <path fill="none" stroke="rgb(179,179,179)" stroke-linejoin="round" d="M 19022,9097 L 1229,9097"/>
 <path fill="none" stroke="rgb(179,179,179)" stroke-linejoin="round" d="M 19022,6707 L 1229,6707"/>
 <path fill="none" stroke="rgb(179,179,179)" stroke-linejoin="round" d="M 19022,4317 L 1229,4317"/>
 <path fill="none" stroke="rgb(179,179,179)" stroke-linejoin="round" d="M 19022,1927 L 1229,1927"/>
 <path fill="none" stroke="rgb(179,179,179)" stroke-linejoin="round" d="M 1229,18808 L 1229,18658"/>
 <path fill="none" stroke="rgb(179,179,179)" stroke-linejoin="round" d="M 1229,18808 L 1229,18658"/>
 <path fill="none" stroke="rgb(179,179,179)" stroke-linejoin="round" d="M 3206,18808 L 3206,18658"/>
 <path fill="none" stroke="rgb(179,179,179)" stroke-linejoin="round" d="M 3206,18808 L 3206,18658"/>
 <path fill="none" stroke="rgb(179,179,179)" stroke-linejoin="round" d="M 5183,18808 L 5183,18658"/>
 <path fill="none" stroke="rgb(179,179,179)" stroke-linejoin="round" d="M 5183,18808 L 5183,18658"/>
 <path fill="none" stroke="rgb(179,179,179)" stroke-linejoin="round" d="M 7160,18808 L 7160,18658"/>
 <path fill="none" stroke="rgb(179,179,179)" stroke-linejoin="round" d="M 7160,18808 L 7160,18658"/>
 <path fill="none" stroke="rgb(179,179,179)" stroke-linejoin="round" d="M 9137,18808 L 9137,18658"/>
 <path fill="none" stroke="rgb(179,179,179)" stroke-linejoin="round" d="M 9137,18808 L 9137,18658"/>
 <path fill="none" stroke="rgb(179,179,179)" stroke-linejoin="round" d="M 11114,18808 L 11114,18658"/>
 <path fill="none" stroke="rgb(179,179,179)" stroke-linejoin="round" d="M 11114,18808 L 11114,18658"/>
 <path fill="none" stroke="rgb(179,179,179)" stroke-linejoin="round" d="M 13090,18808 L 13090,18658"/>
 <path fill="none" stroke="rgb(179,179,179)" stroke-linejoin="round" d="M 13090,18808 L 13090,18658"/>
 <path fill="none" stroke="rgb(179,179,179)" stroke-linejoin="round" d="M 15067,18808 L 15067,18658"/>
 <path fill="none" stroke="rgb(179,179,179)" stroke-linejoin="round" d="M 15067,18808 L 15067,18658"/>
 <path fill="none" stroke="rgb(179,179,179)" stroke-linejoin="round" d="M 17044,18808 L 17044,18658"/>
 <path fill="none" stroke="rgb(179,179,179)" stroke-linejoin="round" d="M 17044,18808 L 17044,18658"/>
 <path fill="none" stroke="rgb(179,179,179)" stroke-linejoin="round" d="M 19022,18808 L 19022,18658"/>
 <path fill="none" stroke="rgb(179,179,179)" stroke-linejoin="round" d="M 19022,18808 L 19022,18658"/>
 <path fill="none" stroke="rgb(179,179,179)" stroke-linejoin="round" d="M 1229,18658 L 19022,18658"/>
 <path fill="none" stroke="rgb(179,179,179)" stroke-linejoin="round" d="M 1079,18658 L 1229,18658"/>
 <path fill="none" stroke="rgb(179,179,179)" stroke-linejoin="round" d="M 1079,18658 L 1229,18658"/>
 <path fill="none" stroke="rgb(179,179,179)" stroke-linejoin="round" d="M 1079,16267 L 1229,16267"/>
 <path fill="none" stroke="rgb(179,179,179)" stroke-linejoin="round" d="M 1079,16267 L 1229,16267"/>
 <path fill="none" stroke="rgb(179,179,179)" stroke-linejoin="round" d="M 1079,13877 L 1229,13877"/>
 <path fill="none" stroke="rgb(179,179,179)" stroke-linejoin="round" d="M 1079,13877 L 1229,13877"/>
 <path fill="none" stroke="rgb(179,179,179)" stroke-linejoin="round" d="M 1079,11487 L 1229,11487"/>
 <path fill="none" stroke="rgb(179,179,179)" stroke-linejoin="round" d="M 1079,11487 L 1229,11487"/>
 <path fill="none" stroke="rgb(179,179,179)" stroke-linejoin="round" d="M 1079,9097 L 1229,9097"/>
 <path fill="none" stroke="rgb(179,179,179)" stroke-linejoin="round" d="M 1079,9097 L 1229,9097"/>
 <path fill="none" stroke="rgb(179,179,179)" stroke-linejoin="round" d="M 1079,6707 L 1229,6707"/>
 <path fill="none" stroke="rgb(179,179,179)" stroke-linejoin="round" d="M 1079,6707 L 1229,6707"/>
 <path fill="none" stroke="rgb(179,179,179)" stroke-linejoin="round" d="M 1079,4317 L 1229,4317"/>
 <path fill="none" stroke="rgb(179,179,179)" stroke-linejoin="round" d="M 1079,4317 L 1229,4317"/>
 <path fill="none" stroke="rgb(179,179,179)" stroke-linejoin="round" d="M 1079,1927 L 1229,1927"/>
 <path fill="none" stroke="rgb(179,179,179)" stroke-linejoin="round" d="M 1079,1927 L 1229,1927"/>
 <path fill="none" stroke="rgb(179,179,179)" stroke-linejoin="round" d="M 1229,18658 L 1229,1927"/>
 <path fill="none" stroke="rgb(179,179,179)" stroke-linejoin="round" d="M 19172,18658 L 19022,18658"/>
 <path fill="none" stroke="rgb(179,179,179)" stroke-linejoin="round" d="M 19172,18658 L 19022,18658"/>
 <path fill="none" stroke="rgb(179,179,179)" stroke-linejoin="round" d="M 19172,16984 L 19022,16984"/>
 <path fill="none" stroke="rgb(179,179,179)" stroke-linejoin="round" d="M 19172,16984 L 19022,16984"/>
 <path fill="none" stroke="rgb(179,179,179)" stroke-linejoin="round" d="M 19172,15311 L 19022,15311"/>
 <path fill="none" stroke="rgb(179,179,179)" stroke-linejoin="round" d="M 19172,15311 L 19022,15311"/>
 <path fill="none" stroke="rgb(179,179,179)" stroke-linejoin="round" d="M 19172,13638 L 19022,13638"/>
 <path fill="none" stroke="rgb(179,179,179)" stroke-linejoin="round" d="M 19172,13638 L 19022,13638"/>
 <path fill="none" stroke="rgb(179,179,179)" stroke-linejoin="round" d="M 19172,11965 L 19022,11965"/>
 <path fill="none" stroke="rgb(179,179,179)" stroke-linejoin="round" d="M 19172,11965 L 19022,11965"/>
 <path fill="none" stroke="rgb(179,179,179)" stroke-linejoin="round" d="M 19172,10292 L 19022,10292"/>
 <path fill="none" stroke="rgb(179,179,179)" stroke-linejoin="round" d="M 19172,10292 L 19022,10292"/>
 <path fill="none" stroke="rgb(179,179,179)" stroke-linejoin="round" d="M 19172,8619 L 19022,8619"/>
 <path fill="none" stroke="rgb(179,179,179)" stroke-linejoin="round" d="M 19172,8619 L 19022,8619"/>
 <path fill="none" stroke="rgb(179,179,179)" stroke-linejoin="round" d="M 19172,6946 L 19022,6946"/>
 <path fill="none" stroke="rgb(179,179,179)" stroke-linejoin="round" d="M 19172,6946 L 19022,6946"/>
 <path fill="none" stroke="rgb(179,179,179)" stroke-linejoin="round" d="M 19172,5273 L 19022,5273"/>
 <path fill="none" stroke="rgb(179,179,179)" stroke-linejoin="round" d="M 19172,5273 L 19022,5273"/>
 <path fill="none" stroke="rgb(179,179,179)" stroke-linejoin="round" d="M 19172,3600 L 19022,3600"/>
 <path fill="none" stroke="rgb(179,179,179)" stroke-linejoin="round" d="M 19172,3600 L 19022,3600"/>
 <path fill="none" stroke="rgb(179,179,179)" stroke-linejoin="round" d="M 19172,1927 L 19022,1927"/>
 <path fill="none" stroke="rgb(179,179,179)" stroke-linejoin="round" d="M 19172,1927 L 19022,1927"/>
 <path fill="none" stroke="rgb(179,179,179)" stroke-linejoin="round" d="M 19022,18658 L 19022,1927"/>
 <path fill="none" stroke="rgb(255,0,0)" stroke-width="80" stroke-linejoin="round" stroke-dasharray="80,40" d="M 1229,12347 L 3206,4962 5183,8117 7160,6898 9137,9312 11114,11200 13090,7854 15067,5369 17044,13471 19022,9145"/>
 <path fill="rgb(255,0,0)" stroke="none" d="M 1104,12222 L 1104,12472 1354,12472 1354,12222 1104,12222 Z"/>
 <path fill="none" stroke="rgb(255,0,0)" stroke-linejoin="round" d="M 1104,12222 L 1104,12472 1354,12472 1354,12222 1104,12222 Z"/>
 <path fill="rgb(255,0,0)" stroke="none" d="M 3081,4837 L 3081,5087 3331,5087 3331,4837 3081,4837 Z"/>
 <path fill="none" stroke="rgb(255,0,0)" stroke-linejoin="round" d="M 3081,4837 L 3081,5087 3331,5087 3331,4837 3081,4837 Z"/>
 <path fill="rgb(255,0,0)" stroke="none" d="M 5058,7992 L 5058,8242 5308,8242 5308,7992 5058,7992 Z"/>
 <path fill="none" stroke="rgb(255,0,0)" stroke-linejoin="round" d="M 5058,7992 L 5058,8242 5308,8242 5308,7992 5058,7992 Z"/>
 <path fill="rgb(255,0,0)" stroke="none" d="M 7035,6773 L 7035,7023 7285,7023 7285,6773 7035,6773 Z"/>
 <path fill="none" stroke="rgb(255,0,0)" stroke-linejoin="round" d="M 7035,6773 L 7035,7023 7285,7023 7285,6773 7035,6773 Z"/>
 <path fill="rgb(255,0,0)" stroke="none" d="M 9012,9187 L 9012,9437 9262,9437 9262,9187 9012,9187 Z"/>
 <path fill="none" stroke="rgb(255,0,0)" stroke-linejoin="round" d="M 9012,9187 L 9012,9437 9262,9437 9262,9187 9012,9187 Z"/>
 <path fill="rgb(255,0,0)" stroke="none" d="M 10989,11075 L 10989,11325 11239,11325 11239,11075 10989,11075 Z"/>
 <path fill="none" stroke="rgb(255,0,0)" stroke-linejoin="round" d="M 10989,11075 L 10989,11325 11239,11325 11239,11075 10989,11075 Z"/>
 <path fill="rgb(255,0,0)" stroke="none" d="M 12965,7729 L 12965,7979 13215,7979 13215,7729 12965,7729 Z"/>
 <path fill="none" stroke="rgb(255,0,0)" stroke-linejoin="round" d="M 12965,7729 L 12965,7979 13215,7979 13215,7729 12965,7729 Z"/>
 <path fill="rgb(255,0,0)" stroke="none" d="M 14942,5244 L 14942,5494 15192,5494 15192,5244 14942,5244 Z"/>
 <path fill="none" stroke="rgb(255,0,0)" stroke-linejoin="round" d="M 14942,5244 L 14942,5494 15192,5494 15192,5244 14942,5244 Z"/>
 <path fill="rgb(255,0,0)" stroke="none" d="M 16919,13346 L 16919,13596 17169,13596 17169,13346 16919,13346 Z"/>
 <path fill="none" stroke="rgb(255,0,0)" stroke-linejoin="round" d="M 16919,13346 L 16919,13596 17169,13596 17169,13346 16919,13346 Z"/>
 <path fill="rgb(255,0,0)" stroke="none" d="M 18897,9020 L 18897,9270 19147,9270 19147,9020 18897,9020 Z"/>
 <path fill="none" stroke="rgb(255,0,0)" stroke-linejoin="round" d="M 18897,9020 L 18897,9270 19147,9270 19147,9020 18897,9020 Z"/>
 <path fill="none" stroke="rgb(255,0,0)" stroke-width="80" stroke-linejoin="round" d="M 1229,13220 L 3206,14901 5183,10266 7160,13462 9137,15955 11114,17628 13090,14056 15067,14500 17044,9489 19022,6160"/>
 <path fill="rgb(255,0,0)" stroke="none" d="M 1104,13220 L 1229,13345 1354,13220 1229,13095 1104,13220 Z"/>
 <path fill="none" stroke="rgb(255,0,0)" stroke-linejoin="round" d="M 1104,13220 L 1229,13345 1354,13220 1229,13095 1104,13220 Z"/>
 <path fill="rgb(255,0,0)" stroke="none" d="M 3081,14901 L 3206,15026 3331,14901 3206,14776 3081,14901 Z"/>
 <path fill="none" stroke="rgb(255,0,0)" stroke-linejoin="round" d="M 3081,14901 L 3206,15026 3331,14901 3206,14776 3081,14901 Z"/>
 <path fill="rgb(255,0,0)" stroke="none" d="M 5058,10266 L 5183,10391 5308,10266 5183,10141 5058,10266 Z"/>
 <path fill="none" stroke="rgb(255,0,0)" stroke-linejoin="round" d="M 5058,10266 L 5183,10391 5308,10266 5183,10141 5058,10266 Z"/>
 <path fill="rgb(255,0,0)" stroke="none" d="M 7035,13462 L 7160,13587 7285,13462 7160,13337 7035,13462 Z"/>
 <path fill="none" stroke="rgb(255,0,0)" stroke-linejoin="round" d="M 7035,13462 L 7160,13587 7285,13462 7160,13337 7035,13462 Z"/>
 <path fill="rgb(255,0,0)" stroke="none" d="M 9012,15955 L 9137,16080 9262,15955 9137,15830 9012,15955 Z"/>
 <path fill="none" stroke="rgb(255,0,0)" stroke-linejoin="round" d="M 9012,15955 L 9137,16080 9262,15955 9137,15830 9012,15955 Z"/>
 <path fill="rgb(255,0,0)" stroke="none" d="M 10989,17628 L 11114,17753 11239,17628 11114,17503 10989,17628 Z"/>
 <path fill="none" stroke="rgb(255,0,0)" stroke-linejoin="round" d="M 10989,17628 L 11114,17753 11239,17628 11114,17503 10989,17628 Z"/>
 <path fill="rgb(255,0,0)" stroke="none" d="M 12965,14056 L 13090,14181 13215,14056 13090,13931 12965,14056 Z"/>
 <path fill="none" stroke="rgb(255,0,0)" stroke-linejoin="round" d="M 12965,14056 L 13090,14181 13215,14056 13090,13931 12965,14056 Z"/>
 <path fill="rgb(255,0,0)" stroke="none" d="M 14942,14500 L 15067,14625 15192,14500 15067,14375 14942,14500 Z"/>
 <path fill="none" stroke="rgb(255,0,0)" stroke-linejoin="round" d="M 14942,14500 L 15067,14625 15192,14500 15067,14375 14942,14500 Z"/>
 <path fill="rgb(255,0,0)" stroke="none" d="M 16919,9489 L 17044,9614 17169,9489 17044,9364 16919,9489 Z"/>
 <path fill="none" stroke="rgb(255,0,0)" stroke-linejoin="round" d="M 16919,9489 L 17044,9614 17169,9489 17044,9364 16919,9489 Z"/>
 <path fill="rgb(255,0,0)" stroke="none" d="M 18897,6160 L 19022,6285 19147,6160 19022,6035 18897,6160 Z"/>
 <path fill="none" stroke="rgb(255,0,0)" stroke-linejoin="round" d="M 18897,6160 L 19022,6285 19147,6160 19022,6035 18897,6160 Z"/>
 <path fill="none" stroke="rgb(0,153,51)" stroke-width="80" stroke-linejoin="round" stroke-dasharray="80,40" d="M 1229,12395 L 3206,11965 5183,12275 7160,12108 9137,10387 11114,10315 13090,11989 15067,11463 17044,12395 19022,12610"/>
 <path fill="rgb(0,153,51)" stroke="none" d="M 1104,12270 L 1229,12520 1354,12270 1104,12270 Z"/>
 <path fill="none" stroke="rgb(0,153,51)" stroke-linejoin="round" d="M 1104,12270 L 1229,12520 1354,12270 1104,12270 Z"/>
 <path fill="rgb(0,153,51)" stroke="none" d="M 3081,11840 L 3206,12090 3331,11840 3081,11840 Z"/>
 <path fill="none" stroke="rgb(0,153,51)" stroke-linejoin="round" d="M 3081,11840 L 3206,12090 3331,11840 3081,11840 Z"/>
 <path fill="rgb(0,153,51)" stroke="none" d="M 5058,12150 L 5183,12400 5308,12150 5058,12150 Z"/>
 <path fill="none" stroke="rgb(0,153,51)" stroke-linejoin="round" d="M 5058,12150 L 5183,12400 5308,12150 5058,12150 Z"/>
 <path fill="rgb(0,153,51)" stroke="none" d="M 7035,11983 L 7160,12233 7285,11983 7035,11983 Z"/>
 <path fill="none" stroke="rgb(0,153,51)" stroke-linejoin="round" d="M 7035,11983 L 7160,12233 7285,11983 7035,11983 Z"/>
 <path fill="rgb(0,153,51)" stroke="none" d="M 9012,10262 L 9137,10512 9262,10262 9012,10262 Z"/>
 <path fill="none" stroke="rgb(0,153,51)" stroke-linejoin="round" d="M 9012,10262 L 9137,10512 9262,10262 9012,10262 Z"/>
 <path fill="rgb(0,153,51)" stroke="none" d="M 10989,10190 L 11114,10440 11239,10190 10989,10190 Z"/>
 <path fill="none" stroke="rgb(0,153,51)" stroke-linejoin="round" d="M 10989,10190 L 11114,10440 11239,10190 10989,10190 Z"/>
 <path fill="rgb(0,153,51)" stroke="none" d="M 12965,11864 L 13090,12114 13215,11864 12965,11864 Z"/>
 <path fill="none" stroke="rgb(0,153,51)" stroke-linejoin="round" d="M 12965,11864 L 13090,12114 13215,11864 12965,11864 Z"/>
 <path fill="rgb(0,153,51)" stroke="none" d="M 14942,11338 L 15067,11588 15192,11338 14942,11338 Z"/>
 <path fill="none" stroke="rgb(0,153,51)" stroke-linejoin="round" d="M 14942,11338 L 15067,11588 15192,11338 14942,11338 Z"/>
 <path fill="rgb(0,153,51)" stroke="none" d="M 16919,12270 L 17044,12520 17169,12270 16919,12270 Z"/>
 <path fill="none" stroke="rgb(0,153,51)" stroke-linejoin="round" d="M 16919,12270 L 17044,12520 17169,12270 16919,12270 Z"/>
 <path fill="rgb(0,153,51)" stroke="none" d="M 18897,12485 L 19022,12735 19147,12485 18897,12485 Z"/>
 <path fill="none" stroke="rgb(0,153,51)" stroke-linejoin="round" d="M 18897,12485 L 19022,12735 19147,12485 18897,12485 Z"/>
 <path fill="none" stroke="rgb(0,153,51)" stroke-width="80" stroke-linejoin="round" d="M 1229,13387 L 3206,14399 5183,14416 7160,14157 9137,15972 11114,15888 13090,14558 15067,15135 17044,14332 19022,14274"/>
 <path fill="rgb(0,153,51)" stroke="none" d="M 1104,13512 L 1354,13512 1229,13262 1104,13512 Z"/>
 <path fill="none" stroke="rgb(0,153,51)" stroke-linejoin="round" d="M 1104,13512 L 1354,13512 1229,13262 1104,13512 Z"/>
 <path fill="rgb(0,153,51)" stroke="none" d="M 3081,14524 L 3331,14524 3206,14274 3081,14524 Z"/>
 <path fill="none" stroke="rgb(0,153,51)" stroke-linejoin="round" d="M 3081,14524 L 3331,14524 3206,14274 3081,14524 Z"/>
 <path fill="rgb(0,153,51)" stroke="none" d="M 5058,14541 L 5308,14541 5183,14291 5058,14541 Z"/>
 <path fill="none" stroke="rgb(0,153,51)" stroke-linejoin="round" d="M 5058,14541 L 5308,14541 5183,14291 5058,14541 Z"/>
 <path fill="rgb(0,153,51)" stroke="none" d="M 7035,14282 L 7285,14282 7160,14032 7035,14282 Z"/>
 <path fill="none" stroke="rgb(0,153,51)" stroke-linejoin="round" d="M 7035,14282 L 7285,14282 7160,14032 7035,14282 Z"/>
 <path fill="rgb(0,153,51)" stroke="none" d="M 9012,16097 L 9262,16097 9137,15847 9012,16097 Z"/>
 <path fill="none" stroke="rgb(0,153,51)" stroke-linejoin="round" d="M 9012,16097 L 9262,16097 9137,15847 9012,16097 Z"/>
 <path fill="rgb(0,153,51)" stroke="none" d="M 10989,16013 L 11239,16013 11114,15763 10989,16013 Z"/>
 <path fill="none" stroke="rgb(0,153,51)" stroke-linejoin="round" d="M 10989,16013 L 11239,16013 11114,15763 10989,16013 Z"/>
 <path fill="rgb(0,153,51)" stroke="none" d="M 12965,14683 L 13215,14683 13090,14433 12965,14683 Z"/>
 <path fill="none" stroke="rgb(0,153,51)" stroke-linejoin="round" d="M 12965,14683 L 13215,14683 13090,14433 12965,14683 Z"/>
 <path fill="rgb(0,153,51)" stroke="none" d="M 14942,15260 L 15192,15260 15067,15010 14942,15260 Z"/>
 <path fill="none" stroke="rgb(0,153,51)" stroke-linejoin="round" d="M 14942,15260 L 15192,15260 15067,15010 14942,15260 Z"/>
 <path fill="rgb(0,153,51)" stroke="none" d="M 16919,14457 L 17169,14457 17044,14207 16919,14457 Z"/>
 <path fill="none" stroke="rgb(0,153,51)" stroke-linejoin="round" d="M 16919,14457 L 17169,14457 17044,14207 16919,14457 Z"/>
 <path fill="rgb(0,153,51)" stroke="none" d="M 18897,14399 L 19147,14399 19022,14149 18897,14399 Z"/>
 <path fill="none" stroke="rgb(0,153,51)" stroke-linejoin="round" d="M 18897,14399 L 19147,14399 19022,14149 18897,14399 Z"/>
 <path fill="none" stroke="rgb(255,204,255)" stroke-width="80" stroke-linejoin="round" stroke-dasharray="80,40" d="M 1229,12299 L 3206,5082 5183,8189 7160,6659 9137,9743 11114,3122 13090,7066 15067,4126 17044,13303 19022,9289"/>
 <path fill="rgb(255,204,255)" stroke="none" d="M 1104,12174 L 1104,12424 1354,12299 1104,12174 Z"/>
 <path fill="none" stroke="rgb(255,204,255)" stroke-linejoin="round" d="M 1104,12174 L 1104,12424 1354,12299 1104,12174 Z"/>
 <path fill="rgb(255,204,255)" stroke="none" d="M 3081,4957 L 3081,5207 3331,5082 3081,4957 Z"/>
 <path fill="none" stroke="rgb(255,204,255)" stroke-linejoin="round" d="M 3081,4957 L 3081,5207 3331,5082 3081,4957 Z"/>
 <path fill="rgb(255,204,255)" stroke="none" d="M 5058,8064 L 5058,8314 5308,8189 5058,8064 Z"/>
 <path fill="none" stroke="rgb(255,204,255)" stroke-linejoin="round" d="M 5058,8064 L 5058,8314 5308,8189 5058,8064 Z"/>
 <path fill="rgb(255,204,255)" stroke="none" d="M 7035,6534 L 7035,6784 7285,6659 7035,6534 Z"/>
 <path fill="none" stroke="rgb(255,204,255)" stroke-linejoin="round" d="M 7035,6534 L 7035,6784 7285,6659 7035,6534 Z"/>
 <path fill="rgb(255,204,255)" stroke="none" d="M 9012,9618 L 9012,9867 9262,9743 9012,9618 Z"/>
 <path fill="none" stroke="rgb(255,204,255)" stroke-linejoin="round" d="M 9012,9618 L 9012,9867 9262,9743 9012,9618 Z"/>
 <path fill="rgb(255,204,255)" stroke="none" d="M 10989,2997 L 10989,3247 11239,3122 10989,2997 Z"/>
 <path fill="none" stroke="rgb(255,204,255)" stroke-linejoin="round" d="M 10989,2997 L 10989,3247 11239,3122 10989,2997 Z"/>
 <path fill="rgb(255,204,255)" stroke="none" d="M 12965,6941 L 12965,7191 13215,7066 12965,6941 Z"/>
 <path fill="none" stroke="rgb(255,204,255)" stroke-linejoin="round" d="M 12965,6941 L 12965,7191 13215,7066 12965,6941 Z"/>
 <path fill="rgb(255,204,255)" stroke="none" d="M 14942,4001 L 14942,4251 15192,4126 14942,4001 Z"/>
 <path fill="none" stroke="rgb(255,204,255)" stroke-linejoin="round" d="M 14942,4001 L 14942,4251 15192,4126 14942,4001 Z"/>
 <path fill="rgb(255,204,255)" stroke="none" d="M 16919,13178 L 16919,13428 17169,13303 16919,13178 Z"/>
 <path fill="none" stroke="rgb(255,204,255)" stroke-linejoin="round" d="M 16919,13178 L 16919,13428 17169,13303 16919,13178 Z"/>
 <path fill="rgb(255,204,255)" stroke="none" d="M 18897,9164 L 18897,9414 19147,9289 18897,9164 Z"/>
 <path fill="none" stroke="rgb(255,204,255)" stroke-linejoin="round" d="M 18897,9164 L 18897,9414 19147,9289 18897,9164 Z"/>
 <path fill="none" stroke="rgb(255,204,255)" stroke-width="80" stroke-linejoin="round" d="M 1229,13496 L 3206,13220 5183,9347 7160,11387 9137,15570 11114,17026 13090,11730 15067,14165 17044,5474 19022,3357"/>
 <path fill="rgb(255,204,255)" stroke="none" d="M 1104,13496 L 1354,13621 1354,13371 1104,13496 Z"/>
 <path fill="none" stroke="rgb(255,204,255)" stroke-linejoin="round" d="M 1104,13496 L 1354,13621 1354,13371 1104,13496 Z"/>
 <path fill="rgb(255,204,255)" stroke="none" d="M 3081,13220 L 3331,13345 3331,13095 3081,13220 Z"/>
 <path fill="none" stroke="rgb(255,204,255)" stroke-linejoin="round" d="M 3081,13220 L 3331,13345 3331,13095 3081,13220 Z"/>
 <path fill="rgb(255,204,255)" stroke="none" d="M 5058,9347 L 5308,9472 5308,9222 5058,9347 Z"/>
 <path fill="none" stroke="rgb(255,204,255)" stroke-linejoin="round" d="M 5058,9347 L 5308,9472 5308,9222 5058,9347 Z"/>
 <path fill="rgb(255,204,255)" stroke="none" d="M 7035,11387 L 7285,11512 7285,11262 7035,11387 Z"/>
 <path fill="none" stroke="rgb(255,204,255)" stroke-linejoin="round" d="M 7035,11387 L 7285,11512 7285,11262 7035,11387 Z"/>
 <path fill="rgb(255,204,255)" stroke="none" d="M 9012,15570 L 9262,15695 9262,15445 9012,15570 Z"/>
 <path fill="none" stroke="rgb(255,204,255)" stroke-linejoin="round" d="M 9012,15570 L 9262,15695 9262,15445 9012,15570 Z"/>
 <path fill="rgb(255,204,255)" stroke="none" d="M 10989,17026 L 11239,17151 11239,16901 10989,17026 Z"/>
 <path fill="none" stroke="rgb(255,204,255)" stroke-linejoin="round" d="M 10989,17026 L 11239,17151 11239,16901 10989,17026 Z"/>
 <path fill="rgb(255,204,255)" stroke="none" d="M 12965,11730 L 13215,11855 13215,11605 12965,11730 Z"/>
 <path fill="none" stroke="rgb(255,204,255)" stroke-linejoin="round" d="M 12965,11730 L 13215,11855 13215,11605 12965,11730 Z"/>
 <path fill="rgb(255,204,255)" stroke="none" d="M 14942,14165 L 15192,14290 15192,14040 14942,14165 Z"/>
 <path fill="none" stroke="rgb(255,204,255)" stroke-linejoin="round" d="M 14942,14165 L 15192,14290 15192,14040 14942,14165 Z"/>
 <path fill="rgb(255,204,255)" stroke="none" d="M 16919,5474 L 17169,5599 17169,5349 16919,5474 Z"/>
 <path fill="none" stroke="rgb(255,204,255)" stroke-linejoin="round" d="M 16919,5474 L 17169,5599 17169,5349 16919,5474 Z"/>
 <path fill="rgb(255,204,255)" stroke="none" d="M 18897,3357 L 19147,3482 19147,3232 18897,3357 Z"/>
 <path fill="none" stroke="rgb(255,204,255)" stroke-linejoin="round" d="M 18897,3357 L 19147,3482 19147,3232 18897,3357 Z"/>
 <path fill="none" stroke="rgb(0,0,0)" stroke-width="30" stroke-linejoin="round" stroke-dasharray="30,15" d="M 1229,12347 L 3206,12347 5183,12347 7160,12347 9137,12347 11114,12347 13090,12347 15067,12347 17044,12347 19022,12347"/>
 <path fill="none" stroke="rgb(0,0,0)" stroke-width="30" stroke-linejoin="round" d="M 1229,13220 L 3206,13220 5183,13220 7160,13220 9137,13220 11114,13220 13090,13220 15067,13220 17044,13220 19022,13220"/>
 <text class="TextShape"><tspan class="TextParagraph" font-family="Liberation Sans, sans-serif" font-size="353px" font-weight="400"><tspan class="TextPosition" x="991" y="19226"><tspan fill="rgb(0,0,0)" stroke="none">src</tspan></tspan></tspan></text>
 <text class="TextShape"><tspan class="TextParagraph" font-family="Liberation Sans, sans-serif" font-size="353px" font-weight="400"><tspan class="TextPosition" x="2624" y="19226"><tspan fill="rgb(0,0,0)" stroke="none">wdev_0</tspan></tspan></tspan></text>
 <text class="TextShape"><tspan class="TextParagraph" font-family="Liberation Sans, sans-serif" font-size="353px" font-weight="400"><tspan class="TextPosition" x="4759" y="19226"><tspan fill="rgb(0,0,0)" stroke="none">hm_0</tspan></tspan></tspan></text>
 <text class="TextShape"><tspan class="TextParagraph" font-family="Liberation Sans, sans-serif" font-size="353px" font-weight="400"><tspan class="TextPosition" x="6644" y="19226"><tspan fill="rgb(0,0,0)" stroke="none">mds_0</tspan></tspan></tspan></text>
 <text class="TextShape"><tspan class="TextParagraph" font-family="Liberation Sans, sans-serif" font-size="353px" font-weight="400"><tspan class="TextPosition" x="8713" y="19226"><tspan fill="rgb(0,0,0)" stroke="none">prn_0</tspan></tspan></tspan></text>
 <text class="TextShape"><tspan class="TextParagraph" font-family="Liberation Sans, sans-serif" font-size="353px" font-weight="400"><tspan class="TextPosition" x="10545" y="19226"><tspan fill="rgb(0,0,0)" stroke="none">rsrch_0</tspan></tspan></tspan></text>
 <text class="TextShape"><tspan class="TextParagraph" font-family="Liberation Sans, sans-serif" font-size="353px" font-weight="400"><tspan class="TextPosition" x="12667" y="19226"><tspan fill="rgb(0,0,0)" stroke="none">stg_0</tspan></tspan></tspan></text>
 <text class="TextShape"><tspan class="TextParagraph" font-family="Liberation Sans, sans-serif" font-size="353px" font-weight="400"><tspan class="TextPosition" x="14737" y="19226"><tspan fill="rgb(0,0,0)" stroke="none">ts_0</tspan></tspan></tspan></text>
 <text class="TextShape"><tspan class="TextParagraph" font-family="Liberation Sans, sans-serif" font-size="353px" font-weight="400"><tspan class="TextPosition" x="16621" y="19226"><tspan fill="rgb(0,0,0)" stroke="none">usr_0</tspan></tspan></tspan></text>
 <text class="TextShape"><tspan class="TextParagraph" font-family="Liberation Sans, sans-serif" font-size="353px" font-weight="400"><tspan class="TextPosition" x="18533" y="19226"><tspan fill="rgb(0,0,0)" stroke="none">web_0</tspan></tspan></tspan></text>
 <text class="TextShape"><tspan class="TextParagraph" font-family="Liberation Sans, sans-serif" font-size="353px" font-weight="400"><tspan class="TextPosition" x="794" y="18779"><tspan fill="rgb(0,0,0)" stroke="none">0</tspan></tspan></tspan></text>
 <text class="TextShape"><tspan class="TextParagraph" font-family="Liberation Sans, sans-serif" font-size="353px" font-weight="400"><tspan class="TextPosition" x="503" y="16388"><tspan fill="rgb(0,0,0)" stroke="none">0.1</tspan></tspan></tspan></text>
 <text class="TextShape"><tspan class="TextParagraph" font-family="Liberation Sans, sans-serif" font-size="353px" font-weight="400"><tspan class="TextPosition" x="503" y="13998"><tspan fill="rgb(0,0,0)" stroke="none">0.2</tspan></tspan></tspan></text>
 <text class="TextShape"><tspan class="TextParagraph" font-family="Liberation Sans, sans-serif" font-size="353px" font-weight="400"><tspan class="TextPosition" x="503" y="11608"><tspan fill="rgb(0,0,0)" stroke="none">0.3</tspan></tspan></tspan></text>
 <text class="TextShape"><tspan class="TextParagraph" font-family="Liberation Sans, sans-serif" font-size="353px" font-weight="400"><tspan class="TextPosition" x="503" y="9217"><tspan fill="rgb(0,0,0)" stroke="none">0.4</tspan></tspan></tspan></text>
 <text class="TextShape"><tspan class="TextParagraph" font-family="Liberation Sans, sans-serif" font-size="353px" font-weight="400"><tspan class="TextPosition" x="503" y="6827"><tspan fill="rgb(0,0,0)" stroke="none">0.5</tspan></tspan></tspan></text>
 <text class="TextShape"><tspan class="TextParagraph" font-family="Liberation Sans, sans-serif" font-size="353px" font-weight="400"><tspan class="TextPosition" x="503" y="4437"><tspan fill="rgb(0,0,0)" stroke="none">0.6</tspan></tspan></tspan></text>
 <text class="TextShape"><tspan class="TextParagraph" font-family="Liberation Sans, sans-serif" font-size="353px" font-weight="400"><tspan class="TextPosition" x="503" y="2047"><tspan fill="rgb(0,0,0)" stroke="none">0.7</tspan></tspan></tspan></text>
 <text class="TextShape"><tspan class="TextParagraph" font-family="Liberation Sans, sans-serif" font-size="353px" font-weight="400"><tspan class="TextPosition" x="19272" y="18779"><tspan fill="rgb(0,0,0)" stroke="none">0</tspan></tspan></tspan></text>
 <text class="TextShape"><tspan class="TextParagraph" font-family="Liberation Sans, sans-serif" font-size="353px" font-weight="400"><tspan class="TextPosition" x="19272" y="17105"><tspan fill="rgb(0,0,0)" stroke="none">2</tspan></tspan></tspan></text>
 <text class="TextShape"><tspan class="TextParagraph" font-family="Liberation Sans, sans-serif" font-size="353px" font-weight="400"><tspan class="TextPosition" x="19272" y="15432"><tspan fill="rgb(0,0,0)" stroke="none">4</tspan></tspan></tspan></text>
 <text class="TextShape"><tspan class="TextParagraph" font-family="Liberation Sans, sans-serif" font-size="353px" font-weight="400"><tspan class="TextPosition" x="19272" y="13759"><tspan fill="rgb(0,0,0)" stroke="none">6</tspan></tspan></tspan></text>
 <text class="TextShape"><tspan class="TextParagraph" font-family="Liberation Sans, sans-serif" font-size="353px" font-weight="400"><tspan class="TextPosition" x="19272" y="12086"><tspan fill="rgb(0,0,0)" stroke="none">8</tspan></tspan></tspan></text>
 <text class="TextShape"><tspan class="TextParagraph" font-family="Liberation Sans, sans-serif" font-size="353px" font-weight="400"><tspan class="TextPosition" x="19272" y="10413"><tspan fill="rgb(0,0,0)" stroke="none">10</tspan></tspan></tspan></text>
 <text class="TextShape"><tspan class="TextParagraph" font-family="Liberation Sans, sans-serif" font-size="353px" font-weight="400"><tspan class="TextPosition" x="19272" y="8739"><tspan fill="rgb(0,0,0)" stroke="none">12</tspan></tspan></tspan></text>
 <text class="TextShape"><tspan class="TextParagraph" font-family="Liberation Sans, sans-serif" font-size="353px" font-weight="400"><tspan class="TextPosition" x="19272" y="7066"><tspan fill="rgb(0,0,0)" stroke="none">14</tspan></tspan></tspan></text>
 <text class="TextShape"><tspan class="TextParagraph" font-family="Liberation Sans, sans-serif" font-size="353px" font-weight="400"><tspan class="TextPosition" x="19272" y="5393"><tspan fill="rgb(0,0,0)" stroke="none">16</tspan></tspan></tspan></text>
 <text class="TextShape"><tspan class="TextParagraph" font-family="Liberation Sans, sans-serif" font-size="353px" font-weight="400"><tspan class="TextPosition" x="19272" y="3720"><tspan fill="rgb(0,0,0)" stroke="none">18</tspan></tspan></tspan></text>
 <text class="TextShape"><tspan class="TextParagraph" font-family="Liberation Sans, sans-serif" font-size="353px" font-weight="400"><tspan class="TextPosition" x="19272" y="2047"><tspan fill="rgb(0,0,0)" stroke="none">20</tspan></tspan></tspan></text>
 <text class="TextShape"><tspan class="TextParagraph" font-family="Liberation Sans, sans-serif" font-size="459px" font-weight="400"><tspan class="TextPosition" x="12243" y="1091"><tspan fill="rgb(0,0,0)" stroke="none">src</tspan></tspan></tspan></text>
 <path fill="none" stroke="rgb(255,0,0)" stroke-width="80" stroke-linejoin="round" stroke-dasharray="80,40" d="M 20262,8106 L 21862,8106"/>
 <path fill="rgb(255,0,0)" stroke="none" d="M 20956,8001 L 20956,8211 21167,8211 21167,8001 20956,8001 Z"/>
 <path fill="none" stroke="rgb(255,0,0)" stroke-linejoin="round" d="M 20956,8001 L 20956,8211 21167,8211 21167,8001 20956,8001 Z"/>
 <path fill="none" stroke="rgb(255,0,0)" stroke-width="80" stroke-linejoin="round" d="M 20262,8604 L 21862,8604"/>
 <path fill="rgb(255,0,0)" stroke="none" d="M 20956,8604 L 21062,8709 21167,8604 21062,8499 20956,8604 Z"/>
 <path fill="none" stroke="rgb(255,0,0)" stroke-linejoin="round" d="M 20956,8604 L 21062,8709 21167,8604 21062,8499 20956,8604 Z"/>
 <path fill="none" stroke="rgb(0,153,51)" stroke-width="80" stroke-linejoin="round" stroke-dasharray="80,40" d="M 20262,9102 L 21862,9102"/>
 <path fill="rgb(0,153,51)" stroke="none" d="M 20956,8997 L 21062,9207 21167,8997 20956,8997 Z"/>
 <path fill="none" stroke="rgb(0,153,51)" stroke-linejoin="round" d="M 20956,8997 L 21062,9207 21167,8997 20956,8997 Z"/>
 <path fill="none" stroke="rgb(0,153,51)" stroke-width="80" stroke-linejoin="round" d="M 20262,9600 L 21862,9600"/>
 <path fill="rgb(0,153,51)" stroke="none" d="M 20956,9705 L 21167,9705 21062,9495 20956,9705 Z"/>
 <path fill="none" stroke="rgb(0,153,51)" stroke-linejoin="round" d="M 20956,9705 L 21167,9705 21062,9495 20956,9705 Z"/>
 <path fill="none" stroke="rgb(255,204,255)" stroke-width="80" stroke-linejoin="round" stroke-dasharray="80,40" d="M 20262,10097 L 21862,10097"/>
 <path fill="rgb(255,204,255)" stroke="none" d="M 20956,9992 L 20956,10202 21167,10097 20956,9992 Z"/>
 <path fill="none" stroke="rgb(255,204,255)" stroke-linejoin="round" d="M 20956,9992 L 20956,10202 21167,10097 20956,9992 Z"/>
 <path fill="none" stroke="rgb(255,204,255)" stroke-width="80" stroke-linejoin="round" d="M 20262,10595 L 21862,10595"/>
 <path fill="rgb(255,204,255)" stroke="none" d="M 20956,10595 L 21167,10700 21167,10490 20956,10595 Z"/>
 <path fill="none" stroke="rgb(255,204,255)" stroke-linejoin="round" d="M 20956,10595 L 21167,10700 21167,10490 20956,10595 Z"/>
 <path fill="none" stroke="rgb(0,0,0)" stroke-width="30" stroke-linejoin="round" stroke-dasharray="30,15" d="M 20262,11093 L 21862,11093"/>
 <path fill="none" stroke="rgb(0,0,0)" stroke-width="30" stroke-linejoin="round" d="M 20262,11591 L 21862,11591"/>
 <text class="TextShape"><tspan class="TextParagraph" font-family="Liberation Sans, sans-serif" font-size="353px" font-weight="400"><tspan class="TextPosition" x="21962" y="8226"><tspan fill="rgb(0,0,0)" stroke="none">o_hit</tspan></tspan></tspan></text>
 <text class="TextShape"><tspan class="TextParagraph" font-family="Liberation Sans, sans-serif" font-size="353px" font-weight="400"><tspan class="TextPosition" x="21962" y="8724"><tspan fill="rgb(0,0,0)" stroke="none">o_amp</tspan></tspan></tspan></text>
 <text class="TextShape"><tspan class="TextParagraph" font-family="Liberation Sans, sans-serif" font-size="353px" font-weight="400"><tspan class="TextPosition" x="21962" y="9222"><tspan fill="rgb(0,0,0)" stroke="none">src_hit</tspan></tspan></tspan></text>
 <text class="TextShape"><tspan class="TextParagraph" font-family="Liberation Sans, sans-serif" font-size="353px" font-weight="400"><tspan class="TextPosition" x="21962" y="9720"><tspan fill="rgb(0,0,0)" stroke="none">src_amp</tspan></tspan></tspan></text>
 <text class="TextShape"><tspan class="TextParagraph" font-family="Liberation Sans, sans-serif" font-size="353px" font-weight="400"><tspan class="TextPosition" x="21962" y="10217"><tspan fill="rgb(0,0,0)" stroke="none">others_hit</tspan></tspan></tspan></text>
 <text class="TextShape"><tspan class="TextParagraph" font-family="Liberation Sans, sans-serif" font-size="353px" font-weight="400"><tspan class="TextPosition" x="21962" y="10715"><tspan fill="rgb(0,0,0)" stroke="none">others_amp</tspan></tspan></tspan></text>
 <text class="TextShape"><tspan class="TextParagraph" font-family="Liberation Sans, sans-serif" font-size="353px" font-weight="400"><tspan class="TextPosition" x="21962" y="11213"><tspan fill="rgb(0,0,0)" stroke="none">standard_src_hit</tspan></tspan></tspan></text>
 <text class="TextShape"><tspan class="TextParagraph" font-family="Liberation Sans, sans-serif" font-size="353px" font-weight="400"><tspan class="TextPosition" x="21962" y="11711"><tspan fill="rgb(0,0,0)" stroke="none">standard_src_amp</tspan></tspan></tspan></text>
</svg>