<?xml version="1.0" encoding="UTF-8"?>
<!DOCTYPE svg PUBLIC "-//W3C//DTD SVG 1.1//EN" "http://www.w3.org/Graphics/SVG/1.1/DTD/svg11.dtd">
<svg width="281mm" height="174mm" viewBox="0 0 28100 17400" version="1.1" baseProfile="tiny" xmlns="http://www.w3.org/2000/svg" stroke-width="28.222" stroke-linejoin="round" xml:space="preserve">
 <path fill="rgb(255,255,255)" stroke="none" d="M 14054,17354 L 1,17354 1,0 28106,0 28106,17354 14054,17354 Z"/>
 <path fill="none" stroke="rgb(179,179,179)" stroke-linejoin="round" d="M 11619,16360 L 1290,16360 1290,1834 21948,1834 21948,16360 11619,16360 Z"/>
 <path fill="none" stroke="rgb(179,179,179)" stroke-linejoin="round" d="M 1290,16509 L 1290,16359"/>
 <path fill="none" stroke="rgb(179,179,179)" stroke-linejoin="round" d="M 3585,16509 L 3585,16359"/>
 <path fill="none" stroke="rgb(179,179,179)" stroke-linejoin="round" d="M 5880,16509 L 5880,16359"/>
 <path fill="none" stroke="rgb(179,179,179)" stroke-linejoin="round" d="M 8176,16509 L 8176,16359"/>
 <path fill="none" stroke="rgb(179,179,179)" stroke-linejoin="round" d="M 10471,16509 L 10471,16359"/>
 <path fill="none" stroke="rgb(179,179,179)" stroke-linejoin="round" d="M 12767,16509 L 12767,16359"/>
 <path fill="none" stroke="rgb(179,179,179)" stroke-linejoin="round" d="M 15061,16509 L 15061,16359"/>
 <path fill="none" stroke="rgb(179,179,179)" stroke-linejoin="round" d="M 17357,16509 L 17357,16359"/>
 <path fill="none" stroke="rgb(179,179,179)" stroke-linejoin="round" d="M 19652,16509 L 19652,16359"/>
 <path fill="none" stroke="rgb(179,179,179)" stroke-linejoin="round" d="M 21948,16509 L 21948,16359"/>
 <path fill="none" stroke="rgb(179,179,179)" stroke-linejoin="round" d="M 1290,16359 L 21948,16359"/>
 <path fill="none" stroke="rgb(179,179,179)" stroke-linejoin="round" d="M 1140,16359 L 1290,16359"/>
 <path fill="none" stroke="rgb(179,179,179)" stroke-linejoin="round" d="M 1140,14283 L 1290,14283"/>
 <path fill="none" stroke="rgb(179,179,179)" stroke-linejoin="round" d="M 1140,12208 L 1290,12208"/>
 <path fill="none" stroke="rgb(179,179,179)" stroke-linejoin="round" d="M 1140,10133 L 1290,10133"/>
 <path fill="none" stroke="rgb(179,179,179)" stroke-linejoin="round" d="M 1140,8058 L 1290,8058"/>
 <path fill="none" stroke="rgb(179,179,179)" stroke-linejoin="round" d="M 1140,5983 L 1290,5983"/>
 <path fill="none" stroke="rgb(179,179,179)" stroke-linejoin="round" d="M 1140,3908 L 1290,3908"/>
 <path fill="none" stroke="rgb(179,179,179)" stroke-linejoin="round" d="M 1140,1832 L 1290,1832"/>
 <path fill="none" stroke="rgb(179,179,179)" stroke-linejoin="round" d="M 1290,16359 L 1290,1833"/>
 <path fill="none" stroke="rgb(179,179,179)" stroke-linejoin="round" d="M 22098,16359 L 21948,16359"/>
 <path fill="none" stroke="rgb(179,179,179)" stroke-linejoin="round" d="M 22098,16359 L 21948,16359"/>
 <path fill="none" stroke="rgb(179,179,179)" stroke-linejoin="round" d="M 22098,14543 L 21948,14543"/>
 <path fill="none" stroke="rgb(179,179,179)" stroke-linejoin="round" d="M 22098,14543 L 21948,14543"/>
 <path fill="none" stroke="rgb(179,179,179)" stroke-linejoin="round" d="M 22098,12727 L 21948,12727"/>
 <path fill="none" stroke="rgb(179,179,179)" stroke-linejoin="round" d="M 22098,12727 L 21948,12727"/>
 <path fill="none" stroke="rgb(179,179,179)" stroke-linejoin="round" d="M 22098,10911 L 21948,10911"/>
 <path fill="none" stroke="rgb(179,179,179)" stroke-linejoin="round" d="M 22098,10911 L 21948,10911"/>
 <path fill="none" stroke="rgb(179,179,179)" stroke-linejoin="round" d="M 22098,9095 L 21948,9095"/>
 <path fill="none" stroke="rgb(179,179,179)" stroke-linejoin="round" d="M 22098,9095 L 21948,9095"/>
 <path fill="none" stroke="rgb(179,179,179)" stroke-linejoin="round" d="M 22098,7280 L 21948,7280"/>
 <path fill="none" stroke="rgb(179,179,179)" stroke-linejoin="round" d="M 22098,7280 L 21948,7280"/>
 <path fill="none" stroke="rgb(179,179,179)" stroke-linejoin="round" d="M 22098,5464 L 21948,5464"/>
 <path fill="none" stroke="rgb(179,179,179)" stroke-linejoin="round" d="M 22098,5464 L 21948,5464"/>
 <path fill="none" stroke="rgb(179,179,179)" stroke-linejoin="round" d="M 22098,3648 L 21948,3648"/>
 <path fill="none" stroke="rgb(179,179,179)" stroke-linejoin="round" d="M 22098,3648 L 21948,3648"/>
 <path fill="none" stroke="rgb(179,179,179)" stroke-linejoin="round" d="M 22098,1832 L 21948,1832"/>
 <path fill="none" stroke="rgb(179,179,179)" stroke-linejoin="round" d="M 22098,1832 L 21948,1832"/>
 <path fill="none" stroke="rgb(179,179,179)" stroke-linejoin="round" d="M 21948,16359 L 21948,1832"/>
 <path fill="none" stroke="rgb(255,0,0)" stroke-width="80" stroke-linejoin="round" stroke-dasharray="80,40" d="M 1290,10880 L 3585,4468 5880,7207 8176,6149 10471,8245 12767,9884 15061,6979 17357,4821 19652,11855 21948,8100"/>
 <path fill="rgb(255,0,0)" stroke="none" d="M 1166,10756 L 1166,11003 1413,11003 1413,10756 1166,10756 Z"/>
 <path fill="none" stroke="rgb(255,0,0)" stroke-linejoin="round" d="M 1166,10756 L 1166,11003 1413,11003 1413,10756 1166,10756 Z"/>
 <path fill="rgb(255,0,0)" stroke="none" d="M 3461,4345 L 3461,4592 3708,4592 3708,4345 3461,4345 Z"/>
 <path fill="none" stroke="rgb(255,0,0)" stroke-linejoin="round" d="M 3461,4345 L 3461,4592 3708,4592 3708,4345 3461,4345 Z"/>
 <path fill="rgb(255,0,0)" stroke="none" d="M 5757,7084 L 5757,7331 6004,7331 6004,7084 5757,7084 Z"/>
 <path fill="none" stroke="rgb(255,0,0)" stroke-linejoin="round" d="M 5757,7084 L 5757,7331 6004,7331 6004,7084 5757,7084 Z"/>
 <path fill="rgb(255,0,0)" stroke="none" d="M 8052,6026 L 8052,6273 8299,6273 8299,6026 8052,6026 Z"/>
 <path fill="none" stroke="rgb(255,0,0)" stroke-linejoin="round" d="M 8052,6026 L 8052,6273 8299,6273 8299,6026 8052,6026 Z"/>
 <path fill="rgb(255,0,0)" stroke="none" d="M 10348,8122 L 10348,8369 10595,8369 10595,8122 10348,8122 Z"/>
 <path fill="none" stroke="rgb(255,0,0)" stroke-linejoin="round" d="M 10348,8122 L 10348,8369 10595,8369 10595,8122 10348,8122 Z"/>
 <path fill="rgb(255,0,0)" stroke="none" d="M 12643,9760 L 12643,10007 12890,10007 12890,9760 12643,9760 Z"/>
 <path fill="none" stroke="rgb(255,0,0)" stroke-linejoin="round" d="M 12643,9760 L 12643,10007 12890,10007 12890,9760 12643,9760 Z"/>
 <path fill="rgb(255,0,0)" stroke="none" d="M 14938,6856 L 14938,7103 15185,7103 15185,6856 14938,6856 Z"/>
 <path fill="none" stroke="rgb(255,0,0)" stroke-linejoin="round" d="M 14938,6856 L 14938,7103 15185,7103 15185,6856 14938,6856 Z"/>
 <path fill="rgb(255,0,0)" stroke="none" d="M 17233,4697 L 17233,4944 17480,4944 17480,4697 17233,4697 Z"/>
 <path fill="none" stroke="rgb(255,0,0)" stroke-linejoin="round" d="M 17233,4697 L 17233,4944 17480,4944 17480,4697 17233,4697 Z"/>
 <path fill="rgb(255,0,0)" stroke="none" d="M 19529,11732 L 19529,11979 19776,11979 19776,11732 19529,11732 Z"/>
 <path fill="none" stroke="rgb(255,0,0)" stroke-linejoin="round" d="M 19529,11732 L 19529,11979 19776,11979 19776,11732 19529,11732 Z"/>
 <path fill="rgb(255,0,0)" stroke="none" d="M 21824,7976 L 21824,8223 22071,8223 22071,7976 21824,7976 Z"/>
 <path fill="none" stroke="rgb(255,0,0)" stroke-linejoin="round" d="M 21824,7976 L 21824,8223 22071,8223 22071,7976 21824,7976 Z"/>
 <path fill="none" stroke="rgb(255,0,0)" stroke-width="80" stroke-linejoin="round" d="M 1290,10457 L 3585,12282 5880,7253 8176,10720 10471,13426 12767,15242 15061,11365 17357,11846 19652,6409 21948,2795"/>
 <path fill="rgb(255,0,0)" stroke="none" d="M 1166,10457 L 1290,10580 1413,10457 1290,10333 1166,10457 Z"/>
 <path fill="none" stroke="rgb(255,0,0)" stroke-linejoin="round" d="M 1166,10457 L 1290,10580 1413,10457 1290,10333 1166,10457 Z"/>
 <path fill="rgb(255,0,0)" stroke="none" d="M 3461,12282 L 3585,12405 3708,12282 3585,12158 3461,12282 Z"/>
 <path fill="none" stroke="rgb(255,0,0)" stroke-linejoin="round" d="M 3461,12282 L 3585,12405 3708,12282 3585,12158 3461,12282 Z"/>
 <path fill="rgb(255,0,0)" stroke="none" d="M 5757,7253 L 5880,7376 6004,7253 5880,7129 5757,7253 Z"/>
 <path fill="none" stroke="rgb(255,0,0)" stroke-linejoin="round" d="M 5757,7253 L 5880,7376 6004,7253 5880,7129 5757,7253 Z"/>
 <path fill="rgb(255,0,0)" stroke="none" d="M 8052,10720 L 8176,10844 8299,10720 8176,10597 8052,10720 Z"/>
 <path fill="none" stroke="rgb(255,0,0)" stroke-linejoin="round" d="M 8052,10720 L 8176,10844 8299,10720 8176,10597 8052,10720 Z"/>
 <path fill="rgb(255,0,0)" stroke="none" d="M 10348,13426 L 10471,13549 10595,13426 10471,13302 10348,13426 Z"/>
 <path fill="none" stroke="rgb(255,0,0)" stroke-linejoin="round" d="M 10348,13426 L 10471,13549 10595,13426 10471,13302 10348,13426 Z"/>
 <path fill="rgb(255,0,0)" stroke="none" d="M 12643,15242 L 12767,15365 12890,15242 12767,15118 12643,15242 Z"/>
 <path fill="none" stroke="rgb(255,0,0)" stroke-linejoin="round" d="M 12643,15242 L 12767,15365 12890,15242 12767,15118 12643,15242 Z"/>
 <path fill="rgb(255,0,0)" stroke="none" d="M 14938,11365 L 15061,11488 15185,11365 15061,11241 14938,11365 Z"/>
 <path fill="none" stroke="rgb(255,0,0)" stroke-linejoin="round" d="M 14938,11365 L 15061,11488 15185,11365 15061,11241 14938,11365 Z"/>
 <path fill="rgb(255,0,0)" stroke="none" d="M 17233,11846 L 17357,11970 17480,11846 17357,11723 17233,11846 Z"/>
 <path fill="none" stroke="rgb(255,0,0)" stroke-linejoin="round" d="M 17233,11846 L 17357,11970 17480,11846 17357,11723 17233,11846 Z"/>
 <path fill="rgb(255,0,0)" stroke="none" d="M 19529,6409 L 19652,6532 19776,6409 19652,6285 19529,6409 Z"/>
 <path fill="none" stroke="rgb(255,0,0)" stroke-linejoin="round" d="M 19529,6409 L 19652,6532 19776,6409 19652,6285 19529,6409 Z"/>
 <path fill="rgb(255,0,0)" stroke="none" d="M 21824,2795 L 21948,2918 22071,2795 21948,2671 21824,2795 Z"/>
 <path fill="none" stroke="rgb(255,0,0)" stroke-linejoin="round" d="M 21824,2795 L 21948,2918 22071,2795 21948,2671 21824,2795 Z"/>
 <path fill="none" stroke="rgb(0,153,51)" stroke-width="80" stroke-linejoin="round" stroke-dasharray="80,40" d="M 1290,6294 L 3585,9095 5880,7291 8176,7394 10471,7041 12767,7955 15061,6419 17357,7975 19652,6315 21948,6377"/>
 <path fill="rgb(0,153,51)" stroke="none" d="M 1166,6171 L 1290,6418 1413,6171 1166,6171 Z"/>
 <path fill="none" stroke="rgb(0,153,51)" stroke-linejoin="round" d="M 1166,6171 L 1290,6418 1413,6171 1166,6171 Z"/>
 <path fill="rgb(0,153,51)" stroke="none" d="M 3461,8971 L 3585,9218 3708,8971 3461,8971 Z"/>
 <path fill="none" stroke="rgb(0,153,51)" stroke-linejoin="round" d="M 3461,8971 L 3585,9218 3708,8971 3461,8971 Z"/>
 <path fill="rgb(0,153,51)" stroke="none" d="M 5757,7167 L 5880,7414 6004,7167 5757,7167 Z"/>
 <path fill="none" stroke="rgb(0,153,51)" stroke-linejoin="round" d="M 5757,7167 L 5880,7414 6004,7167 5757,7167 Z"/>
 <path fill="rgb(0,153,51)" stroke="none" d="M 8052,7271 L 8176,7518 8299,7271 8052,7271 Z"/>
 <path fill="none" stroke="rgb(0,153,51)" stroke-linejoin="round" d="M 8052,7271 L 8176,7518 8299,7271 8052,7271 Z"/>
 <path fill="rgb(0,153,51)" stroke="none" d="M 10348,6918 L 10471,7165 10595,6918 10348,6918 Z"/>
 <path fill="none" stroke="rgb(0,153,51)" stroke-linejoin="round" d="M 10348,6918 L 10471,7165 10595,6918 10348,6918 Z"/>
 <path fill="rgb(0,153,51)" stroke="none" d="M 12643,7831 L 12767,8078 12890,7831 12643,7831 Z"/>
 <path fill="none" stroke="rgb(0,153,51)" stroke-linejoin="round" d="M 12643,7831 L 12767,8078 12890,7831 12643,7831 Z"/>
 <path fill="rgb(0,153,51)" stroke="none" d="M 14938,6295 L 15061,6542 15185,6295 14938,6295 Z"/>
 <path fill="none" stroke="rgb(0,153,51)" stroke-linejoin="round" d="M 14938,6295 L 15061,6542 15185,6295 14938,6295 Z"/>
 <path fill="rgb(0,153,51)" stroke="none" d="M 17233,7852 L 17357,8099 17480,7852 17233,7852 Z"/>
 <path fill="none" stroke="rgb(0,153,51)" stroke-linejoin="round" d="M 17233,7852 L 17357,8099 17480,7852 17233,7852 Z"/>
 <path fill="rgb(0,153,51)" stroke="none" d="M 19529,6192 L 19652,6439 19776,6192 19529,6192 Z"/>
 <path fill="none" stroke="rgb(0,153,51)" stroke-linejoin="round" d="M 19529,6192 L 19652,6439 19776,6192 19529,6192 Z"/>
 <path fill="rgb(0,153,51)" stroke="none" d="M 21824,6254 L 21948,6501 22071,6254 21824,6254 Z"/>
 <path fill="none" stroke="rgb(0,153,51)" stroke-linejoin="round" d="M 21824,6254 L 21948,6501 22071,6254 21824,6254 Z"/>
 <path fill="none" stroke="rgb(0,153,51)" stroke-width="80" stroke-linejoin="round" d="M 1290,8841 L 3585,9168 5880,10094 8176,9794 10471,11210 12767,10684 15061,10993 17357,10003 19652,11138 21948,10675"/>
 <path fill="rgb(0,153,51)" stroke="none" d="M 1166,8964 L 1413,8964 1290,8717 1166,8964 Z"/>
 <path fill="none" stroke="rgb(0,153,51)" stroke-linejoin="round" d="M 1166,8964 L 1413,8964 1290,8717 1166,8964 Z"/>
 <path fill="rgb(0,153,51)" stroke="none" d="M 3461,9291 L 3708,9291 3585,9044 3461,9291 Z"/>
 <path fill="none" stroke="rgb(0,153,51)" stroke-linejoin="round" d="M 3461,9291 L 3708,9291 3585,9044 3461,9291 Z"/>
 <path fill="rgb(0,153,51)" stroke="none" d="M 5757,10217 L 6004,10217 5880,9970 5757,10217 Z"/>
 <path fill="none" stroke="rgb(0,153,51)" stroke-linejoin="round" d="M 5757,10217 L 6004,10217 5880,9970 5757,10217 Z"/>
 <path fill="rgb(0,153,51)" stroke="none" d="M 8052,9918 L 8299,9918 8176,9671 8052,9918 Z"/>
 <path fill="none" stroke="rgb(0,153,51)" stroke-linejoin="round" d="M 8052,9918 L 8299,9918 8176,9671 8052,9918 Z"/>
 <path fill="rgb(0,153,51)" stroke="none" d="M 10348,11334 L 10595,11334 10471,11087 10348,11334 Z"/>
 <path fill="none" stroke="rgb(0,153,51)" stroke-linejoin="round" d="M 10348,11334 L 10595,11334 10471,11087 10348,11334 Z"/>
 <path fill="rgb(0,153,51)" stroke="none" d="M 12643,10807 L 12890,10807 12767,10560 12643,10807 Z"/>
 <path fill="none" stroke="rgb(0,153,51)" stroke-linejoin="round" d="M 12643,10807 L 12890,10807 12767,10560 12643,10807 Z"/>
 <path fill="rgb(0,153,51)" stroke="none" d="M 14938,11116 L 15185,11116 15061,10869 14938,11116 Z"/>
 <path fill="none" stroke="rgb(0,153,51)" stroke-linejoin="round" d="M 14938,11116 L 15185,11116 15061,10869 14938,11116 Z"/>
 <path fill="rgb(0,153,51)" stroke="none" d="M 17233,10126 L 17480,10126 17357,9879 17233,10126 Z"/>
 <path fill="none" stroke="rgb(0,153,51)" stroke-linejoin="round" d="M 17233,10126 L 17480,10126 17357,9879 17233,10126 Z"/>
 <path fill="rgb(0,153,51)" stroke="none" d="M 19529,11261 L 19776,11261 19652,11014 19529,11261 Z"/>
 <path fill="none" stroke="rgb(0,153,51)" stroke-linejoin="round" d="M 19529,11261 L 19776,11261 19652,11014 19529,11261 Z"/>
 <path fill="rgb(0,153,51)" stroke="none" d="M 21824,10798 L 22071,10798 21948,10551 21824,10798 Z"/>
 <path fill="none" stroke="rgb(0,153,51)" stroke-linejoin="round" d="M 21824,10798 L 22071,10798 21948,10551 21824,10798 Z"/>
 <path fill="none" stroke="rgb(255,204,255)" stroke-width="80" stroke-linejoin="round" stroke-dasharray="80,40" d="M 1290,10568 L 3585,4530 5880,7166 8176,5962 10471,8639 12767,4904 15061,6875 17357,4696 19652,11731 21948,8183"/>
 <path fill="rgb(255,204,255)" stroke="none" d="M 1166,10445 L 1166,10692 1413,10568 1166,10445 Z"/>
 <path fill="none" stroke="rgb(255,204,255)" stroke-linejoin="round" d="M 1166,10445 L 1166,10692 1413,10568 1166,10445 Z"/>
 <path fill="rgb(255,204,255)" stroke="none" d="M 3461,4407 L 3461,4654 3708,4530 3461,4407 Z"/>
 <path fill="none" stroke="rgb(255,204,255)" stroke-linejoin="round" d="M 3461,4407 L 3461,4654 3708,4530 3461,4407 Z"/>
 <path fill="rgb(255,204,255)" stroke="none" d="M 5757,7042 L 5757,7289 6004,7166 5757,7042 Z"/>
 <path fill="none" stroke="rgb(255,204,255)" stroke-linejoin="round" d="M 5757,7042 L 5757,7289 6004,7166 5757,7042 Z"/>
 <path fill="rgb(255,204,255)" stroke="none" d="M 8052,5839 L 8052,6086 8299,5962 8052,5839 Z"/>
 <path fill="none" stroke="rgb(255,204,255)" stroke-linejoin="round" d="M 8052,5839 L 8052,6086 8299,5962 8052,5839 Z"/>
 <path fill="rgb(255,204,255)" stroke="none" d="M 10348,8516 L 10348,8762 10595,8639 10348,8516 Z"/>
 <path fill="none" stroke="rgb(255,204,255)" stroke-linejoin="round" d="M 10348,8516 L 10348,8762 10595,8639 10348,8516 Z"/>
 <path fill="rgb(255,204,255)" stroke="none" d="M 12643,4780 L 12643,5027 12890,4904 12643,4780 Z"/>
 <path fill="none" stroke="rgb(255,204,255)" stroke-linejoin="round" d="M 12643,4780 L 12643,5027 12890,4904 12643,4780 Z"/>
 <path fill="rgb(255,204,255)" stroke="none" d="M 14938,6752 L 14938,6999 15185,6875 14938,6752 Z"/>
 <path fill="none" stroke="rgb(255,204,255)" stroke-linejoin="round" d="M 14938,6752 L 14938,6999 15185,6875 14938,6752 Z"/>
 <path fill="rgb(255,204,255)" stroke="none" d="M 17233,4573 L 17233,4820 17480,4696 17233,4573 Z"/>
 <path fill="none" stroke="rgb(255,204,255)" stroke-linejoin="round" d="M 17233,4573 L 17233,4820 17480,4696 17233,4573 Z"/>
 <path fill="rgb(255,204,255)" stroke="none" d="M 19529,11607 L 19529,11854 19776,11731 19529,11607 Z"/>
 <path fill="none" stroke="rgb(255,204,255)" stroke-linejoin="round" d="M 19529,11607 L 19529,11854 19776,11731 19529,11607 Z"/>
 <path fill="rgb(255,204,255)" stroke="none" d="M 21824,8059 L 21824,8306 22071,8183 21824,8059 Z"/>
 <path fill="none" stroke="rgb(255,204,255)" stroke-linejoin="round" d="M 21824,8059 L 21824,8306 22071,8183 21824,8059 Z"/>
 <path fill="none" stroke="rgb(255,204,255)" stroke-width="80" stroke-linejoin="round" d="M 1290,11910 L 3585,12091 5880,7925 8176,10956 10471,13326 12767,14615 15061,10511 17357,11719 19652,6463 21948,2740"/>
 <path fill="rgb(255,204,255)" stroke="none" d="M 1166,11910 L 1413,12033 1413,11786 1166,11910 Z"/>
 <path fill="none" stroke="rgb(255,204,255)" stroke-linejoin="round" d="M 1166,11910 L 1413,12033 1413,11786 1166,11910 Z"/>
 <path fill="rgb(255,204,255)" stroke="none" d="M 3461,12091 L 3708,12215 3708,11968 3461,12091 Z"/>
 <path fill="none" stroke="rgb(255,204,255)" stroke-linejoin="round" d="M 3461,12091 L 3708,12215 3708,11968 3461,12091 Z"/>
 <path fill="rgb(255,204,255)" stroke="none" d="M 5757,7925 L 6004,8048 6004,7801 5757,7925 Z"/>
 <path fill="none" stroke="rgb(255,204,255)" stroke-linejoin="round" d="M 5757,7925 L 6004,8048 6004,7801 5757,7925 Z"/>
 <path fill="rgb(255,204,255)" stroke="none" d="M 8052,10956 L 8299,11080 8299,10833 8052,10956 Z"/>
 <path fill="none" stroke="rgb(255,204,255)" stroke-linejoin="round" d="M 8052,10956 L 8299,11080 8299,10833 8052,10956 Z"/>
 <path fill="rgb(255,204,255)" stroke="none" d="M 10348,13326 L 10595,13449 10595,13202 10348,13326 Z"/>
 <path fill="none" stroke="rgb(255,204,255)" stroke-linejoin="round" d="M 10348,13326 L 10595,13449 10595,13202 10348,13326 Z"/>
 <path fill="rgb(255,204,255)" stroke="none" d="M 12643,14615 L 12890,14739 12890,14492 12643,14615 Z"/>
 <path fill="none" stroke="rgb(255,204,255)" stroke-linejoin="round" d="M 12643,14615 L 12890,14739 12890,14492 12643,14615 Z"/>
 <path fill="rgb(255,204,255)" stroke="none" d="M 14938,10511 L 15185,10635 15185,10388 14938,10511 Z"/>
 <path fill="none" stroke="rgb(255,204,255)" stroke-linejoin="round" d="M 14938,10511 L 15185,10635 15185,10388 14938,10511 Z"/>
 <path fill="rgb(255,204,255)" stroke="none" d="M 17233,11719 L 17480,11842 17480,11595 17233,11719 Z"/>
 <path fill="none" stroke="rgb(255,204,255)" stroke-linejoin="round" d="M 17233,11719 L 17480,11842 17480,11595 17233,11719 Z"/>
 <path fill="rgb(255,204,255)" stroke="none" d="M 19529,6463 L 19776,6586 19776,6339 19529,6463 Z"/>
 <path fill="none" stroke="rgb(255,204,255)" stroke-linejoin="round" d="M 19529,6463 L 19776,6586 19776,6339 19529,6463 Z"/>
 <path fill="rgb(255,204,255)" stroke="none" d="M 21824,2740 L 22071,2864 22071,2617 21824,2740 Z"/>
 <path fill="none" stroke="rgb(255,204,255)" stroke-linejoin="round" d="M 21824,2740 L 22071,2864 22071,2617 21824,2740 Z"/>
 <path fill="none" stroke="rgb(0,0,0)" stroke-width="30" stroke-linejoin="round" stroke-dasharray="30,15" d="M 1290,6979 L 3585,6979 5880,6979 8176,6979 10471,6979 12767,6979 15061,6979 17357,6979 19652,6979 21948,6979"/>
 <path fill="none" stroke="rgb(0,0,0)" stroke-width="30" stroke-linejoin="round" d="M 1290,11365 L 3585,11365 5880,11365 8176,11365 10471,11365 12767,11365 15061,11365 17357,11365 19652,11365 21948,11365"/>
 <text class="TextShape"><tspan class="TextParagraph" font-family="Liberation Sans" font-size="353px" font-weight="400"><tspan class="TextPosition" x="1052" y="16927"><tspan fill="rgb(0,0,0)" stroke="none">src</tspan></tspan></tspan></text>
 <text class="TextShape"><tspan class="TextParagraph" font-family="Liberation Sans" font-size="353px" font-weight="400"><tspan class="TextPosition" x="3003" y="16927"><tspan fill="rgb(0,0,0)" stroke="none">wdev_0</tspan></tspan></tspan></text>
 <text class="TextShape"><tspan class="TextParagraph" font-family="Liberation Sans" font-size="353px" font-weight="400"><tspan class="TextPosition" x="5456" y="16927"><tspan fill="rgb(0,0,0)" stroke="none">hm_0</tspan></tspan></tspan></text>
 <text class="TextShape"><tspan class="TextParagraph" font-family="Liberation Sans" font-size="353px" font-weight="400"><tspan class="TextPosition" x="7660" y="16927"><tspan fill="rgb(0,0,0)" stroke="none">mds_0</tspan></tspan></tspan></text>
 <text class="TextShape"><tspan class="TextParagraph" font-family="Liberation Sans" font-size="353px" font-weight="400"><tspan class="TextPosition" x="10047" y="16927"><tspan fill="rgb(0,0,0)" stroke="none">prn_0</tspan></tspan></tspan></text>
 <text class="TextShape"><tspan class="TextParagraph" font-family="Liberation Sans" font-size="353px" font-weight="400"><tspan class="TextPosition" x="12198" y="16927"><tspan fill="rgb(0,0,0)" stroke="none">rsrch_0</tspan></tspan></tspan></text>
 <text class="TextShape"><tspan class="TextParagraph" font-family="Liberation Sans" font-size="353px" font-weight="400"><tspan class="TextPosition" x="14638" y="16927"><tspan fill="rgb(0,0,0)" stroke="none">stg_0</tspan></tspan></tspan></text>
 <text class="TextShape"><tspan class="TextParagraph" font-family="Liberation Sans" font-size="353px" font-weight="400"><tspan class="TextPosition" x="17027" y="16927"><tspan fill="rgb(0,0,0)" stroke="none">ts_0</tspan></tspan></tspan></text>
 <text class="TextShape"><tspan class="TextParagraph" font-family="Liberation Sans" font-size="353px" font-weight="400"><tspan class="TextPosition" x="19229" y="16927"><tspan fill="rgb(0,0,0)" stroke="none">usr_0</tspan></tspan></tspan></text>
 <text class="TextShape"><tspan class="TextParagraph" font-family="Liberation Sans" font-size="353px" font-weight="400"><tspan class="TextPosition" x="21459" y="16927"><tspan fill="rgb(0,0,0)" stroke="none">web_0</tspan></tspan></tspan></text>
 <text class="TextShape"><tspan class="TextParagraph" font-family="Liberation Sans" font-size="353px" font-weight="400"><tspan class="TextPosition" x="855" y="16480"><tspan fill="rgb(0,0,0)" stroke="none">0</tspan></tspan></tspan></text>
 <text class="TextShape"><tspan class="TextParagraph" font-family="Liberation Sans" font-size="353px" font-weight="400"><tspan class="TextPosition" x="564" y="14404"><tspan fill="rgb(0,0,0)" stroke="none">0.1</tspan></tspan></tspan></text>
 <text class="TextShape"><tspan class="TextParagraph" font-family="Liberation Sans" font-size="353px" font-weight="400"><tspan class="TextPosition" x="564" y="12329"><tspan fill="rgb(0,0,0)" stroke="none">0.2</tspan></tspan></tspan></text>
 <text class="TextShape"><tspan class="TextParagraph" font-family="Liberation Sans" font-size="353px" font-weight="400"><tspan class="TextPosition" x="564" y="10254"><tspan fill="rgb(0,0,0)" stroke="none">0.3</tspan></tspan></tspan></text>
 <text class="TextShape"><tspan class="TextParagraph" font-family="Liberation Sans" font-size="353px" font-weight="400"><tspan class="TextPosition" x="564" y="8178"><tspan fill="rgb(0,0,0)" stroke="none">0.4</tspan></tspan></tspan></text>
 <text class="TextShape"><tspan class="TextParagraph" font-family="Liberation Sans" font-size="353px" font-weight="400"><tspan class="TextPosition" x="564" y="6103"><tspan fill="rgb(0,0,0)" stroke="none">0.5</tspan></tspan></tspan></text>
 <text class="TextShape"><tspan class="TextParagraph" font-family="Liberation Sans" font-size="353px" font-weight="400"><tspan class="TextPosition" x="564" y="4028"><tspan fill="rgb(0,0,0)" stroke="none">0.6</tspan></tspan></tspan></text>
 <text class="TextShape"><tspan class="TextParagraph" font-family="Liberation Sans" font-size="353px" font-weight="400"><tspan class="TextPosition" x="564" y="1952"><tspan fill="rgb(0,0,0)" stroke="none">0.7</tspan></tspan></tspan></text>
 <text class="TextShape"><tspan class="TextParagraph" font-family="Liberation Sans" font-size="353px" font-weight="400"><tspan class="TextPosition" x="22198" y="16480"><tspan fill="rgb(0,0,0)" stroke="none">0</tspan></tspan></tspan></text>
 <text class="TextShape"><tspan class="TextParagraph" font-family="Liberation Sans" font-size="353px" font-weight="400"><tspan class="TextPosition" x="22198" y="14664"><tspan fill="rgb(0,0,0)" stroke="none">2</tspan></tspan></tspan></text>
 <text class="TextShape"><tspan class="TextParagraph" font-family="Liberation Sans" font-size="353px" font-weight="400"><tspan class="TextPosition" x="22198" y="12848"><tspan fill="rgb(0,0,0)" stroke="none">4</tspan></tspan></tspan></text>
 <text class="TextShape"><tspan class="TextParagraph" font-family="Liberation Sans" font-size="353px" font-weight="400"><tspan class="TextPosition" x="22198" y="11032"><tspan fill="rgb(0,0,0)" stroke="none">6</tspan></tspan></tspan></text>
 <text class="TextShape"><tspan class="TextParagraph" font-family="Liberation Sans" font-size="353px" font-weight="400"><tspan class="TextPosition" x="22198" y="9216"><tspan fill="rgb(0,0,0)" stroke="none">8</tspan></tspan></tspan></text>
 <text class="TextShape"><tspan class="TextParagraph" font-family="Liberation Sans" font-size="353px" font-weight="400"><tspan class="TextPosition" x="22198" y="7400"><tspan fill="rgb(0,0,0)" stroke="none">10</tspan></tspan></tspan></text>
 <text class="TextShape"><tspan class="TextParagraph" font-family="Liberation Sans" font-size="353px" font-weight="400"><tspan class="TextPosition" x="22198" y="5584"><tspan fill="rgb(0,0,0)" stroke="none">12</tspan></tspan></tspan></text>
 <text class="TextShape"><tspan class="TextParagraph" font-family="Liberation Sans" font-size="353px" font-weight="400"><tspan class="TextPosition" x="22198" y="3768"><tspan fill="rgb(0,0,0)" stroke="none">14</tspan></tspan></tspan></text>
 <text class="TextShape"><tspan class="TextParagraph" font-family="Liberation Sans" font-size="353px" font-weight="400"><tspan class="TextPosition" x="22198" y="1952"><tspan fill="rgb(0,0,0)" stroke="none">16</tspan></tspan></tspan></text>
 <text class="TextShape"><tspan class="TextParagraph" font-family="Arial" font-size="459px" font-weight="700"><tspan class="TextPosition" x="13723" y="1044"><tspan fill="rgb(0,0,0)" stroke="none">stg</tspan></tspan></tspan></text>
 <path fill="none" stroke="rgb(255,0,0)" stroke-width="80" stroke-linejoin="round" stroke-dasharray="80,40" d="M 23247,6933 L 24847,6933"/>
 <path fill="rgb(255,0,0)" stroke="none" d="M 23941,6828 L 23941,7038 24152,7038 24152,6828 23941,6828 Z"/>
 <path fill="none" stroke="rgb(255,0,0)" stroke-linejoin="round" d="M 23941,6828 L 23941,7038 24152,7038 24152,6828 23941,6828 Z"/>
 <path fill="none" stroke="rgb(255,0,0)" stroke-width="80" stroke-linejoin="round" d="M 23247,7431 L 24847,7431"/>
 <path fill="rgb(255,0,0)" stroke="none" d="M 23941,7431 L 24047,7536 24152,7431 24047,7326 23941,7431 Z"/>
 <path fill="none" stroke="rgb(255,0,0)" stroke-linejoin="round" d="M 23941,7431 L 24047,7536 24152,7431 24047,7326 23941,7431 Z"/>
 <path fill="none" stroke="rgb(0,153,51)" stroke-width="80" stroke-linejoin="round" stroke-dasharray="80,40" d="M 23247,7929 L 24847,7929"/>
 <path fill="rgb(0,153,51)" stroke="none" d="M 23941,7824 L 24047,8034 24152,7824 23941,7824 Z"/>
 <path fill="none" stroke="rgb(0,153,51)" stroke-linejoin="round" d="M 23941,7824 L 24047,8034 24152,7824 23941,7824 Z"/>
 <path fill="none" stroke="rgb(0,153,51)" stroke-width="80" stroke-linejoin="round" d="M 23247,8427 L 24847,8427"/>
 <path fill="rgb(0,153,51)" stroke="none" d="M 23941,8532 L 24152,8532 24047,8322 23941,8532 Z"/>
 <path fill="none" stroke="rgb(0,153,51)" stroke-linejoin="round" d="M 23941,8532 L 24152,8532 24047,8322 23941,8532 Z"/>
 <path fill="none" stroke="rgb(255,204,255)" stroke-width="80" stroke-linejoin="round" stroke-dasharray="80,40" d="M 23247,8924 L 24847,8924"/>
 <path fill="rgb(255,204,255)" stroke="none" d="M 23941,8819 L 23941,9029 24152,8924 23941,8819 Z"/>
 <path fill="none" stroke="rgb(255,204,255)" stroke-linejoin="round" d="M 23941,8819 L 23941,9029 24152,8924 23941,8819 Z"/>
 <path fill="none" stroke="rgb(255,204,255)" stroke-width="80" stroke-linejoin="round" d="M 23247,9422 L 24847,9422"/>
 <path fill="rgb(255,204,255)" stroke="none" d="M 23941,9422 L 24152,9527 24152,9317 23941,9422 Z"/>
 <path fill="none" stroke="rgb(255,204,255)" stroke-linejoin="round" d="M 23941,9422 L 24152,9527 24152,9317 23941,9422 Z"/>
 <path fill="none" stroke="rgb(0,0,0)" stroke-width="30" stroke-linejoin="round" stroke-dasharray="30,15" d="M 23247,9920 L 24847,9920"/>
 <path fill="none" stroke="rgb(0,0,0)" stroke-width="30" stroke-linejoin="round" d="M 23247,10418 L 24847,10418"/>
 <text class="TextShape"><tspan class="TextParagraph" font-family="Liberation Sans" font-size="353px" font-weight="400"><tspan class="TextPosition" x="24947" y="7053"><tspan fill="rgb(0,0,0)" stroke="none">o_hit</tspan></tspan></tspan></text>
 <text class="TextShape"><tspan class="TextParagraph" font-family="Liberation Sans" font-size="353px" font-weight="400"><tspan class="TextPosition" x="24947" y="7551"><tspan fill="rgb(0,0,0)" stroke="none">o_amp</tspan></tspan></tspan></text>
 <text class="TextShape"><tspan class="TextParagraph" font-family="Liberation Sans" font-size="353px" font-weight="400"><tspan class="TextPosition" x="24947" y="8049"><tspan fill="rgb(0,0,0)" stroke="none">stg_hit</tspan></tspan></tspan></text>
 <text class="TextShape"><tspan class="TextParagraph" font-family="Liberation Sans" font-size="353px" font-weight="400"><tspan class="TextPosition" x="24947" y="8547"><tspan fill="rgb(0,0,0)" stroke="none">stg_amp</tspan></tspan></tspan></text>
 <text class="TextShape"><tspan class="TextParagraph" font-family="Liberation Sans" font-size="353px" font-weight="400"><tspan class="TextPosition" x="24947" y="9044"><tspan fill="rgb(0,0,0)" stroke="none">others_hit</tspan></tspan></tspan></text>
 <text class="TextShape"><tspan class="TextParagraph" font-family="Liberation Sans" font-size="353px" font-weight="400"><tspan class="TextPosition" x="24947" y="9542"><tspan fill="rgb(0,0,0)" stroke="none">others_amp</tspan></tspan></tspan></text>
 <text class="TextShape"><tspan class="TextParagraph" font-family="Liberation Sans" font-size="353px" font-weight="400"><tspan class="TextPosition" x="24947" y="10040"><tspan fill="rgb(0,0,0)" stroke="none">standard_stg_hit</tspan></tspan></tspan></text>
 <text class="TextShape"><tspan class="TextParagraph" font-family="Liberation Sans" font-size="353px" font-weight="400"><tspan class="TextPosition" x="24947" y="10538"><tspan fill="rgb(0,0,0)" stroke="none">standard_stg_amp</tspan></tspan></tspan></text>
</svg>