<?xml version="1.0" encoding="UTF-8"?>
<!DOCTYPE svg PUBLIC "-//W3C//DTD SVG 1.1//EN" "http://www.w3.org/Graphics/SVG/1.1/DTD/svg11.dtd">
<svg width="372mm" height="183mm" viewBox="0 0 37200 18300" version="1.1" baseProfile="tiny" xmlns="http://www.w3.org/2000/svg" stroke-width="28.222" stroke-linejoin="round" xml:space="preserve">
 <path fill="rgb(255,255,255)" stroke="none" d="M 18575,18270 L -1,18270 -1,0 37150,0 37150,18270 18575,18270 Z"/>
 <path fill="none" stroke="rgb(179,179,179)" stroke-linejoin="round" d="M 16470,17258 L 1469,17258 1469,1870 31471,1870 31471,17258 16470,17258 Z"/>
 <path fill="none" stroke="rgb(179,179,179)" stroke-linejoin="round" d="M 1469,17407 L 1469,17257"/>
 <path fill="none" stroke="rgb(179,179,179)" stroke-linejoin="round" d="M 4802,17407 L 4802,17257"/>
 <path fill="none" stroke="rgb(179,179,179)" stroke-linejoin="round" d="M 8136,17407 L 8136,17257"/>
 <path fill="none" stroke="rgb(179,179,179)" stroke-linejoin="round" d="M 11470,17407 L 11470,17257"/>
 <path fill="none" stroke="rgb(179,179,179)" stroke-linejoin="round" d="M 14803,17407 L 14803,17257"/>
 <path fill="none" stroke="rgb(179,179,179)" stroke-linejoin="round" d="M 18137,17407 L 18137,17257"/>
 <path fill="none" stroke="rgb(179,179,179)" stroke-linejoin="round" d="M 21470,17407 L 21470,17257"/>
 <path fill="none" stroke="rgb(179,179,179)" stroke-linejoin="round" d="M 24803,17407 L 24803,17257"/>
 <path fill="none" stroke="rgb(179,179,179)" stroke-linejoin="round" d="M 28137,17407 L 28137,17257"/>
 <path fill="none" stroke="rgb(179,179,179)" stroke-linejoin="round" d="M 31471,17407 L 31471,17257"/>
 <path fill="none" stroke="rgb(179,179,179)" stroke-linejoin="round" d="M 1469,17257 L 31471,17257"/>
 <path fill="none" stroke="rgb(179,179,179)" stroke-linejoin="round" d="M 1319,17257 L 1469,17257"/>
 <path fill="none" stroke="rgb(179,179,179)" stroke-linejoin="round" d="M 1319,15058 L 1469,15058"/>
 <path fill="none" stroke="rgb(179,179,179)" stroke-linejoin="round" d="M 1319,12860 L 1469,12860"/>
 <path fill="none" stroke="rgb(179,179,179)" stroke-linejoin="round" d="M 1319,10661 L 1469,10661"/>
 <path fill="none" stroke="rgb(179,179,179)" stroke-linejoin="round" d="M 1319,8464 L 1469,8464"/>
 <path fill="none" stroke="rgb(179,179,179)" stroke-linejoin="round" d="M 1319,6265 L 1469,6265"/>
 <path fill="none" stroke="rgb(179,179,179)" stroke-linejoin="round" d="M 1319,4067 L 1469,4067"/>
 <path fill="none" stroke="rgb(179,179,179)" stroke-linejoin="round" d="M 1319,1869 L 1469,1869"/>
 <path fill="none" stroke="rgb(179,179,179)" stroke-linejoin="round" d="M 1469,17257 L 1469,1869"/>
 <path fill="none" stroke="rgb(179,179,179)" stroke-linejoin="round" d="M 31621,17257 L 31471,17257"/>
 <path fill="none" stroke="rgb(179,179,179)" stroke-linejoin="round" d="M 31621,17257 L 31471,17257"/>
 <path fill="none" stroke="rgb(179,179,179)" stroke-linejoin="round" d="M 31621,15333 L 31471,15333"/>
 <path fill="none" stroke="rgb(179,179,179)" stroke-linejoin="round" d="M 31621,15333 L 31471,15333"/>
 <path fill="none" stroke="rgb(179,179,179)" stroke-linejoin="round" d="M 31621,13409 L 31471,13409"/>
 <path fill="none" stroke="rgb(179,179,179)" stroke-linejoin="round" d="M 31621,13409 L 31471,13409"/>
 <path fill="none" stroke="rgb(179,179,179)" stroke-linejoin="round" d="M 31621,11486 L 31471,11486"/>
 <path fill="none" stroke="rgb(179,179,179)" stroke-linejoin="round" d="M 31621,11486 L 31471,11486"/>
 <path fill="none" stroke="rgb(179,179,179)" stroke-linejoin="round" d="M 31621,9562 L 31471,9562"/>
 <path fill="none" stroke="rgb(179,179,179)" stroke-linejoin="round" d="M 31621,9562 L 31471,9562"/>
 <path fill="none" stroke="rgb(179,179,179)" stroke-linejoin="round" d="M 31621,7639 L 31471,7639"/>
 <path fill="none" stroke="rgb(179,179,179)" stroke-linejoin="round" d="M 31621,7639 L 31471,7639"/>
 <path fill="none" stroke="rgb(179,179,179)" stroke-linejoin="round" d="M 31621,5716 L 31471,5716"/>
 <path fill="none" stroke="rgb(179,179,179)" stroke-linejoin="round" d="M 31621,5716 L 31471,5716"/>
 <path fill="none" stroke="rgb(179,179,179)" stroke-linejoin="round" d="M 31621,3792 L 31471,3792"/>
 <path fill="none" stroke="rgb(179,179,179)" stroke-linejoin="round" d="M 31621,3792 L 31471,3792"/>
 <path fill="none" stroke="rgb(179,179,179)" stroke-linejoin="round" d="M 31621,1869 L 31471,1869"/>
 <path fill="none" stroke="rgb(179,179,179)" stroke-linejoin="round" d="M 31621,1869 L 31471,1869"/>
 <path fill="none" stroke="rgb(179,179,179)" stroke-linejoin="round" d="M 31471,17257 L 31471,1869"/>
 <path fill="none" stroke="rgb(255,0,0)" stroke-width="80" stroke-linejoin="round" stroke-dasharray="80,40" d="M 1469,11453 L 4802,4661 8136,7562 11470,6441 14803,8662 18137,10397 21470,7321 24803,5034 28137,12486 31471,8508"/>
 <path fill="rgb(255,0,0)" stroke="none" d="M 1381,11365 L 1381,11541 1557,11541 1557,11365 1381,11365 Z"/>
 <path fill="none" stroke="rgb(255,0,0)" stroke-linejoin="round" d="M 1381,11365 L 1381,11541 1557,11541 1557,11365 1381,11365 Z"/>
 <path fill="rgb(255,0,0)" stroke="none" d="M 4714,4573 L 4714,4749 4890,4749 4890,4573 4714,4573 Z"/>
 <path fill="none" stroke="rgb(255,0,0)" stroke-linejoin="round" d="M 4714,4573 L 4714,4749 4890,4749 4890,4573 4714,4573 Z"/>
 <path fill="rgb(255,0,0)" stroke="none" d="M 8048,7474 L 8048,7650 8224,7650 8224,7474 8048,7474 Z"/>
 <path fill="none" stroke="rgb(255,0,0)" stroke-linejoin="round" d="M 8048,7474 L 8048,7650 8224,7650 8224,7474 8048,7474 Z"/>
 <path fill="rgb(255,0,0)" stroke="none" d="M 11382,6353 L 11382,6529 11558,6529 11558,6353 11382,6353 Z"/>
 <path fill="none" stroke="rgb(255,0,0)" stroke-linejoin="round" d="M 11382,6353 L 11382,6529 11558,6529 11558,6353 11382,6353 Z"/>
 <path fill="rgb(255,0,0)" stroke="none" d="M 14715,8574 L 14715,8750 14891,8750 14891,8574 14715,8574 Z"/>
 <path fill="none" stroke="rgb(255,0,0)" stroke-linejoin="round" d="M 14715,8574 L 14715,8750 14891,8750 14891,8574 14715,8574 Z"/>
 <path fill="rgb(255,0,0)" stroke="none" d="M 18049,10309 L 18049,10485 18225,10485 18225,10309 18049,10309 Z"/>
 <path fill="none" stroke="rgb(255,0,0)" stroke-linejoin="round" d="M 18049,10309 L 18049,10485 18225,10485 18225,10309 18049,10309 Z"/>
 <path fill="rgb(255,0,0)" stroke="none" d="M 21382,7233 L 21382,7409 21558,7409 21558,7233 21382,7233 Z"/>
 <path fill="none" stroke="rgb(255,0,0)" stroke-linejoin="round" d="M 21382,7233 L 21382,7409 21558,7409 21558,7233 21382,7233 Z"/>
 <path fill="rgb(255,0,0)" stroke="none" d="M 24715,4946 L 24715,5122 24891,5122 24891,4946 24715,4946 Z"/>
 <path fill="none" stroke="rgb(255,0,0)" stroke-linejoin="round" d="M 24715,4946 L 24715,5122 24891,5122 24891,4946 24715,4946 Z"/>
 <path fill="rgb(255,0,0)" stroke="none" d="M 28049,12398 L 28049,12574 28225,12574 28225,12398 28049,12398 Z"/>
 <path fill="none" stroke="rgb(255,0,0)" stroke-linejoin="round" d="M 28049,12398 L 28049,12574 28225,12574 28225,12398 28049,12398 Z"/>
 <path fill="rgb(255,0,0)" stroke="none" d="M 31383,8420 L 31383,8596 31559,8596 31559,8420 31383,8420 Z"/>
 <path fill="none" stroke="rgb(255,0,0)" stroke-linejoin="round" d="M 31383,8420 L 31383,8596 31559,8596 31559,8420 31383,8420 Z"/>
 <path fill="none" stroke="rgb(255,0,0)" stroke-width="80" stroke-linejoin="round" d="M 1469,11005 L 4802,12938 8136,7611 11470,11284 14803,14150 18137,16073 21470,11967 24803,12476 28137,6716 31471,2888"/>
 <path fill="rgb(255,0,0)" stroke="none" d="M 1381,11005 L 1469,11093 1557,11005 1469,10917 1381,11005 Z"/>
 <path fill="none" stroke="rgb(255,0,0)" stroke-linejoin="round" d="M 1381,11005 L 1469,11093 1557,11005 1469,10917 1381,11005 Z"/>
 <path fill="rgb(255,0,0)" stroke="none" d="M 4714,12938 L 4802,13026 4890,12938 4802,12850 4714,12938 Z"/>
 <path fill="none" stroke="rgb(255,0,0)" stroke-linejoin="round" d="M 4714,12938 L 4802,13026 4890,12938 4802,12850 4714,12938 Z"/>
 <path fill="rgb(255,0,0)" stroke="none" d="M 8048,7611 L 8136,7699 8224,7611 8136,7523 8048,7611 Z"/>
 <path fill="none" stroke="rgb(255,0,0)" stroke-linejoin="round" d="M 8048,7611 L 8136,7699 8224,7611 8136,7523 8048,7611 Z"/>
 <path fill="rgb(255,0,0)" stroke="none" d="M 11382,11284 L 11470,11372 11558,11284 11470,11196 11382,11284 Z"/>
 <path fill="none" stroke="rgb(255,0,0)" stroke-linejoin="round" d="M 11382,11284 L 11470,11372 11558,11284 11470,11196 11382,11284 Z"/>
 <path fill="rgb(255,0,0)" stroke="none" d="M 14715,14150 L 14803,14238 14891,14150 14803,14062 14715,14150 Z"/>
 <path fill="none" stroke="rgb(255,0,0)" stroke-linejoin="round" d="M 14715,14150 L 14803,14238 14891,14150 14803,14062 14715,14150 Z"/>
 <path fill="rgb(255,0,0)" stroke="none" d="M 18049,16073 L 18137,16161 18225,16073 18137,15985 18049,16073 Z"/>
 <path fill="none" stroke="rgb(255,0,0)" stroke-linejoin="round" d="M 18049,16073 L 18137,16161 18225,16073 18137,15985 18049,16073 Z"/>
 <path fill="rgb(255,0,0)" stroke="none" d="M 21382,11967 L 21470,12055 21558,11967 21470,11879 21382,11967 Z"/>
 <path fill="none" stroke="rgb(255,0,0)" stroke-linejoin="round" d="M 21382,11967 L 21470,12055 21558,11967 21470,11879 21382,11967 Z"/>
 <path fill="rgb(255,0,0)" stroke="none" d="M 24715,12476 L 24803,12564 24891,12476 24803,12388 24715,12476 Z"/>
 <path fill="none" stroke="rgb(255,0,0)" stroke-linejoin="round" d="M 24715,12476 L 24803,12564 24891,12476 24803,12388 24715,12476 Z"/>
 <path fill="rgb(255,0,0)" stroke="none" d="M 28049,6716 L 28137,6804 28225,6716 28137,6628 28049,6716 Z"/>
 <path fill="none" stroke="rgb(255,0,0)" stroke-linejoin="round" d="M 28049,6716 L 28137,6804 28225,6716 28137,6628 28049,6716 Z"/>
 <path fill="rgb(255,0,0)" stroke="none" d="M 31383,2888 L 31471,2976 31559,2888 31471,2800 31383,2888 Z"/>
 <path fill="none" stroke="rgb(255,0,0)" stroke-linejoin="round" d="M 31383,2888 L 31471,2976 31559,2888 31471,2800 31383,2888 Z"/>
 <path fill="none" stroke="rgb(0,153,51)" stroke-width="80" stroke-linejoin="round" stroke-dasharray="80,40" d="M 1469,3891 L 4802,5320 8136,5672 11470,5210 14803,2858 18137,8222 21470,4902 24803,4001 28137,4177 31471,5518"/>
 <path fill="rgb(0,153,51)" stroke="none" d="M 1381,3803 L 1469,3979 1557,3803 1381,3803 Z"/>
 <path fill="none" stroke="rgb(0,153,51)" stroke-linejoin="round" d="M 1381,3803 L 1469,3979 1557,3803 1381,3803 Z"/>
 <path fill="rgb(0,153,51)" stroke="none" d="M 4714,5232 L 4802,5408 4890,5232 4714,5232 Z"/>
 <path fill="none" stroke="rgb(0,153,51)" stroke-linejoin="round" d="M 4714,5232 L 4802,5408 4890,5232 4714,5232 Z"/>
 <path fill="rgb(0,153,51)" stroke="none" d="M 8048,5584 L 8136,5760 8224,5584 8048,5584 Z"/>
 <path fill="none" stroke="rgb(0,153,51)" stroke-linejoin="round" d="M 8048,5584 L 8136,5760 8224,5584 8048,5584 Z"/>
 <path fill="rgb(0,153,51)" stroke="none" d="M 11382,5122 L 11470,5298 11558,5122 11382,5122 Z"/>
 <path fill="none" stroke="rgb(0,153,51)" stroke-linejoin="round" d="M 11382,5122 L 11470,5298 11558,5122 11382,5122 Z"/>
 <path fill="rgb(0,153,51)" stroke="none" d="M 14715,2770 L 14803,2946 14891,2770 14715,2770 Z"/>
 <path fill="none" stroke="rgb(0,153,51)" stroke-linejoin="round" d="M 14715,2770 L 14803,2946 14891,2770 14715,2770 Z"/>
 <path fill="rgb(0,153,51)" stroke="none" d="M 18049,8134 L 18137,8310 18225,8134 18049,8134 Z"/>
 <path fill="none" stroke="rgb(0,153,51)" stroke-linejoin="round" d="M 18049,8134 L 18137,8310 18225,8134 18049,8134 Z"/>
 <path fill="rgb(0,153,51)" stroke="none" d="M 21382,4814 L 21470,4990 21558,4814 21382,4814 Z"/>
 <path fill="none" stroke="rgb(0,153,51)" stroke-linejoin="round" d="M 21382,4814 L 21470,4990 21558,4814 21382,4814 Z"/>
 <path fill="rgb(0,153,51)" stroke="none" d="M 24715,3913 L 24803,4089 24891,3913 24715,3913 Z"/>
 <path fill="none" stroke="rgb(0,153,51)" stroke-linejoin="round" d="M 24715,3913 L 24803,4089 24891,3913 24715,3913 Z"/>
 <path fill="rgb(0,153,51)" stroke="none" d="M 28049,4089 L 28137,4265 28225,4089 28049,4089 Z"/>
 <path fill="none" stroke="rgb(0,153,51)" stroke-linejoin="round" d="M 28049,4089 L 28137,4265 28225,4089 28049,4089 Z"/>
 <path fill="rgb(0,153,51)" stroke="none" d="M 31383,5430 L 31471,5606 31559,5430 31383,5430 Z"/>
 <path fill="none" stroke="rgb(0,153,51)" stroke-linejoin="round" d="M 31383,5430 L 31471,5606 31559,5430 31383,5430 Z"/>
 <path fill="none" stroke="rgb(0,153,51)" stroke-width="80" stroke-linejoin="round" d="M 1469,12092 L 4802,13207 8136,12534 11470,12794 14803,14631 18137,13246 21470,12342 24803,13419 28137,12832 31471,12265"/>
 <path fill="rgb(0,153,51)" stroke="none" d="M 1381,12180 L 1557,12180 1469,12004 1381,12180 Z"/>
 <path fill="none" stroke="rgb(0,153,51)" stroke-linejoin="round" d="M 1381,12180 L 1557,12180 1469,12004 1381,12180 Z"/>
 <path fill="rgb(0,153,51)" stroke="none" d="M 4714,13295 L 4890,13295 4802,13119 4714,13295 Z"/>
 <path fill="none" stroke="rgb(0,153,51)" stroke-linejoin="round" d="M 4714,13295 L 4890,13295 4802,13119 4714,13295 Z"/>
 <path fill="rgb(0,153,51)" stroke="none" d="M 8048,12622 L 8224,12622 8136,12446 8048,12622 Z"/>
 <path fill="none" stroke="rgb(0,153,51)" stroke-linejoin="round" d="M 8048,12622 L 8224,12622 8136,12446 8048,12622 Z"/>
 <path fill="rgb(0,153,51)" stroke="none" d="M 11382,12882 L 11558,12882 11470,12706 11382,12882 Z"/>
 <path fill="none" stroke="rgb(0,153,51)" stroke-linejoin="round" d="M 11382,12882 L 11558,12882 11470,12706 11382,12882 Z"/>
 <path fill="rgb(0,153,51)" stroke="none" d="M 14715,14719 L 14891,14719 14803,14543 14715,14719 Z"/>
 <path fill="none" stroke="rgb(0,153,51)" stroke-linejoin="round" d="M 14715,14719 L 14891,14719 14803,14543 14715,14719 Z"/>
 <path fill="rgb(0,153,51)" stroke="none" d="M 18049,13334 L 18225,13334 18137,13158 18049,13334 Z"/>
 <path fill="none" stroke="rgb(0,153,51)" stroke-linejoin="round" d="M 18049,13334 L 18225,13334 18137,13158 18049,13334 Z"/>
 <path fill="rgb(0,153,51)" stroke="none" d="M 21382,12430 L 21558,12430 21470,12254 21382,12430 Z"/>
 <path fill="none" stroke="rgb(0,153,51)" stroke-linejoin="round" d="M 21382,12430 L 21558,12430 21470,12254 21382,12430 Z"/>
 <path fill="rgb(0,153,51)" stroke="none" d="M 24715,13507 L 24891,13507 24803,13331 24715,13507 Z"/>
 <path fill="none" stroke="rgb(0,153,51)" stroke-linejoin="round" d="M 24715,13507 L 24891,13507 24803,13331 24715,13507 Z"/>
 <path fill="rgb(0,153,51)" stroke="none" d="M 28049,12920 L 28225,12920 28137,12744 28049,12920 Z"/>
 <path fill="none" stroke="rgb(0,153,51)" stroke-linejoin="round" d="M 28049,12920 L 28225,12920 28137,12744 28049,12920 Z"/>
 <path fill="rgb(0,153,51)" stroke="none" d="M 31383,12353 L 31559,12353 31471,12177 31383,12353 Z"/>
 <path fill="none" stroke="rgb(0,153,51)" stroke-linejoin="round" d="M 31383,12353 L 31559,12353 31471,12177 31383,12353 Z"/>
 <path fill="none" stroke="rgb(255,204,255)" stroke-width="80" stroke-linejoin="round" stroke-dasharray="80,40" d="M 1469,10639 L 4802,4133 8136,7431 11470,6177 14803,8903 18137,3034 21470,8376 24803,7145 28137,4177 31471,5518"/>
 <path fill="rgb(255,204,255)" stroke="none" d="M 1381,10551 L 1381,10727 1557,10639 1381,10551 Z"/>
 <path fill="none" stroke="rgb(255,204,255)" stroke-linejoin="round" d="M 1381,10551 L 1381,10727 1557,10639 1381,10551 Z"/>
 <path fill="rgb(255,204,255)" stroke="none" d="M 4714,4045 L 4714,4221 4890,4133 4714,4045 Z"/>
 <path fill="none" stroke="rgb(255,204,255)" stroke-linejoin="round" d="M 4714,4045 L 4714,4221 4890,4133 4714,4045 Z"/>
 <path fill="rgb(255,204,255)" stroke="none" d="M 8048,7343 L 8048,7519 8224,7431 8048,7343 Z"/>
 <path fill="none" stroke="rgb(255,204,255)" stroke-linejoin="round" d="M 8048,7343 L 8048,7519 8224,7431 8048,7343 Z"/>
 <path fill="rgb(255,204,255)" stroke="none" d="M 11382,6089 L 11382,6265 11558,6177 11382,6089 Z"/>
 <path fill="none" stroke="rgb(255,204,255)" stroke-linejoin="round" d="M 11382,6089 L 11382,6265 11558,6177 11382,6089 Z"/>
 <path fill="rgb(255,204,255)" stroke="none" d="M 14715,8815 L 14715,8991 14891,8903 14715,8815 Z"/>
 <path fill="none" stroke="rgb(255,204,255)" stroke-linejoin="round" d="M 14715,8815 L 14715,8991 14891,8903 14715,8815 Z"/>
 <path fill="rgb(255,204,255)" stroke="none" d="M 18049,2946 L 18049,3122 18225,3034 18049,2946 Z"/>
 <path fill="none" stroke="rgb(255,204,255)" stroke-linejoin="round" d="M 18049,2946 L 18049,3122 18225,3034 18049,2946 Z"/>
 <path fill="rgb(255,204,255)" stroke="none" d="M 21382,8288 L 21382,8464 21558,8376 21382,8288 Z"/>
 <path fill="none" stroke="rgb(255,204,255)" stroke-linejoin="round" d="M 21382,8288 L 21382,8464 21558,8376 21382,8288 Z"/>
 <path fill="rgb(255,204,255)" stroke="none" d="M 24715,7057 L 24715,7233 24891,7145 24715,7057 Z"/>
 <path fill="none" stroke="rgb(255,204,255)" stroke-linejoin="round" d="M 24715,7057 L 24715,7233 24891,7145 24715,7057 Z"/>
 <path fill="rgb(255,204,255)" stroke="none" d="M 28049,4089 L 28049,4265 28225,4177 28049,4089 Z"/>
 <path fill="none" stroke="rgb(255,204,255)" stroke-linejoin="round" d="M 28049,4089 L 28049,4265 28225,4177 28049,4089 Z"/>
 <path fill="rgb(255,204,255)" stroke="none" d="M 31383,5430 L 31383,5606 31559,5518 31383,5430 Z"/>
 <path fill="none" stroke="rgb(255,204,255)" stroke-linejoin="round" d="M 31383,5430 L 31383,5606 31559,5518 31383,5430 Z"/>
 <path fill="none" stroke="rgb(255,204,255)" stroke-width="80" stroke-linejoin="round" d="M 1469,13207 L 4802,13611 8136,9072 11470,11870 14803,14188 18137,15766 21470,10524 24803,12553 28137,7947 31471,3696"/>
 <path fill="rgb(255,204,255)" stroke="none" d="M 1381,13207 L 1557,13295 1557,13119 1381,13207 Z"/>
 <path fill="none" stroke="rgb(255,204,255)" stroke-linejoin="round" d="M 1381,13207 L 1557,13295 1557,13119 1381,13207 Z"/>
 <path fill="rgb(255,204,255)" stroke="none" d="M 4714,13611 L 4890,13699 4890,13523 4714,13611 Z"/>
 <path fill="none" stroke="rgb(255,204,255)" stroke-linejoin="round" d="M 4714,13611 L 4890,13699 4890,13523 4714,13611 Z"/>
 <path fill="rgb(255,204,255)" stroke="none" d="M 8048,9072 L 8224,9159 8224,8984 8048,9072 Z"/>
 <path fill="none" stroke="rgb(255,204,255)" stroke-linejoin="round" d="M 8048,9072 L 8224,9159 8224,8984 8048,9072 Z"/>
 <path fill="rgb(255,204,255)" stroke="none" d="M 11382,11870 L 11558,11958 11558,11782 11382,11870 Z"/>
 <path fill="none" stroke="rgb(255,204,255)" stroke-linejoin="round" d="M 11382,11870 L 11558,11958 11558,11782 11382,11870 Z"/>
 <path fill="rgb(255,204,255)" stroke="none" d="M 14715,14188 L 14891,14276 14891,14100 14715,14188 Z"/>
 <path fill="none" stroke="rgb(255,204,255)" stroke-linejoin="round" d="M 14715,14188 L 14891,14276 14891,14100 14715,14188 Z"/>
 <path fill="rgb(255,204,255)" stroke="none" d="M 18049,15766 L 18225,15854 18225,15678 18049,15766 Z"/>
 <path fill="none" stroke="rgb(255,204,255)" stroke-linejoin="round" d="M 18049,15766 L 18225,15854 18225,15678 18049,15766 Z"/>
 <path fill="rgb(255,204,255)" stroke="none" d="M 21382,10524 L 21558,10612 21558,10436 21382,10524 Z"/>
 <path fill="none" stroke="rgb(255,204,255)" stroke-linejoin="round" d="M 21382,10524 L 21558,10612 21558,10436 21382,10524 Z"/>
 <path fill="rgb(255,204,255)" stroke="none" d="M 24715,12553 L 24891,12641 24891,12465 24715,12553 Z"/>
 <path fill="none" stroke="rgb(255,204,255)" stroke-linejoin="round" d="M 24715,12553 L 24891,12641 24891,12465 24715,12553 Z"/>
 <path fill="rgb(255,204,255)" stroke="none" d="M 28049,7947 L 28225,8035 28225,7859 28049,7947 Z"/>
 <path fill="none" stroke="rgb(255,204,255)" stroke-linejoin="round" d="M 28049,7947 L 28225,8035 28225,7859 28049,7947 Z"/>
 <path fill="rgb(255,204,255)" stroke="none" d="M 31383,3696 L 31559,3784 31559,3608 31383,3696 Z"/>
 <path fill="none" stroke="rgb(255,204,255)" stroke-linejoin="round" d="M 31383,3696 L 31559,3784 31559,3608 31383,3696 Z"/>
 <path fill="none" stroke="rgb(0,0,0)" stroke-width="30" stroke-linejoin="round" stroke-dasharray="30,15" d="M 1469,5034 L 4802,5034 8136,5034 11470,5034 14803,5034 18137,5034 21470,5034 24803,5034 28137,5034 31471,5034"/>
 <path fill="none" stroke="rgb(0,0,0)" stroke-width="30" stroke-linejoin="round" d="M 1469,12476 L 4802,12476 8136,12476 11470,12476 14803,12476 18137,12476 21470,12476 24803,12476 28137,12476 31471,12476"/>
 <text class="TextShape"><tspan class="TextParagraph" font-family="Liberation Sans, sans-serif" font-size="353px" font-weight="400"><tspan class="TextPosition" x="1231" y="17825"><tspan fill="rgb(0,0,0)" stroke="none">src</tspan></tspan></tspan></text>
 <text class="TextShape"><tspan class="TextParagraph" font-family="Liberation Sans, sans-serif" font-size="353px" font-weight="400"><tspan class="TextPosition" x="4220" y="17825"><tspan fill="rgb(0,0,0)" stroke="none">wdev_0</tspan></tspan></tspan></text>
 <text class="TextShape"><tspan class="TextParagraph" font-family="Liberation Sans, sans-serif" font-size="353px" font-weight="400"><tspan class="TextPosition" x="7712" y="17825"><tspan fill="rgb(0,0,0)" stroke="none">hm_0</tspan></tspan></tspan></text>
 <text class="TextShape"><tspan class="TextParagraph" font-family="Liberation Sans, sans-serif" font-size="353px" font-weight="400"><tspan class="TextPosition" x="10954" y="17825"><tspan fill="rgb(0,0,0)" stroke="none">mds_0</tspan></tspan></tspan></text>
 <text class="TextShape"><tspan class="TextParagraph" font-family="Liberation Sans, sans-serif" font-size="353px" font-weight="400"><tspan class="TextPosition" x="14379" y="17825"><tspan fill="rgb(0,0,0)" stroke="none">prn_0</tspan></tspan></tspan></text>
 <text class="TextShape"><tspan class="TextParagraph" font-family="Liberation Sans, sans-serif" font-size="353px" font-weight="400"><tspan class="TextPosition" x="17568" y="17825"><tspan fill="rgb(0,0,0)" stroke="none">rsrch_0</tspan></tspan></tspan></text>
 <text class="TextShape"><tspan class="TextParagraph" font-family="Liberation Sans, sans-serif" font-size="353px" font-weight="400"><tspan class="TextPosition" x="21047" y="17825"><tspan fill="rgb(0,0,0)" stroke="none">stg_0</tspan></tspan></tspan></text>
 <text class="TextShape"><tspan class="TextParagraph" font-family="Liberation Sans, sans-serif" font-size="353px" font-weight="400"><tspan class="TextPosition" x="24473" y="17825"><tspan fill="rgb(0,0,0)" stroke="none">ts_0</tspan></tspan></tspan></text>
 <text class="TextShape"><tspan class="TextParagraph" font-family="Liberation Sans, sans-serif" font-size="353px" font-weight="400"><tspan class="TextPosition" x="27714" y="17825"><tspan fill="rgb(0,0,0)" stroke="none">usr_0</tspan></tspan></tspan></text>
 <text class="TextShape"><tspan class="TextParagraph" font-family="Liberation Sans, sans-serif" font-size="353px" font-weight="400"><tspan class="TextPosition" x="30982" y="17825"><tspan fill="rgb(0,0,0)" stroke="none">web_0</tspan></tspan></tspan></text>
 <text class="TextShape"><tspan class="TextParagraph" font-family="Liberation Sans, sans-serif" font-size="353px" font-weight="400"><tspan class="TextPosition" x="1034" y="17378"><tspan fill="rgb(0,0,0)" stroke="none">0</tspan></tspan></tspan></text>
 <text class="TextShape"><tspan class="TextParagraph" font-family="Liberation Sans, sans-serif" font-size="353px" font-weight="400"><tspan class="TextPosition" x="743" y="15179"><tspan fill="rgb(0,0,0)" stroke="none">0.1</tspan></tspan></tspan></text>
 <text class="TextShape"><tspan class="TextParagraph" font-family="Liberation Sans, sans-serif" font-size="353px" font-weight="400"><tspan class="TextPosition" x="743" y="12981"><tspan fill="rgb(0,0,0)" stroke="none">0.2</tspan></tspan></tspan></text>
 <text class="TextShape"><tspan class="TextParagraph" font-family="Liberation Sans, sans-serif" font-size="353px" font-weight="400"><tspan class="TextPosition" x="743" y="10782"><tspan fill="rgb(0,0,0)" stroke="none">0.3</tspan></tspan></tspan></text>
 <text class="TextShape"><tspan class="TextParagraph" font-family="Liberation Sans, sans-serif" font-size="353px" font-weight="400"><tspan class="TextPosition" x="743" y="8584"><tspan fill="rgb(0,0,0)" stroke="none">0.4</tspan></tspan></tspan></text>
 <text class="TextShape"><tspan class="TextParagraph" font-family="Liberation Sans, sans-serif" font-size="353px" font-weight="400"><tspan class="TextPosition" x="743" y="6385"><tspan fill="rgb(0,0,0)" stroke="none">0.5</tspan></tspan></tspan></text>
 <text class="TextShape"><tspan class="TextParagraph" font-family="Liberation Sans, sans-serif" font-size="353px" font-weight="400"><tspan class="TextPosition" x="743" y="4187"><tspan fill="rgb(0,0,0)" stroke="none">0.6</tspan></tspan></tspan></text>
 <text class="TextShape"><tspan class="TextParagraph" font-family="Liberation Sans, sans-serif" font-size="353px" font-weight="400"><tspan class="TextPosition" x="743" y="1989"><tspan fill="rgb(0,0,0)" stroke="none">0.7</tspan></tspan></tspan></text>
 <text class="TextShape"><tspan class="TextParagraph" font-family="Liberation Sans, sans-serif" font-size="353px" font-weight="400"><tspan class="TextPosition" x="31721" y="17378"><tspan fill="rgb(0,0,0)" stroke="none">0</tspan></tspan></tspan></text>
 <text class="TextShape"><tspan class="TextParagraph" font-family="Liberation Sans, sans-serif" font-size="353px" font-weight="400"><tspan class="TextPosition" x="31721" y="15454"><tspan fill="rgb(0,0,0)" stroke="none">2</tspan></tspan></tspan></text>
 <text class="TextShape"><tspan class="TextParagraph" font-family="Liberation Sans, sans-serif" font-size="353px" font-weight="400"><tspan class="TextPosition" x="31721" y="13530"><tspan fill="rgb(0,0,0)" stroke="none">4</tspan></tspan></tspan></text>
 <text class="TextShape"><tspan class="TextParagraph" font-family="Liberation Sans, sans-serif" font-size="353px" font-weight="400"><tspan class="TextPosition" x="31721" y="11607"><tspan fill="rgb(0,0,0)" stroke="none">6</tspan></tspan></tspan></text>
 <text class="TextShape"><tspan class="TextParagraph" font-family="Liberation Sans, sans-serif" font-size="353px" font-weight="400"><tspan class="TextPosition" x="31721" y="9683"><tspan fill="rgb(0,0,0)" stroke="none">8</tspan></tspan></tspan></text>
 <text class="TextShape"><tspan class="TextParagraph" font-family="Liberation Sans, sans-serif" font-size="353px" font-weight="400"><tspan class="TextPosition" x="31721" y="7759"><tspan fill="rgb(0,0,0)" stroke="none">10</tspan></tspan></tspan></text>
 <text class="TextShape"><tspan class="TextParagraph" font-family="Liberation Sans, sans-serif" font-size="353px" font-weight="400"><tspan class="TextPosition" x="31721" y="5836"><tspan fill="rgb(0,0,0)" stroke="none">12</tspan></tspan></tspan></text>
 <text class="TextShape"><tspan class="TextParagraph" font-family="Liberation Sans, sans-serif" font-size="353px" font-weight="400"><tspan class="TextPosition" x="31721" y="3912"><tspan fill="rgb(0,0,0)" stroke="none">14</tspan></tspan></tspan></text>
 <text class="TextShape"><tspan class="TextParagraph" font-family="Liberation Sans, sans-serif" font-size="353px" font-weight="400"><tspan class="TextPosition" x="31721" y="1989"><tspan fill="rgb(0,0,0)" stroke="none">16</tspan></tspan></tspan></text>
 <text class="TextShape"><tspan class="TextParagraph" font-family="Arial, sans-serif" font-size="459px" font-weight="700"><tspan class="TextPosition" x="18376" y="1062"><tspan fill="rgb(0,0,0)" stroke="none">ts</tspan></tspan></tspan></text>
 <path fill="none" stroke="rgb(255,0,0)" stroke-width="80" stroke-linejoin="round" stroke-dasharray="80,40" d="M 32952,7391 L 34552,7391"/>
 <path fill="rgb(255,0,0)" stroke="none" d="M 33646,7286 L 33646,7496 33857,7496 33857,7286 33646,7286 Z"/>
 <path fill="none" stroke="rgb(255,0,0)" stroke-linejoin="round" d="M 33646,7286 L 33646,7496 33857,7496 33857,7286 33646,7286 Z"/>
 <path fill="none" stroke="rgb(255,0,0)" stroke-width="80" stroke-linejoin="round" d="M 32952,7889 L 34552,7889"/>
 <path fill="rgb(255,0,0)" stroke="none" d="M 33646,7889 L 33752,7994 33857,7889 33752,7784 33646,7889 Z"/>
 <path fill="none" stroke="rgb(255,0,0)" stroke-linejoin="round" d="M 33646,7889 L 33752,7994 33857,7889 33752,7784 33646,7889 Z"/>
 <path fill="none" stroke="rgb(0,153,51)" stroke-width="80" stroke-linejoin="round" stroke-dasharray="80,40" d="M 32952,8387 L 34552,8387"/>
 <path fill="rgb(0,153,51)" stroke="none" d="M 33646,8282 L 33752,8492 33857,8282 33646,8282 Z"/>
 <path fill="none" stroke="rgb(0,153,51)" stroke-linejoin="round" d="M 33646,8282 L 33752,8492 33857,8282 33646,8282 Z"/>
 <path fill="none" stroke="rgb(0,153,51)" stroke-width="80" stroke-linejoin="round" d="M 32952,8885 L 34552,8885"/>
 <path fill="rgb(0,153,51)" stroke="none" d="M 33646,8990 L 33857,8990 33752,8780 33646,8990 Z"/>
 <path fill="none" stroke="rgb(0,153,51)" stroke-linejoin="round" d="M 33646,8990 L 33857,8990 33752,8780 33646,8990 Z"/>
 <path fill="none" stroke="rgb(255,204,255)" stroke-width="80" stroke-linejoin="round" stroke-dasharray="80,40" d="M 32952,9382 L 34552,9382"/>
 <path fill="rgb(255,204,255)" stroke="none" d="M 33646,9277 L 33646,9487 33857,9382 33646,9277 Z"/>
 <path fill="none" stroke="rgb(255,204,255)" stroke-linejoin="round" d="M 33646,9277 L 33646,9487 33857,9382 33646,9277 Z"/>
 <path fill="none" stroke="rgb(255,204,255)" stroke-width="80" stroke-linejoin="round" d="M 32952,9880 L 34552,9880"/>
 <path fill="rgb(255,204,255)" stroke="none" d="M 33646,9880 L 33857,9985 33857,9775 33646,9880 Z"/>
 <path fill="none" stroke="rgb(255,204,255)" stroke-linejoin="round" d="M 33646,9880 L 33857,9985 33857,9775 33646,9880 Z"/>
 <path fill="none" stroke="rgb(0,0,0)" stroke-width="30" stroke-linejoin="round" stroke-dasharray="30,15" d="M 32952,10378 L 34552,10378"/>
 <path fill="none" stroke="rgb(0,0,0)" stroke-width="30" stroke-linejoin="round" d="M 32952,10876 L 34552,10876"/>
 <text class="TextShape"><tspan class="TextParagraph" font-family="Liberation Sans, sans-serif" font-size="353px" font-weight="400"><tspan class="TextPosition" x="34652" y="7511"><tspan fill="rgb(0,0,0)" stroke="none">o_hit</tspan></tspan></tspan></text>
 <text class="TextShape"><tspan class="TextParagraph" font-family="Liberation Sans, sans-serif" font-size="353px" font-weight="400"><tspan class="TextPosition" x="34652" y="8009"><tspan fill="rgb(0,0,0)" stroke="none">o_amp</tspan></tspan></tspan></text>
 <text class="TextShape"><tspan class="TextParagraph" font-family="Liberation Sans, sans-serif" font-size="353px" font-weight="400"><tspan class="TextPosition" x="34652" y="8507"><tspan fill="rgb(0,0,0)" stroke="none">ts_hit</tspan></tspan></tspan></text>
 <text class="TextShape"><tspan class="TextParagraph" font-family="Liberation Sans, sans-serif" font-size="353px" font-weight="400"><tspan class="TextPosition" x="34652" y="9005"><tspan fill="rgb(0,0,0)" stroke="none">ts_amp</tspan></tspan></tspan></text>
 <text class="TextShape"><tspan class="TextParagraph" font-family="Liberation Sans, sans-serif" font-size="353px" font-weight="400"><tspan class="TextPosition" x="34652" y="9502"><tspan fill="rgb(0,0,0)" stroke="none">other_hit</tspan></tspan></tspan></text>
 <text class="TextShape"><tspan class="TextParagraph" font-family="Liberation Sans, sans-serif" font-size="353px" font-weight="400"><tspan class="TextPosition" x="34652" y="10000"><tspan fill="rgb(0,0,0)" stroke="none">other_amp</tspan></tspan></tspan></text>
 <text class="TextShape"><tspan class="TextParagraph" font-family="Liberation Sans, sans-serif" font-size="353px" font-weight="400"><tspan class="TextPosition" x="34652" y="10498"><tspan fill="rgb(0,0,0)" stroke="none">standard_hit</tspan></tspan></tspan></text>
 <text class="TextShape"><tspan class="TextParagraph" font-family="Liberation Sans, sans-serif" font-size="353px" font-weight="400"><tspan class="TextPosition" x="34652" y="10996"><tspan fill="rgb(0,0,0)" stroke="none">standard_amp</tspan></tspan></tspan></text>
</svg>