<?xml version="1.0" encoding="UTF-8"?>
<!DOCTYPE svg PUBLIC "-//W3C//DTD SVG 1.1//EN" "http://www.w3.org/Graphics/SVG/1.1/DTD/svg11.dtd">
<svg width="281mm" height="196mm" viewBox="0 0 28100 19600" version="1.1" baseProfile="tiny" xmlns="http://www.w3.org/2000/svg" stroke-width="28.222" stroke-linejoin="round" xml:space="preserve">
 <path fill="rgb(255,255,255)" stroke="none" d="M 14034,19566 L -2,19566 -2,-1 28069,-1 28069,19566 14034,19566 Z"/>
 <path fill="none" stroke="rgb(0,0,0)" stroke-linejoin="round" stroke-dasharray="53,53" d="M 14034,19566 L -2,19566 -2,-1 28069,-1 28069,19566 14034,19566 Z"/>
 <path fill="none" stroke="rgb(179,179,179)" stroke-width="10" stroke-linejoin="round" d="M 11599,18528 L 1286,18528 1286,1921 21911,1921 21911,18528 11599,18528 Z"/>
 <path fill="none" stroke="rgb(179,179,179)" stroke-linejoin="round" d="M 1286,18677 L 1286,18527"/>
 <path fill="none" stroke="rgb(179,179,179)" stroke-linejoin="round" d="M 3577,18677 L 3577,18527"/>
 <path fill="none" stroke="rgb(179,179,179)" stroke-linejoin="round" d="M 5869,18677 L 5869,18527"/>
 <path fill="none" stroke="rgb(179,179,179)" stroke-linejoin="round" d="M 8161,18677 L 8161,18527"/>
 <path fill="none" stroke="rgb(179,179,179)" stroke-linejoin="round" d="M 10453,18677 L 10453,18527"/>
 <path fill="none" stroke="rgb(179,179,179)" stroke-linejoin="round" d="M 12744,18677 L 12744,18527"/>
 <path fill="none" stroke="rgb(179,179,179)" stroke-linejoin="round" d="M 15035,18677 L 15035,18527"/>
 <path fill="none" stroke="rgb(179,179,179)" stroke-linejoin="round" d="M 17327,18677 L 17327,18527"/>
 <path fill="none" stroke="rgb(179,179,179)" stroke-linejoin="round" d="M 19619,18677 L 19619,18527"/>
 <path fill="none" stroke="rgb(179,179,179)" stroke-linejoin="round" d="M 21911,18677 L 21911,18527"/>
 <path fill="none" stroke="rgb(179,179,179)" stroke-linejoin="round" d="M 1286,18527 L 21911,18527"/>
 <path fill="none" stroke="rgb(179,179,179)" stroke-linejoin="round" d="M 1136,18527 L 1286,18527"/>
 <path fill="none" stroke="rgb(179,179,179)" stroke-linejoin="round" d="M 1136,16154 L 1286,16154"/>
 <path fill="none" stroke="rgb(179,179,179)" stroke-linejoin="round" d="M 1136,13781 L 1286,13781"/>
 <path fill="none" stroke="rgb(179,179,179)" stroke-linejoin="round" d="M 1136,11409 L 1286,11409"/>
 <path fill="none" stroke="rgb(179,179,179)" stroke-linejoin="round" d="M 1136,9037 L 1286,9037"/>
 <path fill="none" stroke="rgb(179,179,179)" stroke-linejoin="round" d="M 1136,6665 L 1286,6665"/>
 <path fill="none" stroke="rgb(179,179,179)" stroke-linejoin="round" d="M 1136,4292 L 1286,4292"/>
 <path fill="none" stroke="rgb(179,179,179)" stroke-linejoin="round" d="M 1136,1920 L 1286,1920"/>
 <path fill="none" stroke="rgb(179,179,179)" stroke-linejoin="round" d="M 1286,18527 L 1286,1920"/>
 <path fill="none" stroke="rgb(179,179,179)" stroke-linejoin="round" d="M 22061,18527 L 21911,18527"/>
 <path fill="none" stroke="rgb(179,179,179)" stroke-linejoin="round" d="M 22061,18527 L 21911,18527"/>
 <path fill="none" stroke="rgb(179,179,179)" stroke-linejoin="round" d="M 22061,16681 L 21911,16681"/>
 <path fill="none" stroke="rgb(179,179,179)" stroke-linejoin="round" d="M 22061,16681 L 21911,16681"/>
 <path fill="none" stroke="rgb(179,179,179)" stroke-linejoin="round" d="M 22061,14836 L 21911,14836"/>
 <path fill="none" stroke="rgb(179,179,179)" stroke-linejoin="round" d="M 22061,14836 L 21911,14836"/>
 <path fill="none" stroke="rgb(179,179,179)" stroke-linejoin="round" d="M 22061,12991 L 21911,12991"/>
 <path fill="none" stroke="rgb(179,179,179)" stroke-linejoin="round" d="M 22061,12991 L 21911,12991"/>
 <path fill="none" stroke="rgb(179,179,179)" stroke-linejoin="round" d="M 22061,11145 L 21911,11145"/>
 <path fill="none" stroke="rgb(179,179,179)" stroke-linejoin="round" d="M 22061,11145 L 21911,11145"/>
 <path fill="none" stroke="rgb(179,179,179)" stroke-linejoin="round" d="M 22061,9301 L 21911,9301"/>
 <path fill="none" stroke="rgb(179,179,179)" stroke-linejoin="round" d="M 22061,9301 L 21911,9301"/>
 <path fill="none" stroke="rgb(179,179,179)" stroke-linejoin="round" d="M 22061,7456 L 21911,7456"/>
 <path fill="none" stroke="rgb(179,179,179)" stroke-linejoin="round" d="M 22061,7456 L 21911,7456"/>
 <path fill="none" stroke="rgb(179,179,179)" stroke-linejoin="round" d="M 22061,5610 L 21911,5610"/>
 <path fill="none" stroke="rgb(179,179,179)" stroke-linejoin="round" d="M 22061,5610 L 21911,5610"/>
 <path fill="none" stroke="rgb(179,179,179)" stroke-linejoin="round" d="M 22061,3765 L 21911,3765"/>
 <path fill="none" stroke="rgb(179,179,179)" stroke-linejoin="round" d="M 22061,3765 L 21911,3765"/>
 <path fill="none" stroke="rgb(179,179,179)" stroke-linejoin="round" d="M 22061,1920 L 21911,1920"/>
 <path fill="none" stroke="rgb(179,179,179)" stroke-linejoin="round" d="M 22061,1920 L 21911,1920"/>
 <path fill="none" stroke="rgb(179,179,179)" stroke-linejoin="round" d="M 21911,18527 L 21911,1920"/>
 <path fill="none" stroke="rgb(255,0,0)" stroke-width="80" stroke-linejoin="round" stroke-dasharray="80,40" d="M 1286,12263 L 3577,4933 5869,8064 8161,6854 10453,9251 12744,11124 15035,7803 17327,5336 19619,13378 21911,9085"/>
 <path fill="rgb(255,0,0)" stroke="none" d="M 1162,12139 L 1162,12386 1409,12386 1409,12139 1162,12139 Z"/>
 <path fill="none" stroke="rgb(255,0,0)" stroke-linejoin="round" d="M 1162,12139 L 1162,12386 1409,12386 1409,12139 1162,12139 Z"/>
 <path fill="rgb(255,0,0)" stroke="none" d="M 3454,4809 L 3454,5056 3701,5056 3701,4809 3454,4809 Z"/>
 <path fill="none" stroke="rgb(255,0,0)" stroke-linejoin="round" d="M 3454,4809 L 3454,5056 3701,5056 3701,4809 3454,4809 Z"/>
 <path fill="rgb(255,0,0)" stroke="none" d="M 5746,7941 L 5746,8188 5993,8188 5993,7941 5746,7941 Z"/>
 <path fill="none" stroke="rgb(255,0,0)" stroke-linejoin="round" d="M 5746,7941 L 5746,8188 5993,8188 5993,7941 5746,7941 Z"/>
 <path fill="rgb(255,0,0)" stroke="none" d="M 8037,6731 L 8037,6978 8284,6978 8284,6731 8037,6731 Z"/>
 <path fill="none" stroke="rgb(255,0,0)" stroke-linejoin="round" d="M 8037,6731 L 8037,6978 8284,6978 8284,6731 8037,6731 Z"/>
 <path fill="rgb(255,0,0)" stroke="none" d="M 10329,9127 L 10329,9374 10576,9374 10576,9127 10329,9127 Z"/>
 <path fill="none" stroke="rgb(255,0,0)" stroke-linejoin="round" d="M 10329,9127 L 10329,9374 10576,9374 10576,9127 10329,9127 Z"/>
 <path fill="rgb(255,0,0)" stroke="none" d="M 12621,11001 L 12621,11248 12868,11248 12868,11001 12621,11001 Z"/>
 <path fill="none" stroke="rgb(255,0,0)" stroke-linejoin="round" d="M 12621,11001 L 12621,11248 12868,11248 12868,11001 12621,11001 Z"/>
 <path fill="rgb(255,0,0)" stroke="none" d="M 14912,7680 L 14912,7927 15159,7927 15159,7680 14912,7680 Z"/>
 <path fill="none" stroke="rgb(255,0,0)" stroke-linejoin="round" d="M 14912,7680 L 14912,7927 15159,7927 15159,7680 14912,7680 Z"/>
 <path fill="rgb(255,0,0)" stroke="none" d="M 17203,5213 L 17203,5460 17450,5460 17450,5213 17203,5213 Z"/>
 <path fill="none" stroke="rgb(255,0,0)" stroke-linejoin="round" d="M 17203,5213 L 17203,5460 17450,5460 17450,5213 17203,5213 Z"/>
 <path fill="rgb(255,0,0)" stroke="none" d="M 19495,13255 L 19495,13502 19742,13502 19742,13255 19495,13255 Z"/>
 <path fill="none" stroke="rgb(255,0,0)" stroke-linejoin="round" d="M 19495,13255 L 19495,13502 19742,13502 19742,13255 19495,13255 Z"/>
 <path fill="rgb(255,0,0)" stroke="none" d="M 21787,8961 L 21787,9208 22034,9208 22034,8961 21787,8961 Z"/>
 <path fill="none" stroke="rgb(255,0,0)" stroke-linejoin="round" d="M 21787,8961 L 21787,9208 22034,9208 22034,8961 21787,8961 Z"/>
 <path fill="none" stroke="rgb(255,0,0)" stroke-width="80" stroke-linejoin="round" d="M 1286,12529 L 3577,14384 5869,9273 8161,12797 10453,15546 12744,17392 15035,13452 17327,13941 19619,8415 21911,4743"/>
 <path fill="rgb(255,0,0)" stroke="none" d="M 1162,12529 L 1286,12653 1409,12529 1286,12406 1162,12529 Z"/>
 <path fill="none" stroke="rgb(255,0,0)" stroke-linejoin="round" d="M 1162,12529 L 1286,12653 1409,12529 1286,12406 1162,12529 Z"/>
 <path fill="rgb(255,0,0)" stroke="none" d="M 3454,14384 L 3577,14507 3701,14384 3577,14260 3454,14384 Z"/>
 <path fill="none" stroke="rgb(255,0,0)" stroke-linejoin="round" d="M 3454,14384 L 3577,14507 3701,14384 3577,14260 3454,14384 Z"/>
 <path fill="rgb(255,0,0)" stroke="none" d="M 5746,9273 L 5869,9397 5993,9273 5869,9150 5746,9273 Z"/>
 <path fill="none" stroke="rgb(255,0,0)" stroke-linejoin="round" d="M 5746,9273 L 5869,9397 5993,9273 5869,9150 5746,9273 Z"/>
 <path fill="rgb(255,0,0)" stroke="none" d="M 8037,12797 L 8161,12920 8284,12797 8161,12673 8037,12797 Z"/>
 <path fill="none" stroke="rgb(255,0,0)" stroke-linejoin="round" d="M 8037,12797 L 8161,12920 8284,12797 8161,12673 8037,12797 Z"/>
 <path fill="rgb(255,0,0)" stroke="none" d="M 10329,15546 L 10453,15670 10576,15546 10453,15423 10329,15546 Z"/>
 <path fill="none" stroke="rgb(255,0,0)" stroke-linejoin="round" d="M 10329,15546 L 10453,15670 10576,15546 10453,15423 10329,15546 Z"/>
 <path fill="rgb(255,0,0)" stroke="none" d="M 12621,17392 L 12744,17515 12868,17392 12744,17268 12621,17392 Z"/>
 <path fill="none" stroke="rgb(255,0,0)" stroke-linejoin="round" d="M 12621,17392 L 12744,17515 12868,17392 12744,17268 12621,17392 Z"/>
 <path fill="rgb(255,0,0)" stroke="none" d="M 14912,13452 L 15035,13575 15159,13452 15035,13328 14912,13452 Z"/>
 <path fill="none" stroke="rgb(255,0,0)" stroke-linejoin="round" d="M 14912,13452 L 15035,13575 15159,13452 15035,13328 14912,13452 Z"/>
 <path fill="rgb(255,0,0)" stroke="none" d="M 17203,13941 L 17327,14064 17450,13941 17327,13817 17203,13941 Z"/>
 <path fill="none" stroke="rgb(255,0,0)" stroke-linejoin="round" d="M 17203,13941 L 17327,14064 17450,13941 17327,13817 17203,13941 Z"/>
 <path fill="rgb(255,0,0)" stroke="none" d="M 19495,8415 L 19619,8539 19742,8415 19619,8292 19495,8415 Z"/>
 <path fill="none" stroke="rgb(255,0,0)" stroke-linejoin="round" d="M 19495,8415 L 19619,8539 19742,8415 19619,8292 19495,8415 Z"/>
 <path fill="rgb(255,0,0)" stroke="none" d="M 21787,4743 L 21911,4866 22034,4743 21911,4619 21787,4743 Z"/>
 <path fill="none" stroke="rgb(255,0,0)" stroke-linejoin="round" d="M 21787,4743 L 21911,4866 22034,4743 21911,4619 21787,4743 Z"/>
 <path fill="none" stroke="rgb(0,153,51)" stroke-width="80" stroke-linejoin="round" stroke-dasharray="80,40" d="M 1286,13212 L 3577,13164 5869,13331 8161,13283 10453,12761 12744,12880 15035,13236 17327,13117 19619,13449 21911,13473"/>
 <path fill="rgb(0,153,51)" stroke="none" d="M 1162,13088 L 1286,13335 1409,13088 1162,13088 Z"/>
 <path fill="none" stroke="rgb(0,153,51)" stroke-linejoin="round" d="M 1162,13088 L 1286,13335 1409,13088 1162,13088 Z"/>
 <path fill="rgb(0,153,51)" stroke="none" d="M 3454,13041 L 3577,13288 3701,13041 3454,13041 Z"/>
 <path fill="none" stroke="rgb(0,153,51)" stroke-linejoin="round" d="M 3454,13041 L 3577,13288 3701,13041 3454,13041 Z"/>
 <path fill="rgb(0,153,51)" stroke="none" d="M 5746,13207 L 5869,13454 5993,13207 5746,13207 Z"/>
 <path fill="none" stroke="rgb(0,153,51)" stroke-linejoin="round" d="M 5746,13207 L 5869,13454 5993,13207 5746,13207 Z"/>
 <path fill="rgb(0,153,51)" stroke="none" d="M 8037,13160 L 8161,13407 8284,13160 8037,13160 Z"/>
 <path fill="none" stroke="rgb(0,153,51)" stroke-linejoin="round" d="M 8037,13160 L 8161,13407 8284,13160 8037,13160 Z"/>
 <path fill="rgb(0,153,51)" stroke="none" d="M 10329,12638 L 10453,12885 10576,12638 10329,12638 Z"/>
 <path fill="none" stroke="rgb(0,153,51)" stroke-linejoin="round" d="M 10329,12638 L 10453,12885 10576,12638 10329,12638 Z"/>
 <path fill="rgb(0,153,51)" stroke="none" d="M 12621,12756 L 12744,13003 12868,12756 12621,12756 Z"/>
 <path fill="none" stroke="rgb(0,153,51)" stroke-linejoin="round" d="M 12621,12756 L 12744,13003 12868,12756 12621,12756 Z"/>
 <path fill="rgb(0,153,51)" stroke="none" d="M 14912,13112 L 15035,13359 15159,13112 14912,13112 Z"/>
 <path fill="none" stroke="rgb(0,153,51)" stroke-linejoin="round" d="M 14912,13112 L 15035,13359 15159,13112 14912,13112 Z"/>
 <path fill="rgb(0,153,51)" stroke="none" d="M 17203,12994 L 17327,13241 17450,12994 17203,12994 Z"/>
 <path fill="none" stroke="rgb(0,153,51)" stroke-linejoin="round" d="M 17203,12994 L 17327,13241 17450,12994 17203,12994 Z"/>
 <path fill="rgb(0,153,51)" stroke="none" d="M 19495,13326 L 19619,13573 19742,13326 19495,13326 Z"/>
 <path fill="none" stroke="rgb(0,153,51)" stroke-linejoin="round" d="M 19495,13326 L 19619,13573 19742,13326 19495,13326 Z"/>
 <path fill="rgb(0,153,51)" stroke="none" d="M 21787,13349 L 21911,13596 22034,13349 21787,13349 Z"/>
 <path fill="none" stroke="rgb(0,153,51)" stroke-linejoin="round" d="M 21787,13349 L 21911,13596 22034,13349 21787,13349 Z"/>
 <path fill="none" stroke="rgb(0,153,51)" stroke-width="80" stroke-linejoin="round" d="M 1286,3986 L 3577,9015 5869,7400 8161,8443 10453,10259 12744,10896 15035,8470 17327,9596 19619,8406 21911,8028"/>
 <path fill="rgb(0,153,51)" stroke="none" d="M 1162,4110 L 1409,4110 1286,3863 1162,4110 Z"/>
 <path fill="none" stroke="rgb(0,153,51)" stroke-linejoin="round" d="M 1162,4110 L 1409,4110 1286,3863 1162,4110 Z"/>
 <path fill="rgb(0,153,51)" stroke="none" d="M 3454,9138 L 3701,9138 3577,8891 3454,9138 Z"/>
 <path fill="none" stroke="rgb(0,153,51)" stroke-linejoin="round" d="M 3454,9138 L 3701,9138 3577,8891 3454,9138 Z"/>
 <path fill="rgb(0,153,51)" stroke="none" d="M 5746,7524 L 5993,7524 5869,7277 5746,7524 Z"/>
 <path fill="none" stroke="rgb(0,153,51)" stroke-linejoin="round" d="M 5746,7524 L 5993,7524 5869,7277 5746,7524 Z"/>
 <path fill="rgb(0,153,51)" stroke="none" d="M 8037,8566 L 8284,8566 8161,8319 8037,8566 Z"/>
 <path fill="none" stroke="rgb(0,153,51)" stroke-linejoin="round" d="M 8037,8566 L 8284,8566 8161,8319 8037,8566 Z"/>
 <path fill="rgb(0,153,51)" stroke="none" d="M 10329,10383 L 10576,10383 10453,10136 10329,10383 Z"/>
 <path fill="none" stroke="rgb(0,153,51)" stroke-linejoin="round" d="M 10329,10383 L 10576,10383 10453,10136 10329,10383 Z"/>
 <path fill="rgb(0,153,51)" stroke="none" d="M 12621,11020 L 12868,11020 12744,10773 12621,11020 Z"/>
 <path fill="none" stroke="rgb(0,153,51)" stroke-linejoin="round" d="M 12621,11020 L 12868,11020 12744,10773 12621,11020 Z"/>
 <path fill="rgb(0,153,51)" stroke="none" d="M 14912,8594 L 15159,8594 15035,8347 14912,8594 Z"/>
 <path fill="none" stroke="rgb(0,153,51)" stroke-linejoin="round" d="M 14912,8594 L 15159,8594 15035,8347 14912,8594 Z"/>
 <path fill="rgb(0,153,51)" stroke="none" d="M 17203,9720 L 17450,9720 17327,9473 17203,9720 Z"/>
 <path fill="none" stroke="rgb(0,153,51)" stroke-linejoin="round" d="M 17203,9720 L 17450,9720 17327,9473 17203,9720 Z"/>
 <path fill="rgb(0,153,51)" stroke="none" d="M 19495,8529 L 19742,8529 19619,8282 19495,8529 Z"/>
 <path fill="none" stroke="rgb(0,153,51)" stroke-linejoin="round" d="M 19495,8529 L 19742,8529 19619,8282 19495,8529 Z"/>
 <path fill="rgb(0,153,51)" stroke="none" d="M 21787,8151 L 22034,8151 21911,7904 21787,8151 Z"/>
 <path fill="none" stroke="rgb(0,153,51)" stroke-linejoin="round" d="M 21787,8151 L 22034,8151 21911,7904 21787,8151 Z"/>
 <path fill="none" stroke="rgb(255,204,255)" stroke-width="80" stroke-linejoin="round" stroke-dasharray="80,40" d="M 1286,12310 L 3577,5407 5869,8088 8161,6688 10453,9795 12744,3414 15035,7044 17327,4411 19619,13259 21911,8966"/>
 <path fill="rgb(255,204,255)" stroke="none" d="M 1162,12187 L 1162,12434 1409,12310 1162,12187 Z"/>
 <path fill="none" stroke="rgb(255,204,255)" stroke-linejoin="round" d="M 1162,12187 L 1162,12434 1409,12310 1162,12187 Z"/>
 <path fill="rgb(255,204,255)" stroke="none" d="M 3454,5284 L 3454,5531 3701,5407 3454,5284 Z"/>
 <path fill="none" stroke="rgb(255,204,255)" stroke-linejoin="round" d="M 3454,5284 L 3454,5531 3701,5407 3454,5284 Z"/>
 <path fill="rgb(255,204,255)" stroke="none" d="M 5746,7965 L 5746,8212 5993,8088 5746,7965 Z"/>
 <path fill="none" stroke="rgb(255,204,255)" stroke-linejoin="round" d="M 5746,7965 L 5746,8212 5993,8088 5746,7965 Z"/>
 <path fill="rgb(255,204,255)" stroke="none" d="M 8037,6565 L 8037,6812 8284,6688 8037,6565 Z"/>
 <path fill="none" stroke="rgb(255,204,255)" stroke-linejoin="round" d="M 8037,6565 L 8037,6812 8284,6688 8037,6565 Z"/>
 <path fill="rgb(255,204,255)" stroke="none" d="M 10329,9673 L 10329,9919 10576,9795 10329,9673 Z"/>
 <path fill="none" stroke="rgb(255,204,255)" stroke-linejoin="round" d="M 10329,9673 L 10329,9919 10576,9795 10329,9673 Z"/>
 <path fill="rgb(255,204,255)" stroke="none" d="M 12621,3291 L 12621,3538 12868,3414 12621,3291 Z"/>
 <path fill="none" stroke="rgb(255,204,255)" stroke-linejoin="round" d="M 12621,3291 L 12621,3538 12868,3414 12621,3291 Z"/>
 <path fill="rgb(255,204,255)" stroke="none" d="M 14912,6921 L 14912,7168 15159,7044 14912,6921 Z"/>
 <path fill="none" stroke="rgb(255,204,255)" stroke-linejoin="round" d="M 14912,6921 L 14912,7168 15159,7044 14912,6921 Z"/>
 <path fill="rgb(255,204,255)" stroke="none" d="M 17203,4287 L 17203,4534 17450,4411 17203,4287 Z"/>
 <path fill="none" stroke="rgb(255,204,255)" stroke-linejoin="round" d="M 17203,4287 L 17203,4534 17450,4411 17203,4287 Z"/>
 <path fill="rgb(255,204,255)" stroke="none" d="M 19495,13136 L 19495,13383 19742,13259 19495,13136 Z"/>
 <path fill="none" stroke="rgb(255,204,255)" stroke-linejoin="round" d="M 19495,13136 L 19495,13383 19742,13259 19495,13136 Z"/>
 <path fill="rgb(255,204,255)" stroke="none" d="M 21787,8843 L 21787,9090 22034,8966 21787,8843 Z"/>
 <path fill="none" stroke="rgb(255,204,255)" stroke-linejoin="round" d="M 21787,8843 L 21787,9090 22034,8966 21787,8843 Z"/>
 <path fill="none" stroke="rgb(255,204,255)" stroke-width="80" stroke-linejoin="round" d="M 1286,13756 L 3577,14375 5869,9734 8161,12944 10453,15454 12744,16893 15035,13221 17327,14282 19619,8618 21911,4844"/>
 <path fill="rgb(255,204,255)" stroke="none" d="M 1162,13756 L 1409,13880 1409,13633 1162,13756 Z"/>
 <path fill="none" stroke="rgb(255,204,255)" stroke-linejoin="round" d="M 1162,13756 L 1409,13880 1409,13633 1162,13756 Z"/>
 <path fill="rgb(255,204,255)" stroke="none" d="M 3454,14375 L 3701,14498 3701,14251 3454,14375 Z"/>
 <path fill="none" stroke="rgb(255,204,255)" stroke-linejoin="round" d="M 3454,14375 L 3701,14498 3701,14251 3454,14375 Z"/>
 <path fill="rgb(255,204,255)" stroke="none" d="M 5746,9734 L 5993,9857 5993,9611 5746,9734 Z"/>
 <path fill="none" stroke="rgb(255,204,255)" stroke-linejoin="round" d="M 5746,9734 L 5993,9857 5993,9611 5746,9734 Z"/>
 <path fill="rgb(255,204,255)" stroke="none" d="M 8037,12944 L 8284,13068 8284,12821 8037,12944 Z"/>
 <path fill="none" stroke="rgb(255,204,255)" stroke-linejoin="round" d="M 8037,12944 L 8284,13068 8284,12821 8037,12944 Z"/>
 <path fill="rgb(255,204,255)" stroke="none" d="M 10329,15454 L 10576,15578 10576,15331 10329,15454 Z"/>
 <path fill="none" stroke="rgb(255,204,255)" stroke-linejoin="round" d="M 10329,15454 L 10576,15578 10576,15331 10329,15454 Z"/>
 <path fill="rgb(255,204,255)" stroke="none" d="M 12621,16893 L 12868,17017 12868,16770 12621,16893 Z"/>
 <path fill="none" stroke="rgb(255,204,255)" stroke-linejoin="round" d="M 12621,16893 L 12868,17017 12868,16770 12621,16893 Z"/>
 <path fill="rgb(255,204,255)" stroke="none" d="M 14912,13221 L 15159,13345 15159,13098 14912,13221 Z"/>
 <path fill="none" stroke="rgb(255,204,255)" stroke-linejoin="round" d="M 14912,13221 L 15159,13345 15159,13098 14912,13221 Z"/>
 <path fill="rgb(255,204,255)" stroke="none" d="M 17203,14282 L 17450,14406 17450,14159 17203,14282 Z"/>
 <path fill="none" stroke="rgb(255,204,255)" stroke-linejoin="round" d="M 17203,14282 L 17450,14406 17450,14159 17203,14282 Z"/>
 <path fill="rgb(255,204,255)" stroke="none" d="M 19495,8618 L 19742,8742 19742,8495 19495,8618 Z"/>
 <path fill="none" stroke="rgb(255,204,255)" stroke-linejoin="round" d="M 19495,8618 L 19742,8742 19742,8495 19495,8618 Z"/>
 <path fill="rgb(255,204,255)" stroke="none" d="M 21787,4844 L 22034,4968 22034,4721 21787,4844 Z"/>
 <path fill="none" stroke="rgb(255,204,255)" stroke-linejoin="round" d="M 21787,4844 L 22034,4968 22034,4721 21787,4844 Z"/>
 <path fill="none" stroke="rgb(0,0,0)" stroke-width="30" stroke-linejoin="round" stroke-dasharray="30,15" d="M 1286,13378 L 3577,13378 5869,13378 8161,13378 10453,13378 12744,13378 15035,13378 17327,13378 19619,13378 21911,13378"/>
 <path fill="none" stroke="rgb(0,0,0)" stroke-width="30" stroke-linejoin="round" d="M 1286,8415 L 3577,8415 5869,8415 8161,8415 10453,8415 12744,8415 15035,8415 17327,8415 19619,8415 21911,8415"/>
 <text class="TextShape"><tspan class="TextParagraph" font-family="Liberation Sans, sans-serif" font-size="353px" font-weight="400"><tspan class="TextPosition" x="1049" y="19095"><tspan fill="rgb(0,0,0)" stroke="none">src</tspan></tspan></tspan></text>
 <text class="TextShape"><tspan class="TextParagraph" font-family="Liberation Sans, sans-serif" font-size="353px" font-weight="400"><tspan class="TextPosition" x="2996" y="19095"><tspan fill="rgb(0,0,0)" stroke="none">wdev_0</tspan></tspan></tspan></text>
 <text class="TextShape"><tspan class="TextParagraph" font-family="Liberation Sans, sans-serif" font-size="353px" font-weight="400"><tspan class="TextPosition" x="5446" y="19095"><tspan fill="rgb(0,0,0)" stroke="none">hm_0</tspan></tspan></tspan></text>
 <text class="TextShape"><tspan class="TextParagraph" font-family="Liberation Sans, sans-serif" font-size="353px" font-weight="400"><tspan class="TextPosition" x="7645" y="19095"><tspan fill="rgb(0,0,0)" stroke="none">mds_0</tspan></tspan></tspan></text>
 <text class="TextShape"><tspan class="TextParagraph" font-family="Liberation Sans, sans-serif" font-size="353px" font-weight="400"><tspan class="TextPosition" x="10029" y="19095"><tspan fill="rgb(0,0,0)" stroke="none">prn_0</tspan></tspan></tspan></text>
 <text class="TextShape"><tspan class="TextParagraph" font-family="Liberation Sans, sans-serif" font-size="353px" font-weight="400"><tspan class="TextPosition" x="12175" y="19095"><tspan fill="rgb(0,0,0)" stroke="none">rsrch_0</tspan></tspan></tspan></text>
 <text class="TextShape"><tspan class="TextParagraph" font-family="Liberation Sans, sans-serif" font-size="353px" font-weight="400"><tspan class="TextPosition" x="14612" y="19095"><tspan fill="rgb(0,0,0)" stroke="none">stg_0</tspan></tspan></tspan></text>
 <text class="TextShape"><tspan class="TextParagraph" font-family="Liberation Sans, sans-serif" font-size="353px" font-weight="400"><tspan class="TextPosition" x="16997" y="19095"><tspan fill="rgb(0,0,0)" stroke="none">ts_0</tspan></tspan></tspan></text>
 <text class="TextShape"><tspan class="TextParagraph" font-family="Liberation Sans, sans-serif" font-size="353px" font-weight="400"><tspan class="TextPosition" x="19196" y="19095"><tspan fill="rgb(0,0,0)" stroke="none">usr_0</tspan></tspan></tspan></text>
 <text class="TextShape"><tspan class="TextParagraph" font-family="Liberation Sans, sans-serif" font-size="353px" font-weight="400"><tspan class="TextPosition" x="21421" y="19095"><tspan fill="rgb(0,0,0)" stroke="none">web_0</tspan></tspan></tspan></text>
 <text class="TextShape"><tspan class="TextParagraph" font-family="Liberation Sans, sans-serif" font-size="353px" font-weight="400"><tspan class="TextPosition" x="851" y="18647"><tspan fill="rgb(0,0,0)" stroke="none">0</tspan></tspan></tspan></text>
 <text class="TextShape"><tspan class="TextParagraph" font-family="Liberation Sans, sans-serif" font-size="353px" font-weight="400"><tspan class="TextPosition" x="560" y="16274"><tspan fill="rgb(0,0,0)" stroke="none">0.1</tspan></tspan></tspan></text>
 <text class="TextShape"><tspan class="TextParagraph" font-family="Liberation Sans, sans-serif" font-size="353px" font-weight="400"><tspan class="TextPosition" x="560" y="13902"><tspan fill="rgb(0,0,0)" stroke="none">0.2</tspan></tspan></tspan></text>
 <text class="TextShape"><tspan class="TextParagraph" font-family="Liberation Sans, sans-serif" font-size="353px" font-weight="400"><tspan class="TextPosition" x="560" y="11530"><tspan fill="rgb(0,0,0)" stroke="none">0.3</tspan></tspan></tspan></text>
 <text class="TextShape"><tspan class="TextParagraph" font-family="Liberation Sans, sans-serif" font-size="353px" font-weight="400"><tspan class="TextPosition" x="560" y="9157"><tspan fill="rgb(0,0,0)" stroke="none">0.4</tspan></tspan></tspan></text>
 <text class="TextShape"><tspan class="TextParagraph" font-family="Liberation Sans, sans-serif" font-size="353px" font-weight="400"><tspan class="TextPosition" x="560" y="6785"><tspan fill="rgb(0,0,0)" stroke="none">0.5</tspan></tspan></tspan></text>
 <text class="TextShape"><tspan class="TextParagraph" font-family="Liberation Sans, sans-serif" font-size="353px" font-weight="400"><tspan class="TextPosition" x="560" y="4413"><tspan fill="rgb(0,0,0)" stroke="none">0.6</tspan></tspan></tspan></text>
 <text class="TextShape"><tspan class="TextParagraph" font-family="Liberation Sans, sans-serif" font-size="353px" font-weight="400"><tspan class="TextPosition" x="560" y="2041"><tspan fill="rgb(0,0,0)" stroke="none">0.7</tspan></tspan></tspan></text>
 <text class="TextShape"><tspan class="TextParagraph" font-family="Liberation Sans, sans-serif" font-size="353px" font-weight="400"><tspan class="TextPosition" x="22161" y="18647"><tspan fill="rgb(0,0,0)" stroke="none">0</tspan></tspan></tspan></text>
 <text class="TextShape"><tspan class="TextParagraph" font-family="Liberation Sans, sans-serif" font-size="353px" font-weight="400"><tspan class="TextPosition" x="22161" y="16801"><tspan fill="rgb(0,0,0)" stroke="none">2</tspan></tspan></tspan></text>
 <text class="TextShape"><tspan class="TextParagraph" font-family="Liberation Sans, sans-serif" font-size="353px" font-weight="400"><tspan class="TextPosition" x="22161" y="14956"><tspan fill="rgb(0,0,0)" stroke="none">4</tspan></tspan></tspan></text>
 <text class="TextShape"><tspan class="TextParagraph" font-family="Liberation Sans, sans-serif" font-size="353px" font-weight="400"><tspan class="TextPosition" x="22161" y="13112"><tspan fill="rgb(0,0,0)" stroke="none">6</tspan></tspan></tspan></text>
 <text class="TextShape"><tspan class="TextParagraph" font-family="Liberation Sans, sans-serif" font-size="353px" font-weight="400"><tspan class="TextPosition" x="22161" y="11266"><tspan fill="rgb(0,0,0)" stroke="none">8</tspan></tspan></tspan></text>
 <text class="TextShape"><tspan class="TextParagraph" font-family="Liberation Sans, sans-serif" font-size="353px" font-weight="400"><tspan class="TextPosition" x="22161" y="9421"><tspan fill="rgb(0,0,0)" stroke="none">10</tspan></tspan></tspan></text>
 <text class="TextShape"><tspan class="TextParagraph" font-family="Liberation Sans, sans-serif" font-size="353px" font-weight="400"><tspan class="TextPosition" x="22161" y="7576"><tspan fill="rgb(0,0,0)" stroke="none">12</tspan></tspan></tspan></text>
 <text class="TextShape"><tspan class="TextParagraph" font-family="Liberation Sans, sans-serif" font-size="353px" font-weight="400"><tspan class="TextPosition" x="22161" y="5730"><tspan fill="rgb(0,0,0)" stroke="none">14</tspan></tspan></tspan></text>
 <text class="TextShape"><tspan class="TextParagraph" font-family="Liberation Sans, sans-serif" font-size="353px" font-weight="400"><tspan class="TextPosition" x="22161" y="3886"><tspan fill="rgb(0,0,0)" stroke="none">16</tspan></tspan></tspan></text>
 <text class="TextShape"><tspan class="TextParagraph" font-family="Liberation Sans, sans-serif" font-size="353px" font-weight="400"><tspan class="TextPosition" x="22161" y="2041"><tspan fill="rgb(0,0,0)" stroke="none">18</tspan></tspan></tspan></text>
 <text class="TextShape"><tspan class="TextParagraph" font-family="Arial, sans-serif" font-size="459px" font-weight="700"><tspan class="TextPosition" x="13690" y="1088"><tspan fill="rgb(0,0,0)" stroke="none">usr</tspan></tspan></tspan></text>
 <path fill="none" stroke="rgb(255,0,0)" stroke-width="80" stroke-linejoin="round" stroke-dasharray="80,40" d="M 23210,8039 L 24810,8039"/>
 <path fill="rgb(255,0,0)" stroke="none" d="M 23904,7934 L 23904,8144 24115,8144 24115,7934 23904,7934 Z"/>
 <path fill="none" stroke="rgb(255,0,0)" stroke-linejoin="round" d="M 23904,7934 L 23904,8144 24115,8144 24115,7934 23904,7934 Z"/>
 <path fill="none" stroke="rgb(255,0,0)" stroke-width="80" stroke-linejoin="round" d="M 23210,8537 L 24810,8537"/>
 <path fill="rgb(255,0,0)" stroke="none" d="M 23904,8537 L 24010,8642 24115,8537 24010,8432 23904,8537 Z"/>
 <path fill="none" stroke="rgb(255,0,0)" stroke-linejoin="round" d="M 23904,8537 L 24010,8642 24115,8537 24010,8432 23904,8537 Z"/>
 <path fill="none" stroke="rgb(0,153,51)" stroke-width="80" stroke-linejoin="round" stroke-dasharray="80,40" d="M 23210,9035 L 24810,9035"/>
 <path fill="rgb(0,153,51)" stroke="none" d="M 23904,8930 L 24010,9140 24115,8930 23904,8930 Z"/>
 <path fill="none" stroke="rgb(0,153,51)" stroke-linejoin="round" d="M 23904,8930 L 24010,9140 24115,8930 23904,8930 Z"/>
 <path fill="none" stroke="rgb(0,153,51)" stroke-width="80" stroke-linejoin="round" d="M 23210,9533 L 24810,9533"/>
 <path fill="rgb(0,153,51)" stroke="none" d="M 23904,9638 L 24115,9638 24010,9428 23904,9638 Z"/>
 <path fill="none" stroke="rgb(0,153,51)" stroke-linejoin="round" d="M 23904,9638 L 24115,9638 24010,9428 23904,9638 Z"/>
 <path fill="none" stroke="rgb(255,204,255)" stroke-width="80" stroke-linejoin="round" stroke-dasharray="80,40" d="M 23210,10030 L 24810,10030"/>
 <path fill="rgb(255,204,255)" stroke="none" d="M 23904,9925 L 23904,10135 24115,10030 23904,9925 Z"/>
 <path fill="none" stroke="rgb(255,204,255)" stroke-linejoin="round" d="M 23904,9925 L 23904,10135 24115,10030 23904,9925 Z"/>
 <path fill="none" stroke="rgb(255,204,255)" stroke-width="80" stroke-linejoin="round" d="M 23210,10528 L 24810,10528"/>
 <path fill="rgb(255,204,255)" stroke="none" d="M 23904,10528 L 24115,10633 24115,10423 23904,10528 Z"/>
 <path fill="none" stroke="rgb(255,204,255)" stroke-linejoin="round" d="M 23904,10528 L 24115,10633 24115,10423 23904,10528 Z"/>
 <path fill="none" stroke="rgb(0,0,0)" stroke-width="30" stroke-linejoin="round" stroke-dasharray="30,15" d="M 23210,11026 L 24810,11026"/>
 <path fill="none" stroke="rgb(0,0,0)" stroke-width="30" stroke-linejoin="round" d="M 23210,11524 L 24810,11524"/>
 <text class="TextShape"><tspan class="TextParagraph" font-family="Liberation Sans, sans-serif" font-size="353px" font-weight="400"><tspan class="TextPosition" x="24910" y="8159"><tspan fill="rgb(0,0,0)" stroke="none">o_hit</tspan></tspan></tspan></text>
 <text class="TextShape"><tspan class="TextParagraph" font-family="Liberation Sans, sans-serif" font-size="353px" font-weight="400"><tspan class="TextPosition" x="24910" y="8657"><tspan fill="rgb(0,0,0)" stroke="none">o_amp</tspan></tspan></tspan></text>
 <text class="TextShape"><tspan class="TextParagraph" font-family="Liberation Sans, sans-serif" font-size="353px" font-weight="400"><tspan class="TextPosition" x="24910" y="9155"><tspan fill="rgb(0,0,0)" stroke="none">usr_hit</tspan></tspan></tspan></text>
 <text class="TextShape"><tspan class="TextParagraph" font-family="Liberation Sans, sans-serif" font-size="353px" font-weight="400"><tspan class="TextPosition" x="24910" y="9653"><tspan fill="rgb(0,0,0)" stroke="none">usr_amp</tspan></tspan></tspan></text>
 <text class="TextShape"><tspan class="TextParagraph" font-family="Liberation Sans, sans-serif" font-size="353px" font-weight="400"><tspan class="TextPosition" x="24910" y="10150"><tspan fill="rgb(0,0,0)" stroke="none">other_hit</tspan></tspan></tspan></text>
 <text class="TextShape"><tspan class="TextParagraph" font-family="Liberation Sans, sans-serif" font-size="353px" font-weight="400"><tspan class="TextPosition" x="24910" y="10648"><tspan fill="rgb(0,0,0)" stroke="none">other_amp</tspan></tspan></tspan></text>
 <text class="TextShape"><tspan class="TextParagraph" font-family="Liberation Sans, sans-serif" font-size="353px" font-weight="400"><tspan class="TextPosition" x="24910" y="11146"><tspan fill="rgb(0,0,0)" stroke="none">standard_usr_hit</tspan></tspan></tspan></text>
 <text class="TextShape"><tspan class="TextParagraph" font-family="Liberation Sans, sans-serif" font-size="353px" font-weight="400"><tspan class="TextPosition" x="24910" y="11644"><tspan fill="rgb(0,0,0)" stroke="none">standard_usr_amp</tspan></tspan></tspan></text>
</svg>