<?xml version="1.0" encoding="UTF-8"?>
<!DOCTYPE svg PUBLIC "-//W3C//DTD SVG 1.1//EN" "http://www.w3.org/Graphics/SVG/1.1/DTD/svg11.dtd">
<svg width="322mm" height="186mm" viewBox="0 0 32200 18600" version="1.1" baseProfile="tiny" xmlns="http://www.w3.org/2000/svg" stroke-width="28.222" stroke-linejoin="round" xml:space="preserve">
 <path fill="rgb(255,255,255)" stroke="none" d="M 16100,18645 L 0,18645 0,0 32199,0 32199,18645 16100,18645 Z"/>
 <path fill="none" stroke="rgb(179,179,179)" stroke-linejoin="round" d="M 13506,17626 L 1371,17626 1371,571 25641,571 25641,17626 13506,17626 Z"/>
 <path fill="none" stroke="rgb(179,179,179)" stroke-linejoin="round" d="M 25640,17625 L 1371,17625"/>
 <path fill="none" stroke="rgb(179,179,179)" stroke-linejoin="round" d="M 25640,15188 L 1371,15188"/>
 <path fill="none" stroke="rgb(179,179,179)" stroke-linejoin="round" d="M 25640,12751 L 1371,12751"/>
 <path fill="none" stroke="rgb(179,179,179)" stroke-linejoin="round" d="M 25640,10315 L 1371,10315"/>
 <path fill="none" stroke="rgb(179,179,179)" stroke-linejoin="round" d="M 25640,7879 L 1371,7879"/>
 <path fill="none" stroke="rgb(179,179,179)" stroke-linejoin="round" d="M 25640,5443 L 1371,5443"/>
 <path fill="none" stroke="rgb(179,179,179)" stroke-linejoin="round" d="M 25640,3006 L 1371,3006"/>
 <path fill="none" stroke="rgb(179,179,179)" stroke-linejoin="round" d="M 25640,570 L 1371,570"/>
 <path fill="none" stroke="rgb(179,179,179)" stroke-linejoin="round" d="M 1371,17775 L 1371,17625"/>
 <path fill="none" stroke="rgb(179,179,179)" stroke-linejoin="round" d="M 1371,17775 L 1371,17625"/>
 <path fill="none" stroke="rgb(179,179,179)" stroke-linejoin="round" d="M 4067,17775 L 4067,17625"/>
 <path fill="none" stroke="rgb(179,179,179)" stroke-linejoin="round" d="M 4067,17775 L 4067,17625"/>
 <path fill="none" stroke="rgb(179,179,179)" stroke-linejoin="round" d="M 6764,17775 L 6764,17625"/>
 <path fill="none" stroke="rgb(179,179,179)" stroke-linejoin="round" d="M 6764,17775 L 6764,17625"/>
 <path fill="none" stroke="rgb(179,179,179)" stroke-linejoin="round" d="M 9461,17775 L 9461,17625"/>
 <path fill="none" stroke="rgb(179,179,179)" stroke-linejoin="round" d="M 9461,17775 L 9461,17625"/>
 <path fill="none" stroke="rgb(179,179,179)" stroke-linejoin="round" d="M 12158,17775 L 12158,17625"/>
 <path fill="none" stroke="rgb(179,179,179)" stroke-linejoin="round" d="M 12158,17775 L 12158,17625"/>
 <path fill="none" stroke="rgb(179,179,179)" stroke-linejoin="round" d="M 14854,17775 L 14854,17625"/>
 <path fill="none" stroke="rgb(179,179,179)" stroke-linejoin="round" d="M 14854,17775 L 14854,17625"/>
 <path fill="none" stroke="rgb(179,179,179)" stroke-linejoin="round" d="M 17550,17775 L 17550,17625"/>
 <path fill="none" stroke="rgb(179,179,179)" stroke-linejoin="round" d="M 17550,17775 L 17550,17625"/>
 <path fill="none" stroke="rgb(179,179,179)" stroke-linejoin="round" d="M 20247,17775 L 20247,17625"/>
 <path fill="none" stroke="rgb(179,179,179)" stroke-linejoin="round" d="M 20247,17775 L 20247,17625"/>
 <path fill="none" stroke="rgb(179,179,179)" stroke-linejoin="round" d="M 22944,17775 L 22944,17625"/>
 <path fill="none" stroke="rgb(179,179,179)" stroke-linejoin="round" d="M 22944,17775 L 22944,17625"/>
 <path fill="none" stroke="rgb(179,179,179)" stroke-linejoin="round" d="M 25640,17775 L 25640,17625"/>
 <path fill="none" stroke="rgb(179,179,179)" stroke-linejoin="round" d="M 25640,17775 L 25640,17625"/>
 <path fill="none" stroke="rgb(179,179,179)" stroke-linejoin="round" d="M 1371,17625 L 25640,17625"/>
 <path fill="none" stroke="rgb(179,179,179)" stroke-linejoin="round" d="M 1221,17625 L 1371,17625"/>
 <path fill="none" stroke="rgb(179,179,179)" stroke-linejoin="round" d="M 1221,17625 L 1371,17625"/>
 <path fill="none" stroke="rgb(179,179,179)" stroke-linejoin="round" d="M 1221,15188 L 1371,15188"/>
 <path fill="none" stroke="rgb(179,179,179)" stroke-linejoin="round" d="M 1221,15188 L 1371,15188"/>
 <path fill="none" stroke="rgb(179,179,179)" stroke-linejoin="round" d="M 1221,12751 L 1371,12751"/>
 <path fill="none" stroke="rgb(179,179,179)" stroke-linejoin="round" d="M 1221,12751 L 1371,12751"/>
 <path fill="none" stroke="rgb(179,179,179)" stroke-linejoin="round" d="M 1221,10315 L 1371,10315"/>
 <path fill="none" stroke="rgb(179,179,179)" stroke-linejoin="round" d="M 1221,10315 L 1371,10315"/>
 <path fill="none" stroke="rgb(179,179,179)" stroke-linejoin="round" d="M 1221,7879 L 1371,7879"/>
 <path fill="none" stroke="rgb(179,179,179)" stroke-linejoin="round" d="M 1221,7879 L 1371,7879"/>
 <path fill="none" stroke="rgb(179,179,179)" stroke-linejoin="round" d="M 1221,5443 L 1371,5443"/>
 <path fill="none" stroke="rgb(179,179,179)" stroke-linejoin="round" d="M 1221,5443 L 1371,5443"/>
 <path fill="none" stroke="rgb(179,179,179)" stroke-linejoin="round" d="M 1221,3006 L 1371,3006"/>
 <path fill="none" stroke="rgb(179,179,179)" stroke-linejoin="round" d="M 1221,3006 L 1371,3006"/>
 <path fill="none" stroke="rgb(179,179,179)" stroke-linejoin="round" d="M 1221,570 L 1371,570"/>
 <path fill="none" stroke="rgb(179,179,179)" stroke-linejoin="round" d="M 1221,570 L 1371,570"/>
 <path fill="none" stroke="rgb(179,179,179)" stroke-linejoin="round" d="M 1371,17625 L 1371,570"/>
 <path fill="none" stroke="rgb(179,179,179)" stroke-linejoin="round" d="M 25790,17625 L 25640,17625"/>
 <path fill="none" stroke="rgb(179,179,179)" stroke-linejoin="round" d="M 25790,17625 L 25640,17625"/>
 <path fill="none" stroke="rgb(179,179,179)" stroke-linejoin="round" d="M 25790,15493 L 25640,15493"/>
 <path fill="none" stroke="rgb(179,179,179)" stroke-linejoin="round" d="M 25790,15493 L 25640,15493"/>
 <path fill="none" stroke="rgb(179,179,179)" stroke-linejoin="round" d="M 25790,13361 L 25640,13361"/>
 <path fill="none" stroke="rgb(179,179,179)" stroke-linejoin="round" d="M 25790,13361 L 25640,13361"/>
 <path fill="none" stroke="rgb(179,179,179)" stroke-linejoin="round" d="M 25790,11229 L 25640,11229"/>
 <path fill="none" stroke="rgb(179,179,179)" stroke-linejoin="round" d="M 25790,11229 L 25640,11229"/>
 <path fill="none" stroke="rgb(179,179,179)" stroke-linejoin="round" d="M 25790,9098 L 25640,9098"/>
 <path fill="none" stroke="rgb(179,179,179)" stroke-linejoin="round" d="M 25790,9098 L 25640,9098"/>
 <path fill="none" stroke="rgb(179,179,179)" stroke-linejoin="round" d="M 25790,6966 L 25640,6966"/>
 <path fill="none" stroke="rgb(179,179,179)" stroke-linejoin="round" d="M 25790,6966 L 25640,6966"/>
 <path fill="none" stroke="rgb(179,179,179)" stroke-linejoin="round" d="M 25790,4834 L 25640,4834"/>
 <path fill="none" stroke="rgb(179,179,179)" stroke-linejoin="round" d="M 25790,4834 L 25640,4834"/>
 <path fill="none" stroke="rgb(179,179,179)" stroke-linejoin="round" d="M 25790,2702 L 25640,2702"/>
 <path fill="none" stroke="rgb(179,179,179)" stroke-linejoin="round" d="M 25790,2702 L 25640,2702"/>
 <path fill="none" stroke="rgb(179,179,179)" stroke-linejoin="round" d="M 25790,570 L 25640,570"/>
 <path fill="none" stroke="rgb(179,179,179)" stroke-linejoin="round" d="M 25790,570 L 25640,570"/>
 <path fill="none" stroke="rgb(179,179,179)" stroke-linejoin="round" d="M 25640,17625 L 25640,570"/>
 <path fill="none" stroke="rgb(255,0,0)" stroke-width="80" stroke-linejoin="round" stroke-dasharray="80,40" d="M 1371,11192 L 4067,3664 6764,6880 9461,5638 12158,8099 14854,10022 17550,6612 20247,4078 22944,12337 25640,7928"/>
 <path fill="rgb(255,0,0)" stroke="none" d="M 1246,11067 L 1246,11317 1496,11317 1496,11067 1246,11067 Z"/>
 <path fill="none" stroke="rgb(255,0,0)" stroke-linejoin="round" d="M 1246,11067 L 1246,11317 1496,11317 1496,11067 1246,11067 Z"/>
 <path fill="rgb(255,0,0)" stroke="none" d="M 3942,3539 L 3942,3789 4192,3789 4192,3539 3942,3539 Z"/>
 <path fill="none" stroke="rgb(255,0,0)" stroke-linejoin="round" d="M 3942,3539 L 3942,3789 4192,3789 4192,3539 3942,3539 Z"/>
 <path fill="rgb(255,0,0)" stroke="none" d="M 6639,6755 L 6639,7005 6889,7005 6889,6755 6639,6755 Z"/>
 <path fill="none" stroke="rgb(255,0,0)" stroke-linejoin="round" d="M 6639,6755 L 6639,7005 6889,7005 6889,6755 6639,6755 Z"/>
 <path fill="rgb(255,0,0)" stroke="none" d="M 9336,5513 L 9336,5763 9586,5763 9586,5513 9336,5513 Z"/>
 <path fill="none" stroke="rgb(255,0,0)" stroke-linejoin="round" d="M 9336,5513 L 9336,5763 9586,5763 9586,5513 9336,5513 Z"/>
 <path fill="rgb(255,0,0)" stroke="none" d="M 12033,7974 L 12033,8224 12283,8224 12283,7974 12033,7974 Z"/>
 <path fill="none" stroke="rgb(255,0,0)" stroke-linejoin="round" d="M 12033,7974 L 12033,8224 12283,8224 12283,7974 12033,7974 Z"/>
 <path fill="rgb(255,0,0)" stroke="none" d="M 14729,9897 L 14729,10147 14979,10147 14979,9897 14729,9897 Z"/>
 <path fill="none" stroke="rgb(255,0,0)" stroke-linejoin="round" d="M 14729,9897 L 14729,10147 14979,10147 14979,9897 14729,9897 Z"/>
 <path fill="rgb(255,0,0)" stroke="none" d="M 17425,6487 L 17425,6737 17675,6737 17675,6487 17425,6487 Z"/>
 <path fill="none" stroke="rgb(255,0,0)" stroke-linejoin="round" d="M 17425,6487 L 17425,6737 17675,6737 17675,6487 17425,6487 Z"/>
 <path fill="rgb(255,0,0)" stroke="none" d="M 20122,3953 L 20122,4203 20372,4203 20372,3953 20122,3953 Z"/>
 <path fill="none" stroke="rgb(255,0,0)" stroke-linejoin="round" d="M 20122,3953 L 20122,4203 20372,4203 20372,3953 20122,3953 Z"/>
 <path fill="rgb(255,0,0)" stroke="none" d="M 22819,12212 L 22819,12462 23069,12462 23069,12212 22819,12212 Z"/>
 <path fill="none" stroke="rgb(255,0,0)" stroke-linejoin="round" d="M 22819,12212 L 22819,12462 23069,12462 23069,12212 22819,12212 Z"/>
 <path fill="rgb(255,0,0)" stroke="none" d="M 25515,7803 L 25515,8053 25765,8053 25765,7803 25515,7803 Z"/>
 <path fill="none" stroke="rgb(255,0,0)" stroke-linejoin="round" d="M 25515,7803 L 25515,8053 25765,8053 25765,7803 25515,7803 Z"/>
 <path fill="none" stroke="rgb(255,0,0)" stroke-width="80" stroke-linejoin="round" d="M 1371,10696 L 4067,12838 6764,6934 9461,11005 12158,14181 14854,16313 17550,11762 20247,12326 22944,5942 25640,1699"/>
 <path fill="rgb(255,0,0)" stroke="none" d="M 1246,10696 L 1371,10821 1496,10696 1371,10571 1246,10696 Z"/>
 <path fill="none" stroke="rgb(255,0,0)" stroke-linejoin="round" d="M 1246,10696 L 1371,10821 1496,10696 1371,10571 1246,10696 Z"/>
 <path fill="rgb(255,0,0)" stroke="none" d="M 3942,12838 L 4067,12963 4192,12838 4067,12713 3942,12838 Z"/>
 <path fill="none" stroke="rgb(255,0,0)" stroke-linejoin="round" d="M 3942,12838 L 4067,12963 4192,12838 4067,12713 3942,12838 Z"/>
 <path fill="rgb(255,0,0)" stroke="none" d="M 6639,6934 L 6764,7059 6889,6934 6764,6809 6639,6934 Z"/>
 <path fill="none" stroke="rgb(255,0,0)" stroke-linejoin="round" d="M 6639,6934 L 6764,7059 6889,6934 6764,6809 6639,6934 Z"/>
 <path fill="rgb(255,0,0)" stroke="none" d="M 9336,11005 L 9461,11130 9586,11005 9461,10880 9336,11005 Z"/>
 <path fill="none" stroke="rgb(255,0,0)" stroke-linejoin="round" d="M 9336,11005 L 9461,11130 9586,11005 9461,10880 9336,11005 Z"/>
 <path fill="rgb(255,0,0)" stroke="none" d="M 12033,14181 L 12158,14306 12283,14181 12158,14056 12033,14181 Z"/>
 <path fill="none" stroke="rgb(255,0,0)" stroke-linejoin="round" d="M 12033,14181 L 12158,14306 12283,14181 12158,14056 12033,14181 Z"/>
 <path fill="rgb(255,0,0)" stroke="none" d="M 14729,16313 L 14854,16438 14979,16313 14854,16188 14729,16313 Z"/>
 <path fill="none" stroke="rgb(255,0,0)" stroke-linejoin="round" d="M 14729,16313 L 14854,16438 14979,16313 14854,16188 14729,16313 Z"/>
 <path fill="rgb(255,0,0)" stroke="none" d="M 17425,11762 L 17550,11887 17675,11762 17550,11637 17425,11762 Z"/>
 <path fill="none" stroke="rgb(255,0,0)" stroke-linejoin="round" d="M 17425,11762 L 17550,11887 17675,11762 17550,11637 17425,11762 Z"/>
 <path fill="rgb(255,0,0)" stroke="none" d="M 20122,12326 L 20247,12451 20372,12326 20247,12201 20122,12326 Z"/>
 <path fill="none" stroke="rgb(255,0,0)" stroke-linejoin="round" d="M 20122,12326 L 20247,12451 20372,12326 20247,12201 20122,12326 Z"/>
 <path fill="rgb(255,0,0)" stroke="none" d="M 22819,5942 L 22944,6067 23069,5942 22944,5817 22819,5942 Z"/>
 <path fill="none" stroke="rgb(255,0,0)" stroke-linejoin="round" d="M 22819,5942 L 22944,6067 23069,5942 22944,5817 22819,5942 Z"/>
 <path fill="rgb(255,0,0)" stroke="none" d="M 25515,1699 L 25640,1824 25765,1699 25640,1574 25515,1699 Z"/>
 <path fill="none" stroke="rgb(255,0,0)" stroke-linejoin="round" d="M 25515,1699 L 25640,1824 25765,1699 25640,1574 25515,1699 Z"/>
 <path fill="none" stroke="rgb(255,204,255)" stroke-width="80" stroke-linejoin="round" stroke-dasharray="80,40" d="M 1371,10802 L 4067,3493 6764,6758 9461,5345 12158,8415 14854,3298 17550,9098 20247,4395 22944,12118 25640,7977"/>
 <path fill="rgb(255,204,255)" stroke="none" d="M 1246,10677 L 1371,10927 1496,10677 1246,10677 Z"/>
 <path fill="none" stroke="rgb(255,204,255)" stroke-linejoin="round" d="M 1246,10677 L 1371,10927 1496,10677 1246,10677 Z"/>
 <path fill="rgb(255,204,255)" stroke="none" d="M 3942,3368 L 4067,3618 4192,3368 3942,3368 Z"/>
 <path fill="none" stroke="rgb(255,204,255)" stroke-linejoin="round" d="M 3942,3368 L 4067,3618 4192,3368 3942,3368 Z"/>
 <path fill="rgb(255,204,255)" stroke="none" d="M 6639,6633 L 6764,6883 6889,6633 6639,6633 Z"/>
 <path fill="none" stroke="rgb(255,204,255)" stroke-linejoin="round" d="M 6639,6633 L 6764,6883 6889,6633 6639,6633 Z"/>
 <path fill="rgb(255,204,255)" stroke="none" d="M 9336,5220 L 9461,5470 9586,5220 9336,5220 Z"/>
 <path fill="none" stroke="rgb(255,204,255)" stroke-linejoin="round" d="M 9336,5220 L 9461,5470 9586,5220 9336,5220 Z"/>
 <path fill="rgb(255,204,255)" stroke="none" d="M 12033,8290 L 12158,8540 12283,8290 12033,8290 Z"/>
 <path fill="none" stroke="rgb(255,204,255)" stroke-linejoin="round" d="M 12033,8290 L 12158,8540 12283,8290 12033,8290 Z"/>
 <path fill="rgb(255,204,255)" stroke="none" d="M 14729,3173 L 14854,3423 14979,3173 14729,3173 Z"/>
 <path fill="none" stroke="rgb(255,204,255)" stroke-linejoin="round" d="M 14729,3173 L 14854,3423 14979,3173 14729,3173 Z"/>
 <path fill="rgb(255,204,255)" stroke="none" d="M 17425,8973 L 17550,9223 17675,8973 17425,8973 Z"/>
 <path fill="none" stroke="rgb(255,204,255)" stroke-linejoin="round" d="M 17425,8973 L 17550,9223 17675,8973 17425,8973 Z"/>
 <path fill="rgb(255,204,255)" stroke="none" d="M 20122,4270 L 20247,4520 20372,4270 20122,4270 Z"/>
 <path fill="none" stroke="rgb(255,204,255)" stroke-linejoin="round" d="M 20122,4270 L 20247,4520 20372,4270 20122,4270 Z"/>
 <path fill="rgb(255,204,255)" stroke="none" d="M 22819,11993 L 22944,12243 23069,11993 22819,11993 Z"/>
 <path fill="none" stroke="rgb(255,204,255)" stroke-linejoin="round" d="M 22819,11993 L 22944,12243 23069,11993 22819,11993 Z"/>
 <path fill="rgb(255,204,255)" stroke="none" d="M 25515,7852 L 25640,8102 25765,7852 25515,7852 Z"/>
 <path fill="none" stroke="rgb(255,204,255)" stroke-linejoin="round" d="M 25515,7852 L 25640,8102 25765,7852 25515,7852 Z"/>
 <path fill="none" stroke="rgb(255,204,255)" stroke-width="80" stroke-linejoin="round" d="M 1371,12199 L 4067,12774 6764,8106 9461,10632 12158,14256 14854,16057 17550,9183 20247,13137 22944,6635 25640,1849"/>
 <path fill="rgb(255,204,255)" stroke="none" d="M 1246,12324 L 1496,12324 1371,12074 1246,12324 Z"/>
 <path fill="none" stroke="rgb(255,204,255)" stroke-linejoin="round" d="M 1246,12324 L 1496,12324 1371,12074 1246,12324 Z"/>
 <path fill="rgb(255,204,255)" stroke="none" d="M 3942,12899 L 4192,12899 4067,12649 3942,12899 Z"/>
 <path fill="none" stroke="rgb(255,204,255)" stroke-linejoin="round" d="M 3942,12899 L 4192,12899 4067,12649 3942,12899 Z"/>
 <path fill="rgb(255,204,255)" stroke="none" d="M 6639,8231 L 6889,8231 6764,7981 6639,8231 Z"/>
 <path fill="none" stroke="rgb(255,204,255)" stroke-linejoin="round" d="M 6639,8231 L 6889,8231 6764,7981 6639,8231 Z"/>
 <path fill="rgb(255,204,255)" stroke="none" d="M 9336,10757 L 9586,10757 9461,10507 9336,10757 Z"/>
 <path fill="none" stroke="rgb(255,204,255)" stroke-linejoin="round" d="M 9336,10757 L 9586,10757 9461,10507 9336,10757 Z"/>
 <path fill="rgb(255,204,255)" stroke="none" d="M 12033,14381 L 12283,14381 12158,14131 12033,14381 Z"/>
 <path fill="none" stroke="rgb(255,204,255)" stroke-linejoin="round" d="M 12033,14381 L 12283,14381 12158,14131 12033,14381 Z"/>
 <path fill="rgb(255,204,255)" stroke="none" d="M 14729,16182 L 14979,16182 14854,15932 14729,16182 Z"/>
 <path fill="none" stroke="rgb(255,204,255)" stroke-linejoin="round" d="M 14729,16182 L 14979,16182 14854,15932 14729,16182 Z"/>
 <path fill="rgb(255,204,255)" stroke="none" d="M 17425,9308 L 17675,9308 17550,9058 17425,9308 Z"/>
 <path fill="none" stroke="rgb(255,204,255)" stroke-linejoin="round" d="M 17425,9308 L 17675,9308 17550,9058 17425,9308 Z"/>
 <path fill="rgb(255,204,255)" stroke="none" d="M 20122,13262 L 20372,13262 20247,13012 20122,13262 Z"/>
 <path fill="none" stroke="rgb(255,204,255)" stroke-linejoin="round" d="M 20122,13262 L 20372,13262 20247,13012 20122,13262 Z"/>
 <path fill="rgb(255,204,255)" stroke="none" d="M 22819,6760 L 23069,6760 22944,6510 22819,6760 Z"/>
 <path fill="none" stroke="rgb(255,204,255)" stroke-linejoin="round" d="M 22819,6760 L 23069,6760 22944,6510 22819,6760 Z"/>
 <path fill="rgb(255,204,255)" stroke="none" d="M 25515,1974 L 25765,1974 25640,1724 25515,1974 Z"/>
 <path fill="none" stroke="rgb(255,204,255)" stroke-linejoin="round" d="M 25515,1974 L 25765,1974 25640,1724 25515,1974 Z"/>
 <path fill="none" stroke="rgb(0,153,51)" stroke-width="80" stroke-linejoin="round" stroke-dasharray="80,40" d="M 1371,3786 L 4067,4809 6764,6637 9461,4882 12158,2762 14854,2031 17550,3737 20247,3079 22944,4151 25640,4249"/>
 <path fill="rgb(0,153,51)" stroke="none" d="M 1246,3661 L 1246,3911 1496,3786 1246,3661 Z"/>
 <path fill="none" stroke="rgb(0,153,51)" stroke-linejoin="round" d="M 1246,3661 L 1246,3911 1496,3786 1246,3661 Z"/>
 <path fill="rgb(0,153,51)" stroke="none" d="M 3942,4684 L 3942,4934 4192,4809 3942,4684 Z"/>
 <path fill="none" stroke="rgb(0,153,51)" stroke-linejoin="round" d="M 3942,4684 L 3942,4934 4192,4809 3942,4684 Z"/>
 <path fill="rgb(0,153,51)" stroke="none" d="M 6639,6512 L 6639,6762 6889,6637 6639,6512 Z"/>
 <path fill="none" stroke="rgb(0,153,51)" stroke-linejoin="round" d="M 6639,6512 L 6639,6762 6889,6637 6639,6512 Z"/>
 <path fill="rgb(0,153,51)" stroke="none" d="M 9336,4757 L 9336,5007 9586,4882 9336,4757 Z"/>
 <path fill="none" stroke="rgb(0,153,51)" stroke-linejoin="round" d="M 9336,4757 L 9336,5007 9586,4882 9336,4757 Z"/>
 <path fill="rgb(0,153,51)" stroke="none" d="M 12033,2637 L 12033,2887 12283,2762 12033,2637 Z"/>
 <path fill="none" stroke="rgb(0,153,51)" stroke-linejoin="round" d="M 12033,2637 L 12033,2887 12283,2762 12033,2637 Z"/>
 <path fill="rgb(0,153,51)" stroke="none" d="M 14729,1906 L 14729,2156 14979,2031 14729,1906 Z"/>
 <path fill="none" stroke="rgb(0,153,51)" stroke-linejoin="round" d="M 14729,1906 L 14729,2156 14979,2031 14729,1906 Z"/>
 <path fill="rgb(0,153,51)" stroke="none" d="M 17425,3612 L 17425,3862 17675,3737 17425,3612 Z"/>
 <path fill="none" stroke="rgb(0,153,51)" stroke-linejoin="round" d="M 17425,3612 L 17425,3862 17675,3737 17425,3612 Z"/>
 <path fill="rgb(0,153,51)" stroke="none" d="M 20122,2954 L 20122,3204 20372,3079 20122,2954 Z"/>
 <path fill="none" stroke="rgb(0,153,51)" stroke-linejoin="round" d="M 20122,2954 L 20122,3204 20372,3079 20122,2954 Z"/>
 <path fill="rgb(0,153,51)" stroke="none" d="M 22819,4026 L 22819,4276 23069,4151 22819,4026 Z"/>
 <path fill="none" stroke="rgb(0,153,51)" stroke-linejoin="round" d="M 22819,4026 L 22819,4276 23069,4151 22819,4026 Z"/>
 <path fill="rgb(0,153,51)" stroke="none" d="M 25515,4124 L 25515,4374 25765,4249 25515,4124 Z"/>
 <path fill="none" stroke="rgb(0,153,51)" stroke-linejoin="round" d="M 25515,4124 L 25515,4374 25765,4249 25515,4124 Z"/>
 <path fill="none" stroke="rgb(0,153,51)" stroke-width="80" stroke-linejoin="round" d="M 1371,10696 L 4067,12945 6764,12966 9461,12422 12158,14427 14854,14853 17550,12614 20247,13584 22944,12828 25640,12593"/>
 <path fill="rgb(0,153,51)" stroke="none" d="M 1246,10696 L 1496,10821 1496,10571 1246,10696 Z"/>
 <path fill="none" stroke="rgb(0,153,51)" stroke-linejoin="round" d="M 1246,10696 L 1496,10821 1496,10571 1246,10696 Z"/>
 <path fill="rgb(0,153,51)" stroke="none" d="M 3942,12945 L 4192,13070 4192,12820 3942,12945 Z"/>
 <path fill="none" stroke="rgb(0,153,51)" stroke-linejoin="round" d="M 3942,12945 L 4192,13070 4192,12820 3942,12945 Z"/>
 <path fill="rgb(0,153,51)" stroke="none" d="M 6639,12966 L 6889,13091 6889,12841 6639,12966 Z"/>
 <path fill="none" stroke="rgb(0,153,51)" stroke-linejoin="round" d="M 6639,12966 L 6889,13091 6889,12841 6639,12966 Z"/>
 <path fill="rgb(0,153,51)" stroke="none" d="M 9336,12422 L 9586,12547 9586,12297 9336,12422 Z"/>
 <path fill="none" stroke="rgb(0,153,51)" stroke-linejoin="round" d="M 9336,12422 L 9586,12547 9586,12297 9336,12422 Z"/>
 <path fill="rgb(0,153,51)" stroke="none" d="M 12033,14427 L 12283,14552 12283,14302 12033,14427 Z"/>
 <path fill="none" stroke="rgb(0,153,51)" stroke-linejoin="round" d="M 12033,14427 L 12283,14552 12283,14302 12033,14427 Z"/>
 <path fill="rgb(0,153,51)" stroke="none" d="M 14729,14853 L 14979,14978 14979,14728 14729,14853 Z"/>
 <path fill="none" stroke="rgb(0,153,51)" stroke-linejoin="round" d="M 14729,14853 L 14979,14978 14979,14728 14729,14853 Z"/>
 <path fill="rgb(0,153,51)" stroke="none" d="M 17425,12614 L 17675,12739 17675,12489 17425,12614 Z"/>
 <path fill="none" stroke="rgb(0,153,51)" stroke-linejoin="round" d="M 17425,12614 L 17675,12739 17675,12489 17425,12614 Z"/>
 <path fill="rgb(0,153,51)" stroke="none" d="M 20122,13584 L 20372,13709 20372,13459 20122,13584 Z"/>
 <path fill="none" stroke="rgb(0,153,51)" stroke-linejoin="round" d="M 20122,13584 L 20372,13709 20372,13459 20122,13584 Z"/>
 <path fill="rgb(0,153,51)" stroke="none" d="M 22819,12828 L 23069,12953 23069,12703 22819,12828 Z"/>
 <path fill="none" stroke="rgb(0,153,51)" stroke-linejoin="round" d="M 22819,12828 L 23069,12953 23069,12703 22819,12828 Z"/>
 <path fill="rgb(0,153,51)" stroke="none" d="M 25515,12593 L 25765,12718 25765,12468 25515,12593 Z"/>
 <path fill="none" stroke="rgb(0,153,51)" stroke-linejoin="round" d="M 25515,12593 L 25765,12718 25765,12468 25515,12593 Z"/>
 <path fill="none" stroke="rgb(0,0,0)" stroke-width="30" stroke-linejoin="round" stroke-dasharray="51,51,51,51" d="M 1371,3664 L 4067,3664 6764,3664 9461,3664 12158,3664 14854,3664 17550,3664 20247,3664 22944,3664 25640,3664"/>
 <path fill="none" stroke="rgb(0,0,0)" stroke-width="30" stroke-linejoin="round" d="M 1371,12838 L 4067,12838 6764,12838 9461,12838 12158,12838 14854,12838 17550,12838 20247,12838 22944,12838 25640,12838"/>
 <text class="TextShape"><tspan class="TextParagraph" font-family="Liberation Sans" font-size="353px" font-weight="400"><tspan class="TextPosition" x="1133" y="18193"><tspan fill="rgb(0,0,0)" stroke="none">src</tspan></tspan></tspan></text>
 <text class="TextShape"><tspan class="TextParagraph" font-family="Liberation Sans" font-size="353px" font-weight="400"><tspan class="TextPosition" x="3485" y="18193"><tspan fill="rgb(0,0,0)" stroke="none">wdev_0</tspan></tspan></tspan></text>
 <text class="TextShape"><tspan class="TextParagraph" font-family="Liberation Sans" font-size="353px" font-weight="400"><tspan class="TextPosition" x="6340" y="18193"><tspan fill="rgb(0,0,0)" stroke="none">hm_0</tspan></tspan></tspan></text>
 <text class="TextShape"><tspan class="TextParagraph" font-family="Liberation Sans" font-size="353px" font-weight="400"><tspan class="TextPosition" x="8945" y="18193"><tspan fill="rgb(0,0,0)" stroke="none">mds_0</tspan></tspan></tspan></text>
 <text class="TextShape"><tspan class="TextParagraph" font-family="Liberation Sans" font-size="353px" font-weight="400"><tspan class="TextPosition" x="11734" y="18193"><tspan fill="rgb(0,0,0)" stroke="none">prn_0</tspan></tspan></tspan></text>
 <text class="TextShape"><tspan class="TextParagraph" font-family="Liberation Sans" font-size="353px" font-weight="400"><tspan class="TextPosition" x="14285" y="18193"><tspan fill="rgb(0,0,0)" stroke="none">rsrch_0</tspan></tspan></tspan></text>
 <text class="TextShape"><tspan class="TextParagraph" font-family="Liberation Sans" font-size="353px" font-weight="400"><tspan class="TextPosition" x="17127" y="18193"><tspan fill="rgb(0,0,0)" stroke="none">stg_0</tspan></tspan></tspan></text>
 <text class="TextShape"><tspan class="TextParagraph" font-family="Liberation Sans" font-size="353px" font-weight="400"><tspan class="TextPosition" x="19917" y="18193"><tspan fill="rgb(0,0,0)" stroke="none">ts_0</tspan></tspan></tspan></text>
 <text class="TextShape"><tspan class="TextParagraph" font-family="Liberation Sans" font-size="353px" font-weight="400"><tspan class="TextPosition" x="22521" y="18193"><tspan fill="rgb(0,0,0)" stroke="none">usr_0</tspan></tspan></tspan></text>
 <text class="TextShape"><tspan class="TextParagraph" font-family="Liberation Sans" font-size="353px" font-weight="400"><tspan class="TextPosition" x="25151" y="18193"><tspan fill="rgb(0,0,0)" stroke="none">web_0</tspan></tspan></tspan></text>
 <text class="TextShape"><tspan class="TextParagraph" font-family="Liberation Sans" font-size="353px" font-weight="400"><tspan class="TextPosition" x="936" y="17746"><tspan fill="rgb(0,0,0)" stroke="none">0</tspan></tspan></tspan></text>
 <text class="TextShape"><tspan class="TextParagraph" font-family="Liberation Sans" font-size="353px" font-weight="400"><tspan class="TextPosition" x="645" y="15309"><tspan fill="rgb(0,0,0)" stroke="none">0.1</tspan></tspan></tspan></text>
 <text class="TextShape"><tspan class="TextParagraph" font-family="Liberation Sans" font-size="353px" font-weight="400"><tspan class="TextPosition" x="645" y="12872"><tspan fill="rgb(0,0,0)" stroke="none">0.2</tspan></tspan></tspan></text>
 <text class="TextShape"><tspan class="TextParagraph" font-family="Liberation Sans" font-size="353px" font-weight="400"><tspan class="TextPosition" x="645" y="10436"><tspan fill="rgb(0,0,0)" stroke="none">0.3</tspan></tspan></tspan></text>
 <text class="TextShape"><tspan class="TextParagraph" font-family="Liberation Sans" font-size="353px" font-weight="400"><tspan class="TextPosition" x="645" y="7999"><tspan fill="rgb(0,0,0)" stroke="none">0.4</tspan></tspan></tspan></text>
 <text class="TextShape"><tspan class="TextParagraph" font-family="Liberation Sans" font-size="353px" font-weight="400"><tspan class="TextPosition" x="645" y="5563"><tspan fill="rgb(0,0,0)" stroke="none">0.5</tspan></tspan></tspan></text>
 <text class="TextShape"><tspan class="TextParagraph" font-family="Liberation Sans" font-size="353px" font-weight="400"><tspan class="TextPosition" x="645" y="3126"><tspan fill="rgb(0,0,0)" stroke="none">0.6</tspan></tspan></tspan></text>
 <text class="TextShape"><tspan class="TextParagraph" font-family="Liberation Sans" font-size="353px" font-weight="400"><tspan class="TextPosition" x="645" y="690"><tspan fill="rgb(0,0,0)" stroke="none">0.7</tspan></tspan></tspan></text>
 <text class="TextShape"><tspan class="TextParagraph" font-family="Liberation Sans" font-size="353px" font-weight="400"><tspan class="TextPosition" x="25890" y="17746"><tspan fill="rgb(0,0,0)" stroke="none">0</tspan></tspan></tspan></text>
 <text class="TextShape"><tspan class="TextParagraph" font-family="Liberation Sans" font-size="353px" font-weight="400"><tspan class="TextPosition" x="25890" y="15614"><tspan fill="rgb(0,0,0)" stroke="none">2</tspan></tspan></tspan></text>
 <text class="TextShape"><tspan class="TextParagraph" font-family="Liberation Sans" font-size="353px" font-weight="400"><tspan class="TextPosition" x="25890" y="13482"><tspan fill="rgb(0,0,0)" stroke="none">4</tspan></tspan></tspan></text>
 <text class="TextShape"><tspan class="TextParagraph" font-family="Liberation Sans" font-size="353px" font-weight="400"><tspan class="TextPosition" x="25890" y="11350"><tspan fill="rgb(0,0,0)" stroke="none">6</tspan></tspan></tspan></text>
 <text class="TextShape"><tspan class="TextParagraph" font-family="Liberation Sans" font-size="353px" font-weight="400"><tspan class="TextPosition" x="25890" y="9218"><tspan fill="rgb(0,0,0)" stroke="none">8</tspan></tspan></tspan></text>
 <text class="TextShape"><tspan class="TextParagraph" font-family="Liberation Sans" font-size="353px" font-weight="400"><tspan class="TextPosition" x="25890" y="7086"><tspan fill="rgb(0,0,0)" stroke="none">10</tspan></tspan></tspan></text>
 <text class="TextShape"><tspan class="TextParagraph" font-family="Liberation Sans" font-size="353px" font-weight="400"><tspan class="TextPosition" x="25890" y="4954"><tspan fill="rgb(0,0,0)" stroke="none">12</tspan></tspan></tspan></text>
 <text class="TextShape"><tspan class="TextParagraph" font-family="Liberation Sans" font-size="353px" font-weight="400"><tspan class="TextPosition" x="25890" y="2822"><tspan fill="rgb(0,0,0)" stroke="none">14</tspan></tspan></tspan></text>
 <text class="TextShape"><tspan class="TextParagraph" font-family="Liberation Sans" font-size="353px" font-weight="400"><tspan class="TextPosition" x="25890" y="690"><tspan fill="rgb(0,0,0)" stroke="none">16</tspan></tspan></tspan></text>
 <path fill="none" stroke="rgb(255,0,0)" stroke-width="80" stroke-linejoin="round" stroke-dasharray="80,40" d="M 27022,7579 L 28622,7579"/>
 <path fill="rgb(255,0,0)" stroke="none" d="M 27716,7474 L 27716,7684 27927,7684 27927,7474 27716,7474 Z"/>
 <path fill="none" stroke="rgb(255,0,0)" stroke-linejoin="round" d="M 27716,7474 L 27716,7684 27927,7684 27927,7474 27716,7474 Z"/>
 <path fill="none" stroke="rgb(255,0,0)" stroke-width="80" stroke-linejoin="round" d="M 27022,8077 L 28622,8077"/>
 <path fill="rgb(255,0,0)" stroke="none" d="M 27716,8077 L 27822,8182 27927,8077 27822,7972 27716,8077 Z"/>
 <path fill="none" stroke="rgb(255,0,0)" stroke-linejoin="round" d="M 27716,8077 L 27822,8182 27927,8077 27822,7972 27716,8077 Z"/>
 <path fill="none" stroke="rgb(255,204,255)" stroke-width="80" stroke-linejoin="round" stroke-dasharray="80,40" d="M 27022,8575 L 28622,8575"/>
 <path fill="rgb(255,204,255)" stroke="none" d="M 27716,8470 L 27822,8680 27927,8470 27716,8470 Z"/>
 <path fill="none" stroke="rgb(255,204,255)" stroke-linejoin="round" d="M 27716,8470 L 27822,8680 27927,8470 27716,8470 Z"/>
 <path fill="none" stroke="rgb(255,204,255)" stroke-width="80" stroke-linejoin="round" d="M 27022,9073 L 28622,9073"/>
 <path fill="rgb(255,204,255)" stroke="none" d="M 27716,9178 L 27927,9178 27822,8968 27716,9178 Z"/>
 <path fill="none" stroke="rgb(255,204,255)" stroke-linejoin="round" d="M 27716,9178 L 27927,9178 27822,8968 27716,9178 Z"/>
 <path fill="none" stroke="rgb(0,153,51)" stroke-width="80" stroke-linejoin="round" stroke-dasharray="80,40" d="M 27022,9570 L 28622,9570"/>
 <path fill="rgb(0,153,51)" stroke="none" d="M 27716,9465 L 27716,9675 27927,9570 27716,9465 Z"/>
 <path fill="none" stroke="rgb(0,153,51)" stroke-linejoin="round" d="M 27716,9465 L 27716,9675 27927,9570 27716,9465 Z"/>
 <path fill="none" stroke="rgb(0,153,51)" stroke-width="80" stroke-linejoin="round" d="M 27022,10068 L 28622,10068"/>
 <path fill="rgb(0,153,51)" stroke="none" d="M 27716,10068 L 27927,10173 27927,9963 27716,10068 Z"/>
 <path fill="none" stroke="rgb(0,153,51)" stroke-linejoin="round" d="M 27716,10068 L 27927,10173 27927,9963 27716,10068 Z"/>
 <path fill="none" stroke="rgb(0,0,0)" stroke-width="30" stroke-linejoin="round" stroke-dasharray="51,51,51,51" d="M 27022,10566 L 28622,10566"/>
 <path fill="none" stroke="rgb(0,0,0)" stroke-width="30" stroke-linejoin="round" d="M 27022,11064 L 28622,11064"/>
 <text class="TextShape"><tspan class="TextParagraph" font-family="Liberation Sans" font-size="353px" font-weight="400"><tspan class="TextPosition" x="28722" y="7699"><tspan fill="rgb(0,0,0)" stroke="none">o_hit</tspan></tspan></tspan></text>
 <text class="TextShape"><tspan class="TextParagraph" font-family="Liberation Sans" font-size="353px" font-weight="400"><tspan class="TextPosition" x="28722" y="8197"><tspan fill="rgb(0,0,0)" stroke="none">o_amp</tspan></tspan></tspan></text>
 <text class="TextShape"><tspan class="TextParagraph" font-family="Liberation Sans" font-size="353px" font-weight="400"><tspan class="TextPosition" x="28722" y="8695"><tspan fill="rgb(0,0,0)" stroke="none">other_hit</tspan></tspan></tspan></text>
 <text class="TextShape"><tspan class="TextParagraph" font-family="Liberation Sans" font-size="353px" font-weight="400"><tspan class="TextPosition" x="28722" y="9193"><tspan fill="rgb(0,0,0)" stroke="none">other_amp</tspan></tspan></tspan></text>
 <text class="TextShape"><tspan class="TextParagraph" font-family="Liberation Sans" font-size="353px" font-weight="400"><tspan class="TextPosition" x="28722" y="9690"><tspan fill="rgb(0,0,0)" stroke="none">wdev_hit</tspan></tspan></tspan></text>
 <text class="TextShape"><tspan class="TextParagraph" font-family="Liberation Sans" font-size="353px" font-weight="400"><tspan class="TextPosition" x="28722" y="10188"><tspan fill="rgb(0,0,0)" stroke="none">wdev_amp</tspan></tspan></tspan></text>
 <text class="TextShape"><tspan class="TextParagraph" font-family="Liberation Sans" font-size="353px" font-weight="400"><tspan class="TextPosition" x="28722" y="10686"><tspan fill="rgb(0,0,0)" stroke="none">standard_wdev_hit</tspan></tspan></tspan></text>
 <text class="TextShape"><tspan class="TextParagraph" font-family="Liberation Sans" font-size="353px" font-weight="400"><tspan class="TextPosition" x="28722" y="11184"><tspan fill="rgb(0,0,0)" stroke="none">standard_wdev_amp</tspan></tspan></tspan></text>
</svg>