<?xml version="1.0" encoding="UTF-8"?>
<!DOCTYPE svg PUBLIC "-//W3C//DTD SVG 1.1//EN" "http://www.w3.org/Graphics/SVG/1.1/DTD/svg11.dtd">
<svg width="239mm" height="168mm" viewBox="0 0 23900 16800" version="1.1" baseProfile="tiny" xmlns="http://www.w3.org/2000/svg" stroke-width="28.222" stroke-linejoin="round" xml:space="preserve">
 <path fill="rgb(255,255,255)" stroke="none" d="M 11945,16758 L 0,16758 0,0 23890,0 23890,16758 11945,16758 Z"/>
 <path fill="none" stroke="rgb(179,179,179)" stroke-linejoin="round" d="M 9444,15776 L 1204,15776 1204,1811 17684,1811 17684,15776 9444,15776 Z"/>
 <path fill="none" stroke="rgb(179,179,179)" stroke-linejoin="round" d="M 17684,15775 L 1204,15775"/>
 <path fill="none" stroke="rgb(179,179,179)" stroke-linejoin="round" d="M 17684,13779 L 1204,13779"/>
 <path fill="none" stroke="rgb(179,179,179)" stroke-linejoin="round" d="M 17684,11784 L 1204,11784"/>
 <path fill="none" stroke="rgb(179,179,179)" stroke-linejoin="round" d="M 17684,9789 L 1204,9789"/>
 <path fill="none" stroke="rgb(179,179,179)" stroke-linejoin="round" d="M 17684,7795 L 1204,7795"/>
 <path fill="none" stroke="rgb(179,179,179)" stroke-linejoin="round" d="M 17684,5800 L 1204,5800"/>
 <path fill="none" stroke="rgb(179,179,179)" stroke-linejoin="round" d="M 17684,3805 L 1204,3805"/>
 <path fill="none" stroke="rgb(179,179,179)" stroke-linejoin="round" d="M 17684,1810 L 1204,1810"/>
 <path fill="none" stroke="rgb(179,179,179)" stroke-linejoin="round" d="M 1204,15925 L 1204,15775"/>
 <path fill="none" stroke="rgb(179,179,179)" stroke-linejoin="round" d="M 1204,15925 L 1204,15775"/>
 <path fill="none" stroke="rgb(179,179,179)" stroke-linejoin="round" d="M 3035,15925 L 3035,15775"/>
 <path fill="none" stroke="rgb(179,179,179)" stroke-linejoin="round" d="M 3035,15925 L 3035,15775"/>
 <path fill="none" stroke="rgb(179,179,179)" stroke-linejoin="round" d="M 4866,15925 L 4866,15775"/>
 <path fill="none" stroke="rgb(179,179,179)" stroke-linejoin="round" d="M 4866,15925 L 4866,15775"/>
 <path fill="none" stroke="rgb(179,179,179)" stroke-linejoin="round" d="M 6697,15925 L 6697,15775"/>
 <path fill="none" stroke="rgb(179,179,179)" stroke-linejoin="round" d="M 6697,15925 L 6697,15775"/>
 <path fill="none" stroke="rgb(179,179,179)" stroke-linejoin="round" d="M 8528,15925 L 8528,15775"/>
 <path fill="none" stroke="rgb(179,179,179)" stroke-linejoin="round" d="M 8528,15925 L 8528,15775"/>
 <path fill="none" stroke="rgb(179,179,179)" stroke-linejoin="round" d="M 10360,15925 L 10360,15775"/>
 <path fill="none" stroke="rgb(179,179,179)" stroke-linejoin="round" d="M 10360,15925 L 10360,15775"/>
 <path fill="none" stroke="rgb(179,179,179)" stroke-linejoin="round" d="M 12190,15925 L 12190,15775"/>
 <path fill="none" stroke="rgb(179,179,179)" stroke-linejoin="round" d="M 12190,15925 L 12190,15775"/>
 <path fill="none" stroke="rgb(179,179,179)" stroke-linejoin="round" d="M 14021,15925 L 14021,15775"/>
 <path fill="none" stroke="rgb(179,179,179)" stroke-linejoin="round" d="M 14021,15925 L 14021,15775"/>
 <path fill="none" stroke="rgb(179,179,179)" stroke-linejoin="round" d="M 15852,15925 L 15852,15775"/>
 <path fill="none" stroke="rgb(179,179,179)" stroke-linejoin="round" d="M 15852,15925 L 15852,15775"/>
 <path fill="none" stroke="rgb(179,179,179)" stroke-linejoin="round" d="M 17684,15925 L 17684,15775"/>
 <path fill="none" stroke="rgb(179,179,179)" stroke-linejoin="round" d="M 17684,15925 L 17684,15775"/>
 <path fill="none" stroke="rgb(179,179,179)" stroke-linejoin="round" d="M 1204,15775 L 17684,15775"/>
 <path fill="none" stroke="rgb(179,179,179)" stroke-linejoin="round" d="M 1054,15775 L 1204,15775"/>
 <path fill="none" stroke="rgb(179,179,179)" stroke-linejoin="round" d="M 1054,15775 L 1204,15775"/>
 <path fill="none" stroke="rgb(179,179,179)" stroke-linejoin="round" d="M 1054,13779 L 1204,13779"/>
 <path fill="none" stroke="rgb(179,179,179)" stroke-linejoin="round" d="M 1054,13779 L 1204,13779"/>
 <path fill="none" stroke="rgb(179,179,179)" stroke-linejoin="round" d="M 1054,11784 L 1204,11784"/>
 <path fill="none" stroke="rgb(179,179,179)" stroke-linejoin="round" d="M 1054,11784 L 1204,11784"/>
 <path fill="none" stroke="rgb(179,179,179)" stroke-linejoin="round" d="M 1054,9789 L 1204,9789"/>
 <path fill="none" stroke="rgb(179,179,179)" stroke-linejoin="round" d="M 1054,9789 L 1204,9789"/>
 <path fill="none" stroke="rgb(179,179,179)" stroke-linejoin="round" d="M 1054,7795 L 1204,7795"/>
 <path fill="none" stroke="rgb(179,179,179)" stroke-linejoin="round" d="M 1054,7795 L 1204,7795"/>
 <path fill="none" stroke="rgb(179,179,179)" stroke-linejoin="round" d="M 1054,5800 L 1204,5800"/>
 <path fill="none" stroke="rgb(179,179,179)" stroke-linejoin="round" d="M 1054,5800 L 1204,5800"/>
 <path fill="none" stroke="rgb(179,179,179)" stroke-linejoin="round" d="M 1054,3805 L 1204,3805"/>
 <path fill="none" stroke="rgb(179,179,179)" stroke-linejoin="round" d="M 1054,3805 L 1204,3805"/>
 <path fill="none" stroke="rgb(179,179,179)" stroke-linejoin="round" d="M 1054,1810 L 1204,1810"/>
 <path fill="none" stroke="rgb(179,179,179)" stroke-linejoin="round" d="M 1054,1810 L 1204,1810"/>
 <path fill="none" stroke="rgb(179,179,179)" stroke-linejoin="round" d="M 1204,15775 L 1204,1810"/>
 <path fill="none" stroke="rgb(179,179,179)" stroke-linejoin="round" d="M 17834,15775 L 17684,15775"/>
 <path fill="none" stroke="rgb(179,179,179)" stroke-linejoin="round" d="M 17834,15775 L 17684,15775"/>
 <path fill="none" stroke="rgb(179,179,179)" stroke-linejoin="round" d="M 17834,14378 L 17684,14378"/>
 <path fill="none" stroke="rgb(179,179,179)" stroke-linejoin="round" d="M 17834,14378 L 17684,14378"/>
 <path fill="none" stroke="rgb(179,179,179)" stroke-linejoin="round" d="M 17834,12981 L 17684,12981"/>
 <path fill="none" stroke="rgb(179,179,179)" stroke-linejoin="round" d="M 17834,12981 L 17684,12981"/>
 <path fill="none" stroke="rgb(179,179,179)" stroke-linejoin="round" d="M 17834,11585 L 17684,11585"/>
 <path fill="none" stroke="rgb(179,179,179)" stroke-linejoin="round" d="M 17834,11585 L 17684,11585"/>
 <path fill="none" stroke="rgb(179,179,179)" stroke-linejoin="round" d="M 17834,10188 L 17684,10188"/>
 <path fill="none" stroke="rgb(179,179,179)" stroke-linejoin="round" d="M 17834,10188 L 17684,10188"/>
 <path fill="none" stroke="rgb(179,179,179)" stroke-linejoin="round" d="M 17834,8792 L 17684,8792"/>
 <path fill="none" stroke="rgb(179,179,179)" stroke-linejoin="round" d="M 17834,8792 L 17684,8792"/>
 <path fill="none" stroke="rgb(179,179,179)" stroke-linejoin="round" d="M 17834,7396 L 17684,7396"/>
 <path fill="none" stroke="rgb(179,179,179)" stroke-linejoin="round" d="M 17834,7396 L 17684,7396"/>
 <path fill="none" stroke="rgb(179,179,179)" stroke-linejoin="round" d="M 17834,5999 L 17684,5999"/>
 <path fill="none" stroke="rgb(179,179,179)" stroke-linejoin="round" d="M 17834,5999 L 17684,5999"/>
 <path fill="none" stroke="rgb(179,179,179)" stroke-linejoin="round" d="M 17834,4603 L 17684,4603"/>
 <path fill="none" stroke="rgb(179,179,179)" stroke-linejoin="round" d="M 17834,4603 L 17684,4603"/>
 <path fill="none" stroke="rgb(179,179,179)" stroke-linejoin="round" d="M 17834,3206 L 17684,3206"/>
 <path fill="none" stroke="rgb(179,179,179)" stroke-linejoin="round" d="M 17834,3206 L 17684,3206"/>
 <path fill="none" stroke="rgb(179,179,179)" stroke-linejoin="round" d="M 17834,1809 L 17684,1809"/>
 <path fill="none" stroke="rgb(179,179,179)" stroke-linejoin="round" d="M 17834,1809 L 17684,1809"/>
 <path fill="none" stroke="rgb(179,179,179)" stroke-linejoin="round" d="M 17684,15775 L 17684,1809"/>
 <path fill="none" stroke="rgb(255,0,0)" stroke-width="80" stroke-linejoin="round" stroke-dasharray="80,40" d="M 1204,10507 L 3035,4343 4866,6977 6697,5959 8528,7974 10360,9550 12190,6757 14021,4683 15852,11445 17684,7835"/>
 <path fill="rgb(255,0,0)" stroke="none" d="M 1079,10382 L 1079,10632 1329,10632 1329,10382 1079,10382 Z"/>
 <path fill="none" stroke="rgb(255,0,0)" stroke-linejoin="round" d="M 1079,10382 L 1079,10632 1329,10632 1329,10382 1079,10382 Z"/>
 <path fill="rgb(255,0,0)" stroke="none" d="M 2910,4218 L 2910,4468 3160,4468 3160,4218 2910,4218 Z"/>
 <path fill="none" stroke="rgb(255,0,0)" stroke-linejoin="round" d="M 2910,4218 L 2910,4468 3160,4468 3160,4218 2910,4218 Z"/>
 <path fill="rgb(255,0,0)" stroke="none" d="M 4741,6852 L 4741,7102 4991,7102 4991,6852 4741,6852 Z"/>
 <path fill="none" stroke="rgb(255,0,0)" stroke-linejoin="round" d="M 4741,6852 L 4741,7102 4991,7102 4991,6852 4741,6852 Z"/>
 <path fill="rgb(255,0,0)" stroke="none" d="M 6572,5834 L 6572,6084 6822,6084 6822,5834 6572,5834 Z"/>
 <path fill="none" stroke="rgb(255,0,0)" stroke-linejoin="round" d="M 6572,5834 L 6572,6084 6822,6084 6822,5834 6572,5834 Z"/>
 <path fill="rgb(255,0,0)" stroke="none" d="M 8403,7849 L 8403,8099 8653,8099 8653,7849 8403,7849 Z"/>
 <path fill="none" stroke="rgb(255,0,0)" stroke-linejoin="round" d="M 8403,7849 L 8403,8099 8653,8099 8653,7849 8403,7849 Z"/>
 <path fill="rgb(255,0,0)" stroke="none" d="M 10235,9425 L 10235,9675 10485,9675 10485,9425 10235,9425 Z"/>
 <path fill="none" stroke="rgb(255,0,0)" stroke-linejoin="round" d="M 10235,9425 L 10235,9675 10485,9675 10485,9425 10235,9425 Z"/>
 <path fill="rgb(255,0,0)" stroke="none" d="M 12065,6632 L 12065,6882 12315,6882 12315,6632 12065,6632 Z"/>
 <path fill="none" stroke="rgb(255,0,0)" stroke-linejoin="round" d="M 12065,6632 L 12065,6882 12315,6882 12315,6632 12065,6632 Z"/>
 <path fill="rgb(255,0,0)" stroke="none" d="M 13896,4558 L 13896,4808 14146,4808 14146,4558 13896,4558 Z"/>
 <path fill="none" stroke="rgb(255,0,0)" stroke-linejoin="round" d="M 13896,4558 L 13896,4808 14146,4808 14146,4558 13896,4558 Z"/>
 <path fill="rgb(255,0,0)" stroke="none" d="M 15727,11320 L 15727,11570 15977,11570 15977,11320 15727,11320 Z"/>
 <path fill="none" stroke="rgb(255,0,0)" stroke-linejoin="round" d="M 15727,11320 L 15727,11570 15977,11570 15977,11320 15727,11320 Z"/>
 <path fill="rgb(255,0,0)" stroke="none" d="M 17559,7710 L 17559,7960 17809,7960 17809,7710 17559,7710 Z"/>
 <path fill="none" stroke="rgb(255,0,0)" stroke-linejoin="round" d="M 17559,7710 L 17559,7960 17809,7960 17809,7710 17559,7710 Z"/>
 <path fill="none" stroke="rgb(255,0,0)" stroke-width="80" stroke-linejoin="round" d="M 1204,11236 L 3035,12639 4866,8771 6697,11438 8528,13519 10360,14916 12190,11934 14021,12304 15852,8122 17684,5343"/>
 <path fill="rgb(255,0,0)" stroke="none" d="M 1079,11236 L 1204,11361 1329,11236 1204,11111 1079,11236 Z"/>
 <path fill="none" stroke="rgb(255,0,0)" stroke-linejoin="round" d="M 1079,11236 L 1204,11361 1329,11236 1204,11111 1079,11236 Z"/>
 <path fill="rgb(255,0,0)" stroke="none" d="M 2910,12639 L 3035,12764 3160,12639 3035,12514 2910,12639 Z"/>
 <path fill="none" stroke="rgb(255,0,0)" stroke-linejoin="round" d="M 2910,12639 L 3035,12764 3160,12639 3035,12514 2910,12639 Z"/>
 <path fill="rgb(255,0,0)" stroke="none" d="M 4741,8771 L 4866,8896 4991,8771 4866,8646 4741,8771 Z"/>
 <path fill="none" stroke="rgb(255,0,0)" stroke-linejoin="round" d="M 4741,8771 L 4866,8896 4991,8771 4866,8646 4741,8771 Z"/>
 <path fill="rgb(255,0,0)" stroke="none" d="M 6572,11438 L 6697,11563 6822,11438 6697,11313 6572,11438 Z"/>
 <path fill="none" stroke="rgb(255,0,0)" stroke-linejoin="round" d="M 6572,11438 L 6697,11563 6822,11438 6697,11313 6572,11438 Z"/>
 <path fill="rgb(255,0,0)" stroke="none" d="M 8403,13519 L 8528,13644 8653,13519 8528,13394 8403,13519 Z"/>
 <path fill="none" stroke="rgb(255,0,0)" stroke-linejoin="round" d="M 8403,13519 L 8528,13644 8653,13519 8528,13394 8403,13519 Z"/>
 <path fill="rgb(255,0,0)" stroke="none" d="M 10235,14916 L 10360,15041 10485,14916 10360,14791 10235,14916 Z"/>
 <path fill="none" stroke="rgb(255,0,0)" stroke-linejoin="round" d="M 10235,14916 L 10360,15041 10485,14916 10360,14791 10235,14916 Z"/>
 <path fill="rgb(255,0,0)" stroke="none" d="M 12065,11934 L 12190,12059 12315,11934 12190,11809 12065,11934 Z"/>
 <path fill="none" stroke="rgb(255,0,0)" stroke-linejoin="round" d="M 12065,11934 L 12190,12059 12315,11934 12190,11809 12065,11934 Z"/>
 <path fill="rgb(255,0,0)" stroke="none" d="M 13896,12304 L 14021,12429 14146,12304 14021,12179 13896,12304 Z"/>
 <path fill="none" stroke="rgb(255,0,0)" stroke-linejoin="round" d="M 13896,12304 L 14021,12429 14146,12304 14021,12179 13896,12304 Z"/>
 <path fill="rgb(255,0,0)" stroke="none" d="M 15727,8122 L 15852,8247 15977,8122 15852,7997 15727,8122 Z"/>
 <path fill="none" stroke="rgb(255,0,0)" stroke-linejoin="round" d="M 15727,8122 L 15852,8247 15977,8122 15852,7997 15727,8122 Z"/>
 <path fill="rgb(255,0,0)" stroke="none" d="M 17559,5343 L 17684,5468 17809,5343 17684,5218 17559,5343 Z"/>
 <path fill="none" stroke="rgb(255,0,0)" stroke-linejoin="round" d="M 17559,5343 L 17684,5468 17809,5343 17684,5218 17559,5343 Z"/>
 <path fill="none" stroke="rgb(0,153,51)" stroke-width="80" stroke-linejoin="round" stroke-dasharray="80,40" d="M 1204,7955 L 3035,7875 4866,7955 6697,7775 8528,7256 10360,7595 12190,7915 14021,7815 15852,7735 17684,7955"/>
 <path fill="rgb(0,153,51)" stroke="none" d="M 1079,7830 L 1204,8080 1329,7830 1079,7830 Z"/>
 <path fill="none" stroke="rgb(0,153,51)" stroke-linejoin="round" d="M 1079,7830 L 1204,8080 1329,7830 1079,7830 Z"/>
 <path fill="rgb(0,153,51)" stroke="none" d="M 2910,7750 L 3035,8000 3160,7750 2910,7750 Z"/>
 <path fill="none" stroke="rgb(0,153,51)" stroke-linejoin="round" d="M 2910,7750 L 3035,8000 3160,7750 2910,7750 Z"/>
 <path fill="rgb(0,153,51)" stroke="none" d="M 4741,7830 L 4866,8080 4991,7830 4741,7830 Z"/>
 <path fill="none" stroke="rgb(0,153,51)" stroke-linejoin="round" d="M 4741,7830 L 4866,8080 4991,7830 4741,7830 Z"/>
 <path fill="rgb(0,153,51)" stroke="none" d="M 6572,7650 L 6697,7900 6822,7650 6572,7650 Z"/>
 <path fill="none" stroke="rgb(0,153,51)" stroke-linejoin="round" d="M 6572,7650 L 6697,7900 6822,7650 6572,7650 Z"/>
 <path fill="rgb(0,153,51)" stroke="none" d="M 8403,7131 L 8528,7381 8653,7131 8403,7131 Z"/>
 <path fill="none" stroke="rgb(0,153,51)" stroke-linejoin="round" d="M 8403,7131 L 8528,7381 8653,7131 8403,7131 Z"/>
 <path fill="rgb(0,153,51)" stroke="none" d="M 10235,7470 L 10360,7720 10485,7470 10235,7470 Z"/>
 <path fill="none" stroke="rgb(0,153,51)" stroke-linejoin="round" d="M 10235,7470 L 10360,7720 10485,7470 10235,7470 Z"/>
 <path fill="rgb(0,153,51)" stroke="none" d="M 12065,7790 L 12190,8040 12315,7790 12065,7790 Z"/>
 <path fill="none" stroke="rgb(0,153,51)" stroke-linejoin="round" d="M 12065,7790 L 12190,8040 12315,7790 12065,7790 Z"/>
 <path fill="rgb(0,153,51)" stroke="none" d="M 13896,7690 L 14021,7940 14146,7690 13896,7690 Z"/>
 <path fill="none" stroke="rgb(0,153,51)" stroke-linejoin="round" d="M 13896,7690 L 14021,7940 14146,7690 13896,7690 Z"/>
 <path fill="rgb(0,153,51)" stroke="none" d="M 15727,7610 L 15852,7860 15977,7610 15727,7610 Z"/>
 <path fill="none" stroke="rgb(0,153,51)" stroke-linejoin="round" d="M 15727,7610 L 15852,7860 15977,7610 15727,7610 Z"/>
 <path fill="rgb(0,153,51)" stroke="none" d="M 17559,7830 L 17684,8080 17809,7830 17559,7830 Z"/>
 <path fill="none" stroke="rgb(0,153,51)" stroke-linejoin="round" d="M 17559,7830 L 17684,8080 17809,7830 17559,7830 Z"/>
 <path fill="none" stroke="rgb(0,153,51)" stroke-width="80" stroke-linejoin="round" d="M 1204,3004 L 3035,5441 4866,4589 6697,5015 8528,7138 10360,7256 12190,5301 14021,5929 15852,5420 17684,5126"/>
 <path fill="rgb(0,153,51)" stroke="none" d="M 1079,3129 L 1329,3129 1204,2879 1079,3129 Z"/>
 <path fill="none" stroke="rgb(0,153,51)" stroke-linejoin="round" d="M 1079,3129 L 1329,3129 1204,2879 1079,3129 Z"/>
 <path fill="rgb(0,153,51)" stroke="none" d="M 2910,5566 L 3160,5566 3035,5316 2910,5566 Z"/>
 <path fill="none" stroke="rgb(0,153,51)" stroke-linejoin="round" d="M 2910,5566 L 3160,5566 3035,5316 2910,5566 Z"/>
 <path fill="rgb(0,153,51)" stroke="none" d="M 4741,4714 L 4991,4714 4866,4464 4741,4714 Z"/>
 <path fill="none" stroke="rgb(0,153,51)" stroke-linejoin="round" d="M 4741,4714 L 4991,4714 4866,4464 4741,4714 Z"/>
 <path fill="rgb(0,153,51)" stroke="none" d="M 6572,5140 L 6822,5140 6697,4890 6572,5140 Z"/>
 <path fill="none" stroke="rgb(0,153,51)" stroke-linejoin="round" d="M 6572,5140 L 6822,5140 6697,4890 6572,5140 Z"/>
 <path fill="rgb(0,153,51)" stroke="none" d="M 8403,7263 L 8653,7263 8528,7013 8403,7263 Z"/>
 <path fill="none" stroke="rgb(0,153,51)" stroke-linejoin="round" d="M 8403,7263 L 8653,7263 8528,7013 8403,7263 Z"/>
 <path fill="rgb(0,153,51)" stroke="none" d="M 10235,7381 L 10485,7381 10360,7131 10235,7381 Z"/>
 <path fill="none" stroke="rgb(0,153,51)" stroke-linejoin="round" d="M 10235,7381 L 10485,7381 10360,7131 10235,7381 Z"/>
 <path fill="rgb(0,153,51)" stroke="none" d="M 12065,5426 L 12315,5426 12190,5176 12065,5426 Z"/>
 <path fill="none" stroke="rgb(0,153,51)" stroke-linejoin="round" d="M 12065,5426 L 12315,5426 12190,5176 12065,5426 Z"/>
 <path fill="rgb(0,153,51)" stroke="none" d="M 13896,6054 L 14146,6054 14021,5804 13896,6054 Z"/>
 <path fill="none" stroke="rgb(0,153,51)" stroke-linejoin="round" d="M 13896,6054 L 14146,6054 14021,5804 13896,6054 Z"/>
 <path fill="rgb(0,153,51)" stroke="none" d="M 15727,5545 L 15977,5545 15852,5295 15727,5545 Z"/>
 <path fill="none" stroke="rgb(0,153,51)" stroke-linejoin="round" d="M 15727,5545 L 15977,5545 15852,5295 15727,5545 Z"/>
 <path fill="rgb(0,153,51)" stroke="none" d="M 17559,5251 L 17809,5251 17684,5001 17559,5251 Z"/>
 <path fill="none" stroke="rgb(0,153,51)" stroke-linejoin="round" d="M 17559,5251 L 17809,5251 17684,5001 17559,5251 Z"/>
 <path fill="none" stroke="rgb(255,204,255)" stroke-width="80" stroke-linejoin="round" stroke-dasharray="80,40" d="M 1204,10727 L 3035,4822 4866,7057 6697,7097 8528,8512 10360,3246 12190,6179 14021,5121 15852,11525 17684,7795"/>
 <path fill="rgb(255,204,255)" stroke="none" d="M 1079,10602 L 1079,10852 1329,10727 1079,10602 Z"/>
 <path fill="none" stroke="rgb(255,204,255)" stroke-linejoin="round" d="M 1079,10602 L 1079,10852 1329,10727 1079,10602 Z"/>
 <path fill="rgb(255,204,255)" stroke="none" d="M 2910,4697 L 2910,4947 3160,4822 2910,4697 Z"/>
 <path fill="none" stroke="rgb(255,204,255)" stroke-linejoin="round" d="M 2910,4697 L 2910,4947 3160,4822 2910,4697 Z"/>
 <path fill="rgb(255,204,255)" stroke="none" d="M 4741,6932 L 4741,7182 4991,7057 4741,6932 Z"/>
 <path fill="none" stroke="rgb(255,204,255)" stroke-linejoin="round" d="M 4741,6932 L 4741,7182 4991,7057 4741,6932 Z"/>
 <path fill="rgb(255,204,255)" stroke="none" d="M 6572,6972 L 6572,7222 6822,7097 6572,6972 Z"/>
 <path fill="none" stroke="rgb(255,204,255)" stroke-linejoin="round" d="M 6572,6972 L 6572,7222 6822,7097 6572,6972 Z"/>
 <path fill="rgb(255,204,255)" stroke="none" d="M 8403,8387 L 8403,8637 8653,8512 8403,8387 Z"/>
 <path fill="none" stroke="rgb(255,204,255)" stroke-linejoin="round" d="M 8403,8387 L 8403,8637 8653,8512 8403,8387 Z"/>
 <path fill="rgb(255,204,255)" stroke="none" d="M 10235,3121 L 10235,3371 10485,3246 10235,3121 Z"/>
 <path fill="none" stroke="rgb(255,204,255)" stroke-linejoin="round" d="M 10235,3121 L 10235,3371 10485,3246 10235,3121 Z"/>
 <path fill="rgb(255,204,255)" stroke="none" d="M 12065,6054 L 12065,6304 12315,6179 12065,6054 Z"/>
 <path fill="none" stroke="rgb(255,204,255)" stroke-linejoin="round" d="M 12065,6054 L 12065,6304 12315,6179 12065,6054 Z"/>
 <path fill="rgb(255,204,255)" stroke="none" d="M 13896,4996 L 13896,5246 14146,5121 13896,4996 Z"/>
 <path fill="none" stroke="rgb(255,204,255)" stroke-linejoin="round" d="M 13896,4996 L 13896,5246 14146,5121 13896,4996 Z"/>
 <path fill="rgb(255,204,255)" stroke="none" d="M 15727,11400 L 15727,11650 15977,11525 15727,11400 Z"/>
 <path fill="none" stroke="rgb(255,204,255)" stroke-linejoin="round" d="M 15727,11400 L 15727,11650 15977,11525 15727,11400 Z"/>
 <path fill="rgb(255,204,255)" stroke="none" d="M 17559,7670 L 17559,7920 17809,7795 17559,7670 Z"/>
 <path fill="none" stroke="rgb(255,204,255)" stroke-linejoin="round" d="M 17559,7670 L 17559,7920 17809,7795 17559,7670 Z"/>
 <path fill="none" stroke="rgb(255,204,255)" stroke-width="80" stroke-linejoin="round" d="M 1204,12115 L 3035,12479 4866,8917 6697,11326 8528,13372 10360,14434 12190,11403 14021,12150 15852,7829 17684,5490"/>
 <path fill="rgb(255,204,255)" stroke="none" d="M 1079,12115 L 1329,12240 1329,11990 1079,12115 Z"/>
 <path fill="none" stroke="rgb(255,204,255)" stroke-linejoin="round" d="M 1079,12115 L 1329,12240 1329,11990 1079,12115 Z"/>
 <path fill="rgb(255,204,255)" stroke="none" d="M 2910,12479 L 3160,12604 3160,12354 2910,12479 Z"/>
 <path fill="none" stroke="rgb(255,204,255)" stroke-linejoin="round" d="M 2910,12479 L 3160,12604 3160,12354 2910,12479 Z"/>
 <path fill="rgb(255,204,255)" stroke="none" d="M 4741,8917 L 4991,9042 4991,8792 4741,8917 Z"/>
 <path fill="none" stroke="rgb(255,204,255)" stroke-linejoin="round" d="M 4741,8917 L 4991,9042 4991,8792 4741,8917 Z"/>
 <path fill="rgb(255,204,255)" stroke="none" d="M 6572,11326 L 6822,11451 6822,11201 6572,11326 Z"/>
 <path fill="none" stroke="rgb(255,204,255)" stroke-linejoin="round" d="M 6572,11326 L 6822,11451 6822,11201 6572,11326 Z"/>
 <path fill="rgb(255,204,255)" stroke="none" d="M 8403,13372 L 8653,13497 8653,13247 8403,13372 Z"/>
 <path fill="none" stroke="rgb(255,204,255)" stroke-linejoin="round" d="M 8403,13372 L 8653,13497 8653,13247 8403,13372 Z"/>
 <path fill="rgb(255,204,255)" stroke="none" d="M 10235,14434 L 10485,14559 10485,14309 10235,14434 Z"/>
 <path fill="none" stroke="rgb(255,204,255)" stroke-linejoin="round" d="M 10235,14434 L 10485,14559 10485,14309 10235,14434 Z"/>
 <path fill="rgb(255,204,255)" stroke="none" d="M 12065,11403 L 12315,11528 12315,11278 12065,11403 Z"/>
 <path fill="none" stroke="rgb(255,204,255)" stroke-linejoin="round" d="M 12065,11403 L 12315,11528 12315,11278 12065,11403 Z"/>
 <path fill="rgb(255,204,255)" stroke="none" d="M 13896,12150 L 14146,12275 14146,12025 13896,12150 Z"/>
 <path fill="none" stroke="rgb(255,204,255)" stroke-linejoin="round" d="M 13896,12150 L 14146,12275 14146,12025 13896,12150 Z"/>
 <path fill="rgb(255,204,255)" stroke="none" d="M 15727,7829 L 15977,7954 15977,7704 15727,7829 Z"/>
 <path fill="none" stroke="rgb(255,204,255)" stroke-linejoin="round" d="M 15727,7829 L 15977,7954 15977,7704 15727,7829 Z"/>
 <path fill="rgb(255,204,255)" stroke="none" d="M 17559,5490 L 17809,5615 17809,5365 17559,5490 Z"/>
 <path fill="none" stroke="rgb(255,204,255)" stroke-linejoin="round" d="M 17559,5490 L 17809,5615 17809,5365 17559,5490 Z"/>
 <path fill="none" stroke="rgb(0,0,0)" stroke-width="30" stroke-linejoin="round" stroke-dasharray="30,15" d="M 1204,7835 L 3035,7835 4866,7835 6697,7835 8528,7835 10360,7835 12190,7835 14021,7835 15852,7835 17684,7835"/>
 <path fill="none" stroke="rgb(0,0,0)" stroke-width="30" stroke-linejoin="round" d="M 1204,5343 L 3035,5343 4866,5343 6697,5343 8528,5343 10360,5343 12190,5343 14021,5343 15852,5343 17684,5343"/>
 <text class="TextShape"><tspan class="TextParagraph" font-family="Liberation Sans" font-size="353px" font-weight="400"><tspan class="TextPosition" x="966" y="16343"><tspan fill="rgb(0,0,0)" stroke="none">src</tspan></tspan></tspan></text>
 <text class="TextShape"><tspan class="TextParagraph" font-family="Liberation Sans" font-size="353px" font-weight="400"><tspan class="TextPosition" x="2453" y="16343"><tspan fill="rgb(0,0,0)" stroke="none">wdev_0</tspan></tspan></tspan></text>
 <text class="TextShape"><tspan class="TextParagraph" font-family="Liberation Sans" font-size="353px" font-weight="400"><tspan class="TextPosition" x="4442" y="16343"><tspan fill="rgb(0,0,0)" stroke="none">hm_0</tspan></tspan></tspan></text>
 <text class="TextShape"><tspan class="TextParagraph" font-family="Liberation Sans" font-size="353px" font-weight="400"><tspan class="TextPosition" x="6181" y="16343"><tspan fill="rgb(0,0,0)" stroke="none">mds_0</tspan></tspan></tspan></text>
 <text class="TextShape"><tspan class="TextParagraph" font-family="Liberation Sans" font-size="353px" font-weight="400"><tspan class="TextPosition" x="8104" y="16343"><tspan fill="rgb(0,0,0)" stroke="none">prn_0</tspan></tspan></tspan></text>
 <text class="TextShape"><tspan class="TextParagraph" font-family="Liberation Sans" font-size="353px" font-weight="400"><tspan class="TextPosition" x="9791" y="16343"><tspan fill="rgb(0,0,0)" stroke="none">rsrch_0</tspan></tspan></tspan></text>
 <text class="TextShape"><tspan class="TextParagraph" font-family="Liberation Sans" font-size="353px" font-weight="400"><tspan class="TextPosition" x="11767" y="16343"><tspan fill="rgb(0,0,0)" stroke="none">stg_0</tspan></tspan></tspan></text>
 <text class="TextShape"><tspan class="TextParagraph" font-family="Liberation Sans" font-size="353px" font-weight="400"><tspan class="TextPosition" x="13691" y="16343"><tspan fill="rgb(0,0,0)" stroke="none">ts_0</tspan></tspan></tspan></text>
 <text class="TextShape"><tspan class="TextParagraph" font-family="Liberation Sans" font-size="353px" font-weight="400"><tspan class="TextPosition" x="15429" y="16343"><tspan fill="rgb(0,0,0)" stroke="none">usr_0</tspan></tspan></tspan></text>
 <text class="TextShape"><tspan class="TextParagraph" font-family="Liberation Sans" font-size="353px" font-weight="400"><tspan class="TextPosition" x="17195" y="16343"><tspan fill="rgb(0,0,0)" stroke="none">web_0</tspan></tspan></tspan></text>
 <text class="TextShape"><tspan class="TextParagraph" font-family="Liberation Sans" font-size="353px" font-weight="400"><tspan class="TextPosition" x="769" y="15896"><tspan fill="rgb(0,0,0)" stroke="none">0</tspan></tspan></tspan></text>
 <text class="TextShape"><tspan class="TextParagraph" font-family="Liberation Sans" font-size="353px" font-weight="400"><tspan class="TextPosition" x="478" y="13900"><tspan fill="rgb(0,0,0)" stroke="none">0.1</tspan></tspan></tspan></text>
 <text class="TextShape"><tspan class="TextParagraph" font-family="Liberation Sans" font-size="353px" font-weight="400"><tspan class="TextPosition" x="478" y="11905"><tspan fill="rgb(0,0,0)" stroke="none">0.2</tspan></tspan></tspan></text>
 <text class="TextShape"><tspan class="TextParagraph" font-family="Liberation Sans" font-size="353px" font-weight="400"><tspan class="TextPosition" x="478" y="9910"><tspan fill="rgb(0,0,0)" stroke="none">0.3</tspan></tspan></tspan></text>
 <text class="TextShape"><tspan class="TextParagraph" font-family="Liberation Sans" font-size="353px" font-weight="400"><tspan class="TextPosition" x="478" y="7915"><tspan fill="rgb(0,0,0)" stroke="none">0.4</tspan></tspan></tspan></text>
 <text class="TextShape"><tspan class="TextParagraph" font-family="Liberation Sans" font-size="353px" font-weight="400"><tspan class="TextPosition" x="478" y="5920"><tspan fill="rgb(0,0,0)" stroke="none">0.5</tspan></tspan></tspan></text>
 <text class="TextShape"><tspan class="TextParagraph" font-family="Liberation Sans" font-size="353px" font-weight="400"><tspan class="TextPosition" x="478" y="3925"><tspan fill="rgb(0,0,0)" stroke="none">0.6</tspan></tspan></tspan></text>
 <text class="TextShape"><tspan class="TextParagraph" font-family="Liberation Sans" font-size="353px" font-weight="400"><tspan class="TextPosition" x="478" y="1930"><tspan fill="rgb(0,0,0)" stroke="none">0.7</tspan></tspan></tspan></text>
 <text class="TextShape"><tspan class="TextParagraph" font-family="Liberation Sans" font-size="353px" font-weight="400"><tspan class="TextPosition" x="17934" y="15896"><tspan fill="rgb(0,0,0)" stroke="none">0</tspan></tspan></tspan></text>
 <text class="TextShape"><tspan class="TextParagraph" font-family="Liberation Sans" font-size="353px" font-weight="400"><tspan class="TextPosition" x="17934" y="14499"><tspan fill="rgb(0,0,0)" stroke="none">2</tspan></tspan></tspan></text>
 <text class="TextShape"><tspan class="TextParagraph" font-family="Liberation Sans" font-size="353px" font-weight="400"><tspan class="TextPosition" x="17934" y="13102"><tspan fill="rgb(0,0,0)" stroke="none">4</tspan></tspan></tspan></text>
 <text class="TextShape"><tspan class="TextParagraph" font-family="Liberation Sans" font-size="353px" font-weight="400"><tspan class="TextPosition" x="17934" y="11706"><tspan fill="rgb(0,0,0)" stroke="none">6</tspan></tspan></tspan></text>
 <text class="TextShape"><tspan class="TextParagraph" font-family="Liberation Sans" font-size="353px" font-weight="400"><tspan class="TextPosition" x="17934" y="10309"><tspan fill="rgb(0,0,0)" stroke="none">8</tspan></tspan></tspan></text>
 <text class="TextShape"><tspan class="TextParagraph" font-family="Liberation Sans" font-size="353px" font-weight="400"><tspan class="TextPosition" x="17934" y="8913"><tspan fill="rgb(0,0,0)" stroke="none">10</tspan></tspan></tspan></text>
 <text class="TextShape"><tspan class="TextParagraph" font-family="Liberation Sans" font-size="353px" font-weight="400"><tspan class="TextPosition" x="17934" y="7516"><tspan fill="rgb(0,0,0)" stroke="none">12</tspan></tspan></tspan></text>
 <text class="TextShape"><tspan class="TextParagraph" font-family="Liberation Sans" font-size="353px" font-weight="400"><tspan class="TextPosition" x="17934" y="6119"><tspan fill="rgb(0,0,0)" stroke="none">14</tspan></tspan></tspan></text>
 <text class="TextShape"><tspan class="TextParagraph" font-family="Liberation Sans" font-size="353px" font-weight="400"><tspan class="TextPosition" x="17934" y="4723"><tspan fill="rgb(0,0,0)" stroke="none">16</tspan></tspan></tspan></text>
 <text class="TextShape"><tspan class="TextParagraph" font-family="Liberation Sans" font-size="353px" font-weight="400"><tspan class="TextPosition" x="17934" y="3326"><tspan fill="rgb(0,0,0)" stroke="none">18</tspan></tspan></tspan></text>
 <text class="TextShape"><tspan class="TextParagraph" font-family="Liberation Sans" font-size="353px" font-weight="400"><tspan class="TextPosition" x="17934" y="1929"><tspan fill="rgb(0,0,0)" stroke="none">20</tspan></tspan></tspan></text>
 <text class="TextShape"><tspan class="TextParagraph" font-family="Liberation Sans" font-size="459px" font-weight="400"><tspan class="TextPosition" x="11548" y="1032"><tspan fill="rgb(0,0,0)" stroke="none">web</tspan></tspan></tspan></text>
 <path fill="none" stroke="rgb(255,0,0)" stroke-width="80" stroke-linejoin="round" stroke-dasharray="80,40" d="M 18899,6635 L 20499,6635"/>
 <path fill="rgb(255,0,0)" stroke="none" d="M 19593,6530 L 19593,6740 19804,6740 19804,6530 19593,6530 Z"/>
 <path fill="none" stroke="rgb(255,0,0)" stroke-linejoin="round" d="M 19593,6530 L 19593,6740 19804,6740 19804,6530 19593,6530 Z"/>
 <path fill="none" stroke="rgb(255,0,0)" stroke-width="80" stroke-linejoin="round" d="M 18899,7133 L 20499,7133"/>
 <path fill="rgb(255,0,0)" stroke="none" d="M 19593,7133 L 19699,7238 19804,7133 19699,7028 19593,7133 Z"/>
 <path fill="none" stroke="rgb(255,0,0)" stroke-linejoin="round" d="M 19593,7133 L 19699,7238 19804,7133 19699,7028 19593,7133 Z"/>
 <path fill="none" stroke="rgb(0,153,51)" stroke-width="80" stroke-linejoin="round" stroke-dasharray="80,40" d="M 18899,7631 L 20499,7631"/>
 <path fill="rgb(0,153,51)" stroke="none" d="M 19593,7526 L 19699,7736 19804,7526 19593,7526 Z"/>
 <path fill="none" stroke="rgb(0,153,51)" stroke-linejoin="round" d="M 19593,7526 L 19699,7736 19804,7526 19593,7526 Z"/>
 <path fill="none" stroke="rgb(0,153,51)" stroke-width="80" stroke-linejoin="round" d="M 18899,8129 L 20499,8129"/>
 <path fill="rgb(0,153,51)" stroke="none" d="M 19593,8234 L 19804,8234 19699,8024 19593,8234 Z"/>
 <path fill="none" stroke="rgb(0,153,51)" stroke-linejoin="round" d="M 19593,8234 L 19804,8234 19699,8024 19593,8234 Z"/>
 <path fill="none" stroke="rgb(255,204,255)" stroke-width="80" stroke-linejoin="round" stroke-dasharray="80,40" d="M 18899,8626 L 20499,8626"/>
 <path fill="rgb(255,204,255)" stroke="none" d="M 19593,8521 L 19593,8731 19804,8626 19593,8521 Z"/>
 <path fill="none" stroke="rgb(255,204,255)" stroke-linejoin="round" d="M 19593,8521 L 19593,8731 19804,8626 19593,8521 Z"/>
 <path fill="none" stroke="rgb(255,204,255)" stroke-width="80" stroke-linejoin="round" d="M 18899,9124 L 20499,9124"/>
 <path fill="rgb(255,204,255)" stroke="none" d="M 19593,9124 L 19804,9229 19804,9019 19593,9124 Z"/>
 <path fill="none" stroke="rgb(255,204,255)" stroke-linejoin="round" d="M 19593,9124 L 19804,9229 19804,9019 19593,9124 Z"/>
 <path fill="none" stroke="rgb(0,0,0)" stroke-width="30" stroke-linejoin="round" stroke-dasharray="30,15" d="M 18899,9622 L 20499,9622"/>
 <path fill="none" stroke="rgb(0,0,0)" stroke-width="30" stroke-linejoin="round" d="M 18899,10120 L 20499,10120"/>
 <text class="TextShape"><tspan class="TextParagraph" font-family="Liberation Sans" font-size="353px" font-weight="400"><tspan class="TextPosition" x="20599" y="6755"><tspan fill="rgb(0,0,0)" stroke="none">o_hit</tspan></tspan></tspan></text>
 <text class="TextShape"><tspan class="TextParagraph" font-family="Liberation Sans" font-size="353px" font-weight="400"><tspan class="TextPosition" x="20599" y="7253"><tspan fill="rgb(0,0,0)" stroke="none">o_amp</tspan></tspan></tspan></text>
 <text class="TextShape"><tspan class="TextParagraph" font-family="Liberation Sans" font-size="353px" font-weight="400"><tspan class="TextPosition" x="20599" y="7751"><tspan fill="rgb(0,0,0)" stroke="none">web_hit</tspan></tspan></tspan></text>
 <text class="TextShape"><tspan class="TextParagraph" font-family="Liberation Sans" font-size="353px" font-weight="400"><tspan class="TextPosition" x="20599" y="8249"><tspan fill="rgb(0,0,0)" stroke="none">web_amp</tspan></tspan></tspan></text>
 <text class="TextShape"><tspan class="TextParagraph" font-family="Liberation Sans" font-size="353px" font-weight="400"><tspan class="TextPosition" x="20599" y="8746"><tspan fill="rgb(0,0,0)" stroke="none">other_hit</tspan></tspan></tspan></text>
 <text class="TextShape"><tspan class="TextParagraph" font-family="Liberation Sans" font-size="353px" font-weight="400"><tspan class="TextPosition" x="20599" y="9244"><tspan fill="rgb(0,0,0)" stroke="none">other_amp</tspan></tspan></tspan></text>
 <text class="TextShape"><tspan class="TextParagraph" font-family="Liberation Sans" font-size="353px" font-weight="400"><tspan class="TextPosition" x="20599" y="9742"><tspan fill="rgb(0,0,0)" stroke="none">standard_web_hit</tspan></tspan></tspan></text>
 <text class="TextShape"><tspan class="TextParagraph" font-family="Liberation Sans" font-size="353px" font-weight="400"><tspan class="TextPosition" x="20599" y="10240"><tspan fill="rgb(0,0,0)" stroke="none">standard_web_amp</tspan></tspan></tspan></text>
</svg>